<svg width="376" height="376" viewBox="0 0 376 376" fill="none" xmlns="http://www.w3.org/2000/svg">
<mask id="mask0_7282_30580" style="mask-type:luminance" maskUnits="userSpaceOnUse" x="0" y="0" width="376" height="376">
<path d="M188 376C291.83 376 376 291.83 376 188C376 84.1705 291.83 0 188 0C84.1705 0 0 84.1705 0 188C0 291.83 84.1705 376 188 376Z" fill="white"/>
</mask>
<g mask="url(#mask0_7282_30580)">
<path d="M162.814 152.89C160.195 154.992 157.032 156.977 153.751 156.442C150.471 155.908 147.933 151.44 150.308 149.065C144.471 152.047 136.713 148.576 133.858 142.667C131.004 136.758 132.481 129.426 136.287 124.088C131.004 122.792 127.614 116.738 128.738 111.4C129.862 106.062 134.901 102.029 140.311 101.431C132.445 95.5037 130.686 82.9335 136.686 75.0851C142.686 67.2366 155.201 65.5056 163.041 71.4599C162.071 60.8926 172.484 51.3948 183.088 51.6485C193.691 51.9023 203.026 60.3126 206.307 70.3996C208.547 67.8674 211.641 66.2486 214.998 65.8522C218.356 65.4559 221.742 66.3097 224.51 68.2507C227.278 70.1917 229.234 73.084 230.006 76.3756C230.777 79.6672 230.31 83.1277 228.692 86.0965C232.761 84.8548 236.577 89.0328 237.755 93.1383C238.768 97.1402 238.48 101.361 236.933 105.188C235.387 109.015 232.663 112.251 229.154 114.427C232.046 113.421 234.402 117.3 234.012 120.336C233.269 126.036 226.762 130.251 221.279 128.619C224.27 131.429 223.916 136.558 221.496 139.875C219.077 143.192 215.152 145.032 211.282 146.392C205.673 148.376 199.673 149.654 193.773 148.866C190.365 148.404 187.076 147.271 183.668 146.881C179.911 146.478 176.112 146.962 172.576 148.296C169.041 149.629 165.868 151.774 163.313 154.557" fill="#6E3B46"/>
<path d="M181.883 197.878C175.89 197.878 170.144 195.498 165.906 191.261C161.669 187.024 159.289 181.277 159.289 175.285V143.302C159.289 137.309 161.669 131.563 165.906 127.326C170.144 123.088 175.89 120.708 181.883 120.708C187.875 120.708 193.622 123.088 197.859 127.326C202.096 131.563 204.476 137.309 204.476 143.302V175.285C204.476 178.252 203.892 181.19 202.756 183.931C201.621 186.672 199.957 189.163 197.859 191.261C195.761 193.359 193.27 195.023 190.529 196.158C187.788 197.294 184.85 197.878 181.883 197.878Z" fill="#FAB196"/>
<path opacity="0.4" d="M181.883 120.708C176.926 120.708 172.108 122.338 168.169 125.347C164.231 128.355 161.391 132.575 160.086 137.356L204.494 174.605V143.302C204.494 140.333 203.909 137.394 202.773 134.651C201.636 131.909 199.97 129.417 197.87 127.319C195.771 125.221 193.278 123.557 190.534 122.423C187.791 121.288 184.851 120.706 181.883 120.708Z" fill="#FC4E60"/>
<path d="M217.11 141.516C217.11 146.629 215.079 151.532 211.464 155.147C207.849 158.762 202.946 160.793 197.833 160.793H159.216V124.089C166.775 128.312 161.337 102.691 161.265 96.7278C174.215 91.7795 211.518 92.0151 214.192 100.434C214.474 102.081 214.613 103.749 214.609 105.419C214.609 118.723 217.11 129.146 217.11 141.516Z" fill="#FAB196"/>
<path d="M155.7 143.301C161.186 143.301 165.633 138.854 165.633 133.368C165.633 127.883 161.186 123.436 155.7 123.436C150.214 123.436 145.767 127.883 145.767 133.368C145.767 138.854 150.214 143.301 155.7 143.301Z" fill="#FAB196"/>
<path d="M158.6 136.078C158.778 135.068 158.676 134.028 158.304 133.072C157.932 132.116 157.304 131.281 156.49 130.657C155.675 130.033 154.705 129.645 153.685 129.535C152.666 129.425 151.635 129.597 150.706 130.033" stroke="#852D4C" stroke-width="1.92" stroke-linecap="round" stroke-linejoin="round"/>
<path d="M156.053 131.275C154.515 131.884 153.213 132.971 152.338 134.375" stroke="#852D4C" stroke-width="1.92" stroke-linecap="round" stroke-linejoin="round"/>
<path d="M158.799 123.255C159.769 127.46 163.648 133.804 165.751 133.006C168.143 132.1 166.458 125.928 165.053 122.711C165.642 123.617 166.231 124.524 166.865 125.43C167.155 125.865 167.509 126.336 168.025 126.336C168.932 126.427 169.294 125.122 169.276 124.161C169.161 118.016 169.047 111.86 168.932 105.691C185.245 99.6007 198.658 107.839 214.246 100.108C230.867 85.0548 130.206 66.8022 158.799 123.255Z" fill="#6E3B46"/>
<path opacity="0.35" d="M205.99 132.979C206.506 134.792 209.107 135.625 211.781 134.855C214.454 134.085 216.213 131.982 215.687 130.17C215.161 128.357 212.569 127.523 209.887 128.294C207.204 129.064 205.464 131.167 205.99 132.979Z" fill="#FC4E60"/>
<path opacity="0.35" d="M174.36 130.505C173.953 132.317 175.829 134.329 178.556 134.927C181.284 135.525 183.813 134.52 184.221 132.68C184.629 130.84 182.744 128.855 180.025 128.257C177.306 127.659 174.759 128.692 174.36 130.505Z" fill="#FC4E60"/>
<path d="M204.268 124.45C204.268 126.009 204.893 127.269 205.673 127.269C206.452 127.269 207.077 126.009 207.077 124.45C207.077 122.891 206.452 121.641 205.673 121.641C204.893 121.641 204.268 122.9 204.268 124.45Z" fill="#852D4C"/>
<path d="M187.918 124.45C187.918 126.009 187.284 127.269 186.514 127.269C185.743 127.269 185.109 126.009 185.109 124.45C185.109 122.891 185.734 121.641 186.514 121.641C187.293 121.641 187.918 122.9 187.918 124.45Z" fill="#852D4C"/>
<path d="M210.258 117.571C210.576 115.895 208.881 114.3 207.54 113.557C206.736 113.046 205.79 112.805 204.84 112.868C203.89 112.932 202.985 113.297 202.256 113.91C202.13 114.04 202.039 114.2 201.993 114.374C201.947 114.549 201.947 114.733 201.992 114.908C202.038 115.083 202.128 115.243 202.253 115.373C202.379 115.503 202.536 115.598 202.709 115.65C203.914 116.013 205.229 115.877 206.334 116.556C207.44 117.236 208.029 118.215 209.243 118.315C209.472 118.317 209.694 118.243 209.876 118.105C210.058 117.968 210.189 117.773 210.249 117.553L210.258 117.571Z" fill="#852D4C"/>
<path d="M188.172 116.004C187.076 116.303 186.142 116.973 185.018 117.254C183.904 117.394 182.8 117.6 181.71 117.871C181.538 117.922 181.382 118.017 181.257 118.145C181.132 118.274 181.041 118.433 180.995 118.607C180.949 118.78 180.948 118.963 180.992 119.137C181.036 119.311 181.124 119.471 181.248 119.602C183.568 121.867 188.498 120.245 189.613 117.445C189.967 116.538 188.961 115.786 188.172 116.004Z" fill="#852D4C"/>
<path d="M195.54 141.29C194.47 139.563 192.863 138.235 190.966 137.51C189.068 136.785 186.985 136.702 185.036 137.275" stroke="#852D4C" stroke-width="1.92" stroke-linecap="round" stroke-linejoin="round"/>
<path d="M187.329 127.786C185.905 126.496 184.152 125.624 182.263 125.267" stroke="#852D4C" stroke-width="1.92" stroke-linecap="round" stroke-linejoin="round"/>
<path d="M196.438 121.107C196.376 122.812 196.743 124.505 197.504 126.031C198.266 127.557 199.398 128.868 200.797 129.844C202.927 131.439 200.162 134.892 197.298 134.031" stroke="#852D4C" stroke-width="1.92" stroke-linecap="round" stroke-linejoin="round"/>
<path d="M251.395 106.299C253.071 107.504 256.751 109.706 261.092 112.144C262.17 112.76 263.321 113.359 264.427 114.02L267.762 116.005C270.001 117.319 272.239 118.588 274.297 119.721C276.258 121.148 278.437 122.25 280.749 122.983C282.975 123.648 285.303 123.9 287.619 123.726C289.928 123.588 292.186 122.983 294.255 121.947C296.323 120.911 298.16 119.466 299.654 117.7C301.112 115.885 302.152 113.772 302.702 111.51C303.252 109.249 303.297 106.894 302.836 104.613C302.379 102.155 301.489 99.7984 300.207 97.6526C299.551 96.5209 298.767 95.4687 297.869 94.5169C296.953 93.5255 295.952 92.6157 294.878 91.798L292.286 89.641L289.341 87.2575L287.528 85.8256C286.894 85.3271 286.205 84.8558 285.498 84.3393C282.662 82.3182 279.399 80.0435 275.964 77.7777L273.363 76.0921C272.457 75.5483 271.551 75.0408 270.644 74.5242C268.832 73.5001 267.019 72.5122 265.261 71.5878C256.271 66.8207 251.304 66.1501 248.694 66.4582C246.084 66.7664 245.739 68.1349 245.739 68.1349C244.474 67.7806 243.166 67.5977 241.852 67.5911C239.867 67.5911 237.819 68.2527 237.474 70.6271C236.418 70.453 235.34 70.453 234.284 70.6271C232.752 70.9262 231.366 71.8416 231.846 74.2523C231.846 74.2523 229.39 74.9683 228.42 76.3096C227.451 77.6509 227.958 79.5722 233.858 81.9738C236.659 83.1306 239.384 84.4655 242.015 85.9706C243.358 86.7242 244.662 87.547 245.921 88.4357C247.171 89.342 248.368 90.1667 249.492 91.0277C253.978 94.4806 257.286 97.6888 257.485 99.4199C257.684 101.151 255.981 100.399 253.552 99.4833C251.123 98.5679 248.114 97.3263 246.02 97.6707C241.924 98.4048 247.996 103.942 251.395 106.299Z" fill="#FAB196"/>
<path d="M252.446 83.74C251.08 82.737 249.76 81.8307 248.486 81.0211C247.208 80.1783 245.93 79.5076 244.752 78.8551C242.377 77.5772 240.265 76.5894 238.516 75.8462C236.691 75.0461 234.814 74.3709 232.897 73.8252" stroke="#852D4C" stroke-width="1.47" stroke-linecap="round" stroke-linejoin="round"/>
<path d="M256.153 79.6533C252.209 76.4612 247.853 73.8152 243.202 71.7867C241.706 71.092 240.142 70.5544 238.535 70.1826" stroke="#852D4C" stroke-width="1.47" stroke-linecap="round" stroke-linejoin="round"/>
<path d="M259.678 75.2209C257.141 73.1371 254.37 71.3549 251.422 69.9101C248.857 68.6232 246.963 67.8438 246.963 67.8438" stroke="#852D4C" stroke-width="1.47" stroke-linecap="round" stroke-linejoin="round"/>
<path d="M317.581 177.922L316.919 176.445C311.819 166.038 305.634 156.198 298.467 147.09C291.299 137.629 282.843 128.829 274.106 120.255C272.209 118.503 270.654 116.413 269.52 114.092C268.46 111.89 267.762 109.53 267.454 107.105C267.117 104.769 267.281 102.388 267.935 100.12C268.59 97.853 269.721 95.751 271.251 93.9546C272.798 92.2475 274.691 90.89 276.804 89.9726C278.917 89.0552 281.201 88.5991 283.504 88.6348C288.692 88.7917 293.672 90.7094 297.624 94.0725C308.047 103.036 318.315 112.398 327.613 123.074C337.258 133.847 345.719 145.624 352.853 158.201C353.071 158.591 353.307 159.008 353.506 159.407C354.198 160.798 354.765 162.247 355.201 163.739C355.412 164.464 355.584 165.189 355.717 165.914C355.84 166.648 355.912 167.39 355.935 168.134C356.078 170.959 355.659 173.783 354.702 176.445C354.471 177.064 354.205 177.669 353.905 178.257C353.59 178.861 353.239 179.445 352.853 180.007C352.104 181.117 351.235 182.141 350.261 183.061C348.278 184.909 345.915 186.3 343.337 187.139C340.797 187.977 338.125 188.342 335.453 188.217C334.191 188.17 332.936 188.016 331.701 187.755C331.094 187.628 330.495 187.483 329.888 187.311C329.281 187.139 328.692 186.958 328.076 186.749C325.829 185.971 323.743 184.789 321.922 183.26C321.487 182.889 321.088 182.49 320.68 182.082C320.256 181.681 319.853 181.258 319.475 180.813C318.734 179.926 318.098 178.956 317.581 177.922Z" fill="#FAB196"/>
<path d="M348.685 164.726C348.631 162.973 347.993 161.289 346.872 159.94" stroke="#852D4C" stroke-width="1.96" stroke-linecap="round" stroke-linejoin="round"/>
<path d="M239.486 179.735C246.959 181.11 254.545 181.787 262.143 181.756C269.411 181.705 276.649 180.817 283.713 179.109L286.332 178.411C287.213 178.21 288.081 177.959 288.933 177.659L294.09 175.91L299.156 173.789C300.007 173.43 300.838 173.027 301.648 172.584L304.122 171.333C304.938 170.898 305.799 170.554 306.597 170.046L309.007 168.605C310.602 167.608 312.27 166.793 313.802 165.596L318.505 162.334C320.037 161.165 321.523 159.914 323.037 158.709L323.943 157.956C324.401 157.629 324.876 157.327 325.366 157.05C325.846 156.751 326.326 156.443 326.825 156.189C327.823 155.659 328.874 155.234 329.961 154.92C331.071 154.6 332.209 154.381 333.359 154.268C334.538 154.168 335.721 154.132 336.903 154.159C341.957 154.302 346.806 156.192 350.624 159.506C352.578 161.205 354.16 163.29 355.27 165.629C356.381 167.969 356.996 170.512 357.077 173.1C357.126 175.751 356.626 178.383 355.609 180.831C355.087 182.13 354.45 183.38 353.705 184.565C353.327 185.191 352.916 185.796 352.473 186.378C351.993 186.93 351.494 187.474 350.959 188L349.826 188.97C347.932 190.691 346.074 192.459 344.135 194.144L338.063 199.011C336.078 200.679 333.849 202.093 331.719 203.606L328.474 205.845C327.405 206.606 326.218 207.231 325.094 207.92L321.668 209.95C320.517 210.603 319.402 211.328 318.197 211.899L311.019 215.478C308.563 216.557 306.071 217.572 303.588 218.596C302.355 219.14 301.068 219.548 299.799 219.983L295.966 221.279C285.709 224.526 275.11 226.57 264.382 227.369C253.977 228.121 243.525 227.906 233.16 226.725C229.174 226.322 225.299 225.179 221.732 223.354C220.125 222.543 218.607 221.568 217.201 220.445C216.53 219.901 215.886 219.339 215.279 218.75C214.696 218.177 214.145 217.572 213.63 216.938C213.113 216.312 212.633 215.669 212.18 215.007C211.742 214.364 211.349 213.691 211.002 212.995C210.257 211.627 209.65 210.188 209.189 208.699C208.269 205.653 207.879 202.471 208.038 199.292C208.192 195.924 209.319 192.672 211.283 189.93C211.795 189.236 212.352 188.576 212.95 187.955C213.518 187.315 214.123 186.71 214.763 186.142C216.124 185.018 217.586 184.023 219.131 183.169C220.691 182.325 222.316 181.604 223.989 181.012C224.813 180.722 225.665 180.469 226.535 180.251C227.405 180.034 228.221 179.834 229.082 179.689C230.794 179.392 232.528 179.238 234.266 179.227C236.018 179.235 237.765 179.405 239.486 179.735Z" fill="#FAB196"/>
<path d="M236.885 176.961C229.888 176.906 223.05 179.042 217.327 183.069C216.011 184.003 214.796 185.072 213.702 186.259C213.186 186.83 212.651 187.437 212.171 188.072C211.699 188.688 211.26 189.33 210.857 189.993C209.358 192.589 208.431 195.475 208.138 198.458C207.859 201.429 208 204.425 208.555 207.357C208.691 208.082 208.845 208.807 209.017 209.514C209.177 210.24 209.383 210.954 209.633 211.653C210.132 213.072 210.738 214.45 211.446 215.777C212.223 217.158 213.134 218.46 214.164 219.665C215.296 220.964 216.556 222.145 217.926 223.19C219.467 224.354 221.115 225.371 222.847 226.226C224.839 227.186 226.91 227.974 229.037 228.583C235.205 230.033 241.488 230.943 247.815 231.301C256.051 231.788 264.315 231.484 272.493 230.395C274.632 230.069 276.771 229.815 278.891 229.389C281.012 228.963 283.097 228.483 285.163 228.048C286.196 227.849 287.211 227.54 288.226 227.259L291.217 226.353L294.135 225.492C295.096 225.211 296.029 224.822 296.954 224.504L302.292 222.492C303.153 222.184 303.977 221.804 304.775 221.432L307.131 220.344L311.472 218.269C312.814 217.562 314.037 216.828 315.17 216.176C314.856 213.971 314.39 211.791 313.774 209.65C312.187 204.031 310.084 198.57 307.494 193.337C304.937 188.103 302.084 183.02 298.948 178.112C296.691 174.577 295.277 172.674 295.277 172.674C294.452 172.919 293.573 173.227 292.631 173.499C291.688 173.77 290.673 173.97 289.622 174.242L288.027 174.668C287.48 174.838 286.923 174.974 286.359 175.075C285.208 175.302 284.03 175.538 282.825 175.801C282.218 175.918 281.628 176.1 281.012 176.181L279.118 176.453L277.188 176.761C276.544 176.861 275.901 176.997 275.23 177.042C273.907 177.169 272.566 177.305 271.224 177.468C269.883 177.631 268.505 177.622 267.128 177.74C261.694 178.013 256.249 178.013 250.815 177.74C245.604 177.459 240.737 177.087 236.885 176.961Z" fill="#0065A6"/>
<path d="M302.845 221.007C302.743 218.787 302.488 216.576 302.083 214.391C301.042 208.687 299.482 203.09 297.425 197.67C295.396 192.266 293.066 186.98 290.447 181.837C288.562 178.139 287.356 176.109 287.356 176.109" stroke="white" stroke-width="1.92" stroke-miterlimit="10" stroke-linecap="round"/>
<path d="M251.83 186.694C237.005 181.724 221.668 178.437 206.108 176.897C203.432 180.593 199.919 183.601 195.856 185.675C191.793 187.749 187.296 188.831 182.734 188.831C178.173 188.831 173.676 187.749 169.613 185.675C165.55 183.601 162.037 180.593 159.361 176.897C143.801 178.437 128.464 181.724 113.639 186.694C103.724 190.374 100.725 195.757 102.356 208.092L113.639 297.116V376.933C136.476 380.67 159.585 382.504 182.725 382.416C205.87 382.505 228.981 380.668 251.821 376.924V297.062L263.104 208.047C264.753 195.757 261.745 190.32 251.83 186.694Z" fill="#0065A6"/>
<path d="M148.377 180.648C151.956 186.558 156.998 191.444 163.016 194.835C169.035 198.226 175.826 200.008 182.734 200.008C189.643 200.008 196.434 198.226 202.453 194.835C208.471 191.444 213.513 186.558 217.092 180.648" stroke="white" stroke-width="1.91" stroke-linecap="round" stroke-linejoin="round" stroke-dasharray="57.38 9.56"/>
<path d="M188.87 143.248L215.506 202.9" stroke="#FC4E60" stroke-width="6" stroke-linecap="round" stroke-linejoin="round"/>
<path d="M192.377 220.879C192.214 221.259 191.951 222.039 191.951 222.039C191.588 223.145 191.313 224.279 191.127 225.428C189.541 235.814 195.984 245.049 205.627 246.046C214.074 246.898 222.203 240.998 225.194 232.561C226.1 230.485 232.888 215.45 236.396 207.855L236.323 208.009C234.737 211.453 236.84 207.42 238.698 202.055C240.556 196.69 242.214 190.047 239.604 188.162C237.619 186.712 234.393 187.899 234.393 187.899C234.393 187.899 235.091 184.328 232.635 182.878C230.179 181.428 227.904 184.346 227.904 184.346C227.904 184.346 228.248 179.815 226.354 179.035C223.173 177.794 221.27 181.609 221.27 181.609C221.27 181.609 222.085 177.295 219.321 176.57C216.983 175.954 213.956 179.226 211.536 182.661C209.975 184.91 208.559 187.256 207.295 189.684C197.054 189.276 198.739 205.091 198.839 205.871C198.284 206.927 197.793 208.017 197.371 209.133C196.419 211.335 194.969 214.707 192.957 219.401C192.794 219.882 192.577 220.371 192.377 220.879Z" fill="#FAB196"/>
<path d="M207.059 190.32C206.686 191.549 206.133 192.716 205.419 193.782" stroke="#852D4C" stroke-width="1.45" stroke-linecap="round" stroke-linejoin="round"/>
<path d="M165.406 264.853C165.606 264.726 165.814 264.608 166.013 264.472C168.043 262.944 169.823 261.11 171.288 259.034C172.077 257.992 172.847 256.895 173.599 255.763L174.17 254.902L174.451 254.467L174.759 253.968L175.384 252.971L175.711 252.427L176.264 251.431C182.191 240.827 187.891 229.48 193.655 218.125C198.658 208.155 209.66 203.715 218.125 208.155C226.182 212.406 229.118 223.163 225.058 232.734C219.983 244.57 214.971 256.488 209.171 268.659L208.6 269.846L207.775 271.459L206.135 274.695C205.609 275.764 205.002 276.87 204.395 277.967L202.582 281.275C201.359 283.459 200.035 285.561 198.767 287.718L196.709 290.782C196.021 291.797 195.359 292.866 194.616 293.799C193.157 295.712 191.725 297.687 190.148 299.391C189.368 300.298 188.625 301.204 187.81 302.001L185.408 304.512C182.202 307.522 178.659 310.152 174.85 312.351C174.388 312.596 173.898 312.85 173.427 313.067C170.38 314.602 166.932 315.156 163.557 314.653C162.778 314.554 162.011 314.381 161.265 314.136C160.536 313.937 159.826 313.673 159.144 313.348C158.482 313.015 157.84 312.643 157.222 312.233L156.769 311.934C156.636 311.803 156.494 311.682 156.343 311.572C156.056 311.341 155.784 311.093 155.528 310.829C153.497 308.593 152.183 305.799 151.758 302.808C151.28 299.882 151.37 296.891 152.02 293.999C152.8 290.459 153.911 287 155.337 283.667C156.606 280.658 157.948 278.03 159.244 275.511C160.54 272.991 161.745 270.517 162.724 268.704C163.389 267.275 164.296 265.972 165.406 264.853Z" fill="#FAB196"/>
<path d="M169.802 307.467C171.486 307.419 173.103 306.799 174.388 305.709C174.65 305.473 174.804 305.319 174.804 305.319" stroke="#852D4C" stroke-width="1.93" stroke-linecap="round" stroke-linejoin="round"/>
<path d="M144.544 212.551C144.969 220.176 146.015 227.753 147.67 235.208C148.495 238.987 149.483 242.758 150.579 246.473L151.44 249.256L151.658 249.944L151.712 250.108V250.18V250.316L151.866 250.878C152.075 251.621 152.301 252.373 152.546 253.126C153.576 256.36 155 259.456 156.788 262.342C157.27 263.103 157.816 263.821 158.419 264.49C158.985 265.19 159.75 265.702 160.612 265.959C162.321 266.159 164.046 265.755 165.488 264.817L165.932 264.536C166.394 264.344 166.895 264.267 167.394 264.309C167.892 264.352 168.373 264.514 168.796 264.78C170.181 265.493 171.5 266.327 172.738 267.273C174.472 268.537 176.13 269.902 177.705 271.36C179.675 273.153 181.419 275.18 182.898 277.396C184.51 279.83 185.645 282.549 186.242 285.407C186.899 288.588 186.93 291.867 186.332 295.059C185.163 301.784 181.076 308.59 175.058 312.234L173.436 313.049C170.781 314.424 167.969 315.471 165.062 316.167C162.092 316.853 159.046 317.157 155.999 317.073C154.462 317.024 152.938 316.771 151.468 316.321C150.081 315.909 148.727 315.394 147.417 314.78C144.814 313.553 142.347 312.055 140.057 310.312C130.705 303.243 122.838 291.561 116.494 278.647C114.899 275.411 113.413 272.085 112.017 268.677L110.975 266.131L110.159 264.073C109.715 262.913 109.253 261.753 108.827 260.584C107.087 255.908 105.525 251.174 104.141 246.383C101.308 236.683 99.2684 226.769 98.042 216.738C96.9908 208.119 99.3834 199.772 103.806 194.19C105.856 191.513 108.524 189.374 111.582 187.955C114.492 186.644 117.695 186.119 120.871 186.432C124.141 186.758 127.3 187.798 130.125 189.477C132.87 191.078 135.339 193.11 137.438 195.495C141.701 200.192 144.211 206.217 144.544 212.551Z" fill="#FAB196"/>
<path d="M146.655 209.606C145.255 203.588 142.01 198.157 137.375 194.072C132.992 190.116 127.555 187.518 121.723 186.595C118.707 186.133 115.626 186.333 112.695 187.181C109.764 188.029 107.052 189.506 104.749 191.507C99.7187 195.83 95.876 203.289 95.3866 213.104C95.3344 219.441 95.8653 225.769 96.9726 232.009C98.2976 239.643 100.2 247.166 102.664 254.512C103.924 258.282 105.32 262.016 106.815 265.605C107.114 266.285 107.721 267.952 108.328 269.23C108.936 270.508 109.47 271.949 110.087 273.227C111.256 275.846 112.497 278.356 113.712 280.749C117.623 288.599 122.534 295.91 128.321 302.5C130.034 301.133 131.596 299.587 132.979 297.887C136.831 293.162 140.173 288.043 142.949 282.616C147.108 274.768 150.317 267.961 152.655 263.385C154.993 258.808 156.334 256.288 156.334 256.288C155.999 254.702 155.655 252.917 155.428 251.213C155.374 250.796 155.31 250.379 155.247 249.944C155.247 249.745 155.201 249.537 155.165 249.328C155.138 248.952 155.052 248.582 154.911 248.232C154.096 245.458 153.325 242.576 152.6 239.694C151.15 233.921 149.954 228.121 148.975 222.919C147.997 217.717 147.344 213.068 146.655 209.606Z" fill="#0065A6"/>
<path d="M119.14 287.881C121.133 287.103 123.025 286.09 124.777 284.863C129.559 281.499 133.916 277.571 137.755 273.163C143.003 267.371 147.126 262.242 150.09 258.834C153.054 255.427 154.739 253.56 154.739 253.56" stroke="white" stroke-width="1.89" stroke-miterlimit="10" stroke-linecap="round"/>
</g>
</svg>
