<svg width="438" height="359" viewBox="0 0 438 359" fill="none" xmlns="http://www.w3.org/2000/svg">
<g filter="url(#filter0_d_7564_29109)">
<path d="M167.602 131.06C142.716 142.867 127.413 162.909 133.423 175.836C139.434 188.762 164.49 189.673 189.376 177.866C214.263 166.058 229.565 146.016 223.555 133.09C217.545 120.164 192.488 119.253 167.602 131.06Z" fill="url(#paint0_linear_7564_29109)"/>
<path d="M52.4702 111.556C63.425 137.021 82.8195 153.061 95.7919 147.372C108.764 141.684 110.405 116.427 99.4506 90.9621C88.4958 65.4971 69.1013 49.4578 56.1289 55.1462C43.1566 60.8345 41.5155 86.0914 52.4702 111.556Z" fill="url(#paint1_linear_7564_29109)"/>
<path d="M157.947 229.556C178.109 226.486 193.177 215.511 191.614 205.038C190.051 194.565 172.44 188.568 152.285 191.638C132.13 194.709 117.055 205.684 118.618 216.157C120.181 226.622 137.793 232.626 157.947 229.549V229.556Z" fill="url(#paint2_linear_7564_29109)"/>
<path d="M30.5107 224.068C50.0758 229.843 68.3266 226.285 71.2677 216.12C74.2089 205.956 60.7321 193.037 41.1599 187.263C21.5949 181.488 3.34406 185.046 0.402901 195.21C-2.53825 205.375 10.9385 218.294 30.5107 224.068Z" fill="url(#paint3_linear_7564_29109)"/>
<path d="M72.7036 156.074C54.0479 135.68 30.4973 127.001 20.1109 136.692C9.72452 146.383 16.4238 170.772 35.0867 191.165C53.7424 211.559 77.293 220.238 87.6794 210.547C98.0658 200.856 91.3665 176.467 72.7036 156.074Z" fill="url(#paint4_linear_7564_29109)"/>
<path d="M97.4399 247.804C97.9514 247.804 98.4203 247.445 98.5411 246.915C115.293 172.442 77.3633 91.8009 76.9797 90.9975C76.7097 90.4308 76.0419 90.1941 75.4736 90.4666C74.9123 90.7392 74.6779 91.4207 74.9479 91.9874C75.3315 92.7836 112.913 172.729 96.3458 246.413C96.2109 247.022 96.5874 247.632 97.1984 247.775C97.2836 247.797 97.3688 247.804 97.447 247.804H97.4399Z" fill="#5F7C59"/>
<path d="M95.2309 247.804C95.7353 247.804 96.19 247.46 96.3179 246.944C119.144 156.353 191.152 145.514 191.877 145.414C192.495 145.335 192.928 144.761 192.843 144.137C192.758 143.513 192.197 143.061 191.579 143.161C190.84 143.262 117.339 154.316 94.144 246.384C93.9877 246.994 94.3571 247.611 94.9609 247.769C95.0533 247.79 95.1456 247.804 95.238 247.804H95.2309Z" fill="#5F7C59"/>
<path d="M98.7472 241.385C99.2516 241.385 99.7063 241.041 99.8413 240.524C108.302 206.674 160.043 206.15 160.561 206.143C161.186 206.143 161.684 205.626 161.684 205.002C161.684 204.371 161.179 203.869 160.554 203.869C160.128 203.826 106.555 204.328 97.6532 239.965C97.504 240.574 97.8663 241.191 98.4702 241.342C98.5625 241.363 98.6549 241.378 98.7472 241.378V241.385Z" fill="#5F7C59"/>
<path d="M103.486 245.416C103.557 245.416 103.636 245.416 103.707 245.394C104.318 245.272 104.708 244.677 104.587 244.06C104.474 243.493 92.8229 187.055 36.4578 149.316C35.9392 148.972 35.243 149.115 34.8949 149.639C34.5539 150.163 34.6959 150.866 35.2075 151.217C90.7626 188.403 102.264 243.953 102.378 244.505C102.485 245.043 102.954 245.423 103.479 245.423L103.486 245.416Z" fill="#5F7C59"/>
<path d="M95.2308 241.384C95.444 241.384 95.6571 241.327 95.8489 241.198C96.3675 240.854 96.5096 240.151 96.1686 239.627C95.9626 239.311 75.0264 207.993 22.9594 198.862C22.3484 198.732 21.7659 199.17 21.6593 199.787C21.5527 200.404 21.9648 200.992 22.5757 201.1C73.6268 210.052 94.0871 240.567 94.2931 240.875C94.5133 241.205 94.8685 241.384 95.238 241.384H95.2308Z" fill="#5F7C59"/>
<path d="M61.0522 331.531H117.737C120.813 331.531 123.385 329.321 123.683 326.423L132.357 243.035C132.706 239.699 129.942 236.815 126.411 236.815H52.3779C48.8471 236.815 46.0835 239.706 46.4316 243.035L55.1059 326.423C55.4043 329.321 57.9831 331.531 61.0522 331.531Z" fill="#A79CAD"/>
<path d="M73.5985 331.531H130.283C133.359 331.531 135.931 329.321 136.23 326.423L144.904 243.035C145.252 239.699 142.488 236.815 138.958 236.815H64.9243C61.3935 236.815 58.6299 239.706 58.9781 243.035L67.6523 326.423C67.9507 329.321 70.5295 331.531 73.5985 331.531Z" fill="#BBAFC0"/>
</g>
<g filter="url(#filter1_d_7564_29109)">
<path d="M242.597 252.184C302.817 252.184 351.634 226.942 351.634 195.803C351.634 164.665 302.817 139.423 242.597 139.423C182.377 139.423 133.56 164.665 133.56 195.803C133.56 226.942 182.377 252.184 242.597 252.184Z" fill="#D63870"/>
<path d="M273.974 151.132C273.974 151.132 269.995 166.71 242.725 166.968C226.165 166.818 218.81 160.995 215.606 156.461C213.52 153.539 213.154 151.132 213.154 151.132C213.154 151.132 213.52 148.726 215.606 145.804C218.81 141.27 226.165 135.447 242.725 135.297C269.995 135.555 273.974 151.132 273.974 151.132Z" fill="#D6919E"/>
<path d="M286.727 213.874C281.501 200.853 287.76 186.092 300.685 180.914C301.244 180.699 301.782 180.527 302.341 180.355V180.248C305.911 178.829 309.954 178.657 314.363 179.538C315.696 179.775 316.987 180.097 318.256 180.548C352.924 191.485 405.356 258.093 415.335 287.831C415.335 287.852 416.432 289.85 416.862 290.903C421.228 301.797 416.002 314.13 405.184 318.449C395.033 322.51 383.571 318.062 378.603 308.479C344.536 260.328 296.62 225.992 296.62 225.992V225.863C292.319 223.092 288.792 219.031 286.727 213.895V213.874Z" fill="#FFAF8F"/>
<path d="M227.736 43.3989C233.694 37.8339 233.5 27.6923 228.876 20.9885C224.252 14.2847 216.252 10.5889 208.251 8.95596C189.476 5.15284 167.841 12.8236 158.787 29.712C150.959 44.3229 152.937 63.5533 142.119 76.1014C137.496 81.473 131.044 84.8894 125.581 89.4016C121.301 92.9254 117.602 97.1153 114.656 101.799C113.086 104.27 111.709 107.321 112.785 110.05C113.968 113.058 117.774 114.305 120.936 113.638C124.097 112.972 126.742 110.888 129.28 108.868C127.022 117.979 124.764 127.476 126.764 136.65C128.764 145.825 136.377 154.506 145.775 154.398C153.131 154.312 159.604 148.898 163.067 142.409C166.529 135.898 167.54 128.443 168.508 121.137C164.637 125.542 169.906 133.17 175.777 132.998C181.648 132.826 186.25 127.712 188.616 122.34C190.982 116.99 191.907 111.038 191.261 105.216" fill="#FFB8C5"/>
<path d="M271.652 116.088C287.266 114.52 299.481 99.2858 300.019 83.6221C300.578 67.9584 291.073 52.9822 277.954 44.3876C264.835 35.7715 248.619 32.8709 232.941 33.3865C226.984 33.5799 220.94 34.2676 215.392 36.4377C209.305 38.8227 204.036 42.9051 199.434 47.5247C189.24 57.7308 181.992 70.8591 178.788 84.9113C175.411 99.6296 177.003 116.604 187.455 127.519C200.509 141.184 222.854 140.97 240.533 134.244C251.888 129.926 263.673 121.374 264.017 109.234" fill="#FFD4DC"/>
<path d="M283.05 79.1951C282.942 78.4861 282.792 77.8415 282.641 77.1969C280.06 78.6794 236.682 61.2324 220.488 67.442C220.574 74.9408 215.928 109.985 214.788 104.85C214.057 104.635 213.326 104.442 212.53 104.377C205.842 103.819 199.971 108.782 199.411 115.464C198.852 122.147 203.82 127.991 210.509 128.55C212.337 128.7 214.079 128.421 215.692 127.819C215.692 127.819 215.412 166.366 215.412 167.612C215.412 182.954 227.864 195.394 243.22 195.394C258.575 195.394 271.028 182.954 271.028 167.612C271.028 166.452 270.791 148.726 270.791 148.726C285.415 143.848 287.674 128.829 285.738 115.486C283.802 102.143 283.007 79.1736 283.007 79.1736L283.05 79.1951Z" fill="#FFAF8F"/>
<path d="M216.832 119.676C217.284 117.291 216.294 114.713 214.38 113.209C212.466 111.726 209.713 111.404 207.498 112.414" stroke="#852D4C" stroke-width="3.03776" stroke-miterlimit="10" stroke-linecap="round"/>
<path d="M213.778 113.939C211.95 114.649 210.38 115.938 209.326 117.593" stroke="#852D4C" stroke-width="3.03776" stroke-miterlimit="10" stroke-linecap="round"/>
<path opacity="0.35" d="M270.834 148.748C270.834 148.748 263.866 151.219 254.447 150.424L270.834 164.841V148.727V148.748Z" fill="#FC4E60"/>
<path d="M270.125 107.858C271.111 107.858 271.91 106.252 271.91 104.27C271.91 102.288 271.111 100.682 270.125 100.682C269.139 100.682 268.34 102.288 268.34 104.27C268.34 106.252 269.139 107.858 270.125 107.858Z" fill="#852D4C"/>
<path d="M245.651 107.858C246.636 107.858 247.436 106.252 247.436 104.27C247.436 102.288 246.636 100.682 245.651 100.682C244.665 100.682 243.866 102.288 243.866 104.27C243.866 106.252 244.665 107.858 245.651 107.858Z" fill="#852D4C"/>
<path opacity="0.35" d="M269.91 115.487C270.555 117.721 273.759 118.774 277.093 117.807C280.426 116.841 282.577 114.262 281.932 112.028C281.287 109.793 278.082 108.762 274.749 109.707C271.437 110.674 269.265 113.252 269.91 115.487Z" fill="#FC4E60"/>
<path opacity="0.35" d="M230.768 112.456C230.274 114.734 232.596 117.183 235.973 117.914C239.349 118.645 242.489 117.42 242.984 115.142C243.479 112.865 241.156 110.415 237.779 109.685C234.403 108.954 231.263 110.179 230.768 112.456Z" fill="#FC4E60"/>
<path d="M260.275 122.512C255.867 123.737 250.705 121.223 248.963 116.99" stroke="#852D4C" stroke-width="3.03776" stroke-miterlimit="10" stroke-linecap="round"/>
<path d="M199.82 213.874C205.046 200.853 198.788 186.092 185.863 180.914C185.304 180.699 184.766 180.527 184.207 180.355V180.248C180.637 178.829 176.594 178.657 172.185 179.538C170.851 179.775 169.561 180.097 168.292 180.548C133.624 191.485 81.1913 258.093 71.2123 287.831C71.2123 287.852 70.1155 289.85 69.6854 290.903C65.3196 301.797 70.5456 314.13 81.3633 318.449C91.5143 322.51 102.977 318.062 107.945 308.479C142.011 260.328 189.928 225.992 189.928 225.992V225.863C194.229 223.092 197.756 219.031 199.82 213.895V213.874Z" fill="#FFAF8F"/>
<path d="M309.524 236.8C309.524 236.8 315.826 202.314 316.363 178.571C316.363 178.571 294.233 172.254 271.092 171.223C271.092 171.223 267.479 185.318 242.812 185.554C218.144 185.318 216.058 171.223 216.058 171.223C192.917 172.254 169.26 178.571 169.26 178.571C169.797 202.292 176.099 236.8 176.099 236.8C161.087 260.327 180.314 278.741 180.314 278.741L179.26 335.638H306.406L305.352 278.741C305.352 278.741 321.804 258.952 309.567 236.8H309.524Z" fill="#FFD4DC"/>
<path d="M204.1 173.973C210.014 190.904 231.047 200.573 248.683 197.243" stroke="white" stroke-width="4.52627" stroke-miterlimit="10"/>
<path d="M262.361 192.73C270.856 189.356 277.803 182.244 280.985 173.692" stroke="white" stroke-width="4.52627" stroke-miterlimit="10"/>
<path d="M176.4 236.799C179.002 231.514 182.83 226.829 187.497 223.241" stroke="white" stroke-width="4.52627" stroke-miterlimit="10"/>
<path d="M178.314 177.195C178.658 193.138 179.948 210.091 183.927 225.54" stroke="white" stroke-width="4.52627" stroke-miterlimit="10"/>
<path d="M309.181 236.799C306.578 231.514 302.75 226.829 298.083 223.241" stroke="white" stroke-width="4.52627" stroke-miterlimit="10"/>
<path d="M308.084 178.076C307.74 194.019 305.611 210.091 301.654 225.54" stroke="white" stroke-width="4.52627" stroke-miterlimit="10"/>
<path d="M287.631 84.7604C274.018 87.2099 255.458 79.4532 244.812 70.6007C246.705 73.5659 249.027 77.1972 246.726 78.5938C243.887 80.3127 231.048 73.9527 227.005 70.2355C228.424 72.6205 234.016 78.7012 231.865 80.3127C229.715 81.9242 224.037 79.2384 221.456 75.7791C223.779 86.1785 224.79 94.4723 224.532 104.356C224.295 113.896 220.187 110.415 218.703 108.825C209.112 98.5978 201.455 84.1587 203.757 70.3214C204.445 66.2175 205.628 62.0706 208.208 58.8046C213.628 51.9504 223.456 50.7686 232.209 50.5753C243.264 50.3604 254.598 50.9191 264.856 55.0875C275.093 59.2559 284.19 67.5926 286.707 78.3573" fill="#FFD4DC"/>
<path d="M241.737 93.3761C243.027 93.1182 244.188 92.4091 245.522 92.1942C246.791 92.0008 248.146 92.1298 249.393 91.7646C250.296 91.5067 250.533 90.4324 249.931 89.7448C247.608 87.1235 241.694 88.3481 240.21 91.3777C239.672 92.4735 240.554 93.6124 241.758 93.3761H241.737Z" fill="#852D4C"/>
<path d="M275.824 93.5479C274.942 90.11 268.834 88.1978 266.211 90.6257C265.673 91.1199 265.759 92.1943 266.447 92.5166C267.673 93.0752 269.071 93.1397 270.383 93.505C271.738 93.8918 272.835 94.8371 274.19 95.1809C275.179 95.4172 276.082 94.5363 275.824 93.5479Z" fill="#852D4C"/>
<path d="M211.778 124.983C213.004 125.907 213.757 127.884 213.563 130.097C213.327 133.062 211.542 135.34 209.563 135.19C207.584 135.039 206.165 132.504 206.402 129.539C206.445 128.872 206.574 128.249 206.767 127.691" stroke="white" stroke-width="4.52627" stroke-miterlimit="10"/>
<path d="M173.109 293.932C173.109 293.932 173.045 293.932 173.002 293.932V293.889C133.43 289.377 93.5789 278.913 93.3208 278.849C82.0515 276.399 70.9112 283.554 68.481 294.835C66.0293 306.094 73.1909 317.224 84.4817 319.652C84.6323 319.673 84.7828 319.695 84.9119 319.716C112.72 326.699 173.045 331.082 173.045 331.082V330.975C183.282 330.975 191.605 322.703 191.626 312.454C191.626 302.226 183.54 295.651 173.088 293.889L173.109 293.932Z" fill="#FFAF8F"/>
<path d="M80.0304 304.61C81.5145 305.513 83.4718 305.599 85.0204 304.804" stroke="#852D4C" stroke-width="3.03776" stroke-miterlimit="10" stroke-linecap="round"/>
<path opacity="0.3" d="M253.78 108.246C255.458 103.605 252.017 97.6315 246.145 95.5043C240.274 93.3772 223.994 93.6779 223.736 95.848C223.478 98.0182 232.037 110.223 237.607 113.059C244.403 116.518 252.103 112.887 253.78 108.246Z" fill="white"/>
<path opacity="0.3" d="M263.996 110.244C261.587 106.14 263.802 99.8876 268.985 96.8365C274.168 93.7854 289.653 91.2285 290.276 93.2267C290.9 95.225 284.943 108.289 280.168 111.963C274.34 116.432 266.404 114.348 263.996 110.244Z" fill="white"/>
<path d="M253.78 108.246C255.458 103.605 252.017 97.6315 246.145 95.5043C240.274 93.3772 223.994 93.6779 223.736 95.848C223.478 98.0182 232.037 110.223 237.607 113.059C244.403 116.518 252.103 112.887 253.78 108.246Z" stroke="white" stroke-width="2.5821" stroke-miterlimit="10"/>
<path d="M263.996 110.244C261.587 106.14 263.802 99.8876 268.985 96.8365C274.168 93.7854 289.653 91.2285 290.276 93.2267C290.9 95.225 284.943 108.289 280.168 111.963C274.34 116.432 266.404 114.348 263.996 110.244V110.244Z" stroke="white" stroke-width="2.49097" stroke-miterlimit="10"/>
<path d="M260.361 100.789C259.05 104.957 261.093 108.718 264.577 111.382C267.136 113.337 263.759 117.463 260.297 116.41" stroke="#852D4C" stroke-width="3.03776" stroke-miterlimit="10" stroke-linecap="round"/>
<path d="M216.467 105.473L225.306 101.842" stroke="white" stroke-width="2.5821" stroke-miterlimit="10" stroke-linecap="round"/>
<path d="M254.404 104.443C254.404 104.443 260.125 100.812 262.727 104.443" stroke="white" stroke-width="2.5821" stroke-miterlimit="10" stroke-linecap="round"/>
<path d="M315.331 279.987C315.331 279.987 315.396 279.987 315.417 279.987V279.944C355.204 282.071 396.217 278.376 396.496 278.354C408.024 277.817 417.809 286.734 418.347 298.251C418.885 309.767 409.959 319.544 398.432 320.081C398.281 320.081 398.131 320.081 397.98 320.081C369.398 322.359 309.181 316.643 309.181 316.643V316.536C299.073 314.838 292.255 305.298 293.933 295.2C295.632 285.101 304.707 279.966 315.288 279.966L315.331 279.987Z" fill="#FFAF8F"/>
<path d="M405.336 306.007C403.723 306.652 401.787 306.415 400.389 305.384" stroke="#852D4C" stroke-width="3.03776" stroke-miterlimit="10" stroke-linecap="round"/>
<path d="M273.974 151.132C273.974 151.132 269.995 166.71 242.725 166.968C226.165 166.817 218.81 160.994 215.606 156.461C213.52 153.539 213.154 151.132 213.154 151.132C213.154 151.132 213.304 150.165 213.95 148.683C214.315 149.65 214.831 150.81 215.606 152.035C218.81 157.32 226.165 164.088 242.725 164.26C263.156 164.045 270.511 153.818 272.92 148.704C273.737 150.165 273.974 151.132 273.974 151.132Z" fill="#D6919E"/>
<path d="M273.501 169.009C273.501 169.009 269.587 188.132 242.747 188.454C226.445 188.261 219.198 181.128 216.058 175.562C214.015 171.974 213.649 169.03 213.649 169.03C213.649 169.03 213.8 167.849 214.423 166.022C214.789 167.204 215.284 168.644 216.058 170.126C219.219 176.615 226.445 184.931 242.747 185.145C262.856 184.888 270.103 172.318 272.469 166.044C273.265 167.827 273.501 169.03 273.501 169.03V169.009Z" fill="#D6919E"/>
<path d="M273.974 151.132V169.739C273.974 169.739 269.995 185.317 242.725 185.575C215.455 185.317 213.154 169.739 213.154 169.739V151.132C213.154 151.132 213.52 153.538 215.606 156.461C218.81 160.994 226.165 166.817 242.725 166.968C269.995 166.71 273.974 151.132 273.974 151.132Z" fill="#FFD4DC"/>
<path d="M342.193 335.658H143.001L120.978 201.797H364.215L342.193 335.658Z" fill="#E8E0ED"/>
<path d="M342.193 335.658H143.001V351H342.193V335.658Z" fill="#C2B0CF"/>
<path d="M364.215 201.797H120.978L122.849 197.822H362.344L364.215 201.797Z" fill="#D6C6E0"/>
<path d="M268.641 297.52C268.533 298.658 266.77 299.174 265.974 298.293L257.199 288.904C256.984 288.667 256.877 288.366 256.877 288.066L258.339 258.371C258.404 257.018 256.769 256.287 255.63 257.146L232.575 274.851C231.456 275.711 232.188 277.344 233.672 277.344H245.694C246.167 277.344 246.597 277.516 246.898 277.838L253.608 284.972C254.425 285.831 253.651 287.142 252.361 287.142H220.789C220.101 287.142 219.456 286.733 219.241 286.175L214.488 274.035C214.273 273.498 214.423 272.918 214.875 272.552L256.146 239.098C256.705 238.647 257.436 238.561 258.06 238.84L272.447 245.673C273.028 245.952 273.372 246.554 273.308 247.22L268.662 297.455L268.641 297.52Z" fill="white"/>
</g>
<defs>
<filter id="filter0_d_7564_29109" x="0" y="46.7014" width="244.324" height="292.127" filterUnits="userSpaceOnUse" color-interpolation-filters="sRGB">
<feFlood flood-opacity="0" result="BackgroundImageFix"/>
<feColorMatrix in="SourceAlpha" type="matrix" values="0 0 0 0 0 0 0 0 0 0 0 0 0 0 0 0 0 0 127 0" result="hardAlpha"/>
<feOffset dx="12.1643"/>
<feGaussianBlur stdDeviation="3.64928"/>
<feComposite in2="hardAlpha" operator="out"/>
<feColorMatrix type="matrix" values="0 0 0 0 0 0 0 0 0 0.396078 0 0 0 0 0.65098 0 0 0 0.15 0"/>
<feBlend mode="normal" in2="BackgroundImageFix" result="effect1_dropShadow_7564_29109"/>
<feBlend mode="normal" in="SourceGraphic" in2="effect1_dropShadow_7564_29109" result="shape"/>
</filter>
<filter id="filter1_d_7564_29109" x="68" y="0.701448" width="369.866" height="357.597" filterUnits="userSpaceOnUse" color-interpolation-filters="sRGB">
<feFlood flood-opacity="0" result="BackgroundImageFix"/>
<feColorMatrix in="SourceAlpha" type="matrix" values="0 0 0 0 0 0 0 0 0 0 0 0 0 0 0 0 0 0 127 0" result="hardAlpha"/>
<feOffset dx="12.1643"/>
<feGaussianBlur stdDeviation="3.64928"/>
<feComposite in2="hardAlpha" operator="out"/>
<feColorMatrix type="matrix" values="0 0 0 0 0 0 0 0 0 0.396078 0 0 0 0 0.65098 0 0 0 0.15 0"/>
<feBlend mode="normal" in2="BackgroundImageFix" result="effect1_dropShadow_7564_29109"/>
<feBlend mode="normal" in="SourceGraphic" in2="effect1_dropShadow_7564_29109" result="shape"/>
</filter>
<linearGradient id="paint0_linear_7564_29109" x1="211.279" y1="176.875" x2="169.515" y2="115.773" gradientUnits="userSpaceOnUse">
<stop stop-color="#00EB87"/>
<stop offset="1" stop-color="#0066A6"/>
</linearGradient>
<linearGradient id="paint1_linear_7564_29109" x1="97.6992" y1="134.677" x2="36.6001" y2="94.9301" gradientUnits="userSpaceOnUse">
<stop stop-color="#00EB87"/>
<stop offset="1" stop-color="#0066A6"/>
</linearGradient>
<linearGradient id="paint2_linear_7564_29109" x1="181.003" y1="224.568" x2="157.642" y2="181.287" gradientUnits="userSpaceOnUse">
<stop stop-color="#00EB87"/>
<stop offset="1" stop-color="#0066A6"/>
</linearGradient>
<linearGradient id="paint3_linear_7564_29109" x1="61.1747" y1="220.634" x2="34.9539" y2="176.248" gradientUnits="userSpaceOnUse">
<stop stop-color="#00EB87"/>
<stop offset="1" stop-color="#0066A6"/>
</linearGradient>
<linearGradient id="paint4_linear_7564_29109" x1="81.242" y1="202.536" x2="23.4993" y2="147.927" gradientUnits="userSpaceOnUse">
<stop stop-color="#00EB87"/>
<stop offset="1" stop-color="#0066A6"/>
</linearGradient>
</defs>
</svg>
