<svg width="1500" height="304" viewBox="0 0 1500 304" fill="none" xmlns="http://www.w3.org/2000/svg">
<path fill-rule="evenodd" clip-rule="evenodd" d="M0 0L7.63308e-05 303.5H1500V246L1493.01 249.5L1486.53 245L1484.03 251L1476.55 253L1456.59 248.5L1437.62 253L1413.17 246L1405.69 249.5L1399.2 246H1390.72L1387.72 253L1382.24 248.5L1374.75 253L1368.26 249.5L1362.28 255.5L1344.31 246L1315.37 253L1300.4 237.5L1267.47 229H1231.54L1198.1 221L1168.16 239.5H1133.23L1098.3 226L1060.88 233.5L1039.92 217H1018.96L1002.99 208L978.543 229L966.068 199.569L950.599 221L938.124 208L917.665 221H884.232L855.788 208L827.844 221L794.91 226L763.473 217L733.034 226L718.563 217L698.603 221L676.785 199.105L657.887 194.604L654.587 198.907L646.172 191.625L625.384 199.569L609.78 204.5L572.854 187.5L537.425 199.569L516.467 182L486.028 187.5L470.873 167.871L465.183 160.671L440.434 154.631L434.328 147.018L421.952 149.997L399.513 146.52L394.892 151.816C394.892 151.816 389.283 147.346 388.458 146.353C387.634 145.36 380.537 145.36 380.537 145.36L377.237 138.409L365.522 131.291L360.737 139.897C360.737 139.897 350.013 133.608 350.176 131.622C350.34 129.636 339.122 127.482 338.131 127.482C337.14 127.482 331.531 135.757 331.531 135.757L319.322 145.029L304.804 140.559L300.019 144.2L288.471 146.684L280.056 143.705L272.631 149.168L249.862 142.217L233.031 147.844L210.262 147.513L207.622 128.643L200.692 116.727L189.801 121.692L180.562 120.699V102.821L169.014 98.5181L162.58 89.912L153.835 90.5741L147.235 80.975L139.974 79.32L135.189 68.728L124.629 66.742L115.553 54.3277L105.159 57.1429L98.7259 52.1779L90.641 54.6621L83.7107 46.3871L70.8411 50.0281L0 0Z" fill="#F8F9FB"/>
</svg>
