<svg width="1074" height="564" viewBox="0 0 1074 564" fill="none" xmlns="http://www.w3.org/2000/svg">
<g filter="url(#filter0_d_1_190)">
<path d="M393.549 272.208L392.441 273.259L394.335 277.608L398.434 277.382L400.669 275.3L395.681 271.466L393.549 272.208Z" fill="#D4BDF0"/>
<path d="M395.682 271.466L395.961 274.826L398.435 277.382L400.67 275.3L395.682 271.466Z" fill="#B08EF0"/>
<path d="M965.05 246.724L966 245.822L964.376 242.093L960.861 242.288L958.944 244.073L963.222 247.36L965.05 246.724Z" fill="#D4BDF0"/>
<path d="M963.221 247.36L962.981 244.479L960.86 242.287L958.943 244.072L963.221 247.36Z" fill="#B08EF0"/>
<path d="M625.971 282.971L624.854 284.023L626.758 288.371L630.856 288.145L633.081 286.063L628.103 282.229L625.971 282.971Z" fill="#D4BDF0"/>
<path d="M628.102 282.229L628.381 285.589L630.854 288.145L633.08 286.063L628.102 282.229Z" fill="#B08EF0"/>
<path d="M724.301 249.643L725.26 248.741L723.627 245.012L720.112 245.206L718.204 246.992L722.473 250.279L724.301 249.643Z" fill="#D4BDF0"/>
<path d="M722.473 250.279L722.233 247.398L720.112 245.206L718.204 246.992L722.473 250.279Z" fill="#B08EF0"/>
<path d="M71.6947 194.172L71.0634 193.379L68.0621 194.419L68 197.14L69.2833 198.727L72.088 195.615L71.6947 194.172Z" fill="#D4BDF0"/>
<path d="M72.088 195.615L69.8318 195.636L68 197.14L69.2833 198.727L72.088 195.615Z" fill="#B08EF0"/>
<path d="M263.807 246.991L262.141 245.156L255 248.073L255.238 254.699L258.56 258.358L264.946 250.443L263.807 246.991Z" fill="#2487FB"/>
<path d="M264.948 250.443L259.483 250.793L255.24 254.699L258.562 258.358L264.948 250.443Z" fill="#1341C4"/>
<path d="M201.909 77.986L200.636 76.873L196 79.4185L196.683 83.9013L199.229 86.1273L202.955 80.2532L201.909 77.986Z" fill="#2487FB"/>
<path d="M53.2716 47L49.577 47.6596L47 50.6481L49.5459 52.8741L53.2716 47Z" fill="#1341C4"/>
<path d="M494.598 390.725L492.29 388.694L483.896 393.301L485.128 401.432L489.744 405.482L496.492 394.826L494.598 390.725Z" fill="#2487FB"/>
<path d="M496.492 394.827L489.807 396.022L485.129 401.433L489.745 405.483L496.492 394.827Z" fill="#1341C4"/>
<path d="M836.958 157.24L838.937 158.981L846.135 155.03L845.079 148.058L841.121 144.585L835.334 153.723L836.958 157.24Z" fill="#2487FB"/>
<path d="M835.334 153.724L841.067 152.698L845.078 148.059L841.12 144.586L835.334 153.724Z" fill="#1341C4"/>
<path d="M456.15 326.129L456.46 324.913L453.21 322.718L450.457 324.676L449.826 327.108L454.99 327.582L456.15 326.129Z" fill="#2487FB"/>
<path d="M454.99 327.583L453.304 325.367L450.457 324.677L449.826 327.109L454.99 327.583Z" fill="#1341C4"/>
<path d="M869.925 212.632L869.659 213.674L872.446 215.557L874.806 213.878L875.348 211.792L870.919 211.385L869.925 212.632Z" fill="#2487FB"/>
<path d="M870.919 211.385L872.366 213.285L874.806 213.878L875.348 211.792L870.919 211.385Z" fill="#1341C4"/>
<path d="M347.267 194.623L347.001 195.666L349.787 197.548L352.148 195.869L352.689 193.783L348.261 193.377L347.267 194.623Z" fill="#2487FB"/>
<path d="M348.261 193.377L349.707 195.277L352.148 195.869L352.689 193.784L348.261 193.377Z" fill="#1341C4"/>
<path d="M691.689 170.838L693.726 172.883L699.242 174.459L703.35 173.588L706.654 168.004L703.3 163.055L693.826 161.702L692.906 161.785L692.06 168.66L691.689 170.838Z" fill="#1341C4"/>
<path d="M699.242 174.459L694.222 172.352L696.089 167.183L700.426 169.622L706.654 168.004L703.3 163.055L692.906 161.785L691.689 170.838L693.726 172.883L699.242 174.459Z" fill="#072B88"/>
<path d="M692.905 161.786L696.088 167.183L694.221 172.353L691.688 170.838L692.905 161.786Z" fill="#001863"/>
<path d="M700.426 169.622L698.326 162.249L703.3 163.054L706.654 168.004L700.426 169.622Z" fill="#001863"/>
<path d="M541.149 186.77L543.447 186.131L543.996 178.783L538.19 176.145L533.615 177.403L537.693 186.255L541.149 186.77Z" fill="#D4BDF0"/>
<path d="M537.693 186.255L539.732 181.442L538.19 176.145L533.615 177.403L537.693 186.255Z" fill="#B08EF0"/>
<path d="M797.037 332.139L795.067 332.686L794.597 338.987L799.575 341.25L803.498 340.172L800.001 332.58L797.037 332.139Z" fill="#D4BDF0"/>
<path d="M800.001 332.58L798.253 336.707L799.575 341.25L803.498 340.172L800.001 332.58Z" fill="#B08EF0"/>
<path d="M901.517 348.851L897.957 345.729L885 352.84L886.904 365.392L894.025 371.637L904.436 355.189L901.517 348.851Z" fill="#2487FB"/>
<path d="M904.436 355.189L894.118 357.034L886.904 365.391L894.025 371.637L904.436 355.189Z" fill="#1341C4"/>
<path d="M740.502 371.243L743.555 373.921L754.666 367.823L753.033 357.06L746.927 351.704L737.999 365.809L740.502 371.243Z" fill="#2487FB"/>
<path d="M737.999 365.809L746.847 364.227L753.033 357.06L746.927 351.704L737.999 365.809Z" fill="#1341C4"/>
<path d="M1012.5 514.634L1015.55 517.312L1026.67 511.214L1025.03 500.45L1018.93 495.095L1010 509.199L1012.5 514.634Z" fill="#2487FB"/>
<path d="M1010 509.199L1018.85 507.617L1025.03 500.45L1018.93 495.095L1010 509.199Z" fill="#1341C4"/>
</g>
<defs>
<filter id="filter0_d_1_190" x="0.428368" y="0.428368" width="1072.81" height="563.455" filterUnits="userSpaceOnUse" color-interpolation-filters="sRGB">
<feFlood flood-opacity="0" result="BackgroundImageFix"/>
<feColorMatrix in="SourceAlpha" type="matrix" values="0 0 0 0 0 0 0 0 0 0 0 0 0 0 0 0 0 0 127 0" result="hardAlpha"/>
<feMorphology radius="5.17463" operator="erode" in="SourceAlpha" result="effect1_dropShadow_1_190"/>
<feOffset/>
<feGaussianBlur stdDeviation="25.8731"/>
<feComposite in2="hardAlpha" operator="out"/>
<feColorMatrix type="matrix" values="0 0 0 0 0 0 0 0 0 0.921569 0 0 0 0 0.52549 0 0 0 0.7 0"/>
<feBlend mode="normal" in2="BackgroundImageFix" result="effect1_dropShadow_1_190"/>
<feBlend mode="normal" in="SourceGraphic" in2="effect1_dropShadow_1_190" result="shape"/>
</filter>
</defs>
</svg>
