<svg width="374" height="147" viewBox="0 0 374 147" fill="none" xmlns="http://www.w3.org/2000/svg">
<path d="M184.542 0.00012207L184.917 31.1874L199.922 37.1674V2.50835L184.542 0.00012207Z" fill="#04619D"/>
<path d="M184.542 0.00012207L173.899 1.73602L173.774 26.3696L184.917 31.1874L184.542 0.00012207Z" fill="#014A7A"/>
<path d="M74.4888 144.713L74.7904 41.8537L158.533 16.6316L228.616 45.6565L229.926 145.441L74.4888 144.713Z" fill="#04619D"/>
<path d="M74.4894 144.713L17.8079 146.007L19.61 50.4079L74.7909 41.8535L74.4894 144.713Z" fill="#014A7A"/>
<path d="M65.065 44.7806L63.204 41.4118L170.624 9.25348L261.487 50.6945L259.824 54.3943L171.676 12.6885L65.065 44.7806Z" fill="#6FCEF6"/>
<path d="M54.3423 75.9754L54.5188 44.3247L35.8947 45.5531L36.2478 76.9169L54.3423 75.9754Z" fill="#146BF1"/>
<path d="M52.6497 73.7099L52.7968 46.5902L37.5194 47.5979L37.8798 74.8353L52.6497 73.7099Z" fill="#002DA4"/>
<path d="M39.1395 74.6589L38.9703 48.3336L52.7471 47.6422L52.6515 73.71L39.1395 74.6589Z" fill="#064BC7"/>
<path d="M52.6497 73.7097L39.8144 74.5115L39.454 48.7525L52.6497 48.142V73.7097Z" fill="url(#paint0_linear_3_5368)"/>
<path d="M39.454 67.3847L52.6497 66.1049V66.8993L39.454 67.9364V67.3847Z" fill="#064BC7"/>
<path d="M54.5186 44.3247L56.0264 45.2221V75.9754H54.342L54.5186 44.3247Z" fill="#064BC7"/>
<path d="M54.3423 129.98L54.5188 98.3289L36.1154 99.3293L35.8947 129.98H54.3423Z" fill="#146BF1"/>
<path d="M52.6497 127.714L52.7968 100.594L37.7474 101.374L37.5194 127.891L52.6497 127.714Z" fill="#002DA4"/>
<path d="M38.7855 127.714L39.1974 102.117L52.7462 101.646L52.6506 127.714H38.7855Z" fill="#064BC7"/>
<path d="M52.6497 127.714L39.454 127.567L39.682 102.529L52.6497 102.147V127.714Z" fill="url(#paint1_linear_3_5368)"/>
<path d="M39.454 120.351L52.6497 120.1V120.902H39.454V120.351Z" fill="#064BC7"/>
<path d="M54.5186 98.3289L56.0264 99.219V129.98H54.342L54.5186 98.3289Z" fill="#064BC7"/>
<path d="M259.826 54.3941L228.72 53.7541L228.669 47.2519L158.534 16.631L171.678 12.6884L259.826 54.3941Z" fill="#348CF2"/>
<path d="M170.627 9.25348L99.793 22.0815L6.54718 50.3046L63.2067 41.4118L170.627 9.25348Z" fill="#348CF2"/>
<path d="M6.54718 50.3042L7.23124 53.0478L65.0675 44.7802L63.2065 41.4114L6.54718 50.3042Z" fill="#146BF1"/>
<path d="M65.0661 33.5853L90.8545 29.069L82.9179 13.8505L65.0661 33.5853Z" fill="#04619D"/>
<path d="M143.897 14.0927L77.881 12.1949L89.8484 30.672L143.897 14.0927Z" fill="#6FCEF6"/>
<path d="M55.1728 36.5642L65.0659 33.5853L79.9976 17.0795L77.4746 13.8505L55.1728 36.5642Z" fill="#014A7A"/>
<path d="M89.8457 30.672L87.9333 31.0839L77.4738 13.8499L54.2746 37.4758L53.2889 36.8653L77.8784 12.1949L89.8457 30.672Z" fill="#146BF1"/>
<path d="M236.891 65.1187L343.009 94.5774L344.215 145.227L236.347 144.506L236.891 65.1187Z" fill="#04619D"/>
<path d="M248.372 143.263V95.1651L331.975 98.3206L333.269 143.542L248.372 143.263Z" fill="#014A7A"/>
<path d="M362.037 96.9234L228.858 60.1385L228.821 56.9977L362.89 94.371L362.037 96.9234Z" fill="#6FCEF6"/>
<path d="M343.009 94.5778L343.075 97.3288L362.038 96.9242L228.859 60.1393V64.1701L343.009 94.5778Z" fill="#348CF2"/>
<path d="M229.807 143.264L228.859 64.1703L236.883 66.3108V143.374L229.807 143.264Z" fill="#014A7A"/>
<path d="M90.7004 138.247L90.7445 92.2236L174.685 93.5476L174.752 137.982L90.7004 138.247Z" fill="#146BF1"/>
<path d="M92.9865 136.327L93.0969 94.2461L172.536 95.4597L172.595 135.989L92.9865 136.327Z" fill="#002DA4"/>
<path d="M92.9865 136.327L169.528 135.989V96.0928L93.0969 95.0851L92.9865 136.327Z" fill="#064BC7"/>
<path d="M92.9865 135.217L168.498 134.952L168.579 96.8946L93.597 95.7766L92.9865 135.217Z" fill="url(#paint2_linear_3_5368)"/>
<path d="M186.844 80.0579L186.608 48.4072L211.639 49.6356V80.0579H186.844Z" fill="#146BF1"/>
<path d="M189.117 77.7923L188.926 50.6726L209.447 51.6803V77.9762L189.117 77.7923Z" fill="#002DA4"/>
<path d="M207.748 77.7913L207.498 52.4149L188.992 51.7235L189.117 77.7913H207.748Z" fill="#064BC7"/>
<path d="M189.117 77.7915L206.843 77.6444V52.8269L189.117 52.2238V77.7915Z" fill="url(#paint3_linear_3_5368)"/>
<path d="M206.843 70.4363L189.117 70.1862V70.9806H206.843V70.4363Z" fill="#064BC7"/>
<path d="M186.61 48.4072L185.683 49.2972V80.0579H186.845L186.61 48.4072Z" fill="#002DA4"/>
<path d="M139.564 78.8959L139.328 47.2452L164.352 48.4735V78.8959H139.564Z" fill="#146BF1"/>
<path d="M141.836 76.6303L141.645 49.5106L162.167 50.5183V76.8069L141.836 76.6303Z" fill="#002DA4"/>
<path d="M160.468 76.6305L160.218 51.254L141.711 50.5626L141.836 76.6305H160.468Z" fill="#064BC7"/>
<path d="M141.837 76.6294L159.563 76.4823V51.6649L141.837 51.0617V76.6294Z" fill="url(#paint4_linear_3_5368)"/>
<path d="M159.563 69.2681L141.837 69.0253V69.8197H159.563V69.2681Z" fill="#064BC7"/>
<path d="M139.327 47.2452L138.4 48.1352V78.8959H139.562L139.327 47.2452Z" fill="#002DA4"/>
<path d="M91.3249 77.3361L91.0895 45.6854L116.113 46.9138V77.3361H91.3249Z" fill="#146BF1"/>
<path d="M93.6008 75.0706L93.4022 47.9509L113.931 48.9512V75.2471L93.6008 75.0706Z" fill="#002DA4"/>
<path d="M112.231 75.0707L111.981 49.6943L93.4747 49.0028L93.5998 75.0707H112.231Z" fill="#064BC7"/>
<path d="M93.5979 75.0697L111.325 74.9226V50.1051L93.5979 49.502V75.0697Z" fill="#001C93"/>
<path d="M111.325 67.7082L93.5979 67.4581V68.2598H111.325V67.7082Z" fill="#064BC7"/>
<path d="M91.0905 45.6854L90.1637 46.5754V77.3361H91.3259L91.0905 45.6854Z" fill="#002DA4"/>
<path d="M213.418 143.491L212.543 97.9387H187.725L188.255 144.227L213.418 143.491Z" fill="#002DA4"/>
<path d="M188.241 143.256H209.778L209.292 99.0718H187.741L188.241 143.256Z" fill="#04619D"/>
<path d="M204.733 99.9469H208.19L208.484 137.372H204.733V99.9469Z" fill="url(#paint5_radial_3_5368)"/>
<path d="M186.072 143.491V96.0481H214.906L215.641 143.417L213.42 143.491L212.544 97.9385H187.727L188.242 143.256L186.072 143.491Z" fill="#146BF1"/>
<path d="M186.073 96.0481L185.147 96.5556V143.307L186.073 143.491V96.0481Z" fill="#002DA4"/>
<path d="M329.474 143.373L328.348 99.1148L248.372 96.5183V143.262L329.474 143.373Z" fill="#04619D"/>
<path d="M228.667 47.2526L74.79 41.8537L158.533 16.6316L228.667 47.2526Z" fill="#04619D"/>
<path d="M90.7445 92.2236L90.0016 92.9371L89.4426 136.989L90.7004 138.247L90.7445 92.2236Z" fill="#002DA4"/>
<path style="mix-blend-mode:screen" opacity="0.5" d="M166.779 102.44H143.815V135.106H166.779V102.44Z" fill="url(#paint6_linear_3_5368)"/>
<path style="mix-blend-mode:screen" opacity="0.5" d="M112.288 101.521H103.917V134.187H112.288V101.521Z" fill="url(#paint7_linear_3_5368)"/>
<g style="mix-blend-mode:screen" opacity="0.72">
<path d="M89.488 35.4612C95.4091 36.0334 99.7452 41.2973 99.173 47.2184C98.6007 53.1395 93.3369 57.4756 87.4158 56.9034C81.4947 56.3312 77.1585 51.0673 77.7307 45.1462C78.303 39.2251 83.5669 34.8889 89.488 35.4612Z" fill="url(#paint8_radial_3_5368)" style="mix-blend-mode:screen"/>
<path d="M89.488 35.4612C95.4091 36.0334 99.7452 41.2973 99.173 47.2184C98.6007 53.1395 93.3369 57.4756 87.4158 56.9034C81.4947 56.3312 77.1585 51.0673 77.7307 45.1462C78.303 39.2251 83.5669 34.8889 89.488 35.4612Z" stroke="#58FFFE" stroke-width="0.25957"/>
</g>
<g style="mix-blend-mode:screen" opacity="0.72">
<path d="M234.208 51.1687C234.208 59.8351 227.183 66.8606 218.516 66.8606C209.85 66.8606 202.825 59.8351 202.825 51.1687C202.825 42.5023 209.85 35.4768 218.516 35.4768C227.183 35.4768 234.208 42.5023 234.208 51.1687Z" fill="url(#paint9_radial_3_5368)" style="mix-blend-mode:screen"/>
<path d="M234.208 51.1687C234.208 59.8351 227.183 66.8606 218.516 66.8606C209.85 66.8606 202.825 59.8351 202.825 51.1687C202.825 42.5023 209.85 35.4768 218.516 35.4768C227.183 35.4768 234.208 42.5023 234.208 51.1687Z" stroke="#58FFFE" stroke-width="0.25957"/>
</g>
<g style="mix-blend-mode:multiply" opacity="0.88">
<path d="M228.72 53.7549L139.328 26.5248L74.6143 45.6859L19.4259 65.1191L19.5951 51.2908L65.0669 44.7811L158.533 16.6316L228.668 47.2526L228.72 53.7549Z" fill="#1960B0"/>
</g>
<g style="mix-blend-mode:multiply" opacity="0.88">
<path d="M343.008 94.5779L343.075 97.3289L229.013 75.7258L228.859 64.1703L343.008 94.5779Z" fill="#1960B0"/>
</g>
<path d="M116.857 134.952L116.482 134.945L117.033 96.0413L117.401 96.0487L116.857 134.952Z" fill="#002DA4"/>
<path d="M145.72 95.7766H145.345V134.952H145.72V95.7766Z" fill="#002DA4"/>
<path style="mix-blend-mode:screen" d="M215.4 117.129C215.157 126.088 211.023 133.252 206.176 133.12C201.321 132.987 197.585 125.617 197.827 116.651C198.07 107.685 202.204 100.528 207.051 100.66C211.906 100.792 215.642 108.163 215.4 117.129Z" fill="url(#paint10_radial_3_5368)"/>
<g style="mix-blend-mode:multiply" opacity="0.88">
<path d="M209.447 101.411L187.734 105.53L187.741 99.0718H209.293L209.447 101.411Z" fill="#1960B0"/>
</g>
<path d="M248.41 102.999L328.364 104.323L329.739 103.654L248.476 102.286L248.41 102.999Z" fill="#002DA4"/>
<path d="M329.741 103.654L328.439 102.668L248.352 101.344L248.477 102.286L329.741 103.654Z" fill="#1455D7"/>
<path d="M248.41 110.127L328.364 111.451L329.739 110.782L248.476 109.414L248.41 110.127Z" fill="#002DA4"/>
<path d="M329.741 110.782L328.439 109.797L248.352 108.473L248.477 109.414L329.741 110.782Z" fill="#002C48"/>
<path d="M248.41 117.254L328.364 118.578L329.739 117.909L248.476 116.541L248.41 117.254Z" fill="#002DA4"/>
<path d="M329.741 117.908L328.439 116.923L248.352 115.599L248.477 116.54L329.741 117.908Z" fill="#002C48"/>
<path d="M248.372 125.898L328.363 125.706L329.739 125.037L248.438 125.184L248.372 125.898Z" fill="#002DA4"/>
<path d="M329.739 125.036L328.437 124.051L248.41 124.418L248.439 125.183L329.739 125.036Z" fill="#002C48"/>
<path d="M248.41 133.481L328.364 132.834L329.739 132.164L248.432 132.488L248.41 133.481Z" fill="#002DA4"/>
<path d="M329.739 132.164L328.437 131.178L248.41 131.627L248.432 132.488L329.739 132.164Z" fill="#002C48"/>
<path d="M248.409 139.541L329.349 139.821L329.474 143.373L248.372 143.263L248.409 139.541Z" fill="url(#paint11_radial_3_5368)"/>
<g style="mix-blend-mode:multiply" opacity="0.88">
<path d="M331.55 99.2178L248.375 96.5183L248.308 105.132H328.777L331.55 99.2178Z" fill="#1960B0"/>
</g>
<path d="M18.8896 88.7224L74.4898 85.2433L74.4603 82.1613L18.9631 86.1554L18.8896 88.7224Z" fill="#2FCAFE"/>
<path d="M93.077 82.5953L74.4603 82.1613L74.4897 85.2433L92.9299 85.3978L93.077 82.5953Z" fill="#58FFFE"/>
<path d="M229.072 87.4133L183.858 87.5531L183.607 90.3187L229.072 90.1937V87.4133Z" fill="#149FF1"/>
<path d="M172.826 49.1204L173.076 90.3259L176.041 90.3112L175.695 49.2969L172.826 49.1204Z" fill="#149FF1"/>
<path d="M228.228 87.4133L182.675 87.5604L182.756 90.3187L228.228 90.1937V87.4133Z" fill="#58FFFE"/>
<path d="M171.971 49.1204L172.221 90.3259L175.185 90.3112L174.84 49.2969L171.971 49.1204Z" fill="#58FFFE"/>
<path d="M17.8819 139.248L34.3876 138.953V143.036L17.8451 143.006L17.8819 139.248Z" fill="#2FCAFE"/>
<path d="M130.965 83.1912V86.4496L154.194 86.788L154.164 83.6104L130.965 83.1912Z" fill="#149FF1"/>
<path d="M130.066 83.1912V86.4496L153.302 86.788L153.265 83.6104L130.066 83.1912Z" fill="#58FFFE"/>
<path d="M256.566 71.5548L257.059 95.3719L259.994 95.4749L259.744 72.4448L256.566 71.5548Z" fill="#149FF1"/>
<path d="M255.979 71.3922L256.472 95.3711L259.407 95.4741L259.157 72.2381L255.979 71.3922Z" fill="#58FFFE"/>
<path d="M175.42 143.359L178.252 143.307V129.596H175.42V143.359Z" fill="#149FF1"/>
<path d="M174.789 143.359L177.614 143.307V129.596H174.789V143.359Z" fill="#58FFFE"/>
<path d="M338.868 143.845L341.7 143.786L341.288 130.082H338.868V143.845Z" fill="#149FF1"/>
<path d="M338.236 143.845L341.068 143.786L340.605 130.082H337.773L338.236 143.845Z" fill="#58FFFE"/>
<path d="M373.042 146.999L0.000183105 146.352V142.969L373.042 143.616V146.999Z" fill="#002C48"/>
<path d="M0.000183105 142.969L69.1492 143.101L69.6273 146.477L0.000183105 146.352V142.969Z" fill="#002C48"/>
<path d="M85.7354 55.8801C84.0215 55.8801 82.293 52.8496 82.2121 52.7099L82.5284 52.5333C83.0727 53.4969 84.7718 55.9022 86.0664 55.4682C87.3757 55.0268 87.5448 51.5918 87.4933 50.3046L87.8538 50.2899C87.8538 50.4885 88.0082 55.196 86.1767 55.8139C86.0296 55.8654 85.8825 55.8874 85.728 55.8874L85.7354 55.8801Z" fill="#40BDF6"/>
<g style="mix-blend-mode:multiply" opacity="0.88">
<path d="M78.615 48.8181L78.159 48.8475L78.0339 53.4079L74.746 57.2842L74.7239 64.0881L78.078 54.9746L78.1737 55.7249L82.5281 55.3424V49.0608L78.615 48.8181Z" fill="#1960B0"/>
</g>
<path d="M79.0419 48.3255V55.0779H83.1242V48.3182L79.0419 48.3255Z" fill="#6FCEF6"/>
<path d="M79.0418 48.3257L78.6152 48.8185V54.8941L79.0418 55.078V48.3257Z" fill="#146BF1"/>
<path d="M80.4026 49.9363V53.5037L86.9931 50.3556V48.9875L80.4026 49.9363Z" fill="#348CF2"/>
<path d="M80.4026 53.5043H83.1241L87.6772 50.2899L86.9931 50.3561L80.4026 53.5043Z" fill="#146BF1"/>
<path d="M95.1425 46.0899C95.1425 46.0899 95.4073 47.1932 93.9068 51.2314L92.8329 50.9445C92.8329 50.9445 93.4728 47.1932 95.1425 46.0899V46.0899Z" fill="#348CF2"/>
<path d="M80.851 47.5464C80.851 47.5464 81.079 48.3187 81.719 48.8998L91.7886 51.9891C91.7886 51.9891 92.686 51.9891 93.4583 51.1506L80.851 47.5464V47.5464Z" fill="#348CF2"/>
<g style="mix-blend-mode:multiply" opacity="0.88">
<path d="M83.4034 49.5024L85.6836 50.9809L86.0072 51.4663L87.2797 50.5689L83.6976 49.4877L83.4034 49.5024Z" fill="#1960B0"/>
</g>
<path d="M94.29 46.9868C94.29 46.9868 94.7608 48.0166 93.6281 51.1794C93.6281 51.1794 91.9804 52.0989 92.488 50.694C92.488 50.694 93.5692 47.5973 94.29 46.9868V46.9868Z" fill="#002DA4"/>
<path d="M83.8962 42.7582C83.8962 42.7582 81.9028 43.2584 80.6377 47.4731L92.3329 51.1214C92.3329 51.1214 93.9511 46.6493 95.1501 46.0976L83.8962 42.7656V42.7582Z" fill="#6FCEF6"/>
<g style="mix-blend-mode:multiply" opacity="0.88">
<path d="M80.851 47.5462L92.3256 51.1136L92.48 50.6944L92.3844 51.2461C92.3844 51.2461 82.8738 48.5981 81.3512 48.4877C81.0937 48.1126 80.9834 47.914 80.851 47.5389V47.5462Z" fill="#1960B0"/>
</g>
<path d="M93.9152 51.2314C93.9152 51.2314 94.9891 47.7449 94.9008 46.5239C94.9008 46.5239 93.6577 47.8332 92.3337 51.1137C92.3337 51.1137 93.9299 46.5827 95.1509 46.0899C95.1509 46.0899 95.298 47.8773 93.9152 51.2314Z" fill="#58FFFE"/>
<path d="M86.0077 51.466L83.1244 53.5035L85.8901 51.2968L86.0077 51.466Z" fill="#58FFFE"/>
<path d="M245.173 92.3264C245.026 92.3264 244.886 92.3117 244.739 92.2896C242.893 91.9881 240.723 88.884 240.627 88.7516L240.921 88.5457C240.921 88.5457 243.091 91.6497 244.79 91.9292C246.894 92.2823 249.792 89.4504 249.822 89.421L250.079 89.6784C249.961 89.7961 247.372 92.319 245.165 92.319L245.173 92.3264Z" fill="#40BDF6"/>
<g style="mix-blend-mode:multiply" opacity="0.88">
<path d="M237.707 87.7664L237.251 87.7958L237.126 92.3562L236.883 92.6431L236.89 94.6879L237.17 93.9229L237.266 94.6732L241.62 94.2907V88.0091L237.707 87.7664Z" fill="#1960B0"/>
</g>
<path d="M238.127 87.2735V94.0332H242.217V87.2661L238.127 87.2735Z" fill="#6FCEF6"/>
<path d="M238.127 87.274L237.707 87.7668V93.8424L238.127 94.0337V87.274Z" fill="#146BF1"/>
<path d="M239.495 88.8846V92.452L246.085 89.3039V87.9357L239.495 88.8846Z" fill="#348CF2"/>
<path d="M239.495 92.4515H242.216L246.769 89.2371L246.085 89.3033L239.495 92.4515Z" fill="#146BF1"/>
<path d="M254.235 85.0371C254.235 85.0371 254.5 86.1404 252.999 90.1786L251.925 89.8917C251.925 89.8917 252.565 86.1404 254.235 85.0371Z" fill="#348CF2"/>
<path d="M239.945 86.4936C239.945 86.4936 240.174 87.2659 240.813 87.847L250.883 90.9363C250.883 90.9363 251.78 90.9363 252.553 90.0977L239.945 86.4936Z" fill="#348CF2"/>
<g style="mix-blend-mode:multiply" opacity="0.88">
<path d="M242.496 88.4504L244.776 89.9288L245.099 90.4143L246.372 89.5169L242.79 88.4356L242.496 88.4504Z" fill="#1960B0"/>
</g>
<path d="M253.375 85.9351C253.375 85.9351 253.846 86.9648 252.713 90.1277C252.713 90.1277 251.066 91.0471 251.573 89.6422C251.573 89.6422 252.655 86.5456 253.375 85.9351V85.9351Z" fill="#002DA4"/>
<path d="M242.982 81.705C242.982 81.705 240.989 82.2052 239.724 86.4199L251.419 90.0682C251.419 90.0682 253.037 85.5961 254.236 85.0444L242.982 81.7124V81.705Z" fill="#6FCEF6"/>
<g style="mix-blend-mode:multiply" opacity="0.88">
<path d="M239.945 86.493L251.42 90.0604L251.575 89.6412L251.479 90.1928C251.479 90.1928 241.968 87.5449 240.446 87.4345C240.188 87.0594 240.078 86.8608 239.945 86.4857V86.493Z" fill="#1960B0"/>
</g>
<path d="M253.007 90.1786C253.007 90.1786 254.081 86.6921 253.993 85.4711C253.993 85.4711 252.75 86.7803 251.426 90.0609C251.426 90.0609 253.022 85.5299 254.243 85.0371C254.243 85.0371 254.39 86.8245 253.007 90.1786V90.1786Z" fill="#58FFFE"/>
<path d="M245.1 90.4143L242.217 92.4518L244.982 90.2451L245.1 90.4143Z" fill="#58FFFE"/>
<g style="mix-blend-mode:multiply" opacity="0.88">
<path d="M223.653 53.269L224.109 53.2984L224.234 57.8588L228.934 62.3751V66.678L224.189 59.4255L224.094 60.1758L219.739 59.7859V53.5117L223.653 53.269Z" fill="#1960B0"/>
</g>
<path d="M218.362 56.8367C216.648 56.8367 214.92 53.8062 214.839 53.6665L215.155 53.4899C215.699 54.4535 217.391 56.8661 218.693 56.4248C220.002 55.9835 220.172 52.5484 220.12 51.2612L220.481 51.2465C220.481 51.4451 220.635 56.1526 218.803 56.7705C218.656 56.822 218.509 56.8441 218.355 56.8441L218.362 56.8367Z" fill="#40BDF6"/>
<path d="M219.273 53.011V59.7634H223.356V52.9963L219.273 53.011Z" fill="#6FCEF6"/>
<path d="M219.276 53.0106L218.849 53.496V59.5717L219.276 59.7629V53.0106Z" fill="#146BF1"/>
<path d="M221.973 54.1732L222.238 58.1893L218.737 52.9522L220.201 52.2534L221.973 54.1732Z" fill="#348CF2"/>
<path d="M219.738 58.1897H222.239L219.679 52.5039L218.156 52.9011L219.738 58.1897Z" fill="#146BF1"/>
<path d="M210.146 49.7382C210.146 49.7382 209.417 51.1799 211.499 54.9385L213.154 54.1883C213.154 54.1883 211.955 50.5767 210.146 49.7382V49.7382Z" fill="#348CF2"/>
<path d="M224.496 49.0314C224.496 49.0314 224.386 49.8332 223.841 50.5025L214.345 55.0703C214.345 55.0703 212.896 55.4307 212.014 54.7098L224.496 49.0314Z" fill="#348CF2"/>
<path d="M211.126 50.4957C211.126 50.4957 210.817 51.5843 212.413 54.5412C212.413 54.5412 214.178 55.2032 213.465 53.894C213.465 53.894 211.935 50.9959 211.126 50.4957Z" fill="#002DA4"/>
<path d="M220.77 44.751C220.77 44.751 222.814 44.9422 224.697 48.9216L213.686 54.2837C213.686 54.2837 211.413 50.1058 210.141 49.738L220.762 44.751H220.77Z" fill="#6FCEF6"/>
<g style="mix-blend-mode:multiply" opacity="0.88">
<path d="M224.497 49.0314L213.692 54.2832L213.471 53.8934L213.648 54.423C213.648 54.423 222.658 50.3775 224.144 50.0465C224.343 49.6419 224.424 49.4212 224.497 49.0314Z" fill="#1960B0"/>
</g>
<g style="mix-blend-mode:multiply" opacity="0.88">
<path d="M218.362 53.5921L219.9 52.9963L220.812 52.9154L220.201 52.2534L218.245 53.1876L218.362 53.5921Z" fill="#1960B0"/>
</g>
<path d="M211.5 54.9385C211.5 54.9385 209.882 52.1288 210.286 50.0471C210.286 50.0471 212.221 51.6654 213.685 54.2839C213.685 54.2839 211.728 49.9368 210.139 49.7382C210.139 49.7382 209.448 51.4741 211.493 54.9385H211.5Z" fill="#58FFFE"/>
<path d="M218.363 53.592L219.739 58.1892L218.51 53.5405L218.363 53.592Z" fill="#58FFFE"/>
<defs>
<linearGradient id="paint0_linear_3_5368" x1="46.0519" y1="74.5115" x2="46.0519" y2="48.142" gradientUnits="userSpaceOnUse">
<stop stop-color="#FFB300"/>
<stop offset="1" stop-color="#FFFF3B"/>
</linearGradient>
<linearGradient id="paint1_linear_3_5368" x1="46.0519" y1="127.714" x2="46.0519" y2="102.147" gradientUnits="userSpaceOnUse">
<stop stop-color="#59AEFF"/>
<stop offset="1" stop-color="#68FFF6"/>
</linearGradient>
<linearGradient id="paint2_linear_3_5368" x1="130.779" y1="135.217" x2="130.779" y2="95.7766" gradientUnits="userSpaceOnUse">
<stop stop-color="#59AEFF"/>
<stop offset="1" stop-color="#68FFF6"/>
</linearGradient>
<linearGradient id="paint3_linear_3_5368" x1="197.98" y1="77.7915" x2="197.98" y2="52.2238" gradientUnits="userSpaceOnUse">
<stop stop-color="#FFB300"/>
<stop offset="1" stop-color="#FFFF3B"/>
</linearGradient>
<linearGradient id="paint4_linear_3_5368" x1="150.7" y1="76.6294" x2="150.7" y2="51.0617" gradientUnits="userSpaceOnUse">
<stop stop-color="#59BAF9"/>
<stop offset="1" stop-color="#85DEDA"/>
</linearGradient>
<radialGradient id="paint5_radial_3_5368" cx="0" cy="0" r="1" gradientUnits="userSpaceOnUse" gradientTransform="translate(206.608 118.659) scale(13.2987 13.2987)">
<stop stop-color="#D4BDF0"/>
<stop offset="1" stop-color="#A190F0"/>
</radialGradient>
<linearGradient id="paint6_linear_3_5368" x1="155.297" y1="135.106" x2="155.297" y2="102.44" gradientUnits="userSpaceOnUse">
<stop/>
<stop offset="1" stop-color="#D4BDF0"/>
</linearGradient>
<linearGradient id="paint7_linear_3_5368" x1="108.103" y1="134.179" x2="108.103" y2="101.521" gradientUnits="userSpaceOnUse">
<stop/>
<stop offset="1" stop-color="#D4BDF0"/>
</linearGradient>
<radialGradient id="paint8_radial_3_5368" cx="0" cy="0" r="1" gradientUnits="userSpaceOnUse" gradientTransform="translate(88.4519 46.1823) rotate(-84.48) scale(10.9008 10.9008)">
<stop/>
<stop offset="0.34" stop-color="#000102"/>
<stop offset="0.49" stop-color="#000809"/>
<stop offset="0.6" stop-color="#001315"/>
<stop offset="0.69" stop-color="#002427"/>
<stop offset="0.76" stop-color="#00393E"/>
<stop offset="0.83" stop-color="#00535B"/>
<stop offset="0.9" stop-color="#01727D"/>
<stop offset="0.96" stop-color="#0195A3"/>
<stop offset="1" stop-color="#02B3C4"/>
</radialGradient>
<radialGradient id="paint9_radial_3_5368" cx="0" cy="0" r="1" gradientUnits="userSpaceOnUse" gradientTransform="translate(218.516 51.1687) scale(15.8217 15.8217)">
<stop/>
<stop offset="0.34" stop-color="#000102"/>
<stop offset="0.49" stop-color="#000809"/>
<stop offset="0.6" stop-color="#001315"/>
<stop offset="0.69" stop-color="#002427"/>
<stop offset="0.76" stop-color="#00393E"/>
<stop offset="0.83" stop-color="#00535B"/>
<stop offset="0.9" stop-color="#01727D"/>
<stop offset="0.96" stop-color="#0195A3"/>
<stop offset="1" stop-color="#02B3C4"/>
</radialGradient>
<radialGradient id="paint10_radial_3_5368" cx="0" cy="0" r="1" gradientUnits="userSpaceOnUse" gradientTransform="translate(205.538 116.858) rotate(1.55) scale(8.74862 16.231)">
<stop stop-color="#9A13FC"/>
<stop offset="0.03" stop-color="#9312F0"/>
<stop offset="0.18" stop-color="#6C0DB1"/>
<stop offset="0.34" stop-color="#4B097B"/>
<stop offset="0.49" stop-color="#30054F"/>
<stop offset="0.64" stop-color="#1B032C"/>
<stop offset="0.77" stop-color="#0C0114"/>
<stop offset="0.9" stop-color="#030005"/>
<stop offset="1"/>
</radialGradient>
<radialGradient id="paint11_radial_3_5368" cx="0" cy="0" r="1" gradientUnits="userSpaceOnUse" gradientTransform="translate(288.923 141.461) scale(28.7085 28.7084)">
<stop stop-color="#D4BDF0"/>
<stop offset="1" stop-color="#A190F0"/>
</radialGradient>
</defs>
</svg>
