<svg width="352" height="197" viewBox="0 0 352 197" fill="none" xmlns="http://www.w3.org/2000/svg">
<g style="mix-blend-mode:screen" opacity="0.72">
<path d="M224.009 29.7052C224.009 45.8893 210.89 59.0091 194.705 59.0091C178.521 59.0091 165.402 45.8893 165.402 29.7052C165.402 13.5211 178.521 0.401346 194.705 0.401346C210.89 0.401346 224.009 13.5211 224.009 29.7052Z" fill="url(#paint0_radial_3_5510)" style="mix-blend-mode:screen"/>
<path d="M224.009 29.7052C224.009 45.8893 210.89 59.0091 194.705 59.0091C178.521 59.0091 165.402 45.8893 165.402 29.7052C165.402 13.5211 178.521 0.401346 194.705 0.401346C210.89 0.401346 224.009 13.5211 224.009 29.7052Z" stroke="#58FFFE" stroke-width="0.802692"/>
</g>
<path d="M196.463 40.0702C196.035 40.0702 195.547 39.9519 195.014 39.6414C191.347 37.4974 190.638 24.0273 192.589 20.3456C193.417 18.7635 194.541 19.0888 194.985 19.2958C198.193 20.8188 198.001 26.9993 197.188 29.9565C196.951 30.8141 196.552 31.79 195.783 31.7161C195.295 31.6717 194.172 31.5682 194.098 23.362C194.098 23.0219 194.364 22.7409 194.704 22.7409C195.044 22.7409 195.325 23.0071 195.325 23.3472C195.354 25.8756 195.561 28.7589 195.872 30.0009C196.286 28.8032 196.685 25.9939 196.242 23.569C196.035 22.4156 195.547 20.937 194.438 20.4047C194.29 20.3308 194.039 20.2125 193.669 20.9075C191.865 24.3378 192.826 36.9208 195.621 38.562C196.33 38.976 196.759 38.8134 197.025 38.6655C199.095 37.4531 200.145 30.6811 200.056 24.9293C200.056 24.5892 200.323 24.3083 200.663 24.3083C201.003 24.3378 201.284 24.5744 201.284 24.9145C201.343 29.5869 200.648 37.9854 197.632 39.7449C197.321 39.9224 196.922 40.0702 196.434 40.0702H196.463Z" fill="#58FFFE"/>
<path d="M194.718 43.9444C192.885 43.9444 191.11 43.2938 189.765 42.0518C185.58 38.2222 184.856 25.2548 187.517 19.0151C188.907 15.7474 190.829 15.1707 192.175 15.2594C199.435 15.7326 201.268 21.9131 201.283 21.9723C201.372 22.2976 201.18 22.6377 200.854 22.7412C200.529 22.8299 200.189 22.6524 200.086 22.3124C200.026 22.0906 198.444 16.9007 192.086 16.4867C190.711 16.3979 189.543 17.4034 188.641 19.503C186.024 25.654 187.133 37.9856 190.578 41.135C192.101 42.5249 194.275 43.0277 196.389 42.4806C198.71 41.8744 200.5 40.1296 201.313 37.6751C203.25 31.8642 203.087 23.4213 200.973 19.2516C198.888 15.1559 194.896 13.6921 189.07 14.9045C188.73 14.9785 188.405 14.7567 188.345 14.4314C188.271 14.0913 188.493 13.766 188.819 13.7069C195.177 12.3909 199.745 14.1209 202.082 18.7046C204.566 23.584 204.3 32.6626 202.496 38.0743C201.549 40.928 199.435 42.9685 196.714 43.6782C196.049 43.8557 195.384 43.9296 194.718 43.9296V43.9444Z" fill="#58FFFE"/>
<path d="M186.365 39.7158C186.099 39.7158 185.862 39.5531 185.774 39.287C183.186 31.3616 184.325 24.0277 184.369 23.7172C184.428 23.3772 184.753 23.1554 185.079 23.1997C185.419 23.2589 185.641 23.5694 185.596 23.9095C185.596 23.9834 184.458 31.2729 186.956 38.9025C187.06 39.2278 186.883 39.5827 186.557 39.6862C186.498 39.701 186.424 39.7158 186.365 39.7158Z" fill="#58FFFE"/>
<path d="M196.846 46.1921C196.107 46.1921 195.634 46.0147 195.604 45.9999C195.294 45.8816 195.131 45.512 195.264 45.2015C195.382 44.891 195.752 44.7283 196.063 44.8466C196.122 44.8614 197.112 45.2163 198.458 44.5805C199.744 43.9742 201.607 42.2886 203.145 37.8084C206.191 28.9072 204.284 19.0301 201.814 15.585C199.611 12.5243 194.495 12.5834 194.436 12.5982C194.111 12.6425 193.815 12.332 193.8 11.992C193.8 11.6519 194.066 11.3709 194.407 11.3562C194.643 11.3562 200.232 11.2674 202.82 14.8605C205.452 18.5126 207.492 28.922 204.313 38.2077C202.953 42.1703 201.149 44.6987 198.931 45.7338C198.133 46.1034 197.423 46.2069 196.861 46.2069L196.846 46.1921Z" fill="#58FFFE"/>
<path d="M194.911 48.1295C188.257 48.1295 185.921 43.6789 185.818 43.4866C185.655 43.1761 185.788 42.8065 186.084 42.6586C186.38 42.496 186.764 42.6143 186.912 42.9248C187.001 43.1022 189.263 47.2867 195.784 46.8727C196.124 46.8579 196.419 47.1092 196.434 47.4493C196.449 47.7894 196.198 48.0851 195.857 48.0999C195.532 48.1147 195.207 48.1295 194.896 48.1295H194.911Z" fill="#58FFFE"/>
<path d="M183.068 24.3087C183.068 24.3087 182.979 24.3087 182.935 24.3087C182.595 24.2347 182.388 23.9095 182.462 23.5694C184.916 11.8588 190.905 10.8533 191.156 10.8238C191.496 10.7794 191.807 11.016 191.851 11.3413C191.895 11.6814 191.673 11.9919 191.333 12.0362C191.23 12.051 185.907 13.086 183.659 23.8207C183.6 24.1165 183.349 24.3087 183.053 24.3087H183.068Z" fill="#58FFFE"/>
<g style="mix-blend-mode:screen" opacity="0.72">
<path d="M36.8596 132.793C36.8596 142.86 28.6981 151.022 18.6305 151.022C8.5628 151.022 0.401346 142.86 0.401346 132.793C0.401346 122.725 8.56279 114.564 18.6305 114.564C28.6981 114.564 36.8596 122.725 36.8596 132.793Z" fill="url(#paint1_radial_3_5510)" style="mix-blend-mode:screen"/>
<path d="M36.8596 132.793C36.8596 142.86 28.6981 151.022 18.6305 151.022C8.5628 151.022 0.401346 142.86 0.401346 132.793C0.401346 122.725 8.56279 114.564 18.6305 114.564C28.6981 114.564 36.8596 122.725 36.8596 132.793Z" stroke="#58FFFE" stroke-width="0.802692"/>
</g>
<path d="M19.2543 142.538L19.1212 142.493C19.0177 142.464 9.33287 138.797 8.07605 129.556L8.04648 129.289L19.2543 123.02L30.4622 129.289L30.4326 129.556C29.1758 138.797 19.4909 142.464 19.3874 142.493L19.2543 142.538V142.538ZM8.88928 129.703C10.1461 137.718 18.1158 141.251 19.2543 141.71C20.3928 141.251 28.3773 137.718 29.6194 129.703L19.2543 123.907L8.88928 129.703Z" fill="#58FFFE"/>
<path d="M19.2548 129.452C19.0478 129.452 18.8704 129.275 18.8704 129.068V123.464C18.8704 123.242 19.0478 123.079 19.2548 123.079C19.4618 123.079 19.6392 123.257 19.6392 123.464V129.068C19.6392 129.289 19.4618 129.452 19.2548 129.452Z" fill="#58FFFE"/>
<path d="M19.2548 142.494C19.0478 142.494 18.8704 142.316 18.8704 142.109V136.491C18.8704 136.269 19.0478 136.106 19.2548 136.106C19.4618 136.106 19.6392 136.284 19.6392 136.491V142.109C19.6392 142.331 19.4618 142.494 19.2548 142.494Z" fill="#58FFFE"/>
<path d="M19.2545 136.801C17.0218 136.801 15.1883 134.982 15.1883 132.735C15.1883 130.487 17.007 128.669 19.2545 128.669C21.5019 128.669 23.3206 130.487 23.3206 132.735C23.3206 134.982 21.5019 136.801 19.2545 136.801V136.801ZM19.2545 129.452C17.4358 129.452 15.972 130.931 15.972 132.735C15.972 134.539 17.4506 136.017 19.2545 136.017C21.0584 136.017 22.537 134.539 22.537 132.735C22.537 130.931 21.0584 129.452 19.2545 129.452Z" fill="#58FFFE"/>
<path d="M18.974 134.686L17.2293 133.075C17.0666 132.927 17.0666 132.69 17.1997 132.528C17.3476 132.38 17.5842 132.365 17.7468 132.498L18.9297 133.592L21.1624 131.271C21.3102 131.123 21.5616 131.108 21.7095 131.271C21.8573 131.419 21.8721 131.67 21.7095 131.818L18.9445 134.686H18.974Z" fill="#58FFFE"/>
<g style="mix-blend-mode:screen" opacity="0.72">
<path d="M350.965 178.632C350.965 188.079 343.307 195.737 333.86 195.737C324.413 195.737 316.754 188.079 316.754 178.632C316.754 169.185 324.413 161.526 333.86 161.526C343.307 161.526 350.965 169.185 350.965 178.632Z" fill="url(#paint2_radial_3_5510)" style="mix-blend-mode:screen"/>
<path d="M350.965 178.632C350.965 188.079 343.307 195.737 333.86 195.737C324.413 195.737 316.754 188.079 316.754 178.632C316.754 169.185 324.413 161.526 333.86 161.526C343.307 161.526 350.965 169.185 350.965 178.632Z" stroke="#58FFFE" stroke-width="0.802692"/>
</g>
<path d="M335.437 184.555H332.272C330.38 184.555 328.842 183.017 328.842 181.125V179.853C328.842 178.936 329.197 178.064 329.862 177.413C330.513 176.777 331.356 176.423 332.272 176.423H332.317L335.466 176.452C337.329 176.467 338.837 178.005 338.852 179.868V181.11C338.852 182.026 338.512 182.899 337.862 183.549C337.211 184.2 336.353 184.555 335.437 184.555V184.555ZM332.272 177.117C331.548 177.117 330.868 177.398 330.35 177.901C329.833 178.419 329.537 179.114 329.537 179.853V181.125C329.537 182.633 330.764 183.86 332.272 183.86H335.437C336.176 183.86 336.856 183.579 337.374 183.047C337.891 182.529 338.172 181.834 338.172 181.095V179.853C338.157 178.374 336.945 177.147 335.451 177.132L332.302 177.103H332.272V177.117Z" fill="#58FFFE"/>
<path d="M337.269 177.605C337.077 177.605 336.929 177.458 336.929 177.265V173.687C336.929 172.001 335.568 170.641 333.883 170.641C332.197 170.641 330.837 172.001 330.837 173.687V177.265C330.837 177.458 330.689 177.605 330.497 177.605C330.305 177.605 330.157 177.458 330.157 177.265V173.687C330.157 171.632 331.828 169.946 333.898 169.946C335.968 169.946 337.638 171.617 337.638 173.687V177.265C337.638 177.458 337.491 177.605 337.298 177.605H337.269Z" fill="#58FFFE"/>
<path d="M333.811 181.834C333.071 181.834 332.465 181.228 332.465 180.488C332.465 179.749 333.071 179.143 333.811 179.143C334.55 179.143 335.156 179.749 335.156 180.488C335.156 181.228 334.55 181.834 333.811 181.834ZM333.811 179.838C333.456 179.838 333.16 180.134 333.16 180.488C333.16 180.843 333.456 181.139 333.811 181.139C334.166 181.139 334.461 180.843 334.461 180.488C334.461 180.134 334.166 179.838 333.811 179.838Z" fill="#58FFFE"/>
<g style="mix-blend-mode:screen" opacity="0.72">
<path d="M143.24 72.8204C143.24 85.7543 132.755 96.2394 119.821 96.2394C106.887 96.2394 96.4016 85.7543 96.4016 72.8204C96.4016 59.8864 106.887 49.4013 119.821 49.4013C132.755 49.4013 143.24 59.8864 143.24 72.8204Z" fill="url(#paint3_radial_3_5510)" style="mix-blend-mode:screen"/>
<path d="M143.24 72.8204C143.24 85.7543 132.755 96.2394 119.821 96.2394C106.887 96.2394 96.4016 85.7543 96.4016 72.8204C96.4016 59.8864 106.887 49.4013 119.821 49.4013C132.755 49.4013 143.24 59.8864 143.24 72.8204Z" stroke="#58FFFE" stroke-width="0.802692"/>
</g>
<path d="M129.107 78.7785C128.84 78.7785 128.633 78.5715 128.633 78.3054C128.633 73.5442 124.759 69.6703 119.998 69.6703C115.237 69.6703 111.363 73.5442 111.363 78.3054C111.363 78.5715 111.156 78.7785 110.89 78.7785C110.624 78.7785 110.417 78.5715 110.417 78.3054C110.417 73.0267 114.705 68.7388 119.984 68.7388C125.262 68.7388 129.55 73.0267 129.55 78.3054C129.55 78.5715 129.343 78.7785 129.077 78.7785H129.107Z" fill="#58FFFE"/>
<path d="M133.587 78.01C133.321 78.01 133.114 77.8029 133.114 77.5368C133.114 70.2029 127.155 64.2441 119.821 64.2441C112.488 64.2441 106.529 70.2029 106.529 77.5368C106.529 77.8029 106.322 78.01 106.056 78.01C105.789 78.01 105.582 77.8029 105.582 77.5368C105.582 69.6854 111.97 63.2978 119.821 63.2978C127.673 63.2978 134.06 69.6854 134.06 77.5368C134.06 77.8029 133.853 78.01 133.587 78.01Z" fill="#58FFFE"/>
<path d="M120 82.3425C117.131 82.3425 114.81 80.0063 114.81 77.1526C114.81 74.2989 117.146 71.9626 120 71.9626C122.853 71.9626 125.189 74.2989 125.189 77.1526C125.189 80.0063 122.853 82.3425 120 82.3425ZM120 72.8942C117.663 72.8942 115.756 74.8016 115.756 77.1378C115.756 79.474 117.663 81.3814 120 81.3814C122.336 81.3814 124.243 79.474 124.243 77.1378C124.243 74.8016 122.336 72.8942 120 72.8942Z" fill="#58FFFE"/>
<g style="mix-blend-mode:screen" opacity="0.72">
<path d="M287.434 104.867C287.434 114.569 279.569 122.433 269.867 122.433C260.166 122.433 252.301 114.569 252.301 104.867C252.301 95.1657 260.166 87.301 269.867 87.301C279.569 87.301 287.434 95.1657 287.434 104.867Z" fill="url(#paint4_radial_3_5510)" style="mix-blend-mode:screen"/>
<path d="M287.434 104.867C287.434 114.569 279.569 122.433 269.867 122.433C260.166 122.433 252.301 114.569 252.301 104.867C252.301 95.1657 260.166 87.301 269.867 87.301C279.569 87.301 287.434 95.1657 287.434 104.867Z" stroke="#58FFFE" stroke-width="0.602085"/>
</g>
<path d="M276.832 109.336C276.632 109.336 276.477 109.181 276.477 108.981C276.477 105.41 273.571 102.504 270 102.504C266.429 102.504 263.523 105.41 263.523 108.981C263.523 109.181 263.368 109.336 263.168 109.336C262.969 109.336 262.813 109.181 262.813 108.981C262.813 105.022 266.03 101.806 269.989 101.806C273.948 101.806 277.165 105.022 277.165 108.981C277.165 109.181 277.009 109.336 276.81 109.336H276.832Z" fill="#58FFFE"/>
<path d="M280.193 108.76C279.993 108.76 279.838 108.605 279.838 108.405C279.838 102.904 275.369 98.4344 269.868 98.4344C264.367 98.4344 259.897 102.904 259.897 108.405C259.897 108.605 259.742 108.76 259.542 108.76C259.342 108.76 259.187 108.605 259.187 108.405C259.187 102.516 263.978 97.7245 269.868 97.7245C275.757 97.7245 280.548 102.516 280.548 108.405C280.548 108.605 280.393 108.76 280.193 108.76Z" fill="#58FFFE"/>
<path d="M270.001 112.01C267.849 112.01 266.108 110.257 266.108 108.117C266.108 105.976 267.86 104.224 270.001 104.224C272.141 104.224 273.894 105.976 273.894 108.117C273.894 110.257 272.141 112.01 270.001 112.01ZM270.001 104.923C268.249 104.923 266.818 106.353 266.818 108.106C266.818 109.858 268.249 111.289 270.001 111.289C271.753 111.289 273.184 109.858 273.184 108.106C273.184 106.353 271.753 104.923 270.001 104.923Z" fill="#58FFFE"/>
<defs>
<radialGradient id="paint0_radial_3_5510" cx="0" cy="0" r="1" gradientUnits="userSpaceOnUse" gradientTransform="translate(194.705 29.7052) scale(29.7052)">
<stop/>
<stop offset="0.34" stop-color="#000102"/>
<stop offset="0.49" stop-color="#000809"/>
<stop offset="0.6" stop-color="#001315"/>
<stop offset="0.69" stop-color="#002427"/>
<stop offset="0.76" stop-color="#00393E"/>
<stop offset="0.83" stop-color="#00535B"/>
<stop offset="0.9" stop-color="#01727D"/>
<stop offset="0.96" stop-color="#0195A3"/>
<stop offset="1" stop-color="#02B3C4"/>
</radialGradient>
<radialGradient id="paint1_radial_3_5510" cx="0" cy="0" r="1" gradientUnits="userSpaceOnUse" gradientTransform="translate(18.6305 132.793) scale(18.6305 18.6304)">
<stop/>
<stop offset="0.34" stop-color="#000102"/>
<stop offset="0.49" stop-color="#000809"/>
<stop offset="0.6" stop-color="#001315"/>
<stop offset="0.69" stop-color="#002427"/>
<stop offset="0.76" stop-color="#00393E"/>
<stop offset="0.83" stop-color="#00535B"/>
<stop offset="0.9" stop-color="#01727D"/>
<stop offset="0.96" stop-color="#0195A3"/>
<stop offset="1" stop-color="#02B3C4"/>
</radialGradient>
<radialGradient id="paint2_radial_3_5510" cx="0" cy="0" r="1" gradientUnits="userSpaceOnUse" gradientTransform="translate(333.86 178.632) scale(17.5067 17.5067)">
<stop/>
<stop offset="0.34" stop-color="#000102"/>
<stop offset="0.49" stop-color="#000809"/>
<stop offset="0.6" stop-color="#001315"/>
<stop offset="0.69" stop-color="#002427"/>
<stop offset="0.76" stop-color="#00393E"/>
<stop offset="0.83" stop-color="#00535B"/>
<stop offset="0.9" stop-color="#01727D"/>
<stop offset="0.96" stop-color="#0195A3"/>
<stop offset="1" stop-color="#02B3C4"/>
</radialGradient>
<radialGradient id="paint3_radial_3_5510" cx="0" cy="0" r="1" gradientUnits="userSpaceOnUse" gradientTransform="translate(119.821 72.8204) scale(23.8204)">
<stop/>
<stop offset="0.34" stop-color="#000102"/>
<stop offset="0.49" stop-color="#000809"/>
<stop offset="0.6" stop-color="#001315"/>
<stop offset="0.69" stop-color="#002427"/>
<stop offset="0.76" stop-color="#00393E"/>
<stop offset="0.83" stop-color="#00535B"/>
<stop offset="0.9" stop-color="#01727D"/>
<stop offset="0.96" stop-color="#0195A3"/>
<stop offset="1" stop-color="#02B3C4"/>
</radialGradient>
<radialGradient id="paint4_radial_3_5510" cx="0" cy="0" r="1" gradientUnits="userSpaceOnUse" gradientTransform="translate(269.867 104.867) scale(17.8672)">
<stop/>
<stop offset="0.34" stop-color="#000102"/>
<stop offset="0.49" stop-color="#000809"/>
<stop offset="0.6" stop-color="#001315"/>
<stop offset="0.69" stop-color="#002427"/>
<stop offset="0.76" stop-color="#00393E"/>
<stop offset="0.83" stop-color="#00535B"/>
<stop offset="0.9" stop-color="#01727D"/>
<stop offset="0.96" stop-color="#0195A3"/>
<stop offset="1" stop-color="#02B3C4"/>
</radialGradient>
</defs>
</svg>
