<svg width="320" height="120" viewBox="0 0 320 120" fill="none" xmlns="http://www.w3.org/2000/svg">
<path d="M215.275 0C174.309 0 56.3281 16.0184 0 24.0276V60.8265L320 60.8265V7.20457C274.886 2.9768 234.36 0 215.275 0Z" fill="url(#paint0_linear_5867_27202)"/>
<path d="M74.0115 46.3886C60.5679 45.1237 19.069 55.5592 0 60.935H320V39.0094C296.045 38.6932 290.683 46.3886 268.873 46.3886C247.063 46.3886 202.012 53.2402 150.526 55.3483C99.0396 57.4565 90.8161 47.9697 74.0115 46.3886Z" fill="url(#paint1_linear_5867_27202)"/>
<path d="M0 55.3859V61H185C185 61 159.461 51.189 84.7138 55.3859C64.8142 55.3859 35.155 40.3493 23.0471 46.4614L0 55.3859Z" fill="#003F68"/>
<path d="M263.705 61L182 61C192.167 61 193.953 58.8154 201.852 56.8144C228.716 50.0084 271.237 36.937 288.334 44.0653L320 54.4297V61H263.705Z" fill="#003F68"/>
<rect y="61" width="319.787" height="57.8133" fill="url(#paint2_linear_5867_27202)"/>
<path opacity="0.3" d="M136.96 87.8801C139.183 83.6422 118.788 81.4139 109.905 81.862C79.7081 83.385 -6.63432e-05 58.0009 0 63.4838C0.000115488 73.0283 0 116.253 0 116.253C32.64 116.253 126.723 107.4 136.96 87.8801Z" fill="#1D2352"/>
<path opacity="0.3" d="M221.96 97.1153C238.17 89.9044 236.39 82.7332 232.827 80.9278C224.369 76.6411 215.722 74.1619 207.696 71.2858C199.671 68.4097 198.358 63.0266 237.269 65.3526C263.305 66.9089 254.654 66.3178 261.402 66.7943L258.241 111.562C245.14 110.637 203.053 105.526 221.96 97.1153Z" fill="#1D2352"/>
<path d="M216.389 97.712C241.548 89.1682 237.45 80.1957 231.419 77.64C219.693 72.6712 218.095 72.752 206.904 69.2326C195.184 65.5468 201.253 61 231.419 61C256.574 61 282.359 61.0001 300.019 61.0002L320 61.0003V119.24H0C43.5976 119.24 158.612 117.333 216.389 97.712Z" fill="#003F68"/>
<path d="M72.6911 61.0113C77.1116 60.9859 80 61.0113 80 61.0113H72.6911C58.8261 61.0911 29.8892 61.6716 27.7333 65.1082C24.8901 69.6406 70.584 69.7362 93.7548 70.1361C101.699 70.2472 115.873 71.2026 109.016 74.1352C100.445 77.8011 109.539 80.3338 118.424 79.8006C127.309 79.2674 142.4 83.518 137.6 87.7847C118.497 104.765 47.04 112.105 0 113.278V61.0113H72.6911Z" fill="#003F68"/>
<defs>
<linearGradient id="paint0_linear_5867_27202" x1="200.463" y1="172.694" x2="200.463" y2="0" gradientUnits="userSpaceOnUse">
<stop offset="0.100014" stop-color="#00EB87"/>
<stop offset="1" stop-color="#0066A6"/>
</linearGradient>
<linearGradient id="paint1_linear_5867_27202" x1="345.355" y1="160.373" x2="345.355" y2="33.806" gradientUnits="userSpaceOnUse">
<stop offset="0.100014" stop-color="#00EB87"/>
<stop offset="1" stop-color="#0066A6"/>
</linearGradient>
<linearGradient id="paint2_linear_5867_27202" x1="2.55998" y1="144.301" x2="-1.44837" y2="74.8977" gradientUnits="userSpaceOnUse">
<stop stop-color="#00EB87"/>
<stop offset="1" stop-color="#0066A6"/>
</linearGradient>
</defs>
</svg>
