<svg width="1509" height="199" viewBox="0 0 1509 199" fill="none" xmlns="http://www.w3.org/2000/svg">
<path d="M411.003 76.1803C333.552 76.1803 110.495 106.465 4 121.607V191.18H1505V149.437C1486.1 144.525 1432.8 134.703 1370.84 134.703C1293.39 134.703 1232.54 143.298 1192.43 149.437C1152.32 155.575 1026.46 152.711 961.459 134.703C896.456 116.696 507.817 76.1803 411.003 76.1803Z" fill="url(#paint0_linear_1_348)"/>
<g opacity="0.3" filter="url(#filter0_d_1_348)">
<path d="M1098.02 0C1175.48 0 1504.5 54.6804 1504.5 71.6804C1504.5 88.6804 1504.5 191 1504.5 191H4.02588V122C22.9276 113.843 77.0649 97.5 139.026 97.5C216.477 97.5 276.917 111.804 317.026 122C357.134 132.196 483.021 127.407 548.025 97.5C613.029 67.5926 1001.21 0 1098.02 0Z" fill="url(#paint1_linear_1_348)"/>
</g>
<path d="M143.928 168.679C118.511 166.287 40.0523 186.017 4 196.18H1504V175.853C1494.76 173.461 1468.71 168.679 1438.43 168.679C1400.58 168.679 1370.83 172.864 1351.23 175.853C1331.63 178.842 1270.11 177.447 1238.34 168.679C1206.57 159.91 1016.62 140.18 969.3 140.18C931.445 140.18 817.88 154.928 765.83 162.301C751.859 159.976 714.861 155.207 678.628 154.728C633.338 154.13 553.572 168.679 512.337 168.679C471.102 168.679 385.929 181.632 288.588 185.618C191.246 189.604 175.699 171.668 143.928 168.679Z" fill="url(#paint2_linear_1_348)"/>
<path d="M1343.43 196.383L1079 196.383C1108 196.383 1144.47 190.381 1167 184.883C1243.63 166.183 1364.91 130.27 1413.68 149.855L1504 178.331V196.383H1343.43Z" fill="#003F68"/>
<path d="M4 178.903V196.592H598C598 196.592 516 165.68 276 178.903C212.106 178.903 116.876 131.527 78 150.785L4 178.903Z" fill="#003F68"/>
<defs>
<filter id="filter0_d_1_348" x="0.0258789" y="0" width="1508.47" height="199" filterUnits="userSpaceOnUse" color-interpolation-filters="sRGB">
<feFlood flood-opacity="0" result="BackgroundImageFix"/>
<feColorMatrix in="SourceAlpha" type="matrix" values="0 0 0 0 0 0 0 0 0 0 0 0 0 0 0 0 0 0 127 0" result="hardAlpha"/>
<feOffset dy="4"/>
<feGaussianBlur stdDeviation="2"/>
<feComposite in2="hardAlpha" operator="out"/>
<feColorMatrix type="matrix" values="0 0 0 0 0 0 0 0 0 0 0 0 0 0 0 0 0 0 0.25 0"/>
<feBlend mode="normal" in2="BackgroundImageFix" result="effect1_dropShadow_1_348"/>
<feBlend mode="normal" in="SourceGraphic" in2="effect1_dropShadow_1_348" result="shape"/>
</filter>
<linearGradient id="paint0_linear_1_348" x1="383" y1="402.68" x2="383" y2="76.1803" gradientUnits="userSpaceOnUse">
<stop offset="0.100014" stop-color="#00EB87"/>
<stop offset="1" stop-color="#0066A6"/>
</linearGradient>
<linearGradient id="paint1_linear_1_348" x1="1125.63" y1="542.343" x2="1125.63" y2="0.0693631" gradientUnits="userSpaceOnUse">
<stop offset="0.100014" stop-color="#00EB87"/>
<stop offset="1" stop-color="#0066A6"/>
</linearGradient>
<linearGradient id="paint2_linear_1_348" x1="656.935" y1="384.18" x2="656.935" y2="144.891" gradientUnits="userSpaceOnUse">
<stop offset="0.100014" stop-color="#00EB87"/>
<stop offset="1" stop-color="#0066A6"/>
</linearGradient>
</defs>
</svg>
