<svg width="1509" height="469" viewBox="0 0 1509 469" fill="none" xmlns="http://www.w3.org/2000/svg">
<rect x="4" y="196" width="1499" height="271" fill="url(#paint0_linear_3_5547)"/>
<path opacity="0.3" d="M646 322C656.418 302.135 560.819 291.69 519.18 293.79C377.632 300.929 3.99969 181.941 4 207.642C4.00054 252.382 4 455 4 455C157 455 598.013 413.5 646 322Z" fill="#1D2352"/>
<path opacity="0.3" d="M1044.44 365.29C1120.42 331.489 1112.08 297.874 1095.38 289.411C1055.73 269.317 1015.2 257.696 977.578 244.214C939.958 230.732 933.804 205.499 1116.2 216.402C1238.24 223.698 1197.69 220.927 1229.32 223.16L1214.51 433.008C1153.09 428.672 955.811 404.717 1044.44 365.29Z" fill="#1D2352"/>
<path d="M1018.32 368.088C1136.26 328.038 1117.05 285.98 1088.78 274C1033.81 250.709 1026.32 251.088 973.862 234.59C918.924 217.313 947.371 196 1088.78 196C1206.69 196 1327.56 196.001 1410.34 196.001L1504 196.001V469H4C208.364 469 747.492 460.06 1018.32 368.088Z" fill="#003F68"/>
<path d="M344.74 196.053C365.46 195.934 379 196.053 379 196.053H344.74C279.748 196.427 144.106 199.148 134 215.257C120.672 236.503 334.862 236.951 443.476 238.826C480.715 239.346 547.157 243.824 515.014 257.571C474.835 274.755 517.464 286.627 559.112 284.128C600.761 281.628 671.5 301.553 649 321.553C559.457 401.147 224.5 435.553 4 441.053V196.053H344.74Z" fill="#003F68"/>
<path d="M411.003 76.1803C333.552 76.1803 110.495 106.465 4 121.607V191.18H1505V149.437C1486.1 144.525 1432.8 134.703 1370.84 134.703C1293.39 134.703 1232.54 143.298 1192.43 149.437C1152.32 155.575 1026.46 152.711 961.459 134.703C896.456 116.696 507.817 76.1803 411.003 76.1803Z" fill="url(#paint1_linear_3_5547)"/>
<g opacity="0.3" filter="url(#filter0_d_3_5547)">
<path d="M1098.02 0C1175.48 0 1504.5 54.6804 1504.5 71.6804C1504.5 88.6804 1504.5 191 1504.5 191H4.02588V122C22.9276 113.843 77.0649 97.5 139.026 97.5C216.477 97.5 276.917 111.804 317.026 122C357.134 132.196 483.021 127.407 548.025 97.5C613.029 67.5926 1001.21 0 1098.02 0Z" fill="url(#paint2_linear_3_5547)"/>
</g>
<path d="M143.928 168.679C118.511 166.287 40.0523 186.017 4 196.18H1504V175.853C1494.76 173.461 1468.71 168.679 1438.43 168.679C1400.58 168.679 1370.83 172.864 1351.23 175.853C1331.63 178.842 1270.11 177.447 1238.34 168.679C1206.57 159.91 1016.62 140.18 969.3 140.18C931.445 140.18 817.88 154.928 765.83 162.301C751.859 159.976 714.861 155.207 678.628 154.728C633.338 154.13 553.572 168.679 512.337 168.679C471.102 168.679 385.929 181.632 288.588 185.618C191.246 189.604 175.699 171.668 143.928 168.679Z" fill="url(#paint3_linear_3_5547)"/>
<path d="M1343.43 196.383L1079 196.383C1108 196.383 1144.47 190.381 1167 184.883C1243.63 166.183 1364.91 130.27 1413.68 149.855L1504 178.331V196.383H1343.43Z" fill="#003F68"/>
<path d="M4 178.903V196.592H598C598 196.592 516 165.68 276 178.903C212.106 178.903 116.876 131.527 78 150.785L4 178.903Z" fill="#003F68"/>
<defs>
<filter id="filter0_d_3_5547" x="0.0258789" y="0" width="1508.47" height="199" filterUnits="userSpaceOnUse" color-interpolation-filters="sRGB">
<feFlood flood-opacity="0" result="BackgroundImageFix"/>
<feColorMatrix in="SourceAlpha" type="matrix" values="0 0 0 0 0 0 0 0 0 0 0 0 0 0 0 0 0 0 127 0" result="hardAlpha"/>
<feOffset dy="4"/>
<feGaussianBlur stdDeviation="2"/>
<feComposite in2="hardAlpha" operator="out"/>
<feColorMatrix type="matrix" values="0 0 0 0 0 0 0 0 0 0 0 0 0 0 0 0 0 0 0.25 0"/>
<feBlend mode="normal" in2="BackgroundImageFix" result="effect1_dropShadow_3_5547"/>
<feBlend mode="normal" in="SourceGraphic" in2="effect1_dropShadow_3_5547" result="shape"/>
</filter>
<linearGradient id="paint0_linear_3_5547" x1="15.9999" y1="586.473" x2="-2.78924" y2="261.145" gradientUnits="userSpaceOnUse">
<stop stop-color="#00EB87"/>
<stop offset="1" stop-color="#0066A6"/>
</linearGradient>
<linearGradient id="paint1_linear_3_5547" x1="383" y1="402.68" x2="383" y2="76.1803" gradientUnits="userSpaceOnUse">
<stop offset="0.100014" stop-color="#00EB87"/>
<stop offset="1" stop-color="#0066A6"/>
</linearGradient>
<linearGradient id="paint2_linear_3_5547" x1="1125.63" y1="542.343" x2="1125.63" y2="0.0693631" gradientUnits="userSpaceOnUse">
<stop offset="0.100014" stop-color="#00EB87"/>
<stop offset="1" stop-color="#0066A6"/>
</linearGradient>
<linearGradient id="paint3_linear_3_5547" x1="656.935" y1="384.18" x2="656.935" y2="144.891" gradientUnits="userSpaceOnUse">
<stop offset="0.100014" stop-color="#00EB87"/>
<stop offset="1" stop-color="#0066A6"/>
</linearGradient>
</defs>
</svg>
