<svg width="320" height="61" viewBox="0 0 320 61" fill="none" xmlns="http://www.w3.org/2000/svg">
<path d="M215.275 0C174.309 0 56.3281 16.0184 0 24.0276V60.8265L320 60.8265V7.20457C274.886 2.9768 234.36 0 215.275 0Z" fill="url(#paint0_linear_5580_22468)"/>
<path d="M74.0115 46.3886C60.5679 45.1237 19.069 55.5592 0 60.935H320V39.0094C296.045 38.6931 290.683 46.3886 268.873 46.3886C247.063 46.3886 202.012 53.2402 150.526 55.3483C99.0396 57.4565 90.8161 47.9697 74.0115 46.3886Z" fill="url(#paint1_linear_5580_22468)"/>
<path d="M0 55.3859V61H185C185 61 159.461 51.189 84.7138 55.3859C64.8142 55.3859 35.155 40.3493 23.0471 46.4614L0 55.3859Z" fill="#003F68"/>
<path d="M263.705 61L182 61C192.167 61 193.953 58.8154 201.852 56.8144C228.716 50.0084 271.237 36.937 288.334 44.0653L320 54.4297V61H263.705Z" fill="#003F68"/>
<defs>
<linearGradient id="paint0_linear_5580_22468" x1="200.463" y1="172.694" x2="200.463" y2="0" gradientUnits="userSpaceOnUse">
<stop offset="0.100014" stop-color="#00EB87"/>
<stop offset="1" stop-color="#0066A6"/>
</linearGradient>
<linearGradient id="paint1_linear_5580_22468" x1="345.355" y1="160.373" x2="345.355" y2="33.806" gradientUnits="userSpaceOnUse">
<stop offset="0.100014" stop-color="#00EB87"/>
<stop offset="1" stop-color="#0066A6"/>
</linearGradient>
</defs>
</svg>
