<svg width="1500" height="273" viewBox="0 0 1500 273" fill="none" xmlns="http://www.w3.org/2000/svg">
<rect y="1.52588e-05" width="1499" height="271" fill="url(#paint0_linear_1_120)"/>
<path opacity="0.3" d="M642 126C652.418 106.135 556.819 95.6898 515.18 97.79C373.632 104.929 -0.000310984 -14.0588 0 11.6423C0.000541351 56.382 0 259 0 259C153 259 594.013 217.5 642 126Z" fill="#1D2352"/>
<path opacity="0.3" d="M1040.44 169.29C1116.42 135.489 1108.08 101.874 1091.38 93.4112C1051.73 73.3174 1011.2 61.6959 973.578 48.2142C935.958 34.7324 929.804 9.49927 1112.2 20.4023C1234.24 27.6976 1193.69 24.9269 1225.32 27.1604L1210.51 237.008C1149.09 232.672 951.811 208.717 1040.44 169.29Z" fill="#1D2352"/>
<path d="M1014.32 172.088C1132.26 132.038 1113.05 89.9799 1084.78 78C1029.81 54.7087 1022.32 55.0875 969.862 38.5904C914.924 21.313 943.371 0 1084.78 0C1202.69 0 1323.56 0.000554787 1406.34 0.000934756L1500 0.00128287V273H0C204.364 273 743.492 264.06 1014.32 172.088Z" fill="#003F68"/>
<path d="M340.74 0.0529938C361.46 -0.0662833 375 0.0529938 375 0.0529938H340.74C275.748 0.427109 140.106 3.14807 130 19.2573C116.672 40.5025 330.862 40.9511 439.476 42.8256C476.715 43.3463 543.157 47.8245 511.014 61.5714C470.835 78.755 513.464 90.6274 555.112 88.1279C596.761 85.6285 667.5 105.553 645 125.553C555.457 205.147 220.5 239.553 0 245.053V0.0529938H340.74Z" fill="#003F68"/>
<defs>
<linearGradient id="paint0_linear_1_120" x1="11.9999" y1="390.473" x2="-6.78924" y2="65.1454" gradientUnits="userSpaceOnUse">
<stop stop-color="#00EB87"/>
<stop offset="1" stop-color="#0066A6"/>
</linearGradient>
</defs>
</svg>
