<svg width="241" height="333" viewBox="0 0 241 333" fill="none" xmlns="http://www.w3.org/2000/svg">
<g filter="url(#filter0_d_1_248)">
<path d="M220.741 104.882C231.031 88.6434 226.208 67.1386 209.97 56.8493C193.731 46.5601 172.227 51.3827 161.937 67.621L118.132 136.753C107.843 152.991 112.666 174.496 128.904 184.785C145.143 195.075 166.647 190.252 176.937 174.014L220.741 104.882Z" fill="#0065A6"/>
<path d="M201.298 60.5723C219.05 71.821 224.335 95.37 213.084 113.126L174.702 173.699C172.081 177.836 166.597 179.066 162.46 176.444L127.504 154.295C123.367 151.673 122.137 146.189 124.758 142.052L172.258 67.0878C178.475 57.2761 191.49 54.3575 201.302 60.5746L201.298 60.5723Z" fill="#004E80"/>
<path d="M201.65 21.3128C178.666 -13.278 128.022 18.2616 148.167 53.1429C168.485 88.3232 223.516 54.2178 201.65 21.3128V21.3128Z" fill="#0065A6"/>
<path d="M207.745 21.3128C184.761 -13.278 134.116 18.2616 154.262 53.1429C174.58 88.3232 229.611 54.2178 207.745 21.3128V21.3128Z" fill="#004E80"/>
<path d="M74.4166 73.0501C74.7113 73.3492 75.1274 73.8563 75.6345 74.4717C76.1459 75.0742 76.731 75.8197 77.3595 76.6128C78.6337 78.1774 80.0727 79.9458 81.2732 81.4151C81.6546 81.7488 81.9884 82.1259 82.2788 82.5376C82.5691 82.9407 82.8205 83.3611 83.0286 83.8248C83.2366 84.2843 83.397 84.7697 83.5183 85.2811C83.644 85.7796 83.7264 86.2953 83.7697 86.8284C83.8521 87.8946 83.761 89.0215 83.488 90.1397C83.2149 91.2449 82.7555 92.3458 82.062 93.36C80.6925 95.3797 78.6814 96.6106 76.4103 96.9487C75.2964 97.1004 74.1349 97.018 72.9993 96.7103C71.8941 96.3766 70.8019 95.8261 69.8571 95.0286L69.8441 95.046C69.8441 95.046 69.4063 94.6992 68.6608 94.1098C67.9067 93.5247 66.9055 92.6492 65.7569 91.6047C63.4815 89.4983 60.738 86.629 58.7139 83.7425C58.0508 82.841 57.5611 82.0002 57.145 81.2677C56.7419 80.5266 56.4168 79.8851 56.2088 79.3C55.7754 78.1384 55.654 77.2933 55.68 76.6822C55.7364 75.4556 56.3822 75.1522 56.3822 75.1522C56.3822 75.1522 56.2955 74.9528 56.2088 74.6364C56.1265 74.32 56.0354 73.8866 56.0181 73.4315C55.9834 72.517 56.2348 71.5158 57.3487 71.1084C57.3487 71.1084 57.1666 70.3846 57.275 69.6565C57.3834 68.9284 57.7908 68.2002 58.935 68.1612C58.935 68.1612 59.2254 66.9693 59.8408 66.3885C60.4563 65.8121 61.3708 65.8251 62.6147 68.2436C63.1781 69.3184 63.9193 70.3933 64.7124 71.4378C65.5272 72.4564 66.4114 73.4142 67.2696 74.2334C68.1451 75.0308 68.9859 75.6983 69.7097 76.1491C70.4422 76.5825 71.049 76.8122 71.4347 76.7602C72.2062 76.6605 71.8508 75.9237 71.335 74.9745C70.8192 74.021 70.1648 72.8074 70.2731 71.8366C70.3858 70.8571 71.1356 70.8701 71.9938 71.2731C72.4229 71.4768 72.878 71.7759 73.3027 72.1053C73.7275 72.426 74.1262 72.7641 74.4209 73.0675L74.4166 73.0501Z" fill="#0065A6"/>
<path d="M63.9811 76.3874C61.9354 74.3546 60.6395 72.3913 59.8377 70.974C59.0575 69.535 58.7585 68.6379 58.7585 68.6379" stroke="#1F2A47" stroke-width="0.517741" stroke-linecap="round" stroke-linejoin="round"/>
<path d="M62.1807 78.5623C61.1101 77.5438 60.226 76.6206 59.5672 75.7625C58.8997 74.9086 58.4099 74.1632 58.0502 73.5477C57.6905 72.9323 57.4824 72.4338 57.3481 72.1001C57.2181 71.7664 57.1747 71.5844 57.1747 71.5844" stroke="#1F2A47" stroke-width="0.517741" stroke-linecap="round" stroke-linejoin="round"/>
<path d="M60.239 80.6952C59.1641 79.7503 58.1369 78.5237 57.4478 77.4922C56.7456 76.4694 56.3122 75.6892 56.3122 75.6892" stroke="#1F2A47" stroke-width="0.517741" stroke-linecap="round" stroke-linejoin="round"/>
<path d="M135.839 65.9292C138.227 63.7751 141.131 62.7436 144.139 62.6526C147.142 62.5615 150.198 63.476 152.69 65.214C155.178 66.9564 157.215 69.3662 158.199 72.244C159.178 75.1133 159.061 78.5329 157.141 82.0782C156.613 82.9711 155.399 84.6484 153.522 86.8588C151.646 89.0649 149.114 91.8171 145.86 94.747C142.609 97.6682 138.626 100.789 133.863 103.541C129.117 106.289 123.53 108.638 117.557 109.882C111.598 111.152 105.348 111.243 99.7614 110.337C96.9659 109.891 94.3264 109.227 91.8819 108.456C90.677 108.04 89.4895 107.654 88.3843 107.19C87.8295 106.965 87.2704 106.757 86.746 106.519C86.2215 106.28 85.7014 106.046 85.1943 105.816C81.1419 103.935 77.9433 101.924 75.5465 100.269C73.1411 98.6131 71.5287 97.3041 70.7443 96.6237C70.7443 96.6237 71.0477 95.6658 71.7975 94.1142C72.5429 92.5626 73.7478 90.4215 75.4858 88.016C77.2238 85.6106 78.8665 83.7772 80.054 82.5333C81.2416 81.2894 81.9827 80.6393 81.9827 80.6393C84.3318 82.295 86.6593 83.7036 88.9304 84.8521C91.2058 85.992 93.4249 86.8762 95.553 87.5133C99.8178 88.7875 103.693 89.0476 107.09 88.6315C113.895 87.782 118.97 84.4577 122.815 81.1421C126.659 77.7701 129.281 74.3721 131.279 71.7326C133.277 69.0714 134.656 67.0951 135.843 65.9292H135.839Z" fill="white"/>
<path d="M75.161 99.3975C75.161 99.3975 75.3907 98.457 76.0278 96.9011C76.6606 95.3494 77.7052 93.1997 79.2525 90.7726C80.7997 88.3454 82.2777 86.4774 83.3482 85.2075C84.4188 83.9419 85.0992 83.2615 85.0992 83.2615" stroke="#1F2A47" stroke-width="0.688137" stroke-miterlimit="10" stroke-linecap="round"/>
<path d="M113.056 85.7194C112.549 85.8538 112.051 86.0271 111.539 86.1311C111.301 86.1875 111.11 86.3825 110.984 86.6729C110.854 86.9546 110.789 87.323 110.811 87.7478C110.919 89.8499 111.101 92.459 111.366 95.4106C111.634 98.3665 111.977 101.643 112.484 105.119C112.631 106.172 113.624 106.879 114.686 106.662C116.805 106.22 118.894 105.661 120.91 104.941C121.915 104.586 122.392 103.459 121.984 102.493C119.297 96.0044 116.506 90.4436 114.53 86.7163C114.127 85.9665 113.524 85.5634 113.052 85.7151L113.056 85.7194Z" fill="#1F2A47"/>
<path d="M127.211 107.641C127.454 108.282 126.643 109.036 125.143 109.812C123.631 110.571 121.403 111.303 118.863 111.828C116.315 112.335 113.953 112.534 112.249 112.404C110.542 112.274 109.506 111.854 109.506 111.182C109.497 110.042 109.736 108.95 110.139 107.953C110.338 107.454 110.581 106.978 110.854 106.531C111.127 106.081 111.435 105.643 111.768 105.244C113.121 103.666 114.854 102.509 116.922 102.097C118.993 101.69 121.061 102.024 122.929 102.99C124.771 103.935 126.418 105.517 127.211 107.645V107.641Z" fill="#0065A6"/>
<path d="M153.335 186.197C147.349 193.604 142.374 201.393 138.872 209.398C137.116 213.398 135.669 217.442 134.655 221.525L134.273 223.055L133.948 224.589L133.783 225.356L133.649 226.123L133.376 227.662C133.068 229.716 132.813 231.771 132.674 233.834C132.553 235.897 132.479 237.964 132.54 240.036C132.6 242.108 132.735 244.179 132.973 246.251C133.471 250.395 134.304 254.547 135.539 258.651C136.761 262.756 138.339 266.825 140.241 270.774C142.135 274.709 144.376 278.571 146.786 282.034C143.041 285.293 123.26 299.47 118.714 301.581C115.173 296.484 112.095 291.166 109.425 285.623C106.756 280.083 104.515 274.328 102.751 268.399C100.974 262.474 99.7256 256.371 98.9932 250.191C98.6378 247.101 98.4297 243.989 98.343 240.872C98.2563 237.756 98.3517 234.636 98.5424 231.519C98.7504 228.407 99.1232 225.308 99.5999 222.231L100.007 219.93L100.215 218.781L100.458 217.641L100.948 215.362L101.507 213.099C103.015 207.07 105.104 201.224 107.579 195.593C112.529 184.316 119.199 174.027 126.745 164.682C128.27 162.845 130.004 161.557 131.894 160.855C133.766 160.136 135.725 159.923 137.702 160.17C141.637 160.643 145.477 162.788 148.572 165.74C151.666 168.687 154.037 172.423 155.042 176.059C155.528 177.871 155.723 179.691 155.467 181.399C155.19 183.098 154.566 184.732 153.343 186.197H153.335Z" fill="white"/>
<path d="M148.73 284.682L149.194 285.267C149.033 285.571 148.895 285.896 148.717 286.178C148.635 286.329 148.552 286.468 148.448 286.594C148.388 286.767 148.171 286.754 147.998 286.797L144.357 290.061C144.266 290.191 144.201 290.36 144.014 290.386C143.858 290.451 143.694 290.494 143.52 290.533C143.182 290.624 142.818 290.672 142.458 290.733C142.328 291.071 142.207 291.422 142.068 291.747C141.93 292.076 141.826 292.432 141.54 292.588L137.899 295.851C137.639 296.033 137.245 296.059 136.872 296.103C136.499 296.146 136.109 296.168 135.723 296.194L135.42 297.316C135.32 297.689 135.233 298.07 135.077 298.374L131.437 301.637C130.639 301.685 129.807 301.672 128.984 301.659C128.91 302.067 128.832 302.474 128.771 302.886C128.706 303.302 128.637 303.705 128.62 304.164L124.979 307.428C124.45 307.302 124.017 307.281 123.575 307.242L122.253 307.125C122.205 307.567 122.153 308 122.127 308.455C122.101 308.915 122.049 309.344 122.166 309.95L118.525 313.214C118.222 313.11 117.884 312.963 117.658 312.941C117.403 312.889 117.164 312.846 116.926 312.807C116.441 312.72 115.985 312.659 115.517 312.581C115.5 313.058 115.47 313.517 115.478 314.02C115.478 314.263 115.478 314.514 115.504 314.783C115.491 315.013 115.617 315.394 115.708 315.736L112.067 319C111.712 318.835 111.305 318.61 111.071 318.575L110.663 318.463L110.282 318.372C109.762 318.242 109.285 318.155 108.786 318.042L107.725 316.703L148.743 284.682H148.73Z" fill="#BDBDBD"/>
<path d="M143.347 276.634C143.849 277.483 144.356 278.333 144.881 279.161C142.293 280.79 140.378 282.957 139.485 285.233C138.579 287.487 138.722 289.866 139.996 291.5L107.707 316.703C105.847 314.315 105.696 311.32 107.117 309.075C107.841 307.918 108.587 306.774 109.341 305.642C110.312 306.284 111.547 306.215 112.448 305.586C112.743 305.382 113.007 305.118 113.22 304.802C114.693 302.578 116.215 300.407 117.784 298.279C118.438 297.377 118.534 296.242 117.996 295.397C117.385 294.417 116.791 293.429 116.21 292.432L143.342 276.638L143.347 276.634Z" fill="#0065A6"/>
<path d="M144.88 279.161C145.504 280.154 146.146 281.124 146.796 282.056C147.442 282.984 148.109 283.894 148.725 284.683L139.996 291.496C138.722 289.862 138.578 287.483 139.484 285.229C140.377 282.958 142.293 280.786 144.88 279.157V279.161Z" fill="#004E80"/>
<path d="M116.218 292.431C116.799 293.428 117.397 294.416 118.004 295.396C118.537 296.245 118.446 297.377 117.792 298.278C116.223 300.406 114.701 302.578 113.228 304.801C113.015 305.117 112.755 305.382 112.456 305.586C111.55 306.214 110.315 306.283 109.349 305.642C111.351 302.638 113.453 299.717 115.62 296.887C114.996 295.881 114.385 294.867 113.791 293.849L116.223 292.431H116.218Z" fill="#004E80"/>
<path d="M142.119 274.445C142.518 275.182 142.93 275.91 143.35 276.634L113.787 293.845C112.231 291.162 110.779 288.427 109.431 285.636C119.014 281.9 128.51 277.977 137.928 273.864C139.714 273.093 141.521 273.349 142.119 274.445Z" fill="#1F2A47"/>
<path d="M134.91 230.397C134.81 231.333 134.689 232.27 134.633 233.21C134.55 234.09 133.51 234.805 132.05 234.965C128.396 235.347 123.845 235.689 118.7 235.949C113.56 236.205 107.796 236.378 101.684 236.339C100.766 236.335 99.9378 235.993 99.3397 235.429C98.7459 234.87 98.4165 234.094 98.4512 233.253C98.6289 229.864 98.9453 226.479 99.474 223.129C99.5867 222.297 100.089 221.603 100.787 221.178C101.481 220.749 102.361 220.576 103.262 220.754C109.261 221.933 114.873 223.25 119.862 224.529C124.846 225.812 129.215 227.051 132.739 228.161C134.152 228.611 135.018 229.526 134.914 230.401L134.91 230.397Z" fill="#1F2A47"/>
<path d="M103.319 212.023C102.578 211.823 101.867 212.114 101.182 212.82C100.84 213.171 100.502 213.626 100.172 214.177C100.008 214.45 99.8431 214.749 99.6784 215.065C99.5267 215.386 99.375 215.728 99.2276 216.092C97.9967 218.979 97.0649 223.209 96.5838 227.946C96.094 232.684 96.1937 237.022 96.8091 240.108C97.0952 241.651 97.5546 242.882 98.0791 243.714C98.6035 244.546 99.2666 244.971 100.021 244.919C102.561 244.754 104.936 244.139 107.107 243.242C109.279 242.344 111.186 241.174 112.85 239.839C116.135 237.148 118.259 233.884 118.645 230.174C118.757 229.242 118.705 228.319 118.597 227.409C118.489 226.499 118.233 225.593 117.916 224.7C117.604 223.812 117.184 222.927 116.664 222.061C116.165 221.198 115.58 220.353 114.9 219.534C114.562 219.122 114.202 218.719 113.821 218.325C113.448 217.93 113.058 217.544 112.646 217.172C111.823 216.422 110.921 215.711 109.946 215.061C107.996 213.756 105.777 212.682 103.323 212.023H103.319Z" fill="#0065A6"/>
<path d="M118.167 174.917C114.089 176.768 110.171 178.874 106.456 181.271C102.746 183.672 99.2227 186.338 95.8854 189.25C89.2541 195.123 83.3857 202.006 78.4317 209.777C73.4648 217.53 69.3647 226.116 66.1574 235.17C64.5581 239.704 63.1712 244.346 62.0226 249.053C60.8784 253.747 59.9509 258.54 59.3181 263.173C54.3555 263.108 30.2359 260.075 25.4597 258.584C27.1067 246.656 29.9672 235.071 33.946 223.767C37.9464 212.49 43.1257 201.546 49.6659 191.339C56.1802 181.128 64.1334 171.71 73.3088 163.601C77.916 159.565 82.8179 155.86 87.9625 152.535C93.1115 149.22 98.5162 146.307 104.073 143.789C104.627 143.538 105.173 143.325 105.72 143.148C106.27 142.983 106.812 142.862 107.349 142.775C108.424 142.602 109.464 142.55 110.474 142.662C112.503 142.901 114.345 143.598 115.979 144.734C119.259 146.992 121.6 150.706 122.922 154.763C124.244 158.824 124.586 163.228 123.862 166.86C123.494 168.676 122.892 170.366 121.947 171.71C121.479 172.39 120.95 173.027 120.317 173.556C120.005 173.825 119.663 174.063 119.303 174.289C118.947 174.523 118.57 174.731 118.163 174.917H118.167Z" fill="white"/>
<path d="M58.8842 266.853L58.8018 267.728C58.4724 267.876 58.143 268.036 57.818 268.166C57.4929 268.3 57.1679 268.461 56.8601 268.322L51.9799 268.084C51.6635 268.105 51.3601 267.88 51.061 267.672C50.7576 267.468 50.4629 267.23 50.1682 267C49.8388 267.178 49.5051 267.364 49.18 267.533C48.8506 267.707 48.5255 267.893 48.2092 267.902L43.3289 267.663C43.0212 267.542 42.7221 267.286 42.4231 267.039C42.124 266.796 41.8293 266.532 41.5346 266.272L40.5377 266.9C40.204 267.113 39.8789 267.325 39.5538 267.477L34.6736 267.238C34.0711 266.705 33.486 266.12 32.9009 265.544C32.2291 266.029 31.5617 266.489 30.8985 267.056L26.0183 266.818C25.7236 266.411 25.4288 266.099 25.1384 265.778L24.2673 264.816C23.9292 265.084 23.5911 265.353 23.2531 265.639C22.915 265.925 22.5813 266.198 22.2432 266.632L17.363 266.393C17.0769 265.843 16.7865 265.5 16.4961 265.145L15.6336 264.088C15.2956 264.387 14.9532 264.681 14.6151 265.006C14.277 265.327 13.939 265.63 13.5923 266.211L8.71199 265.973C8.43461 265.279 8.14422 264.911 7.85816 264.512C7.57211 264.109 7.28605 263.741 7 263.359L7.14303 261.803L58.8798 266.835L58.8842 266.853Z" fill="#BDBDBD"/>
<path d="M60.4674 256.204C60.2594 257.274 60.073 258.345 59.891 259.411C56.8788 258.904 54.0009 259.324 51.7991 260.494C49.6017 261.652 48.0891 263.58 47.8724 265.782L7.15298 261.821C7.4217 259.051 9.32006 256.932 11.8685 256.295C13.1818 255.97 14.4907 255.649 15.8083 255.346C16.1074 256.416 17.0609 257.166 18.1487 257.313C18.5041 257.361 18.8769 257.348 19.2453 257.266C21.8241 256.667 24.4073 256.117 26.9861 255.606C28.0826 255.389 28.8931 254.617 29.0621 253.651C29.2485 252.537 29.4522 251.423 29.6646 250.314L60.4631 256.204H60.4674Z" fill="#0065A6"/>
<path d="M59.889 259.411C59.4686 261.946 59.1089 264.525 58.8835 266.852L47.8704 265.782C48.0871 263.58 49.5997 261.647 51.7972 260.494C53.9946 259.324 56.8725 258.908 59.889 259.411V259.411Z" fill="#004E80"/>
<path d="M29.6629 250.313C29.4505 251.423 29.2468 252.537 29.0604 253.651C28.8914 254.617 28.0809 255.384 26.9844 255.605C24.4055 256.112 21.8224 256.663 19.2436 257.265C18.8752 257.352 18.5024 257.361 18.147 257.313C17.0548 257.166 16.1013 256.416 15.8066 255.345C19.2999 254.544 22.7932 253.824 26.2909 253.183C26.4816 252.047 26.6896 250.916 26.9064 249.789L29.6672 250.318L29.6629 250.313Z" fill="#004E80"/>
<path d="M61.0069 253.491C60.8162 254.397 60.6298 255.298 60.4608 256.204L26.9014 249.785C27.4692 246.825 28.1106 243.882 28.8214 240.956C38.595 244.138 48.3901 247.189 58.233 250.119C60.101 250.678 61.2929 252.138 61.0069 253.491Z" fill="#1F2A47"/>
<path d="M82.256 207.462C81.6709 208.338 81.0554 209.192 80.492 210.089C79.9502 210.921 78.624 211.116 77.2631 210.57C70.4498 207.783 60.6806 203.067 50.1052 196.969C48.5059 196.055 47.9035 194.152 48.766 192.761C50.5213 189.974 52.346 187.217 54.3007 184.552C55.2672 183.217 57.2826 183.078 58.7172 184.214C63.5238 187.98 67.9229 191.699 71.7717 195.119C75.6204 198.547 78.9057 201.659 81.4845 204.307C82.516 205.369 82.8281 206.66 82.256 207.462V207.462Z" fill="#1F2A47"/>
<path d="M62.5736 176.534C61.4251 175.528 59.5007 176.309 57.1646 178.302C54.8285 180.292 52.1586 183.534 49.5841 187.352C47.0053 191.166 45.0333 194.841 44.0538 197.715C43.811 198.434 43.6247 199.102 43.5033 199.709C43.3906 200.32 43.343 200.87 43.369 201.351C43.4166 202.313 43.746 202.998 44.4222 203.349C46.6759 204.524 49.0294 205.248 51.3395 205.599C52.4924 205.772 53.6366 205.85 54.7505 205.846C55.873 205.846 56.9695 205.75 58.0184 205.577C62.2355 204.875 65.7809 202.938 67.948 199.73C70.115 196.519 70.5485 192.523 69.6383 188.362C68.7108 184.223 66.392 179.876 62.5736 176.538V176.534Z" fill="#0065A6"/>
<path d="M190.746 16.36C188.154 14.453 183.616 14.1062 179.308 14.427C174.627 14.778 168.425 10.5002 166.531 11.4104C164.862 12.2079 166.817 15.0771 167.614 16.2517C165.616 14.4486 161.057 11.8655 159.731 12.8017C158.404 13.7378 159.332 16.0653 161.005 18.3754C158.218 16.516 155.219 13.6468 153.654 14.4747C151.73 15.4975 152.332 20.005 153.554 23.0953C154.829 26.3286 156.896 28.9551 159.388 31.0485C160.905 37.1596 158.244 41.4981 158.625 43.7042C158.903 45.3078 160.047 45.2905 160.619 44.467C161.057 43.8386 161.356 43.1191 161.529 42.3476C161.434 44.1549 162.036 45.9926 163.15 47.3059C163.445 47.6526 163.813 47.982 164.243 47.9647C164.516 47.9517 164.767 47.8 164.988 47.6223C166.414 46.5041 167.064 44.519 167.467 42.6207C167.927 40.4622 168.165 38.2475 168.208 36.0284C173.028 38.0481 177.098 42.2783 179.174 47.5529C180.379 50.6085 180.985 54.0498 182.905 56.6113C184.825 59.1728 187.396 60.2477 189.242 57.6212C189.922 56.6503 190.135 55.4628 190.195 54.2145C191.045 55.4194 192.072 55.6881 192.766 54.5396C193.602 53.1613 191.699 49.2086 191.951 46.8768C192.128 45.2168 192.128 43.6305 192.523 42.0182C194.196 38.3428 196.055 34.6155 196.419 30.7364C196.896 25.6394 195.522 23.1256 193.494 22.0854C193.494 22.0854 193.017 18.0417 190.737 16.3643L190.746 16.36Z" fill="#FFD9A8"/>
<path d="M166.17 49.5591V64.5336L187.403 46.7159C186.159 42.126 181.963 38.754 176.979 38.754C171.011 38.754 166.17 43.5909 166.17 49.5591V49.5591Z" fill="#FB8980"/>
<path d="M166.17 64.5335V64.8542C166.17 70.8223 171.011 75.6593 176.979 75.6593C182.947 75.6593 187.784 70.8223 187.784 64.8542V49.559C187.784 48.5751 187.654 47.6216 187.403 46.7158L166.17 64.5335V64.5335Z" fill="#FAB196"/>
<path d="M160.122 48.7062C160.122 51.2504 161.154 53.5518 162.822 55.2248C164.487 56.8934 166.788 57.925 169.341 57.925H187.809V40.3716C184.194 42.3914 186.795 30.1387 186.829 27.2912C180.636 24.9204 162.796 25.0374 161.518 29.0595C161.384 29.831 161.319 30.6285 161.319 31.4433C161.319 37.8188 160.122 42.7901 160.122 48.7062V48.7062Z" fill="#FAB196"/>
<path d="M189.492 49.5596C192.115 49.5596 194.242 47.4328 194.242 44.8093C194.242 42.1858 192.115 40.0591 189.492 40.0591C186.868 40.0591 184.741 42.1858 184.741 44.8093C184.741 47.4328 186.868 49.5596 189.492 49.5596Z" fill="#FAB196"/>
<path d="M188.087 46.1047C187.918 45.1469 188.321 44.1067 189.096 43.5129C189.872 42.9191 190.982 42.8021 191.862 43.2138" stroke="#852D4C" stroke-width="0.629154" stroke-linecap="round" stroke-linejoin="round"/>
<path d="M189.325 43.8083C190.053 44.0987 190.685 44.6232 191.102 45.2906" stroke="#852D4C" stroke-width="0.629154" stroke-linecap="round" stroke-linejoin="round"/>
<path d="M188.01 39.9557C187.546 41.9667 185.691 45.0006 184.686 44.6192C183.537 44.1772 184.343 41.2343 185.02 39.7C184.738 40.1334 184.456 40.5625 184.17 40.9959C184.027 41.2039 183.862 41.4293 183.615 41.4466C183.165 41.49 183.009 40.8659 183.017 40.4064C183.074 37.4635 183.126 34.5207 183.182 31.5691C175.359 28.6565 168.966 32.5963 161.502 28.8993C153.545 21.7046 201.68 12.9756 188.01 39.9557V39.9557Z" fill="#FFD9A8"/>
<path opacity="0.35" d="M166.128 43.8725C165.877 44.7393 164.637 45.138 163.354 44.7696C162.072 44.4012 161.235 43.3957 161.486 42.5332C161.738 41.6664 162.977 41.2676 164.26 41.6361C165.543 42.0045 166.38 43.01 166.128 43.8725Z" fill="#FC4E60"/>
<path opacity="0.35" d="M181.255 42.7017C181.45 43.5816 180.549 44.5264 179.248 44.8125C177.944 45.0985 176.734 44.6174 176.539 43.7376C176.344 42.8578 177.246 41.9129 178.546 41.6269C179.851 41.3408 181.06 41.8219 181.255 42.7017Z" fill="#FC4E60"/>
<path d="M166.713 39.7293C166.713 40.4791 166.41 41.0902 166.033 41.0902C165.656 41.0902 165.353 40.4834 165.353 39.7293C165.353 38.9751 165.656 38.3683 166.033 38.3683C166.41 38.3683 166.713 38.9751 166.713 39.7293Z" fill="#852D4C"/>
<path d="M163.789 36.5778C163.542 35.0825 166.052 33.4789 167.334 34.2807C167.59 34.4411 167.69 34.8528 167.434 35.0695C166.988 35.4509 166.368 35.6026 165.861 35.8974C165.354 36.1964 164.99 36.7555 164.426 36.9419C164.179 37.0242 163.828 36.8465 163.78 36.5778H163.789Z" fill="#852D4C"/>
<path d="M177.872 36.0875C177.296 36.2219 176.698 35.9358 176.104 35.9402C175.519 35.9445 174.908 36.1439 174.331 36.0485C174.002 35.9965 173.872 35.5934 174.011 35.3247C174.691 33.9724 177.669 34.0375 178.236 35.4417C178.34 35.6974 178.128 36.0312 177.877 36.0875H177.872Z" fill="#852D4C"/>
<path d="M170.205 46.5071C171.271 46.4161 172.125 45.9133 172.987 45.2329C173.759 44.6304 174.647 43.7506 175.627 44.3704C177.434 45.5146 176.155 48.2668 175.05 49.2593C173.533 50.6202 171.21 50.9236 169.524 49.8704C167.491 48.6005 167.751 46.2774 170.205 46.5071Z" fill="#852D4C"/>
<path d="M171.377 49.7053C171.828 48.4354 172.678 47.3475 173.735 46.6974C174.589 46.1729 175.568 45.9389 176.526 46.0082C176.565 47.2175 175.772 48.6174 175.053 49.2632C174.008 50.1994 172.586 50.6198 171.247 50.4594C171.247 50.4378 171.239 50.4204 171.239 50.4031C171.226 50.1647 171.295 49.9307 171.373 49.7096L171.377 49.7053Z" fill="#FC4E60"/>
<path d="M174.307 40.6042C174.749 39.9064 175.248 39.1609 176.028 38.8836C176.934 38.5628 178.052 39.0786 178.394 39.9758" stroke="#852D4C" stroke-width="0.629154" stroke-linecap="round" stroke-linejoin="round"/>
<path d="M174.014 39.2183C173.871 39.4436 173.732 39.6733 173.589 39.8987" stroke="#852D4C" stroke-width="0.629154" stroke-linecap="round" stroke-linejoin="round"/>
<path d="M170.418 38.1952C170.418 40.0069 169.724 41.3375 168.333 42.3733C167.314 43.1361 168.636 44.7874 170.006 44.3757" stroke="#852D4C" stroke-width="0.629154" stroke-linecap="round" stroke-linejoin="round"/>
<path d="M125.906 180.452C121.286 177.236 117.298 173.244 113.944 168.78" stroke="#1F2A47" stroke-width="0.616046" stroke-miterlimit="10" stroke-linecap="round"/>
<path d="M168.008 167.233L166.435 169.509L164.788 171.737L161.481 176.183C160.345 177.644 159.179 179.079 158.022 180.526C156.856 181.965 155.729 183.43 154.494 184.817C154.433 184.882 154.377 184.951 154.321 185.012C153.203 186.273 151.924 187.309 150.567 188.107C149.891 188.505 149.193 188.839 148.483 189.112C147.768 189.377 147.022 189.567 146.29 189.702C143.342 190.226 140.395 189.706 137.959 188.094C134.007 185.485 130.084 182.836 126.201 180.149C123.904 178.559 121.741 176.756 119.743 174.801C117.745 172.846 115.911 170.744 114.212 168.503C111.352 164.724 108.457 160.979 105.523 157.278C103.724 155.002 102.775 152.363 102.649 149.871C102.619 149.247 102.649 148.636 102.714 148.029C102.775 147.413 102.883 146.815 103.048 146.234C103.377 145.077 103.919 144.002 104.69 143.062C104.738 142.992 104.79 142.932 104.846 142.871C105.748 141.874 106.563 140.791 107.412 139.746C108.253 138.689 109.107 137.648 109.939 136.582L112.353 133.319L113.567 131.693L114.72 130.016L168.004 167.233H168.008Z" fill="white"/>
<path opacity="0.1" d="M125.198 168.988C124.336 168.204 124.253 166.86 125.007 165.976L128.535 161.898C129.138 161.23 129.675 160.506 130.243 159.813L131.929 157.707L133.615 155.6C134.17 154.894 134.694 154.161 135.232 153.442L138.439 149.103C139.098 148.145 140.415 147.916 141.382 148.587C142.348 149.259 142.582 150.599 141.906 151.578L138.63 156.003C138.079 156.736 137.546 157.485 136.978 158.205L135.258 160.355L133.537 162.504C132.956 163.215 132.406 163.952 131.79 164.633L128.189 168.798C127.413 169.703 126.065 169.781 125.185 168.984L125.198 168.988Z" fill="#004E80"/>
<path d="M210.308 88.9059C206.996 97.4789 203.23 105.649 199.117 113.606C197.479 116.822 195.715 119.969 193.959 123.107L191.233 127.757C190.787 128.533 190.314 129.296 189.837 130.059L188.412 132.343L187.25 134.757C186.86 135.563 186.439 136.352 186.032 137.149L183.566 141.917L180.961 146.62C180.523 147.4 180.103 148.193 179.644 148.964L178.27 151.279C177.346 152.817 176.445 154.369 175.5 155.899L172.592 160.446C172.102 161.2 171.63 161.962 171.127 162.712L169.597 164.94L166.524 169.391C163.906 168.195 161.245 166.864 158.558 165.399C151.987 161.837 145.265 157.494 138.547 152.57C131.855 147.664 125.714 142.593 120.192 137.657C117.895 135.615 115.719 133.595 113.643 131.61L115.897 128.329L117.028 126.695C117.401 126.145 117.747 125.577 118.107 125.018L120.261 121.659C120.963 120.528 121.627 119.371 122.316 118.227L123.343 116.51C123.685 115.938 123.993 115.344 124.322 114.764L126.268 111.257L128.11 107.686C128.414 107.088 128.735 106.503 129.025 105.896L129.896 104.08L130.499 102.142C130.702 101.501 130.902 100.855 131.075 100.201L132.172 96.3043C132.839 93.6865 133.519 91.0947 134.083 88.4682C135.517 82.0233 136.649 75.5394 137.329 69.2029C137.407 68.3967 137.546 67.6816 137.698 67.0531C138.083 65.5102 138.768 64.4483 139.834 63.7418C140.372 63.3864 141.018 63.1177 141.78 62.914C142.534 62.719 143.41 62.5889 144.416 62.5109C146.123 62.4156 147.87 62.3462 149.647 62.3029C151.411 62.2682 153.21 62.2596 155.039 62.2812C158.697 62.3159 162.45 62.4893 166.277 62.8187C168.158 66.2947 171.569 69.2896 175.994 70.2647C180.398 71.2356 184.819 69.9093 187.917 66.7064C191.614 67.8029 195.155 69.1422 198.51 70.6982C200.187 71.4783 201.821 72.3191 203.403 73.2206C204.981 74.1091 206.511 75.054 207.989 76.0595C210.061 77.5678 211.257 79.1498 211.647 81.1911C211.846 82.2183 211.82 83.3322 211.604 84.6108C211.495 85.2479 211.339 85.9284 211.127 86.6435C210.91 87.3543 210.641 88.1085 210.325 88.9146L210.308 88.9059Z" fill="white"/>
<path d="M160.889 63.4344C163.216 68.8131 168.114 73.7194 174.767 75.3967C181.389 77.0654 188.198 74.933 192.619 69.5846" stroke="#1F2A47" stroke-width="0.616046" stroke-linecap="round" stroke-linejoin="round"/>
<path opacity="0.1" d="M132.149 124.013C131.464 125.161 130.762 126.279 130.029 127.354C129.266 128.403 128.486 129.417 127.693 130.388C126.142 132.356 124.404 134.055 122.7 135.585C121.872 136.326 121.058 137.032 120.186 137.643C118.804 138.649 117.43 139.533 116.082 140.287C115.744 140.474 115.41 140.656 115.076 140.829C114.734 140.994 114.392 141.145 114.049 141.293C113.369 141.583 112.697 141.843 112.038 142.069C109.399 142.97 106.946 143.343 104.692 143.061C104.74 142.992 104.792 142.931 104.848 142.87C114.695 131.186 123.116 118.105 129.878 104.08L130.48 102.142C130.684 101.501 130.883 100.855 131.057 100.201L132.153 96.3043C132.821 93.6865 133.501 91.0946 134.064 88.4681C134.845 89.1746 135.542 90.0198 136.145 90.9993C136.448 91.4891 136.726 92.0091 136.981 92.5596C137.228 93.11 137.449 93.6865 137.644 94.2932C138.039 95.5068 138.334 96.8374 138.529 98.272C138.719 99.7023 138.763 101.211 138.728 102.81C138.546 109.185 136.414 116.805 132.149 124.013V124.013Z" fill="#004E80"/>
<path opacity="0.1" d="M199.114 113.602C197.476 116.818 195.712 119.965 193.957 123.103L191.23 127.753C190.784 128.529 190.312 129.292 189.835 130.055L188.409 132.339C179.398 151.019 168.051 168.742 154.494 184.821C154.433 184.886 154.377 184.956 154.321 185.016C154.074 182.546 154.303 179.525 155.053 176.218C155.24 175.39 155.461 174.545 155.708 173.682C155.968 172.82 156.232 171.931 156.505 171.021C157.073 169.201 157.758 167.32 158.555 165.396C159.067 164.208 159.556 162.96 160.103 161.716C161.225 159.124 162.569 156.502 163.934 153.767C164.632 152.41 165.377 151.045 166.162 149.676C166.912 148.289 167.696 146.893 168.524 145.497C173.664 136.807 179.077 129.231 184.339 123.562C185.639 122.141 186.97 120.858 188.253 119.701C189.527 118.539 190.793 117.525 192.041 116.671C192.665 116.242 193.285 115.856 193.9 115.514C194.503 115.167 195.101 114.859 195.69 114.599C196.869 114.079 198.013 113.741 199.119 113.607L199.114 113.602Z" fill="#004E80"/>
<path d="M136.894 154.789C127.749 147.894 119.18 140.318 111.89 133.179C110.798 132.104 110.707 130.57 111.639 129.695C112.558 128.806 114.218 128.919 115.336 129.955C122.591 136.716 131.116 143.859 140.192 150.334C149.268 156.809 158.794 162.504 167.935 166.526C169.344 167.142 169.851 168.927 169.058 170.522C168.251 172.109 166.409 172.841 165.027 172.187C155.695 167.801 146.043 161.681 136.898 154.785L136.894 154.789Z" fill="#004E80"/>
<path d="M177.666 113.618C176.838 115.66 175.555 117.398 174.103 118.824C172.651 120.254 170.909 121.32 169.071 122.013C167.233 122.707 165.292 123.023 163.35 122.928C161.408 122.833 159.441 122.317 157.594 121.389C155.744 120.457 154.188 119.209 152.9 117.749C151.613 116.288 150.621 114.624 149.957 112.873C149.294 111.122 148.974 109.293 148.952 107.433C148.939 105.578 149.346 103.749 150.066 101.955C151.578 98.401 154.383 95.7571 157.833 94.2705C161.252 92.7839 165.352 92.4632 169.257 93.8111C173.171 95.1677 176.127 97.9936 177.709 101.608C179.265 105.201 179.395 109.557 177.67 113.618H177.666Z" fill="#004E80"/>
<path d="M166.37 119.644C166.149 120.099 165.499 120.043 165.382 119.562L164.762 117.048L164.086 114.538C164.051 114.417 164.064 114.291 164.112 114.174C165.633 110.841 167.046 107.461 168.407 104.063C168.572 103.642 168.173 103.222 167.753 103.365L165.482 104.128L163.184 104.856C161.659 105.333 160.138 105.796 158.621 106.243C158.157 106.381 158.131 107.019 158.582 107.214L162.244 108.791C162.387 108.852 162.495 108.973 162.543 109.121L163.544 112.571C163.666 113.004 163.232 113.385 162.82 113.199L152.939 108.748C152.722 108.648 152.596 108.427 152.626 108.197C152.848 106.676 153.095 105.177 153.259 103.651C153.281 103.456 153.42 103.3 153.615 103.244C158.985 101.735 164.342 100.002 169.699 98.0425C169.889 97.9732 170.106 98.0208 170.249 98.1639C171.393 99.3211 172.546 100.496 173.664 101.67C173.808 101.818 173.847 102.039 173.773 102.234C171.562 108.141 169.044 113.927 166.366 119.635L166.37 119.644Z" fill="white"/>
<path d="M181.79 99.5632C182.622 101.457 181.382 104.253 178.6 107.053C177.239 108.466 175.453 109.857 173.416 111.157C172.389 111.807 171.323 112.44 170.157 113.021C168.991 113.601 167.773 114.143 166.512 114.642C156.37 118.612 147.186 117.823 145.842 114.182C145.491 113.259 145.656 112.236 146.258 111.161C146.856 110.086 147.914 108.968 149.262 107.811C149.942 107.235 150.718 106.658 151.572 106.086C152.43 105.514 153.366 104.946 154.341 104.37C155.325 103.798 156.387 103.239 157.51 102.692C158.632 102.146 159.82 101.622 161.029 101.102C163.456 100.07 165.896 99.2338 168.159 98.5966C170.417 97.9552 172.545 97.5304 174.426 97.3571C178.192 97.0017 180.962 97.6561 181.794 99.5588L181.79 99.5632Z" stroke="#1F2A47" stroke-width="2.57887" stroke-linecap="round" stroke-linejoin="round"/>
<g filter="url(#filter1_d_1_248)">
<path d="M192.669 179.804C184.83 187.643 167.398 182.923 153.73 169.258C140.074 155.601 135.355 138.168 143.197 130.33C151.034 122.485 168.465 127.205 182.128 140.868C195.79 154.531 200.509 171.963 192.669 179.804V179.804Z" fill="#9FFFF8"/>
<path d="M196.803 175.67C188.964 183.509 171.532 178.789 157.864 165.124C144.207 151.467 139.489 134.034 147.331 126.196C155.167 118.352 172.599 123.072 186.262 136.734C199.924 150.397 204.643 167.83 196.803 175.67V175.67Z" fill="#00EB86"/>
<path d="M190.896 168.738C191.351 169.69 190.2 170.304 189.564 169.844L179.732 163.483C179.449 163.303 179.055 163.119 178.873 162.658L169.484 141.686C168.94 140.703 167.94 140.396 167.327 141.549L163.114 148.796C162.64 149.854 162.731 150.867 164.142 151.239L168.212 152.617C168.673 152.709 168.756 152.89 169.06 153.201L175.801 160.05C176.679 160.949 175.904 161.952 174.791 161.672L159.794 157.315C159.128 157.162 158.703 156.885 158.4 156.486L154.312 150.367C154.008 149.884 153.796 149.27 154.312 148.551L165.363 131.579C165.473 131.41 165.61 131.255 165.792 131.168C166.233 130.961 166.767 130.942 167.233 131.129L173.907 134.531C174.694 134.992 175.209 135.145 175.562 136L190.896 168.738Z" fill="white"/>
</g>
<path d="M192.597 71.3819C188.163 83.3571 163.242 80.0978 160.659 67.6718C170.103 73.4926 182.07 74.8838 192.597 71.3819Z" fill="#1F2A47"/>
<path opacity="0.1" d="M191.163 60.4679C164.1 77.5618 126.241 41.454 154.769 15.5964C189.013 -8.39315 219.946 38.277 191.163 60.4679Z" fill="#455A64"/>
<path d="M212.993 18.0538C185.285 -23.6451 124.234 14.3784 148.518 56.4284C173.011 98.8381 239.354 57.7243 212.993 18.0538V18.0538ZM191.162 60.4679C164.1 77.5618 126.241 41.4539 154.768 15.5963C189.012 -8.3932 219.945 38.277 191.162 60.4679Z" fill="white"/>
<path d="M215.554 58.1363C218.774 54.6343 222.042 46.3127 219.29 40.713C210.921 25.6171 194.668 45.7059 200.341 56.7233C203.297 62.8995 211.298 62.7261 215.558 58.1363H215.554Z" fill="white"/>
<g opacity="0.2">
<path d="M181.205 9.8889C168.485 15.831 156.392 23.0214 145.098 31.356C146.003 26.9611 148.227 22.51 152.088 18.2712C156.631 15.3629 161.286 12.6281 166.036 10.0753C171.436 8.52364 176.576 8.60165 181.205 9.8889V9.8889Z" fill="white"/>
<path d="M197.131 54.4867C195.531 56.6104 193.555 58.6215 191.167 60.4635C188.267 62.2925 185.246 63.5147 182.195 64.2039C187.002 60.7062 191.986 57.4643 197.131 54.4867V54.4867Z" fill="white"/>
<path d="M187.251 12.3815C172.086 19.1341 157.797 27.6984 144.69 37.8837C144.651 37.4113 144.629 36.9345 144.625 36.4577C157.402 26.6322 171.28 18.328 185.977 11.7097C186.406 11.9264 186.835 12.1475 187.251 12.3815V12.3815Z" fill="white"/>
<path d="M202.514 39.4484C202.501 39.8645 202.475 40.2806 202.436 40.6967C189.654 46.8382 177.649 54.4663 166.653 63.4206C166.228 63.2863 165.803 63.1433 165.387 62.9916C176.769 53.6731 189.234 45.7676 202.514 39.4484V39.4484Z" fill="white"/>
<path d="M200.444 48.7661C200.214 49.2992 199.971 49.8323 199.702 50.3568C191.879 54.6172 184.386 59.4715 177.291 64.8632C176.679 64.8935 176.068 64.9022 175.462 64.8892C183.315 58.817 191.671 53.421 200.444 48.7661Z" fill="white"/>
<path d="M201.365 30.3063C185.195 37.449 170.107 46.8238 156.541 58.1533C155.441 57.3211 154.396 56.424 153.417 55.4661C167.507 43.6989 183.214 34.0077 200.052 26.6917C200.568 27.8705 201.006 29.0754 201.365 30.3063V30.3063Z" fill="white"/>
</g>
<path opacity="0.1" d="M202.515 39.4474C202.502 39.8635 202.476 40.2796 202.437 40.6956C202.208 43.4218 201.558 46.1393 200.444 48.7658C200.214 49.2989 199.971 49.8321 199.703 50.3565C198.992 51.7694 198.134 53.152 197.128 54.4869C195.529 56.6107 193.552 58.6217 191.164 60.4637C188.265 62.2927 185.244 63.515 182.193 64.2041C180.563 64.5725 178.92 64.7849 177.291 64.8629C176.68 64.8932 176.068 64.9019 175.462 64.8889C172.454 64.8369 169.489 64.3255 166.655 63.4196C166.23 63.2853 165.805 63.1422 165.389 62.9905C162.203 61.8333 159.209 60.182 156.539 58.1536C155.438 57.3215 154.393 56.4243 153.414 55.4665C148.508 50.6945 145.205 44.5097 144.689 37.8828C144.65 37.4104 144.628 36.9336 144.624 36.4568C144.589 34.7752 144.741 33.0675 145.097 31.3555C146.002 26.9607 148.226 22.5095 152.088 18.2707C152.907 17.3692 153.8 16.4764 154.77 15.5966C158.593 12.918 162.373 11.1237 166.035 10.0748C171.435 8.52321 176.576 8.60122 181.204 9.88847C182.864 10.3479 184.459 10.959 185.976 11.7088C186.405 11.9255 186.834 12.1466 187.251 12.3806C192.959 15.5835 197.453 20.7369 200.049 26.692C200.565 27.8709 201.003 29.0758 201.363 30.3067C202.225 33.2626 202.637 36.3485 202.515 39.4474Z" fill="#455A64"/>
<path d="M215.554 58.1363C218.774 54.6343 222.042 46.3127 219.29 40.713C210.921 25.6171 194.668 45.7059 200.341 56.7233C203.297 62.8995 211.298 62.7261 215.558 58.1363H215.554Z" fill="#0065A6"/>
<path d="M217.424 57.1216C219.899 54.4301 222.387 48.0459 220.307 43.7118C213.883 32.1266 201.349 47.5648 205.709 56.0511C207.993 60.7797 214.139 60.6496 217.424 57.1216Z" fill="white"/>
<path d="M184.369 168.832C184.711 168.515 185.275 168.06 185.985 167.527C186.683 166.985 187.589 166.387 188.451 165.694C189.336 165.013 190.298 164.294 191.26 163.596C191.737 163.245 192.24 162.907 192.69 162.56C193.141 162.213 193.583 161.88 193.999 161.559C194.788 160.744 195.746 160.15 196.812 159.756C197.354 159.565 197.878 159.405 198.437 159.297C198.992 159.188 199.569 159.132 200.154 159.123C202.498 159.093 205.051 159.838 207.14 161.511C209.203 163.167 210.404 165.464 210.621 167.935C210.746 169.183 210.56 170.401 210.144 171.575C209.728 172.75 209.069 173.877 208.176 174.86L208.194 174.878C208.194 174.878 207.821 175.355 207.123 176.091C206.434 176.837 205.45 177.881 204.275 179.073C203.123 180.296 201.684 181.531 200.193 182.801C199.443 183.433 198.676 184.066 197.9 184.677C197.124 185.293 196.301 185.826 195.507 186.359C193.479 187.69 191.888 188.504 190.632 188.968C189.353 189.397 188.421 189.501 187.749 189.454C186.406 189.354 186.089 188.647 186.089 188.647C186.089 188.647 185.197 188.986 184.204 189.007C183.211 189.033 182.124 188.743 181.695 187.512C181.695 187.512 180.901 187.703 180.113 187.573C179.319 187.443 178.531 186.992 178.509 185.731C178.509 185.731 177.213 185.397 176.589 184.716C175.969 184.036 175.999 183.026 178.656 181.682C179.839 181.08 181.075 180.317 182.236 179.468C183.363 178.588 184.434 177.634 185.353 176.711C185.812 176.247 186.237 175.792 186.614 175.359C186.8 175.142 186.978 174.93 187.138 174.722C187.294 174.514 187.433 174.301 187.559 174.106C188.061 173.313 188.33 172.654 188.291 172.225C188.213 171.371 187.394 171.74 186.332 172.286C185.296 172.849 183.905 173.508 182.83 173.365C180.663 173.044 183.042 170.136 184.356 168.836L184.369 168.832Z" fill="#0065A6"/>
<path d="M187.637 180.374C187.069 180.92 186.506 181.418 185.964 181.873C185.422 182.328 184.902 182.749 184.374 183.096C183.333 183.806 182.393 184.357 181.604 184.777C180.022 185.618 179.043 185.93 179.043 185.93" stroke="#1F2A47" stroke-width="0.563617" stroke-linecap="round" stroke-linejoin="round"/>
<path d="M189.958 182.396C188.827 183.549 187.795 184.49 186.855 185.201C185.897 185.898 185.065 186.41 184.38 186.778C183.01 187.519 182.23 187.706 182.23 187.706" stroke="#1F2A47" stroke-width="0.563617" stroke-linecap="round" stroke-linejoin="round"/>
<path d="M192.232 184.582C191.183 185.735 189.826 186.827 188.691 187.56C187.551 188.288 186.684 188.734 186.684 188.734" stroke="#1F2A47" stroke-width="0.563617" stroke-linecap="round" stroke-linejoin="round"/>
<path d="M188.711 97.7203C186.86 94.8338 186.284 91.5745 186.704 88.3542C187.125 85.1426 188.585 82.0004 190.791 79.5126C192.998 77.0334 195.945 75.1957 199.265 74.628C202.576 74.0602 206.308 74.8013 209.862 77.5579C210.75 78.299 212.38 79.9416 214.465 82.4338C216.554 84.9042 219.089 88.2676 221.625 92.4977C224.156 96.7192 226.674 101.855 228.486 107.732C230.306 113.588 231.346 120.193 231.173 126.729C231.082 128.354 230.991 129.979 230.852 131.587C230.631 133.178 230.401 134.764 230.154 136.329C229.816 137.863 229.465 139.38 229.105 140.876C228.698 142.349 228.217 143.766 227.775 145.179C227.658 145.53 227.554 145.886 227.428 146.228C227.294 146.562 227.159 146.9 227.029 147.234C226.761 147.897 226.496 148.556 226.232 149.21C225.963 149.86 225.699 150.506 225.434 151.143C225.135 151.754 224.836 152.357 224.546 152.955C223.948 154.142 223.393 155.33 222.786 156.422C222.158 157.497 221.542 158.542 220.944 159.556C220.645 160.059 220.35 160.553 220.06 161.042C219.748 161.506 219.436 161.957 219.132 162.403C218.526 163.292 217.936 164.141 217.377 164.96C217.091 165.364 216.831 165.771 216.545 166.139C216.259 166.503 215.982 166.863 215.709 167.21C215.162 167.899 214.651 168.553 214.17 169.165C213.689 169.771 213.238 170.335 212.822 170.859C212.384 171.349 211.985 171.8 211.626 172.203C210.902 173.005 210.338 173.616 209.953 174.019C209.953 174.019 208.934 173.624 207.287 172.71C205.64 171.795 203.378 170.356 200.86 168.311C198.337 166.265 196.435 164.367 195.147 162.993C193.864 161.619 193.201 160.761 193.201 160.761C197.223 155.707 200.301 150.718 202.403 145.994C204.513 141.27 205.627 136.832 205.978 132.862C206.685 124.891 204.474 118.828 201.943 114.134C199.356 109.436 196.335 106.094 193.964 103.528C193.669 103.207 193.383 102.895 193.106 102.601C192.815 102.306 192.538 102.02 192.274 101.747C191.745 101.192 191.264 100.681 190.822 100.212C190.375 99.7401 189.981 99.298 189.639 98.8862C189.279 98.4788 188.971 98.0931 188.715 97.7333L188.711 97.7203Z" fill="white"/>
<path d="M213.204 169.49C213.204 169.49 212.198 169.156 210.564 168.35C208.93 167.544 206.672 166.252 204.137 164.384C201.601 162.516 199.668 160.756 198.359 159.486C197.05 158.212 196.366 157.415 196.366 157.415" stroke="#1F2A47" stroke-width="0.753674" stroke-miterlimit="10" stroke-linecap="round"/>
<path d="M204.298 125.447C204.32 126.036 204.381 126.621 204.394 127.215C204.372 127.77 204.992 128.268 205.902 128.437C210.448 129.248 217.205 130.27 224.855 130.877C226.004 130.973 226.974 130.097 227.005 128.94C227.031 127.778 227.083 126.617 226.987 125.455L226.892 123.713L226.84 122.842C226.827 122.551 226.801 122.261 226.758 121.975C226.61 120.822 225.549 120.029 224.409 120.215C216.833 121.416 210.193 122.963 205.754 124.12C204.883 124.359 204.268 124.905 204.294 125.455L204.298 125.447Z" fill="#1F2A47"/>
<path d="M231.219 115.958C231.947 115.867 232.614 116.908 232.996 118.719C233.195 119.621 233.377 120.7 233.49 121.905C233.551 123.114 233.568 124.445 233.551 125.836C233.559 126.534 233.49 127.206 233.425 127.856C233.36 128.506 233.286 129.13 233.208 129.724C233.126 130.317 233.039 130.877 232.944 131.397C232.835 131.917 232.688 132.385 232.554 132.818C231.995 134.535 231.358 135.51 230.625 135.358C228.185 134.855 226.152 133.408 224.809 131.648C224.64 131.427 224.488 131.202 224.336 130.968C224.176 130.734 224.024 130.495 223.885 130.252C223.608 129.767 223.378 129.264 223.201 128.744C223.023 128.224 222.897 127.691 222.828 127.145C222.772 126.599 222.685 126.04 222.707 125.463C222.72 124.891 222.789 124.328 222.919 123.782C223.045 123.235 223.244 122.698 223.43 122.187C223.829 121.159 224.427 120.189 225.186 119.322C225.563 118.888 225.983 118.481 226.434 118.108C226.867 117.74 227.34 117.402 227.843 117.107C228.848 116.518 229.988 116.101 231.223 115.954L231.219 115.958Z" fill="#0065A6"/>
</g>
<defs>
<filter id="filter0_d_1_248" x="0.446316" y="-4.76837e-07" width="239.664" height="332.107" filterUnits="userSpaceOnUse" color-interpolation-filters="sRGB">
<feFlood flood-opacity="0" result="BackgroundImageFix"/>
<feColorMatrix in="SourceAlpha" type="matrix" values="0 0 0 0 0 0 0 0 0 0 0 0 0 0 0 0 0 0 127 0" result="hardAlpha"/>
<feMorphology radius="3.27684" operator="erode" in="SourceAlpha" result="effect1_dropShadow_1_248"/>
<feOffset dy="6.55368"/>
<feGaussianBlur stdDeviation="4.91526"/>
<feComposite in2="hardAlpha" operator="out"/>
<feColorMatrix type="matrix" values="0 0 0 0 0 0 0 0 0 0.396078 0 0 0 0 0.65098 0 0 0 0.4 0"/>
<feBlend mode="multiply" in2="BackgroundImageFix" result="effect1_dropShadow_1_248"/>
<feBlend mode="normal" in="SourceGraphic" in2="effect1_dropShadow_1_248" result="shape"/>
</filter>
<filter id="filter1_d_1_248" x="132.853" y="122.405" width="74.2924" height="74.2943" filterUnits="userSpaceOnUse" color-interpolation-filters="sRGB">
<feFlood flood-opacity="0" result="BackgroundImageFix"/>
<feColorMatrix in="SourceAlpha" type="matrix" values="0 0 0 0 0 0 0 0 0 0 0 0 0 0 0 0 0 0 127 0" result="hardAlpha"/>
<feMorphology radius="3.27684" operator="erode" in="SourceAlpha" result="effect1_dropShadow_1_248"/>
<feOffset dy="6.55368"/>
<feGaussianBlur stdDeviation="4.91526"/>
<feComposite in2="hardAlpha" operator="out"/>
<feColorMatrix type="matrix" values="0 0 0 0 0 0 0 0 0 0.396078 0 0 0 0 0.65098 0 0 0 0.4 0"/>
<feBlend mode="multiply" in2="BackgroundImageFix" result="effect1_dropShadow_1_248"/>
<feBlend mode="normal" in="SourceGraphic" in2="effect1_dropShadow_1_248" result="shape"/>
</filter>
</defs>
</svg>
