<svg width="88" height="83" viewBox="0 0 88 83" fill="none" xmlns="http://www.w3.org/2000/svg">
<path d="M73.646 55.9298L69.4736 58.3388L68.1642 57.5549C69.9504 56.089 69.9061 53.0225 69.0577 50.9293L69.1592 33.2743L67.9076 26.3101L47.8025 13.4044L47.8077 13.9727C46.1632 12.8235 43.9974 12.9438 41.9714 12.9835L41.992 11.32L41.7721 10.4659L46.0563 7.99243C46.8759 7.51923 48.0074 7.58622 49.2458 8.3117L70.518 20.5932C73.0136 22.0334 75.0354 25.5353 75.0349 28.4166L75.0349 52.9796C75.0332 54.3962 74.5441 55.3989 73.7539 55.88C73.7166 55.9015 73.6794 55.923 73.6421 55.9445L73.646 55.9298Z" fill="url(#paint0_linear_1_9)"/>
<path opacity="0.3" d="M69.0486 50.9348L69.1501 33.2797L68.064 27.2259L73.708 23.9673C74.5253 25.3829 75.0353 26.976 75.035 28.4167L75.035 52.9797C75.0333 54.3963 74.5442 55.399 73.754 55.88C73.7168 55.9015 73.6795 55.9231 73.6423 55.9446L69.4698 58.3536L68.2754 57.6399L68.2109 57.5281C69.9384 56.0464 69.8916 53.0186 69.0539 50.9441L69.0486 50.9348Z" fill="#0F054C"/>
<path d="M66.2753 23.0307L45.0031 10.7492C42.5076 9.30897 40.4865 10.4758 40.486 13.3571L40.486 37.9201C40.4855 40.8014 42.5073 44.3034 45.0029 45.7436L66.2751 58.0251C68.7706 59.4653 70.7916 58.2984 70.7922 55.4171L70.7922 30.8541C70.7927 27.9728 68.7708 24.4709 66.2753 23.0307V23.0307Z" fill="url(#paint1_linear_1_9)"/>
<path d="M66.2753 23.0307L45.0031 10.7492C42.5076 9.30897 40.4865 10.4758 40.486 13.3571L40.486 37.9201C40.4855 40.8014 42.5073 44.3034 45.0029 45.7436L66.2751 58.0251C68.7706 59.4653 70.7916 58.2984 70.7922 55.4171L70.7922 30.8541C70.7927 27.9728 68.7708 24.4709 66.2753 23.0307V23.0307Z" fill="#0F054C"/>
<path d="M55.0848 34.7069C54.3589 33.4496 53.3536 32.3536 52.2502 31.7115L30.978 19.43C29.8747 18.788 28.8285 18.6966 28.0275 19.159C27.2265 19.6215 26.788 20.5825 26.7869 21.8497L26.7869 46.4128C26.7956 48.9659 28.5823 52.082 30.7983 53.3607L52.0705 65.6422C53.1739 66.2842 54.2201 66.3756 55.021 65.9132C55.822 65.4508 56.2606 64.4897 56.2616 63.2225L56.2616 38.6595C56.2573 37.3829 55.8108 35.9642 55.0848 34.7069ZM28.2804 50.1825C27.5867 48.981 27.1538 47.629 27.1578 46.4098L27.1578 21.8468C27.1567 20.7049 27.5304 19.8682 28.2103 19.4757C28.8902 19.0831 29.8017 19.1778 30.79 19.7497L52.0622 32.0312C54.1686 33.249 55.8839 36.22 55.8854 38.6531L55.8854 63.2161C55.8865 64.358 55.5127 65.1947 54.8328 65.5872C54.1529 65.9797 53.2414 65.8851 52.2531 65.3132L30.9809 53.0317C29.9231 52.4255 28.9687 51.3746 28.275 50.1732L28.2804 50.1825Z" fill="#00EB86"/>
<path opacity="0.4" d="M51.275 68.8459L44.9697 72.4862L43.6603 71.7024C45.4466 70.2364 45.4022 67.1699 44.5539 65.0768L44.6553 47.4217L43.4038 40.4575L23.2987 27.5519L23.3039 28.1201C21.6593 26.9709 19.4936 27.0913 17.4675 27.131L17.4881 25.4675L17.2682 24.6134L23.6853 20.9085C24.5049 20.4353 25.6363 20.5023 26.8748 21.2278L48.147 33.5093C50.6425 34.9495 52.6643 38.4514 52.6638 41.3327L52.6638 65.8957C52.6621 67.3123 52.173 68.315 51.3828 68.796C51.3456 68.8176 51.3083 68.8391 51.2711 68.8606L51.275 68.8459Z" fill="#00EB86"/>
<path d="M45.6683 72.0829L41.4958 74.4918L40.1864 73.708C41.9726 72.242 41.9283 69.1755 41.0799 67.0824L41.1814 49.4273L39.9298 42.4631L19.8247 29.5575L19.8299 30.1257C18.1854 28.9765 16.0196 29.0969 13.9936 29.1366L14.0142 27.4731L13.7943 26.619L18.0785 24.1455C18.8981 23.6723 20.0296 23.7393 21.268 24.4648L42.5402 36.7463C45.0358 38.1865 47.0576 41.6884 47.0571 44.5697L47.0571 69.1327C47.0554 70.5493 46.5663 71.552 45.7761 72.033C45.7388 72.0545 45.7016 72.076 45.6643 72.0976L45.6683 72.0829Z" fill="url(#paint2_linear_1_9)"/>
<path opacity="0.3" d="M41.08 67.0825L41.1815 49.4274L40.0954 43.3736L45.7394 40.115C46.5568 41.5306 47.0667 43.1237 47.0665 44.5644L47.0665 69.1274C47.0648 70.544 46.5757 71.5467 45.7855 72.0277C45.7482 72.0493 45.711 72.0708 45.6737 72.0923L41.5012 74.5013L40.3069 73.7876L40.2424 73.6758C41.9699 72.1941 41.923 69.1663 41.0854 67.0918L41.08 67.0825Z" fill="#0F054C"/>
<path d="M38.297 39.1833L17.0248 26.9018C14.5293 25.4616 12.5082 26.6284 12.5077 29.5097L12.5077 54.0727C12.5072 56.954 14.529 60.4559 17.0246 61.8961L38.2968 74.1776C40.7923 75.6178 42.8133 74.451 42.8139 71.5697L42.8139 47.0067C42.8144 44.1254 40.7925 40.6235 38.297 39.1833V39.1833Z" fill="url(#paint3_linear_1_9)"/>
<path d="M42.8142 71.5701L42.8142 47.007C42.8147 44.1258 40.7929 40.6238 38.2973 39.1836L17.0251 26.9021C15.9071 26.2561 14.8928 26.1339 14.0978 26.4563C14.926 25.8043 16.1599 25.8122 17.5374 26.6064L38.8096 38.8879C41.3051 40.3281 43.3269 43.83 43.3264 46.7113L43.3264 71.2743C43.3255 72.8644 42.7006 73.933 41.7366 74.3281C42.404 73.8062 42.8146 72.8613 42.8142 71.5701Z" fill="white"/>
<defs>
<linearGradient id="paint0_linear_1_9" x1="36.268" y1="19.9894" x2="80.1551" y2="45.3294" gradientUnits="userSpaceOnUse">
<stop stop-color="#BCBEFF"/>
<stop offset="0.23" stop-color="#AAADF7"/>
<stop offset="0.68" stop-color="#7B82E5"/>
<stop offset="1" stop-color="#5761D7"/>
</linearGradient>
<linearGradient id="paint1_linear_1_9" x1="41.8043" y1="10.4353" x2="69.4646" y2="58.3443" gradientUnits="userSpaceOnUse">
<stop stop-color="#E9E9FD"/>
<stop offset="0.36" stop-color="#D2D2F9"/>
<stop offset="0.71" stop-color="#C4C3F6"/>
<stop offset="1" stop-color="#C0BFF6"/>
</linearGradient>
<linearGradient id="paint2_linear_1_9" x1="8.2902" y1="36.1424" x2="52.1773" y2="61.4825" gradientUnits="userSpaceOnUse">
<stop stop-color="#BCBEFF"/>
<stop offset="0.23" stop-color="#AAADF7"/>
<stop offset="0.68" stop-color="#7B82E5"/>
<stop offset="1" stop-color="#5761D7"/>
</linearGradient>
<linearGradient id="paint3_linear_1_9" x1="13.8353" y1="26.5825" x2="41.4956" y2="74.4915" gradientUnits="userSpaceOnUse">
<stop stop-color="#E9E9FD"/>
<stop offset="0.36" stop-color="#D2D2F9"/>
<stop offset="0.71" stop-color="#C4C3F6"/>
<stop offset="1" stop-color="#C0BFF6"/>
</linearGradient>
</defs>
</svg>
