<svg width="166" height="175" viewBox="0 0 166 175" fill="none" xmlns="http://www.w3.org/2000/svg">
<path d="M145.982 16.9911C145.982 22.554 140.572 28.8425 140.572 35.902C140.572 41.8882 151.209 50.0965 151.209 57.8967C151.209 66.1958 148.85 70.1714 148.85 75.8402C148.85 84.9555 166 88.9614 166 107.676C166 126.39 142.592 132.376 132.633 132.376C115.186 132.376 98.5444 119.452 98.5444 103.821C98.5444 83.7462 112.064 84.502 112.064 72.3633C112.064 66.4527 107.317 67.3144 107.19 61.5549C107.021 54.1176 119.819 43.2487 119.819 36.6578C119.819 28.3588 116.57 24.882 116.57 17.1725C116.57 7.33157 121.698 0 131.361 0C140.021 0 145.968 7.7246 145.968 16.976L145.982 16.9911Z" fill="#85C263"/>
<path d="M127.887 173.457C128.138 148.794 130.635 124.313 131.359 99.6955C132.201 75.1537 131.432 50.5666 128.582 26.1757C128.522 25.7382 128.833 25.3309 129.261 25.2857C129.689 25.2254 130.073 25.5421 130.133 25.9796C134.948 62.664 134.239 99.8161 132.053 136.667C131.432 148.945 130.812 161.208 130.827 173.457C130.827 175.402 127.902 175.493 127.873 173.457H127.887Z" fill="#315342"/>
<path d="M131.626 85.2429C128.482 74.7324 123.181 64.6314 118.006 55.0915C117.527 54.1815 118.81 53.3625 119.303 54.2877C124.59 63.9792 129.835 73.9437 133.106 84.712C133.43 85.7585 131.936 86.2894 131.612 85.2429H131.626Z" fill="#315342"/>
<path d="M130.31 109.893C133.351 103.734 137.884 98.4927 142.33 93.4147C142.607 93.0741 143.105 93.0297 143.441 93.3258C143.763 93.6071 143.807 94.1105 143.514 94.4362C139.127 99.5143 134.726 104.592 131.772 110.633C131.304 111.595 129.842 110.884 130.31 109.907V109.893Z" fill="#315342"/>
<path d="M1.93967 166.482C2.40152 167.069 3.19658 167.122 3.71452 166.598L65.5721 104.074L72.4653 100.299L71.3734 97.7324L64.1634 101.679L2.04193 164.469C1.52399 164.993 1.47781 165.894 1.93967 166.482V166.482Z" fill="url(#paint0_linear_7426_29215)"/>
<path opacity="0.3" d="M1.93967 166.482C2.40152 167.069 3.19658 167.122 3.71452 166.598L65.5721 104.074L72.4653 100.299L71.3734 97.7324L64.1634 101.679L2.04193 164.469C1.52399 164.993 1.47781 165.894 1.93967 166.482V166.482Z" fill="black"/>
<path d="M55.3657 129.546C55.3657 129.546 37.8795 122.529 34.3644 122.436C30.851 122.342 7.16758 137.938 7.16758 137.938L55.3657 129.546V129.546Z" fill="#FFAE4A"/>
<path d="M40.0766 159.145L43.7138 157.155C44.39 156.785 44.7958 155.98 44.7364 155.131L43.2931 134.779L47.0342 129.025L46.1138 128.254L42.122 134.401L43.5373 154.351C43.5966 155.2 43.1909 156.003 42.5146 156.373L40.1393 157.673C39.5851 157.976 38.9335 157.943 38.4057 157.58L26.531 149.429L24.705 150.43L25.6972 151.327L26.4716 150.903L38.3447 159.05C38.8708 159.411 39.5224 159.447 40.0766 159.144V159.145Z" fill="#263238"/>
<path d="M46.5351 160.893L50.1739 158.901C50.8502 158.531 51.256 157.726 51.1966 156.879L49.7516 136.525L53.4927 130.771L52.5723 130L48.5805 136.149L49.9958 156.099C50.0551 156.948 49.6494 157.751 48.9731 158.121L46.5995 159.421C46.0452 159.724 45.3937 159.691 44.8658 159.328L32.9945 151.177L29.3392 153.179L29.8373 154.346L32.9318 152.651L44.8032 160.802C45.3293 161.163 45.9825 161.198 46.5368 160.895L46.5351 160.893Z" fill="#263238"/>
<path d="M21.8104 171.997C26.4982 167.736 27.2537 159.973 23.4962 154.656C19.7386 149.34 12.8932 148.483 8.20536 152.745C3.51751 157.006 2.76205 164.769 6.51959 170.085C10.2771 175.402 17.1225 176.258 21.8104 171.997Z" fill="#263238"/>
<path d="M9.28322 162.813C9.36074 164.099 9.77147 165.329 10.4659 166.349C11.1603 167.368 12.1038 168.132 13.181 168.543C14.2581 168.955 15.4177 168.994 16.5129 168.655C17.6082 168.319 18.593 167.621 19.3385 166.65C20.0857 165.679 20.5608 164.478 20.7059 163.201C20.8511 161.923 20.6581 160.625 20.1517 159.472C19.6453 158.32 18.8503 157.362 17.8639 156.723C16.8791 156.083 15.7476 155.787 14.6144 155.877C13.0968 155.997 11.6816 156.794 10.682 158.094C9.6824 159.394 9.17931 161.092 9.28158 162.813H9.28322Z" fill="#37474F"/>
<path d="M15.0101 162.371L19.0068 163.535" stroke="url(#paint1_linear_7426_29215)" stroke-width="4.82283" stroke-miterlimit="10" stroke-linecap="round"/>
<path d="M1.14395 137.25L63.4123 123.817C63.9352 123.705 64.2783 123.133 64.1793 122.54C64.0803 121.947 63.5756 121.557 63.0527 121.67L0.784358 135.103C0.261469 135.215 -0.0816297 135.787 0.0173398 136.38C0.116309 136.973 0.621057 137.362 1.14395 137.25Z" fill="url(#paint2_linear_7426_29215)"/>
<path d="M62.6289 123.988L58.7394 138.072L30.983 149.453C25.8245 151.568 19.9317 150.794 15.4941 147.419L1.91606 137.092L62.6289 123.988Z" fill="url(#paint3_linear_7426_29215)"/>
<path opacity="0.1" d="M1.9157 137.094L3.62128 138.392L61.4244 128.364L62.6318 123.994L1.9157 137.094V137.094Z" fill="black"/>
<path d="M28.5764 153.774L26.8345 151.155L54.1221 139.967L28.5747 153.776L28.5764 153.774Z" fill="#263238"/>
<path d="M11.5982 172.991L80.5404 103.303L87.4336 99.5313L86.3416 96.9648L79.1317 100.912L9.92397 170.862C9.40603 171.386 9.35985 172.288 9.8217 172.875C10.2836 173.464 11.0786 173.515 11.5966 172.991H11.5982Z" fill="url(#paint4_linear_7426_29215)"/>
<path opacity="0.3" d="M11.5982 172.991L80.5404 103.303L87.4336 99.5313L86.3416 96.9648L79.1317 100.912L9.92397 170.862C9.40603 171.386 9.35985 172.288 9.8217 172.875C10.2836 173.464 11.0786 173.515 11.5966 172.991H11.5982Z" fill="black"/>
<path d="M102.74 113.291C102.082 118.074 101.503 122.879 101.103 127.595L100.957 129.361L100.839 131.108L100.78 131.982L100.739 132.842L100.656 134.558C100.635 135.125 100.63 135.671 100.615 136.228L100.595 137.061C100.59 137.203 100.592 137.334 100.595 137.465L100.6 137.859L100.617 139.438L100.698 140.865L100.716 141.223C100.724 141.35 100.74 141.505 100.754 141.646L100.833 142.508L100.912 143.37L101.004 144.229C101.065 144.801 101.125 145.372 101.199 145.946C101.27 146.519 101.336 147.089 101.418 147.673C101.496 148.253 101.573 148.829 101.661 149.425L101.923 151.225L102.199 153.09L102.474 155.024C102.842 157.647 103.152 160.432 103.345 163.163C103.54 165.898 103.644 168.598 103.691 171.254C102.103 171.65 94.2266 171.787 92.6217 171.495C92.5788 169.045 92.4815 166.609 92.3116 164.194C92.1417 161.777 91.8761 159.39 91.538 156.968C91.2031 154.549 90.8072 152.072 90.474 149.549C90.3866 148.92 90.3107 148.286 90.2332 147.652C90.1524 147.02 90.0848 146.384 90.0171 145.748L89.9149 144.794L89.8258 143.84L89.7384 142.886C89.7252 142.725 89.707 142.57 89.6955 142.405L89.6674 141.902L89.5553 139.891L89.5322 137.923C89.5322 137.596 89.519 137.265 89.5289 136.943L89.5503 135.972C89.5668 135.327 89.5734 134.676 89.5981 134.034L89.6889 132.113L89.7367 131.153L89.801 130.199L89.9297 128.291L90.088 126.392C90.5169 121.332 91.1223 116.328 91.8085 111.339C92.3676 107.359 95.4258 105.918 98.1392 106.517C100.863 107.078 103.277 109.499 102.745 113.296L102.74 113.291Z" fill="#0065A6"/>
<path d="M100.002 107.23C99.5865 109.847 99.2088 112.528 98.8558 115.186C98.5061 117.852 98.1943 120.518 97.9123 123.178C97.7869 124.506 97.6401 125.838 97.5378 127.16C97.4834 127.822 97.4224 128.486 97.3745 129.145L97.2409 131.12C97.1898 131.781 97.1667 132.43 97.1337 133.083L97.0875 134.061L97.0644 134.549L97.0529 135.032L97.01 136.957C96.9968 137.282 97.0133 137.585 97.0133 137.899L97.0232 138.835L97.0281 139.302C97.0281 139.46 97.0281 139.617 97.0413 139.761L97.0925 140.647L97.1403 141.534L97.1452 141.644L97.1568 141.766L97.1799 142.011L97.2244 142.501C97.3399 143.809 97.4784 145.107 97.6351 146.409C97.9436 149.009 98.3494 151.622 98.7535 154.393C99.1576 157.167 99.5106 160.078 99.7283 162.964C99.951 165.856 100.06 168.726 100.109 171.567" stroke="#009BFF" stroke-width="1.06585" stroke-miterlimit="10" stroke-linecap="round" stroke-dasharray="2.13 2.13"/>
<path d="M103.71 173.415L103.713 173.978L103.108 174.71H101.524L100.907 173.989L100.3 174.71H98.7166L98.0997 174.002L97.4927 174.71H95.9091L95.2922 174.016L94.6852 174.71H93.1034L92.4864 174.029L91.8794 174.71H90.2959L89.679 174.042L89.072 174.71H87.4885L86.8716 174.053L86.8683 173.55L103.71 173.415Z" fill="#1F2A47"/>
<path d="M103.639 169.099L103.689 171.267C103.703 171.989 103.702 172.698 103.71 173.414L100.126 173.442C100.121 172.862 100.218 172.311 100.394 171.805C100.569 171.298 100.818 170.835 101.133 170.44C101.764 169.652 102.649 169.136 103.637 169.099H103.639Z" fill="#AD7C3F"/>
<path d="M102.304 164.317C99.8879 164.262 97.478 164.225 95.0582 164.208C94.0768 164.204 93.2866 165.141 93.351 166.232C93.3873 166.758 93.4005 167.287 93.4236 167.815L93.4796 169.229C93.4895 169.64 93.2751 170.018 92.9403 170.188C92.1485 170.585 91.3567 170.974 90.5633 171.356C90.4495 171.41 90.3324 171.436 90.2153 171.44C89.859 171.447 89.5143 171.227 89.3592 170.852L88.1518 171.431C87.3749 171.797 86.8602 172.635 86.8685 173.552L100.125 173.445C100.12 172.865 100.218 172.313 100.394 171.808C100.569 171.301 100.818 170.838 101.133 170.443C101.763 169.655 102.649 169.139 103.637 169.102C103.626 168.499 103.593 167.884 103.57 167.276C103.546 166.76 103.533 166.249 103.5 165.727C103.454 164.945 102.933 164.333 102.301 164.32L102.304 164.317Z" fill="#FFAE4A"/>
<path d="M92.3067 164.193C92.3579 164.799 92.3826 165.413 92.4222 166.023C92.4634 166.633 92.4865 167.246 92.5096 167.86L92.5641 169.263C91.4952 169.805 90.4247 170.333 89.3558 170.849C89.5109 171.223 89.854 171.444 90.2119 171.436C90.329 171.434 90.4461 171.406 90.5599 171.352C91.3517 170.971 92.1434 170.581 92.9368 170.185C93.2717 170.017 93.4861 169.637 93.4762 169.225L93.4202 167.811C93.4004 167.377 93.3888 166.941 93.3641 166.507L93.2882 165.207C93.2585 164.631 92.8263 164.191 92.3084 164.191L92.3067 164.193Z" fill="#AD7C3F"/>
<path d="M96.7176 119.452L102.27 119.525C104.464 119.549 106.644 119.167 108.733 118.413L114.022 116.517C116.229 115.725 117.604 113.301 117.29 110.761C116.947 108.011 116.622 105.246 116.305 102.476L91.0962 106.179C91.4228 109.04 91.7609 111.904 92.1189 114.775C92.4455 117.428 94.4084 119.42 96.7176 119.45V119.452Z" fill="#0065A6"/>
<path d="M99.9903 119.494C102.735 119.962 106.884 119.519 108.757 118.591" stroke="white" stroke-width="0.930807" stroke-miterlimit="10" stroke-linecap="round"/>
<path d="M108.586 104.537C108.713 105.628 109.031 106.638 109.495 107.528C109.963 108.417 110.579 109.186 111.298 109.799C112.736 111.024 114.6 111.616 116.532 111.305" stroke="white" stroke-width="0.930807" stroke-miterlimit="10" stroke-linecap="round"/>
<path d="M107.144 104.752C107.449 107.39 108.682 109.629 110.42 111.105C112.162 112.579 114.404 113.288 116.734 112.906" stroke="white" stroke-width="0.930807" stroke-linecap="round" stroke-linejoin="round"/>
<path d="M103.805 105.245C104.174 108.442 104.558 111.635 104.961 114.826" stroke="white" stroke-width="0.930807" stroke-linecap="round" stroke-linejoin="round"/>
<path d="M99.0237 105.955C99.1524 107.061 99.0798 108.142 98.8357 109.154C98.5965 110.166 98.1874 111.109 97.6415 111.935C96.5478 113.585 94.9148 114.771 92.98 115.082" stroke="white" stroke-width="0.930807" stroke-miterlimit="10" stroke-linecap="round"/>
<path d="M100.466 105.741C100.773 108.399 100.116 110.951 98.8016 112.943C97.4919 114.933 95.5175 116.368 93.1868 116.75" stroke="white" stroke-width="0.930807" stroke-linecap="round" stroke-linejoin="round"/>
<path d="M101.565 108.465C101.509 107.978 101.808 107.533 102.235 107.47C102.662 107.406 103.053 107.746 103.109 108.231C103.165 108.715 102.869 109.161 102.441 109.226C102.016 109.292 101.622 108.951 101.565 108.467V108.465Z" fill="#FFD9A8"/>
<path d="M117.303 114.86C116.721 118.906 116.191 122.963 115.779 126.933C115.576 128.912 115.406 130.872 115.301 132.726C115.253 133.641 115.222 134.531 115.218 135.317L115.225 135.859C115.225 135.958 115.23 136.02 115.233 136.095L115.243 136.314C115.243 136.348 115.243 136.392 115.246 136.417L115.253 136.482C115.258 136.525 115.261 136.57 115.263 136.611V136.643C115.263 136.656 115.266 136.647 115.266 136.649H115.269C115.269 136.649 115.268 136.649 115.264 136.649L115.588 138.3L115.965 140.003L116.388 141.726L116.85 143.462C117.49 145.785 118.225 148.131 119.015 150.48C120.601 155.179 122.405 159.888 124.335 164.575C123.07 165.587 116.269 169.2 114.768 169.634C112.762 164.761 110.862 159.813 109.151 154.747C108.299 152.212 107.494 149.648 106.773 147.036C106.054 144.419 105.414 141.77 104.914 139.019L104.838 138.508C104.815 138.34 104.785 138.16 104.775 138.007L104.734 137.532C104.719 137.373 104.708 137.214 104.703 137.068C104.691 136.77 104.671 136.463 104.668 136.175L104.658 135.309C104.661 134.174 104.706 133.074 104.762 131.981C104.887 129.806 105.074 127.67 105.292 125.547C105.732 121.304 106.281 117.11 106.883 112.925C107.431 109.145 110.344 107.783 112.934 108.342C115.532 108.875 117.829 111.212 117.3 114.86H117.303Z" fill="#0065A6"/>
<path d="M114.715 109.03C114.325 111.485 113.957 113.978 113.613 116.455C113.27 118.937 112.95 121.418 112.664 123.889C112.382 126.358 112.133 128.822 111.967 131.227C111.886 132.424 111.823 133.612 111.805 134.731C111.805 135.004 111.793 135.294 111.802 135.548C111.807 135.808 111.805 136.081 111.82 136.308L111.835 136.663L111.861 136.961L111.873 137.107C111.876 137.159 111.884 137.178 111.889 137.215C111.901 137.282 111.907 137.35 111.915 137.417L112.267 139.209C112.402 139.813 112.529 140.419 112.671 141.026L113.118 142.848L113.604 144.671C114.274 147.105 115.041 149.539 115.858 151.963C117.499 156.814 119.35 161.632 121.321 166.412" stroke="#009BFF" stroke-width="1.01762" stroke-miterlimit="10" stroke-linecap="round" stroke-dasharray="2.13 2.13"/>
<path d="M125.048 166.292L125.234 166.739L124.951 167.605L123.588 168.344L122.818 168.041L122.536 168.915L121.173 169.652L120.4 169.345L120.121 170.224L118.758 170.961L117.983 170.649L117.706 171.532L116.344 172.271L115.565 171.953L115.291 172.841L113.929 173.578L113.149 173.254L112.876 174.149L111.514 174.888L110.732 174.558L110.534 174.087L125.048 166.292Z" fill="#1F2A47"/>
<path d="M123.646 162.882C124.108 164.019 124.571 165.157 125.048 166.292L121.958 167.951C121.16 166.043 121.925 163.769 123.644 162.882H123.646Z" fill="#AD7C3F"/>
<path d="M121.172 159.578L114.633 162.102C113.743 162.44 113.297 163.582 113.687 164.562L114.244 165.976L114.749 167.233C114.896 167.598 114.835 168.026 114.599 168.32L112.926 170.404C112.847 170.503 112.753 170.58 112.652 170.632C112.344 170.795 111.964 170.739 111.694 170.454L110.848 171.52C110.298 172.211 110.173 173.228 110.534 174.085L121.959 167.949C121.16 166.041 121.926 163.767 123.645 162.88L123.072 161.455L122.597 160.25C122.361 159.648 121.741 159.356 121.172 159.578V159.578Z" fill="#FFAE4A"/>
<path d="M112.152 163.049C112.576 164.168 113.017 165.273 113.454 166.382L113.96 167.645C113.201 168.579 112.448 169.516 111.697 170.457C111.966 170.741 112.345 170.797 112.655 170.634C112.756 170.582 112.85 170.505 112.929 170.406L114.602 168.322C114.836 168.029 114.897 167.6 114.752 167.235L114.247 165.978L113.332 163.649C113.134 163.133 112.622 162.873 112.156 163.049H112.152Z" fill="#AD7C3F"/>
<path d="M104.817 42.922C103.831 42.0989 97.2199 42.2299 95.5819 42.3683C93.8005 42.5198 91.9365 48.3562 92.8833 49.2616C93.4607 51.8991 92.4479 53.7716 92.593 54.7238C92.6986 55.4159 93.1341 55.4084 93.3518 55.053C93.5184 54.7818 93.6322 54.4713 93.6982 54.1383C93.6619 54.9183 93.8912 55.7115 94.3151 56.2783C94.4273 56.4279 94.5675 56.5701 94.7308 56.5626C94.8347 56.557 94.9304 56.4915 95.0145 56.4148C95.5572 55.9322 95.8046 55.0755 95.958 54.2561C96.1328 53.3246 96.2236 52.3687 96.2401 51.4109C98.0743 52.2826 99.6232 54.1084 100.413 56.3849C100.872 57.7037 101.103 59.189 101.833 60.2945C102.564 61.4001 103.542 61.864 104.245 60.7304C104.504 60.3114 104.585 59.7988 104.608 59.2601C104.931 59.7801 105.322 59.8961 105.586 59.4004C105.904 58.8055 105.18 57.0995 105.276 56.0931C105.344 55.3766 105.344 54.692 105.494 53.9961C106.13 52.4098 106.838 50.8011 106.977 49.1269C107.158 46.927 106.635 45.842 105.863 45.3931C105.863 45.3931 105.682 43.6478 104.814 42.9239L104.817 42.922Z" fill="#FFD9A8"/>
<path d="M99.5748 68.5153C101.846 68.5153 103.687 66.4277 103.687 63.8518V57.2504C103.687 54.6745 101.846 52.5869 99.5748 52.5869C97.3035 52.5869 95.4626 54.6745 95.4626 57.2504V63.8518C95.4626 66.4277 97.3035 68.5153 99.5748 68.5153Z" fill="#FAB196"/>
<path opacity="0.4" d="M99.575 52.585C101.472 52.585 103.067 54.0403 103.542 56.0213L95.4628 63.7096V57.2484C95.4628 54.6726 97.3036 52.585 99.575 52.585V52.585Z" fill="#FC4E60"/>
<path d="M93.1647 56.8805C93.1647 57.9786 93.5573 58.9719 94.1923 59.694C94.8257 60.4142 95.7016 60.8594 96.6732 60.8594H103.702V53.2833C102.326 54.155 103.316 48.8668 103.329 47.6377C100.972 46.6145 94.1824 46.665 93.6958 48.401C93.6447 48.7339 93.62 49.0781 93.62 49.4298C93.62 52.1815 93.1647 54.3271 93.1647 56.8805V56.8805Z" fill="#FAB196"/>
<path d="M104.342 57.2489C103.344 57.2489 102.534 56.3309 102.534 55.1986C102.534 54.0663 103.344 53.1484 104.342 53.1484C105.341 53.1484 106.15 54.0663 106.15 55.1986C106.15 56.3309 105.341 57.2489 104.342 57.2489Z" fill="#FAB196"/>
<path d="M103.806 55.76C103.742 55.3463 103.895 54.8971 104.191 54.6406C104.486 54.3842 104.909 54.3336 105.244 54.5115" stroke="#852D4C" stroke-width="0.4" stroke-linecap="round" stroke-linejoin="round"/>
<path d="M104.276 54.7656C104.554 54.8907 104.795 55.1166 104.953 55.404" stroke="#852D4C" stroke-width="0.4" stroke-linecap="round" stroke-linejoin="round"/>
<path d="M103.778 53.1034C103.602 53.9714 102.896 55.2808 102.513 55.1162C102.076 54.9254 102.383 53.6552 102.64 52.993C102.533 53.1801 102.426 53.3653 102.317 53.5523C102.262 53.6421 102.2 53.7394 102.106 53.7469C101.934 53.7656 101.875 53.4962 101.878 53.2979C101.9 52.0278 101.919 50.7576 101.941 49.4837C98.9635 48.2267 96.5305 49.9271 93.6901 48.3314C90.6616 45.2262 108.981 41.4587 103.778 53.1034V53.1034Z" fill="#FFD9A8"/>
<path d="M97.082 52.3115C97.082 53.0934 96.8181 53.6677 96.2886 54.1148C95.901 54.444 96.4041 55.1568 96.9253 54.979" stroke="#852D4C" stroke-width="0.5" stroke-linecap="round" stroke-linejoin="round"/>
<path opacity="0.35" d="M95.5557 54.4365C95.4601 54.8107 94.9883 54.9828 94.5001 54.8238C94.0118 54.6648 93.6935 54.2308 93.7891 53.8585C93.8848 53.4844 94.3566 53.3123 94.8448 53.4713C95.3331 53.6303 95.6498 54.0643 95.5557 54.4365Z" fill="#FC4E60"/>
<path opacity="0.35" d="M101.314 53.9312C101.388 54.3109 101.045 54.7187 100.55 54.8422C100.054 54.9656 99.5937 54.758 99.5195 54.3783C99.4452 53.9985 99.7883 53.5907 100.283 53.4673C100.78 53.3438 101.24 53.5515 101.314 53.9312Z" fill="#FC4E60"/>
<path d="M95.8433 52.9324C95.8433 53.2581 95.7277 53.522 95.5841 53.522C95.4405 53.522 95.325 53.2581 95.325 52.9324C95.325 52.6067 95.4405 52.3428 95.5841 52.3428C95.7277 52.3428 95.8433 52.6067 95.8433 52.9324Z" fill="#852D4C"/>
<path d="M98.8626 52.9324C98.8626 53.2581 98.9781 53.522 99.1217 53.522C99.2653 53.522 99.3809 53.2581 99.3809 52.9324C99.3809 52.6067 99.2637 52.3428 99.1217 52.3428C98.9798 52.3428 98.8626 52.6067 98.8626 52.9324Z" fill="#852D4C"/>
<path d="M99.8443 51.1593C99.6382 51.1144 99.4534 50.9853 99.2423 50.946C99.0394 50.9086 98.8266 50.9348 98.6287 50.8693C98.4852 50.8207 98.4489 50.628 98.5446 50.5064C98.9124 50.035 99.8509 50.2539 100.088 50.7983C100.174 50.9965 100.034 51.2004 99.8443 51.1593V51.1593Z" fill="#852D4C"/>
<path d="M94.432 51.1887C94.5707 50.5673 95.5412 50.2247 95.9571 50.6608C96.0413 50.7488 96.0297 50.9454 95.9175 51.0034C95.7227 51.1045 95.4999 51.1157 95.2936 51.1812C95.079 51.2486 94.9024 51.4227 94.6895 51.4826C94.5327 51.5275 94.3908 51.3684 94.4304 51.1887H94.432Z" fill="#852D4C"/>
<path d="M98.7603 54.5898C98.4186 55.0896 97.935 55.4602 97.4002 55.6324" stroke="#852D4C" stroke-width="0.5" stroke-linecap="round" stroke-linejoin="round"/>
<path d="M66.3121 106.806C66.7047 106.641 67.4965 106.226 68.3888 105.726C68.6115 105.599 68.8424 105.476 69.0717 105.332C69.2994 105.186 69.5303 105.036 69.7596 104.89C70.2148 104.593 70.6602 104.295 71.0577 104.017C71.5196 103.785 71.9105 103.431 72.2256 103.042C72.5406 102.653 72.7765 102.215 72.9266 101.761C73.2268 100.853 73.1707 99.8657 72.7303 99.0071C72.2965 98.1672 71.5724 97.591 70.7757 97.3404C70.3765 97.215 69.9575 97.1701 69.5385 97.2132C69.3307 97.2394 69.1163 97.2749 68.9035 97.331C68.6907 97.389 68.4812 97.4694 68.275 97.5742L68.2717 97.5667C68.2717 97.5667 68.082 97.6528 67.7571 97.7987C67.5954 97.8754 67.4008 97.9652 67.1814 98.0699C67.0709 98.1223 66.9554 98.1803 66.8334 98.2383C66.7113 98.2963 66.5793 98.3505 66.4441 98.4104C65.9031 98.6479 65.2861 98.9304 64.6527 99.2428C64.4944 99.3214 64.3344 99.4018 64.176 99.4822L63.6894 99.7105C63.3661 99.8657 63.0445 100.025 62.7344 100.189C61.1657 101.042 60.4878 101.645 60.2255 102.084C59.9599 102.522 60.1001 102.765 60.1001 102.765C60.1001 102.765 59.7983 102.975 59.5624 103.281C59.3265 103.588 59.155 103.99 59.4255 104.372C59.4255 104.372 59.1781 104.583 59.0247 104.86C58.8713 105.137 58.8102 105.481 59.1913 105.741C59.1913 105.741 58.9686 106.222 59.0181 106.559C59.0676 106.896 59.3975 107.084 60.501 106.499C60.9925 106.239 61.5434 106 62.1026 105.794C62.383 105.691 62.6635 105.588 62.9373 105.487C63.2127 105.39 63.4849 105.302 63.7455 105.225C64.7863 104.915 65.6639 104.799 65.9476 104.931C66.233 105.072 65.9344 105.33 65.5055 105.614C65.0767 105.899 64.5257 106.243 64.3228 106.636C63.9138 107.417 65.527 107.12 66.3171 106.804L66.3121 106.806Z" fill="#FAB196"/>
<path d="M63.0273 103.837C62.7271 103.932 62.4434 104.031 62.1779 104.134C61.9123 104.235 61.6583 104.321 61.4257 104.417C60.9589 104.602 60.563 104.789 60.2414 104.956C59.5997 105.287 59.2583 105.537 59.2583 105.537" stroke="#852D4C" stroke-width="0.708956" stroke-linecap="round" stroke-linejoin="round"/>
<path d="M62.8696 102.714C61.6704 103.069 60.8177 103.393 60.275 103.679C59.7306 103.96 59.4882 104.169 59.4882 104.169" stroke="#852D4C" stroke-width="0.708956" stroke-linecap="round" stroke-linejoin="round"/>
<path d="M62.6436 101.577C62.0745 101.712 61.4724 101.981 61.0007 102.178C60.5306 102.385 60.2023 102.563 60.2023 102.563" stroke="#852D4C" stroke-width="0.708956" stroke-linecap="round" stroke-linejoin="round"/>
<path d="M84.8871 95.5214L84.5951 95.8113C82.5431 97.7624 80.3295 99.3505 78.0681 100.707C75.8083 102.085 73.4709 103.139 71.132 104.102C70.6206 104.298 70.1043 104.388 69.6144 104.381C69.1229 104.369 68.6627 104.28 68.247 104.065C67.4156 103.651 66.7987 102.907 66.5596 101.94C66.3352 101.019 66.4903 100.063 66.9043 99.2533C67.315 98.4302 67.9682 97.7175 68.8111 97.3284C70.8614 96.3033 72.8804 95.2165 74.7163 93.9033C76.5637 92.6107 78.2841 91.1684 79.7637 89.5484C79.8066 89.4979 79.8512 89.4437 79.8974 89.3969C80.0574 89.2286 80.2322 89.0845 80.4186 88.9648C80.511 88.905 80.6083 88.8507 80.7073 88.8039C80.8062 88.7553 80.8969 88.7048 80.9959 88.6636C81.3868 88.4971 81.8207 88.4205 82.2726 88.4261C82.3864 88.4261 82.5002 88.4354 82.6141 88.4466C82.7246 88.456 82.8367 88.4691 82.9489 88.4878C83.1732 88.5271 83.3992 88.5869 83.6236 88.6711C84.0722 88.8376 84.511 89.0958 84.9052 89.4587C85.2961 89.8197 85.6046 90.2518 85.8157 90.7419C85.9213 90.987 86.0038 91.2451 86.0615 91.5126C86.0895 91.6473 86.1126 91.7838 86.1291 91.9223C86.144 92.0588 86.1489 92.1935 86.1489 92.3319C86.1489 92.8838 86.045 93.4581 85.8388 94.0155C85.7877 94.1539 85.73 94.2942 85.6656 94.4289C85.598 94.558 85.5221 94.6852 85.4413 94.8105C85.2796 95.0593 85.0949 95.2988 84.8871 95.5214V95.5214Z" fill="#FAB196"/>
<path d="M80.998 90.1143C80.5953 90.1908 80.3742 90.6295 80.3742 90.6295" stroke="#852D4C" stroke-width="0.945275" stroke-linecap="round" stroke-linejoin="round"/>
<path d="M93.9708 72.4473C93.9758 74.5311 93.829 76.7086 93.4743 78.8691C93.1213 81.0297 92.549 83.1791 91.7539 85.2162L91.4455 85.9738C91.3415 86.2263 91.2426 86.4807 91.1205 86.7202C90.8863 87.2065 90.6537 87.6966 90.4112 88.1755L89.6228 89.5691C89.4958 89.8048 89.3423 90.0162 89.2005 90.2388L88.7667 90.8973C88.6182 91.1124 88.483 91.3425 88.3246 91.5445L87.8562 92.1618C87.5411 92.5678 87.2409 92.9943 86.8995 93.3628L85.8999 94.5001C85.5568 94.8612 85.2021 95.2035 84.8524 95.5533L84.8491 95.557L84.6347 95.7722C84.5291 95.8694 84.4219 95.9611 84.313 96.0453C84.2009 96.1257 84.0854 96.1949 83.9683 96.2604C83.7341 96.3895 83.4965 96.4923 83.2557 96.569C82.7741 96.7168 82.2974 96.7786 81.8289 96.7C80.8904 96.5447 80.064 95.9798 79.5031 95.0782C78.944 94.1784 78.7328 93.114 78.8004 92.145C78.8202 91.9056 78.845 91.6568 78.8895 91.4192C78.9341 91.1816 78.9951 90.9534 79.0743 90.7345C79.1534 90.5176 79.2491 90.3099 79.3646 90.1191C79.4207 90.0218 79.485 89.932 79.5493 89.8404C79.6103 89.7469 79.6747 89.6552 79.744 89.5691L79.8974 89.3952H79.899C80.1464 89.1071 80.4021 88.8302 80.6446 88.5422L81.3275 87.6499C81.5666 87.3618 81.7547 87.0382 81.9642 86.7333L82.2743 86.2712C82.3815 86.1197 82.4607 85.9513 82.5563 85.7923L82.8318 85.3116C82.9209 85.1507 83.0231 84.9973 83.0974 84.8271L83.5807 83.8357L83.9996 82.8162C84.0755 82.6497 84.1283 82.472 84.1877 82.298L84.3642 81.7761C84.8128 80.375 85.1098 78.9178 85.2648 77.41C85.4182 75.8986 85.443 74.3497 85.3423 72.7222C85.3027 72.0339 85.3687 71.3567 85.5254 70.6907C85.603 70.3596 85.7085 70.0379 85.8306 69.7161C85.8933 69.5571 85.9609 69.4019 86.0335 69.2522C86.106 69.1007 86.1852 68.9436 86.2693 68.7977C86.3535 68.6518 86.4425 68.5115 86.5366 68.3768C86.6306 68.244 86.7329 68.1018 86.8368 67.9783C87.0479 67.7221 87.2739 67.5163 87.5246 67.318C88.0228 66.9308 88.5836 66.7325 89.179 66.7044C89.8026 66.6689 90.4046 66.8185 90.9556 67.0486C91.0941 67.1066 91.2277 67.1683 91.358 67.2376C91.4916 67.3124 91.6219 67.3947 91.749 67.4826C92.0013 67.6585 92.2372 67.8511 92.4615 68.0999C92.6842 68.3412 92.8871 68.6031 93.0718 68.9174C93.1642 69.0708 93.25 69.2317 93.3308 69.3963C93.41 69.5665 93.4842 69.7479 93.5518 69.9313C93.6888 70.296 93.7927 70.6982 93.8653 71.121C93.9428 71.5381 93.9725 71.9927 93.9741 72.451L93.9708 72.4473Z" fill="#FAB196"/>
<path d="M94.3792 71.6458C94.3066 71.1669 94.201 70.7292 94.0757 70.3233C93.9454 69.9323 93.7936 69.5619 93.6221 69.2458C93.4505 68.9334 93.2592 68.636 93.0579 68.3965C92.8551 68.1571 92.6357 67.9345 92.4081 67.753C92.1821 67.5791 91.9429 67.4238 91.6955 67.291C91.5701 67.2218 91.448 67.1675 91.3227 67.117C91.1973 67.0665 91.0687 67.0179 90.94 66.9748C90.4221 66.8009 89.8794 66.6924 89.3383 66.6924C88.799 66.6924 88.2596 66.8027 87.7532 67.0665C87.6262 67.132 87.5025 67.2068 87.3787 67.2929C87.2567 67.3789 87.1363 67.4743 87.0225 67.5678C86.7932 67.7586 86.5754 67.985 86.3742 68.2431C85.5693 69.2495 85.0447 70.6039 84.8897 72.1228C84.8369 72.916 84.8088 73.913 84.7594 74.9905C84.7066 76.0661 84.6043 77.2109 84.446 78.3314C84.3998 78.6083 84.3701 78.8926 84.3173 79.1657C84.2629 79.437 84.2101 79.7082 84.1622 79.9795C84.1424 80.116 84.1045 80.2451 84.0732 80.3742C84.0418 80.5051 84.0105 80.6342 83.9808 80.7614C83.9511 80.8905 83.9214 81.0177 83.8934 81.1449C83.867 81.2721 83.8224 81.3899 83.7895 81.5115C83.7185 81.7528 83.6525 81.9885 83.5899 82.2205C83.5618 82.3383 83.5206 82.4468 83.4843 82.5535C83.448 82.662 83.4117 82.7686 83.3754 82.8715C83.3062 83.081 83.2402 83.2811 83.1808 83.4719C83.1132 83.659 83.0406 83.8311 82.9812 83.9957C82.9812 83.9957 83.3029 84.3287 83.8983 84.8693C84.4954 85.408 85.3647 86.1638 86.4847 86.9625C87.6047 87.7594 88.5911 88.2944 89.307 88.6124C90.0212 88.9323 90.46 89.0445 90.46 89.0445C90.6002 88.8257 90.7569 88.5919 90.9103 88.3318C91.0555 88.0662 91.2089 87.7837 91.3705 87.4863C91.4497 87.3367 91.5305 87.1833 91.6146 87.028C91.6971 86.8709 91.7829 86.7119 91.8555 86.5416C92.0056 86.2031 92.1623 85.8514 92.3223 85.4903C92.3998 85.307 92.4872 85.1274 92.5565 84.9348C92.6274 84.744 92.6984 84.5494 92.7693 84.3549C92.8402 84.1585 92.9111 83.9602 92.9837 83.76C93.0547 83.5599 93.1305 83.3578 93.1883 83.1502C93.312 82.7368 93.434 82.3159 93.5544 81.8913C93.6732 81.4666 93.7606 81.0326 93.8596 80.6005C94.2324 78.8702 94.4468 77.1137 94.5079 75.5573C94.5656 74.0009 94.5046 72.6429 94.3808 71.6421L94.3792 71.6458Z" fill="#001F34"/>
<path d="M83.7462 82.46C83.7462 82.46 84.0893 82.7518 84.721 83.2213C85.3544 83.6871 86.2748 84.3381 87.4493 85.0059C88.6237 85.6737 89.6464 86.0946 90.3837 86.3322C91.1194 86.5716 91.5664 86.6352 91.5664 86.6352" stroke="#0065A6" stroke-width="0.930807" stroke-linecap="round" stroke-linejoin="round" stroke-dasharray="2.13 2.13"/>
<path d="M87.2296 67.3041C89.717 66.0153 92.4717 64.9977 95.4243 64.328C96.5162 65.7309 98.1575 66.5353 99.9175 66.3389C101.679 66.1425 103.149 64.9902 103.985 63.3945C106.995 63.4114 109.871 63.7967 112.528 64.487C114.408 65.0388 115.055 66.0808 114.981 68.6398C114.839 74.8054 114.732 80.9822 114.661 87.1534C115.852 94.4844 117.094 101.791 118.42 109.01C118.534 109.638 118.197 110.258 117.64 110.437C113.791 111.666 109.44 112.719 104.793 113.468C100.147 114.214 95.708 114.571 91.7047 114.562C91.1273 114.562 90.644 114.04 90.6028 113.374C90.1146 105.689 89.7335 98.0629 89.4053 90.4476C88.089 84.3194 86.8073 78.1856 85.5603 72.035C85.0292 69.4816 85.4811 68.2825 87.2296 67.306V67.3041Z" fill="#001F34"/>
<path d="M106.062 63.958C104.978 66.4946 102.788 68.3652 100.122 68.6701C97.4566 68.975 94.9774 67.6301 93.4813 65.3423" stroke="#0065A6" stroke-width="0.930807" stroke-linecap="round" stroke-linejoin="round" stroke-dasharray="2.13 2.13"/>
<path d="M107.168 98.3211C107.358 99.8681 107.546 101.325 107.734 102.653C108.267 106.477 108.773 109.234 109.138 110.014C109.776 110.261 110.71 110.301 111.754 110.188C112.189 110.143 112.641 110.069 113.1 109.977C115.561 109.472 118.185 108.353 118.909 107.291C118.512 105.796 118.078 103.972 117.621 101.92C117.35 100.691 117.07 99.3836 116.793 98.0087C115.759 92.928 114.713 86.9776 113.863 81.1917C113.016 75.4058 112.362 69.7865 112.09 65.3849C112.032 64.4252 111.561 63.5835 110.772 63.5161L107.161 63.4525L105.928 63.4301L103.983 63.3945C103.983 63.3945 104.075 64.7096 104.23 66.8982C104.39 69.0887 104.623 72.1547 104.913 75.6546C105.492 82.6564 106.317 91.3904 107.168 98.3211V98.3211Z" fill="url(#paint5_linear_7426_29215)"/>
<path d="M107.168 98.3217C107.358 99.8688 107.546 101.326 107.734 102.654C108.77 102.555 109.697 102.604 110.335 102.851C110.345 102.871 110.352 102.892 110.36 102.909C110.363 102.909 110.368 102.912 110.375 102.914C110.73 103.763 111.205 106.481 111.754 110.189C112.189 110.144 112.641 110.069 113.1 109.978C112.752 107.396 112.425 105.06 112.127 103.155C113.793 103.133 115.94 102.62 117.621 101.921C117.351 100.692 117.07 99.3843 116.793 98.0093C114.703 98.6229 112.389 98.8885 111.158 98.4022C111.15 98.3835 111.142 98.3629 111.134 98.3461C111.129 98.3423 111.124 98.3405 111.119 98.3405C110.589 97.0703 109.816 91.5912 109.08 84.8027C108.343 78.0161 107.643 69.9125 107.162 63.4551L105.928 63.4326C106.273 68.2009 106.799 74.7873 107.416 81.2148C108.029 87.6442 108.734 93.9164 109.365 98.0898C108.692 98.0935 107.939 98.1796 107.168 98.3236V98.3217Z" fill="white"/>
<path d="M99.0196 99.464C99.1713 101.03 99.3049 102.509 99.4254 103.862C99.7635 107.753 99.9383 110.6 99.775 111.475C99.2192 111.915 98.3301 112.242 97.2992 112.457C96.8686 112.547 96.4167 112.616 95.9532 112.669C93.4641 112.94 90.6682 112.643 89.7148 111.795C89.7313 110.164 89.728 108.202 89.6999 106.009C89.6818 104.7 89.6554 103.306 89.6241 101.855C89.5037 96.4822 89.2942 90.2792 88.9989 84.3044C88.702 78.3296 88.316 72.5831 87.8146 68.1085C87.7041 67.132 88.0208 66.1818 88.7828 65.9367L92.316 65.0781L93.5218 64.7844L95.4237 64.3242C95.4237 64.3242 95.9664 69.605 96.6905 76.6386C97.4146 83.6684 98.3433 92.4435 99.0212 99.464H99.0196Z" fill="url(#paint6_linear_7426_29215)"/>
<path d="M99.019 99.4657C99.1708 101.031 99.3044 102.511 99.4248 103.864C98.4005 104.066 97.5147 104.38 96.9539 104.808C96.9506 104.833 96.9473 104.853 96.9423 104.872C96.939 104.874 96.9341 104.877 96.9308 104.881C96.7774 105.818 96.9341 108.634 97.3003 112.459C96.8697 112.549 96.4178 112.618 95.9543 112.671C95.664 110.007 95.4363 107.599 95.2912 105.629C93.6747 106.093 91.4842 106.219 89.6994 106.009C89.6813 104.7 89.6549 103.306 89.6235 101.855C91.7827 101.875 94.0837 101.482 95.1708 100.655C95.1741 100.633 95.179 100.612 95.1823 100.594C95.1873 100.588 95.1922 100.586 95.1939 100.584C95.4264 99.1795 94.991 93.5676 94.3691 86.6781C93.7456 79.7867 92.9374 71.6233 92.3122 65.0798L93.518 64.7861C93.9947 69.5993 94.6495 76.2306 95.2928 82.7199C95.9295 89.2091 96.5415 95.5636 96.8368 99.8455C97.49 99.6622 98.2388 99.535 99.0174 99.4639L99.019 99.4657Z" fill="white"/>
<path d="M85.9692 96.0748C86.3337 95.9626 87.1073 95.8054 88.0079 95.6521C88.2323 95.6109 88.4698 95.5828 88.6991 95.5305C88.9316 95.4837 89.1659 95.4369 89.4001 95.3902C89.8686 95.3004 90.3337 95.2181 90.7593 95.1507C91.2112 95.0217 91.6451 94.9543 92.0756 94.9917C92.5028 95.0273 92.9185 95.1507 93.2995 95.3528C93.6805 95.5548 94.0269 95.8354 94.3156 96.1814C94.6026 96.5256 94.8269 96.9316 94.9671 97.4067C95.2459 98.3458 95.1139 99.3241 94.662 100.181C94.436 100.607 94.1308 101.002 93.7614 101.337C93.669 101.421 93.5733 101.502 93.4727 101.576C93.3721 101.646 93.2665 101.713 93.1593 101.773C92.9432 101.896 92.7139 101.999 92.4731 102.081V102.089C92.4731 102.089 92.2603 102.173 91.8925 102.315C91.7077 102.384 91.4867 102.467 91.2343 102.562C90.982 102.656 90.6999 102.76 90.3914 102.848C89.7762 103.034 89.0702 103.234 88.3362 103.421C88.1531 103.466 87.9683 103.512 87.7819 103.557C87.5956 103.6 87.4075 103.63 87.2211 103.664C86.8467 103.729 86.4739 103.789 86.1094 103.838C84.2636 104.102 83.3712 103.864 82.944 103.619C82.5168 103.368 82.5465 103.078 82.5465 103.078C82.5465 103.078 82.1836 103.049 81.8454 102.897C81.5073 102.745 81.1972 102.472 81.2928 101.988C81.2928 101.988 80.9893 101.926 80.7469 101.756C80.5044 101.586 80.3246 101.307 80.5638 100.875C80.5638 100.875 80.1893 100.555 80.1102 100.224C80.0326 99.8946 80.2421 99.5561 81.41 99.5243C81.9312 99.5093 82.5003 99.4438 83.0628 99.3466C83.3465 99.3017 83.6203 99.2268 83.8908 99.1539C84.1597 99.0791 84.4219 98.9986 84.6694 98.9144C85.6607 98.574 86.4327 98.1924 86.5795 97.8706C86.7279 97.5601 86.3848 97.5695 85.9114 97.5713C85.4364 97.5713 84.8409 97.59 84.5061 97.3656C83.8397 96.911 85.2384 96.2843 85.9725 96.0748H85.9692Z" fill="#FAB196"/>
<path d="M84.6909 100.527C84.3924 100.622 84.107 100.703 83.8348 100.77C83.5627 100.839 83.3004 100.876 83.0563 100.915C82.568 100.988 82.1425 101.025 81.7944 101.042C81.0967 101.074 80.7024 101.024 80.7024 101.024" stroke="#852D4C" stroke-width="0.713779" stroke-linecap="round" stroke-linejoin="round"/>
<path d="M85.0605 101.593C83.8581 102.035 82.9393 102.134 82.3356 102.169C81.7302 102.201 81.4317 102.138 81.4317 102.138" stroke="#852D4C" stroke-width="0.713779" stroke-linecap="round" stroke-linejoin="round"/>
<path d="M85.3784 102.704C84.806 102.928 84.1446 103.079 83.6217 103.129C83.1005 103.191 82.7244 103.204 82.7244 103.204" stroke="#852D4C" stroke-width="0.713779" stroke-linecap="round" stroke-linejoin="round"/>
<path d="M101.981 87.0525L101.768 87.29C100.263 88.8969 98.5299 90.3279 96.6758 91.6149C94.8317 92.9225 92.8111 94.0056 90.7591 95.0288C90.3055 95.2384 89.908 95.532 89.5748 95.8856C89.4082 96.0633 89.2564 96.2541 89.1228 96.458C88.9892 96.6638 88.8721 96.877 88.7682 97.0921C88.364 97.9601 88.2552 98.9759 88.5653 99.9224C88.8638 100.822 89.5005 101.494 90.3187 101.855C91.1302 102.201 92.1183 102.203 93.0832 101.84C95.447 100.865 97.809 99.8083 100.092 98.4222C102.378 97.0585 104.613 95.4628 106.692 93.5118C106.754 93.4519 106.82 93.3902 106.881 93.3266C107.096 93.1058 107.287 92.8683 107.454 92.6195C107.538 92.4941 107.615 92.3669 107.686 92.2379C107.757 92.1088 107.815 91.9647 107.869 91.8263C108.085 91.267 108.201 90.689 108.209 90.1315C108.211 89.9912 108.207 89.8528 108.196 89.7162C108.183 89.576 108.161 89.4375 108.133 89.301C108.079 89.0279 108 88.766 107.896 88.5153C107.688 88.0158 107.381 87.5725 106.988 87.2003C106.601 86.8317 106.165 86.568 105.72 86.394C105.497 86.308 105.273 86.2425 105.049 86.1995C104.936 86.1789 104.826 86.1621 104.715 86.1508C104.602 86.1377 104.486 86.1284 104.374 86.1246C103.922 86.1115 103.485 86.1789 103.091 86.3379C102.992 86.3772 102.896 86.4239 102.8 86.4726C102.701 86.5193 102.604 86.5699 102.508 86.6278C102.32 86.7438 102.142 86.8822 101.979 87.0469L101.981 87.0525Z" fill="#FAB196"/>
<path d="M106.413 91.9414C106.259 92.4449 105.785 92.7276 105.785 92.7276" stroke="#852D4C" stroke-width="0.950098" stroke-linecap="round" stroke-linejoin="round"/>
<path d="M107.743 70.3893C107.814 72.0168 107.758 73.5675 107.572 75.0809C107.384 76.5905 107.054 78.0514 106.572 79.4544L106.386 79.9782L106.294 80.2419C106.262 80.3299 106.221 80.4122 106.186 80.4982C106.036 80.8368 105.899 81.181 105.746 81.5196L105.243 82.5129L105.18 82.6382L105.109 82.7579L104.966 82.9974L104.682 83.4781L104.54 83.7194L104.469 83.841L104.39 83.957L104.072 84.4209C103.856 84.7277 103.661 85.0513 103.417 85.3394L102.717 86.2317C102.472 86.5198 102.209 86.7966 101.959 87.0828H101.957L101.8 87.2587C101.729 87.3447 101.662 87.4364 101.601 87.5299C101.536 87.6216 101.47 87.7132 101.413 87.8105C101.296 88.0032 101.197 88.2108 101.116 88.4278C100.951 88.8618 100.867 89.3538 100.83 89.8439C100.756 90.8185 100.962 91.8885 101.522 92.7995C102.079 93.7086 102.907 94.281 103.849 94.4456C104.317 94.5261 104.797 94.4737 105.282 94.3278C105.523 94.253 105.764 94.1538 105.998 94.0266C106.115 93.963 106.233 93.8957 106.345 93.8152C106.455 93.731 106.564 93.6413 106.67 93.544L106.887 93.3307L106.891 93.327C107.244 92.9791 107.602 92.6423 107.95 92.2832L108.962 91.1571C109.307 90.7923 109.614 90.3714 109.934 89.9692L110.409 89.3594L110.528 89.206L110.638 89.0451L110.859 88.7215L111.301 88.0705L111.522 87.745L111.633 87.5823L111.735 87.4102L112.545 86.0315C112.799 85.5601 113.037 85.0719 113.281 84.5911C113.34 84.4696 113.405 84.3517 113.459 84.2264L113.621 83.8522L113.944 83.1003C114.779 81.0818 115.399 78.9418 115.8 76.7794C116.2 74.6188 116.395 72.4283 116.428 70.322C116.443 69.4334 116.316 68.5916 116.078 67.8658C115.96 67.5011 115.818 67.1569 115.651 66.8538C115.569 66.7004 115.48 66.5527 115.387 66.4105C115.295 66.2683 115.198 66.1449 115.095 66.0195C114.891 65.7726 114.668 65.5481 114.435 65.3704C114.203 65.189 113.949 65.015 113.692 64.8953C113.175 64.6465 112.605 64.4688 112.004 64.4388C111.376 64.4033 110.777 64.5473 110.236 64.8915C110.101 64.9776 109.969 65.0767 109.842 65.1852C109.716 65.2881 109.596 65.4004 109.48 65.5219C109.248 65.7651 109.035 66.0532 108.845 66.3394C108.656 66.6331 108.489 66.9567 108.346 67.2747C108.275 67.4375 108.209 67.604 108.151 67.7742C108.09 67.9388 108.037 68.1072 107.991 68.2793C107.806 68.9695 107.715 69.6729 107.748 70.3931L107.743 70.3893Z" fill="#FAB196"/>
<path d="M107.301 69.7863C107.484 68.2785 108.03 66.9448 108.848 65.9571C109.053 65.7027 109.274 65.482 109.507 65.293C109.738 65.1078 109.988 64.9264 110.242 64.801C110.752 64.5429 111.293 64.4307 111.837 64.4307C112.38 64.4307 112.926 64.541 113.446 64.7206C113.706 64.8141 113.955 64.9077 114.204 65.048C114.452 65.1864 114.691 65.3473 114.917 65.5287C115.145 65.7177 115.362 65.9459 115.565 66.1947C115.766 66.4435 115.954 66.7484 116.123 67.0683C116.291 67.3956 116.438 67.7716 116.563 68.1719C116.682 68.5853 116.784 69.0287 116.847 69.5188C116.954 70.5327 116.99 71.9076 116.9 73.4752C116.809 75.0427 116.553 76.8049 116.143 78.5315L115.983 79.1768C115.93 79.392 115.875 79.6052 115.808 79.8166C115.676 80.2375 115.545 80.6565 115.417 81.0699C115.282 81.4796 115.12 81.8762 114.973 82.2653C114.897 82.4598 114.823 82.6525 114.749 82.8414C114.671 83.0285 114.584 83.2099 114.503 83.3914C114.336 83.7487 114.173 84.0966 114.016 84.4333C113.855 84.7663 113.675 85.0712 113.513 85.3668C113.347 85.6604 113.188 85.9392 113.04 86.2029C112.878 86.4555 112.721 86.6893 112.576 86.9044C112.576 86.9044 112.138 86.7828 111.425 86.4461C110.711 86.1113 109.728 85.5538 108.614 84.7307C107.501 83.9077 106.64 83.1295 106.048 82.5758C105.457 82.0202 105.14 81.6779 105.14 81.6779C105.66 80.3553 106.394 78.2415 106.735 75.9893C106.919 74.8669 107.049 73.7221 107.12 72.6465C107.192 71.5709 107.239 70.5757 107.305 69.7881L107.301 69.7863Z" fill="#001F34"/>
<path d="M113.725 84.515C113.725 84.515 113.278 84.4401 112.544 84.182C111.808 83.9257 110.787 83.4768 109.619 82.7809C108.45 82.085 107.537 81.4097 106.909 80.9252C106.282 80.4389 105.942 80.1377 105.942 80.1377" stroke="#0065A6" stroke-width="0.930807" stroke-linecap="round" stroke-linejoin="round" stroke-dasharray="2.13 2.13"/>
<path d="M91.7391 48.6812C91.7391 48.6812 92.4648 39.6629 100.244 40.4467C108.023 41.2305 107.429 50.2844 107.429 50.2844L91.7391 48.6812Z" fill="url(#paint7_linear_7426_29215)"/>
<path d="M92.7528 48.7856L95.3177 49.0475C95.3639 48.5761 96.0633 42.143 100.243 40.4463H100.245C102.447 40.667 103.979 41.5537 105.042 42.706C104.266 41.4995 103.133 40.5137 101.484 40.1077C101.167 40.0292 100.834 39.9749 100.479 39.9412C98.8724 39.7935 97.5957 40.2013 96.5813 40.9102C93.5594 43.0278 92.8617 47.8409 92.7528 48.7856Z" fill="url(#paint8_linear_7426_29215)"/>
<path d="M108.067 49.6761L91.2112 47.9551L91.1172 49.2365L107.973 50.9574L108.067 49.6761V49.6761Z" fill="url(#paint9_linear_7426_29215)"/>
<defs>
<linearGradient id="paint0_linear_7426_29215" x1="72.4653" y1="132.347" x2="1.62131" y2="132.347" gradientUnits="userSpaceOnUse">
<stop stop-color="#0066A6"/>
<stop offset="1" stop-color="#00EB87"/>
</linearGradient>
<linearGradient id="paint1_linear_7426_29215" x1="19.8316" y1="162.953" x2="14.1854" y2="162.953" gradientUnits="userSpaceOnUse">
<stop stop-color="#0066A6"/>
<stop offset="1" stop-color="#00EB87"/>
</linearGradient>
<linearGradient id="paint2_linear_7426_29215" x1="64.1776" y1="122.54" x2="-0.484973" y2="133.386" gradientUnits="userSpaceOnUse">
<stop stop-color="#00EB87"/>
<stop offset="1" stop-color="#0066A6"/>
</linearGradient>
<linearGradient id="paint3_linear_7426_29215" x1="1.91607" y1="138.426" x2="62.6289" y2="138.426" gradientUnits="userSpaceOnUse">
<stop stop-color="#00EB87"/>
<stop offset="1" stop-color="#0066A6"/>
</linearGradient>
<linearGradient id="paint4_linear_7426_29215" x1="9.50499" y1="135.157" x2="87.4336" y2="135.157" gradientUnits="userSpaceOnUse">
<stop stop-color="#00EB87"/>
<stop offset="1" stop-color="#0066A6"/>
</linearGradient>
<linearGradient id="paint5_linear_7426_29215" x1="118.908" y1="86.8204" x2="103.983" y2="86.8204" gradientUnits="userSpaceOnUse">
<stop stop-color="#00EB87"/>
<stop offset="1" stop-color="#0066A6"/>
</linearGradient>
<linearGradient id="paint6_linear_7426_29215" x1="99.8361" y1="88.547" x2="87.7915" y2="88.547" gradientUnits="userSpaceOnUse">
<stop stop-color="#00EB87"/>
<stop offset="1" stop-color="#0066A6"/>
</linearGradient>
<linearGradient id="paint7_linear_7426_29215" x1="91.0046" y1="43.8414" x2="106.61" y2="45.5749" gradientUnits="userSpaceOnUse">
<stop stop-color="#0066A6"/>
<stop offset="1" stop-color="#00EB87"/>
</linearGradient>
<linearGradient id="paint8_linear_7426_29215" x1="93.2969" y1="43.883" x2="104.769" y2="45.1588" gradientUnits="userSpaceOnUse">
<stop stop-color="#00EB87"/>
<stop offset="1" stop-color="#0066A6"/>
</linearGradient>
<linearGradient id="paint9_linear_7426_29215" x1="89.9171" y1="48.4105" x2="106.733" y2="49.6437" gradientUnits="userSpaceOnUse">
<stop stop-color="#00EB87"/>
<stop offset="1" stop-color="#0066A6"/>
</linearGradient>
</defs>
</svg>
