<svg width="280" height="101" viewBox="0 0 280 101" fill="none" xmlns="http://www.w3.org/2000/svg">
<g filter="url(#filter0_i_3868_21084)">
<path d="M69.5366 6.17415L50.8083 24.9025C50.2202 25.4906 49.4226 25.821 48.5909 25.821H42.8044C40.0122 25.821 38.6124 29.1955 40.5847 31.1719L68.3413 58.9858C69.5638 60.2108 69.5627 62.1945 68.339 63.4183L31.8548 99.9025C31.2667 100.491 30.4691 100.821 29.6374 100.821H3.14212C0.348395 100.821 -1.05071 97.4432 0.924749 95.4678L32.9745 63.418C34.1981 62.1944 34.1993 60.2109 32.9771 58.9858L1.36752 27.3024C0.472669 26.4055 0.205488 25.0582 0.690344 23.8876L9.443 2.75676C9.92837 1.58498 11.0718 0.820956 12.3401 0.820956L67.3192 0.820953C70.1129 0.820953 71.512 4.19868 69.5366 6.17415Z" fill="white"/>
<path fill-rule="evenodd" clip-rule="evenodd" d="M127.236 30.9245C126.012 32.1491 124.026 32.1491 122.802 30.9245L94.914 3.03694C93.6894 1.81232 91.7039 1.81232 90.4793 3.03694L77.2363 16.2799C76.0117 17.5045 76.0117 19.49 77.2363 20.7146L105.124 48.6022C106.349 49.8268 106.349 51.8123 105.124 53.0369L77.2336 80.9273C76.0089 82.1519 76.0089 84.1374 77.2336 85.362L90.4765 98.605C91.7011 99.8296 93.6866 99.8296 94.9112 98.605L122.802 70.7146C124.026 69.49 126.012 69.49 127.236 70.7146L155.127 98.605C156.351 99.8296 158.337 99.8296 159.561 98.605L172.804 85.362C174.029 84.1374 174.029 82.1519 172.804 80.9273L144.914 53.0369C143.689 51.8123 143.689 49.8268 144.914 48.6022L172.802 20.7146C174.026 19.49 174.026 17.5045 172.802 16.2799L159.559 3.03694C158.334 1.81232 156.349 1.81232 155.124 3.03694L127.236 30.9245Z" fill="white"/>
<path fill-rule="evenodd" clip-rule="evenodd" d="M233.513 30.9245C232.289 32.1491 230.303 32.1491 229.079 30.9245L201.191 3.03694C199.967 1.81232 197.981 1.81232 196.756 3.03694L183.514 16.2799C182.289 17.5045 182.289 19.49 183.514 20.7146L211.401 48.6022C212.626 49.8268 212.626 51.8123 211.401 53.0369L183.511 80.9273C182.286 82.1519 182.286 84.1374 183.511 85.362L196.754 98.605C197.978 99.8296 199.964 99.8296 201.188 98.605L229.079 70.7146C230.303 69.49 232.289 69.49 233.513 70.7146L261.404 98.605C262.628 99.8296 264.614 99.8296 265.839 98.605L279.082 85.362C280.306 84.1374 280.306 82.1519 279.082 80.9273L251.191 53.0369C249.967 51.8123 249.967 49.8268 251.191 48.6022L279.079 20.7146C280.303 19.49 280.303 17.5045 279.079 16.2799L265.836 3.03694C264.611 1.81232 262.626 1.81232 261.401 3.03694L233.513 30.9245Z" fill="white"/>
</g>
<defs>
<filter id="filter0_i_3868_21084" x="0" y="0.820953" width="280" height="103.136" filterUnits="userSpaceOnUse" color-interpolation-filters="sRGB">
<feFlood flood-opacity="0" result="BackgroundImageFix"/>
<feBlend mode="normal" in="SourceGraphic" in2="BackgroundImageFix" result="shape"/>
<feColorMatrix in="SourceAlpha" type="matrix" values="0 0 0 0 0 0 0 0 0 0 0 0 0 0 0 0 0 0 127 0" result="hardAlpha"/>
<feOffset dy="3.13584"/>
<feGaussianBlur stdDeviation="2.35188"/>
<feComposite in2="hardAlpha" operator="arithmetic" k2="-1" k3="1"/>
<feColorMatrix type="matrix" values="0 0 0 0 0.0156863 0 0 0 0 0.0862745 0 0 0 0 0.192157 0 0 0 0.3 0"/>
<feBlend mode="normal" in2="shape" result="effect1_innerShadow_3868_21084"/>
</filter>
</defs>
</svg>
