<svg width="888" height="706" viewBox="0 0 888 706" fill="none" xmlns="http://www.w3.org/2000/svg">
<path d="M568.093 422.184C567.079 424.54 626.742 549.262 631.452 554.267C631.676 554.504 631.929 554.713 632.204 554.888C639.269 560.449 686.47 578.995 690.264 580.271C699.652 583.378 793.758 438.409 800.954 412.731C802.753 406.189 764.09 329.779 750.941 319.247C745.315 314.733 723.955 307.569 721.24 308.453C717.446 309.924 569.14 419.829 568.093 422.184Z" fill="white"/>
<path opacity="0.1" d="M568.093 422.184C567.079 424.54 626.742 549.262 631.452 554.267C631.676 554.504 631.929 554.713 632.204 554.888C639.269 560.449 686.47 578.995 690.264 580.271C699.652 583.378 793.758 438.409 800.954 412.731C802.753 406.189 764.09 329.779 750.941 319.247C745.315 314.733 723.955 307.569 721.24 308.453C717.446 309.924 569.14 419.829 568.093 422.184Z" fill="black"/>
<path opacity="0.1" d="M568.093 422.183C567.079 424.538 626.742 549.261 631.452 554.265C631.676 554.503 631.929 554.711 632.204 554.887C656.507 527.967 770.37 401.347 770.468 399.319C770.567 397.291 731.642 325.166 721.273 308.451C717.446 309.923 569.14 419.828 568.093 422.183Z" fill="black"/>
<path d="M228.925 320.487L113.002 336.548C90.8572 339.819 71.3949 342.109 61.2221 342.403C58.848 342.728 56.4309 342.504 54.1568 341.749C54.1568 341.749 54.1568 341.749 53.9933 341.749C48.5634 335.828 18.0125 159.653 18.9611 153.144C19.9097 146.635 38.5869 148.99 45.1289 154.878C51.6709 160.765 93.6703 222.979 93.6703 222.979L209.594 208.064L228.925 320.487Z" fill="#455A64"/>
<path d="M36.9514 345.152L35.2178 336.059C36.2225 335.817 37.1754 335.396 38.0308 334.816C39.6404 333.649 40.8216 331.985 41.3921 330.081C41.9626 328.176 41.8908 326.137 41.1878 324.277C40.4849 322.417 39.1897 320.84 37.502 319.789C35.8143 318.738 33.8278 318.272 31.8487 318.461L30.2459 310.218C31.2894 309.968 32.2768 309.524 33.1571 308.91C34.8372 307.77 36.0824 306.096 36.6903 304.159C37.2981 302.222 37.2329 300.136 36.5051 298.241C35.7774 296.346 34.4299 294.753 32.6818 293.72C30.9337 292.688 28.8878 292.277 26.8768 292.555L25.274 284.312C26.384 284.079 27.4389 283.635 28.3814 283.004C30.1054 281.861 31.3832 280.16 31.9994 278.186C32.6156 276.211 32.5326 274.085 31.7645 272.165C30.9964 270.244 29.5901 268.648 27.7823 267.643C25.9745 266.638 23.8758 266.287 21.8395 266.649L20.2694 258.406C21.3844 258.137 22.4386 257.659 23.3768 257C25.1009 255.857 26.3786 254.156 26.9948 252.181C27.611 250.207 27.528 248.081 26.7599 246.161C25.9918 244.24 24.5855 242.643 22.7777 241.639C20.9699 240.634 18.8712 240.283 16.8349 240.645L15.2975 232.304C16.4729 232.083 17.5878 231.614 18.5685 230.93C20.2579 229.769 21.502 228.068 22.0963 226.106C22.6906 224.145 22.5996 222.039 21.8383 220.136C21.0771 218.233 19.6909 216.646 17.9077 215.635C16.1245 214.624 14.0504 214.25 12.0265 214.575L10.4564 206.365C11.6315 206.125 12.7448 205.646 13.7274 204.958C15.6874 203.597 17.0286 201.515 17.4577 199.167C17.8868 196.819 17.3688 194.397 16.0171 192.43C15.0284 191.005 13.6541 189.892 12.0552 189.22C10.4563 188.548 8.69903 188.345 6.98921 188.636L5.41915 180.393C6.6005 180.173 7.71796 179.693 8.69013 178.987C10.4773 177.847 11.8047 176.114 12.4385 174.091C13.0722 172.069 12.9715 169.888 12.1542 167.932C11.3368 165.977 9.8553 164.373 7.97083 163.403C6.08637 162.433 3.92001 162.16 1.85377 162.632L0.381836 154.88L18.6339 152.917L53.9932 341.882L36.9514 345.152Z" fill="#37474F"/>
<path d="M92.1985 334.519C91.8505 329.271 90.4146 324.154 87.9819 319.491C85.5492 314.828 82.173 310.723 78.0679 307.435C70.7258 301.438 61.3507 298.508 51.9 299.258C51.6383 299.258 51.671 299.814 51.9 299.847C61.3696 300.564 70.3508 304.335 77.4938 310.593C84.6368 316.851 89.5558 325.259 91.5116 334.552C91.5159 334.643 91.5563 334.729 91.6237 334.79C91.6912 334.851 91.7803 334.883 91.8714 334.879C91.9625 334.874 92.0481 334.834 92.1095 334.767C92.1708 334.699 92.2028 334.61 92.1985 334.519V334.519Z" fill="#37474F"/>
<path d="M114.376 328.793C113.59 315.905 111.726 303.083 109.763 290.326C107.801 277.57 105.806 265.074 103.679 252.481C102.469 245.252 101.259 238.023 99.6888 230.893C99.6647 230.812 99.615 230.741 99.5472 230.69C99.4795 230.64 99.3972 230.612 99.3127 230.612C99.2281 230.612 99.1458 230.64 99.0781 230.69C99.0103 230.741 98.9607 230.812 98.9365 230.893C99.8851 243.748 101.848 256.57 103.549 269.359C105.249 282.149 107.049 294.677 109.077 307.303C110.254 314.532 111.595 321.695 113.296 328.859C113.333 328.978 113.408 329.082 113.511 329.153C113.613 329.224 113.737 329.259 113.862 329.251C113.986 329.244 114.105 329.194 114.198 329.111C114.291 329.028 114.354 328.916 114.376 328.793V328.793Z" fill="#37474F"/>
<path d="M124.156 326.113C123.371 313.193 121.506 300.403 119.544 287.646C117.581 274.889 115.586 262.394 113.46 249.768C112.282 242.572 111.039 235.343 109.469 228.18C109.445 228.099 109.395 228.028 109.328 227.977C109.26 227.927 109.178 227.899 109.093 227.899C109.008 227.899 108.926 227.927 108.858 227.977C108.791 228.028 108.741 228.099 108.717 228.18C109.665 241.067 111.628 253.857 113.329 266.647C115.03 279.436 116.829 291.964 118.857 304.59C120.034 311.852 121.375 319.015 123.076 326.146C123.11 326.266 123.182 326.371 123.282 326.444C123.383 326.518 123.505 326.556 123.629 326.552C123.753 326.549 123.873 326.503 123.968 326.424C124.064 326.344 124.13 326.235 124.156 326.113Z" fill="#37474F"/>
<path d="M147.577 331.739L134.493 217.647C143.696 209.135 155.258 203.605 167.661 201.783C215.973 193.41 304.421 190.433 355.939 199.494C399.41 207.115 537.445 336.646 559.165 353.818C567.113 360.066 585.561 348.814 585.561 348.814L648.43 477.429C648.43 477.429 598.842 510.662 549.744 481.845C489.296 446.354 365.195 321.338 340.663 316.268C318.486 311.688 223.529 333.767 175.642 339.622C165.614 340.796 155.527 337.963 147.577 331.739Z" fill="white"/>
<path d="M164.259 321.701C163.998 308.781 162.624 295.893 161.152 283.071C159.68 270.249 158.208 257.688 156.605 245.03C155.657 237.768 154.741 230.474 153.334 223.277C153.31 223.196 153.261 223.125 153.193 223.075C153.125 223.024 153.043 222.997 152.958 222.997C152.874 222.997 152.791 223.024 152.724 223.075C152.656 223.125 152.606 223.196 152.582 223.277C153.04 236.165 154.479 249.053 155.689 261.908C156.9 274.763 158.175 287.356 159.713 300.015C160.596 307.309 161.643 314.538 162.984 321.734C162.988 321.903 163.059 322.064 163.182 322.18C163.305 322.297 163.469 322.36 163.638 322.356C163.807 322.351 163.968 322.28 164.084 322.157C164.201 322.034 164.264 321.87 164.259 321.701V321.701Z" fill="#263238"/>
<path opacity="0.1" d="M358.751 246.172C355.841 247.633 353.311 249.749 351.358 252.354C349.338 254.88 347.604 257.622 346.19 260.532C343.394 266.297 341.391 272.415 340.237 278.718C339.616 281.826 339.256 284.966 338.896 288.106C338.536 291.246 338.471 294.386 338.536 297.526C338.602 300.666 338.765 303.807 339.092 306.947C339.464 310.08 339.999 313.192 340.695 316.269C341.578 313.194 342.167 310.12 342.723 307.078C343.279 304.036 343.933 301.026 344.391 298.017C344.849 295.008 345.471 291.998 345.929 289.022L346.746 284.573C347.008 283.069 347.204 281.564 347.531 280.125C348.676 274.237 349.985 268.415 351.62 262.69C353.059 256.825 355.47 251.242 358.751 246.172Z" fill="black"/>
<path d="M403.69 246.083C412.034 231.625 402.283 210.375 381.911 198.618C361.54 186.861 338.261 189.05 329.918 203.507C321.574 217.965 331.325 239.215 351.697 250.972C372.068 262.729 395.347 260.54 403.69 246.083Z" fill="white"/>
<path opacity="0.1" d="M403.69 246.083C412.034 231.625 402.283 210.375 381.911 198.618C361.54 186.861 338.261 189.05 329.918 203.507C321.574 217.965 331.325 239.215 351.697 250.972C372.068 262.729 395.347 260.54 403.69 246.083Z" fill="black"/>
<path opacity="0.1" d="M648.394 477.428C648.394 477.428 598.806 510.661 549.709 481.844C489.294 446.354 365.193 321.337 340.628 316.267C318.45 311.688 223.526 333.799 175.607 339.622C165.589 340.787 155.516 337.954 147.574 331.739L135.537 227.067L615.75 410.569L648.394 477.428Z" fill="black"/>
<path d="M402.32 464.9C402.32 464.9 427.441 579.156 427.441 579.221C432.315 601.039 436.207 620.272 437.254 630.379C437.254 630.379 437.254 630.379 437.254 630.543C437.806 632.877 437.806 635.307 437.254 637.641C437.272 637.705 437.272 637.773 437.254 637.837C431.759 643.692 258.495 687.883 251.953 687.36C245.411 686.836 246.261 668.159 251.626 661.192C256.99 654.225 315.77 607.515 315.77 607.515L291.892 493.031L402.32 464.9Z" fill="#455A64"/>
<path d="M441.736 654.39L432.839 656.81C432.506 655.831 431.996 654.922 431.334 654.128C430.591 653.208 429.675 652.443 428.636 651.878C427.598 651.313 426.459 650.958 425.283 650.833C424.107 650.709 422.918 650.817 421.785 651.152C420.651 651.487 419.594 652.043 418.675 652.787C417.393 653.819 416.412 655.178 415.836 656.721C415.26 658.263 415.111 659.933 415.404 661.553L407.325 663.777C406.562 661.632 405.017 659.854 402.998 658.8C400.98 657.746 398.638 657.494 396.441 658.094C394.245 658.693 392.356 660.101 391.153 662.035C389.951 663.968 389.523 666.285 389.956 668.52L381.844 670.744C381.53 669.682 381.008 668.692 380.307 667.833C379.021 666.266 377.245 665.177 375.265 664.742C373.285 664.307 371.216 664.552 369.392 665.435C367.567 666.319 366.093 667.791 365.208 669.615C364.322 671.438 364.075 673.507 364.508 675.487L356.429 677.712C356.074 676.616 355.52 675.596 354.793 674.702C353.514 673.101 351.727 671.984 349.727 671.537C347.727 671.09 345.634 671.339 343.795 672.243C341.956 673.148 340.481 674.653 339.614 676.51C338.747 678.367 338.54 680.464 339.027 682.455L330.915 684.646C330.587 683.526 330.042 682.482 329.312 681.571C328.018 679.984 326.221 678.883 324.218 678.451C322.216 678.019 320.126 678.282 318.291 679.195C316.457 680.108 314.989 681.618 314.126 683.477C313.264 685.335 313.059 687.432 313.546 689.422L305.467 691.613C305.164 690.418 304.606 689.302 303.831 688.342C302.521 686.761 300.711 685.671 298.7 685.253C296.689 684.834 294.595 685.112 292.762 686.04C290.93 686.967 289.467 688.49 288.613 690.359C287.76 692.228 287.566 694.331 288.065 696.323L279.986 698.515C279.674 697.317 279.104 696.201 278.318 695.244C277.009 693.644 275.191 692.542 273.167 692.122C271.144 691.701 269.037 691.987 267.199 692.933C265.362 693.879 263.904 695.426 263.07 697.317C262.236 699.209 262.076 701.329 262.617 703.323L254.996 705.384L251.725 687.361L437.255 637.675L441.736 654.39Z" fill="#37474F"/>
<path d="M426.917 600.283C421.713 601.041 416.724 602.872 412.264 605.659C407.805 608.446 403.973 612.129 401.011 616.474C395.623 624.257 393.444 633.817 394.927 643.165C394.927 643.427 395.483 643.362 395.483 643.165C395.465 633.663 398.528 624.411 404.213 616.798C409.899 609.184 417.899 603.619 427.015 600.937C427.058 600.931 427.1 600.916 427.137 600.893C427.174 600.871 427.207 600.842 427.232 600.807C427.258 600.772 427.277 600.732 427.287 600.69C427.298 600.648 427.3 600.604 427.293 600.561C427.287 600.518 427.272 600.477 427.25 600.44C427.227 600.402 427.198 600.37 427.163 600.344C427.128 600.318 427.088 600.3 427.046 600.289C427.004 600.279 426.96 600.277 426.917 600.283V600.283Z" fill="#37474F"/>
<path d="M419.624 578.471C406.802 580.237 394.176 583.083 381.615 586.027C369.055 588.971 356.756 591.947 344.359 595.022C337.261 596.788 330.13 598.555 323.13 600.713C323.035 600.739 322.954 600.802 322.905 600.888C322.856 600.974 322.843 601.076 322.869 601.171C322.895 601.267 322.958 601.348 323.043 601.397C323.129 601.446 323.231 601.459 323.327 601.433C336.083 599.47 348.709 596.527 361.303 593.844C373.896 591.162 386.293 588.382 398.723 585.373C405.853 583.672 412.886 581.774 419.886 579.517C419.995 579.459 420.082 579.366 420.132 579.253C420.183 579.139 420.194 579.012 420.164 578.892C420.134 578.772 420.064 578.665 419.966 578.588C419.869 578.512 419.748 578.471 419.624 578.471V578.471Z" fill="#37474F"/>
<path d="M416.056 568.919C403.267 570.718 390.641 573.564 378.048 576.508C365.454 579.451 353.188 582.428 340.791 585.503C333.693 587.236 326.595 589.035 319.595 591.161C319.512 591.198 319.444 591.262 319.402 591.343C319.361 591.423 319.349 591.516 319.368 591.605C319.388 591.694 319.437 591.773 319.508 591.829C319.579 591.885 319.668 591.915 319.759 591.914C332.516 589.951 345.141 587.007 357.767 584.292C370.393 581.577 382.725 578.863 395.155 575.853C402.286 574.12 409.351 572.223 416.318 569.998C416.455 569.958 416.571 569.866 416.642 569.742C416.713 569.619 416.734 569.473 416.7 569.334C416.666 569.196 416.581 569.075 416.461 568.998C416.341 568.921 416.196 568.892 416.056 568.919V568.919Z" fill="#37474F"/>
<path d="M592.2 362.555L539.504 376.881C537.509 377.438 536.004 392.876 536.004 392.876C536.004 392.876 398.885 316.794 342.722 315.42C323.489 314.929 279.265 346.559 276.812 376.98C272.821 426.241 278.022 495.258 287.344 535.688C290.633 547.892 296.253 559.344 303.895 569.411L421.062 547.594C421.062 547.594 423.155 523.552 420.8 510.272C417.235 490.155 403.987 444.558 403.987 444.558C441.636 450.871 543.593 501.702 543.593 501.702C543.593 501.702 598.644 544.617 657.783 494.866L592.2 362.555Z" fill="white"/>
<path d="M539.865 373.02C538.691 384.774 536.613 396.421 533.65 407.856C533.65 408.281 532.931 408.216 533.029 407.856C534.762 396.211 536.3 384.436 538.655 372.922C538.818 371.908 539.963 372.104 539.865 373.02Z" fill="#263238"/>
<path d="M592.266 356.271C592.528 356.271 592.692 356.697 592.43 356.795C583.92 359.618 575.567 362.893 567.407 366.608C563.613 368.276 542.809 378.841 546.015 385.874C546.538 387.051 547.814 387.346 549.547 386.986C551.865 386.195 554.066 385.095 556.089 383.715C560.407 381.393 564.79 379.267 569.173 377.173C577.375 373.55 585.954 370.851 594.752 369.126C595.047 369.126 595.112 369.519 594.752 369.617C582.835 373.299 571.229 377.926 560.047 383.453C554.65 386.234 546.963 392.154 544.608 385.874C542.253 379.594 555.468 370.533 559.164 368.44C569.584 362.876 580.724 358.781 592.266 356.271V356.271Z" fill="#263238"/>
<path d="M545.426 384.959C543.817 386.348 542.124 387.637 540.356 388.819C539.083 389.867 537.616 390.656 536.039 391.141C535.712 391.141 535.613 390.781 535.777 390.552C536.89 389.165 538.215 387.962 539.702 386.987C541.239 385.711 542.777 384.435 544.347 383.225C545.394 382.407 546.408 384.076 545.426 384.959Z" fill="#263238"/>
<path d="M312.172 549.651C324.798 548.113 337.261 545.529 349.658 542.847C362.055 540.165 374.223 537.417 386.456 534.604C393.456 532.969 400.489 531.333 407.423 529.338C407.519 529.338 407.61 529.3 407.678 529.232C407.745 529.165 407.783 529.073 407.783 528.978C407.783 528.883 407.745 528.791 407.678 528.724C407.61 528.656 407.519 528.618 407.423 528.618C394.83 530.319 382.368 533.001 369.905 535.455C357.443 537.908 345.275 540.394 333.009 543.141C325.943 544.744 319.009 546.412 312.074 548.571C311.955 548.61 311.852 548.689 311.783 548.794C311.714 548.899 311.682 549.025 311.694 549.15C311.705 549.275 311.759 549.393 311.846 549.484C311.933 549.575 312.048 549.634 312.172 549.651V549.651Z" fill="#263238"/>
<path opacity="0.1" d="M341.119 362.554C340.715 367.096 341.434 371.668 343.213 375.867C343.965 377.993 344.914 380.021 345.797 382.114C346.68 384.208 347.858 386.105 349.068 388.067C353.536 395.761 358.728 403.012 364.572 409.721C370.302 416.421 376.5 422.706 383.119 428.529C389.656 434.452 396.681 439.814 404.118 444.557C399.048 437.198 393.422 430.557 387.764 423.885C382.105 417.212 376.544 410.801 370.918 404.259C365.292 397.717 359.731 391.175 354.563 384.437C351.979 381.166 349.362 377.666 347.04 374.1C344.444 370.604 342.443 366.703 341.119 362.554V362.554Z" fill="black"/>
<path d="M365.717 325.526C358.422 310.512 335.362 306.718 314.199 317.021C293.035 327.325 281.849 347.834 289.176 362.815C296.503 377.796 319.563 381.623 340.694 371.32C361.824 361.016 373.044 340.474 365.717 325.526Z" fill="white"/>
<path opacity="0.1" d="M365.717 325.526C358.422 310.512 335.362 306.718 314.199 317.021C293.035 327.325 281.849 347.834 289.176 362.815C296.503 377.796 319.563 381.623 340.694 371.32C361.824 361.016 373.044 340.474 365.717 325.526Z" fill="black"/>
<path d="M712.704 352.708C670.607 292.686 647.285 242.182 648.528 219.776C649.542 200.15 659.649 142.482 677.967 111.212C683.495 101.791 741.882 124.623 740.442 136.202C739.003 147.781 721.634 208.164 720.031 223.341C719.083 231.878 736.386 318.886 740.639 338.578C747.998 371.32 731.382 379.334 712.704 352.708Z" fill="#F7A9A0"/>
<path d="M703.25 68.8861C699.979 72.157 698.376 70.5216 699.161 62.5077C699.946 54.4938 709.792 23.2559 698.638 20.8681C687.484 18.4803 674.236 62.4095 673.975 75.886C674.335 87.7526 675.681 99.5688 677.998 111.213C682.316 103.101 694.615 84.5868 703.25 68.8861Z" fill="#A6A6A6"/>
<path d="M740.475 136.2C751.76 113.041 767.231 84.9106 764.974 55.9297C764.798 52.7012 763.543 49.6255 761.409 47.1962C760.624 34.1122 754.246 30.8412 754.246 30.8412C749.83 18.9349 742.797 16.22 742.797 16.22C742.797 16.22 741.718 0.977162 732.395 0.0939973C721.928 -0.920007 725.494 20.7012 720.195 33.8179C708.027 63.8127 682.382 103.064 677.999 111.373L740.475 136.2Z" fill="#A6A6A6"/>
<path d="M729.549 74.0543C733.201 65.307 736.261 56.3243 738.708 47.1668C740.751 36.9948 742.03 26.6843 742.535 16.3215C742.52 16.2819 742.515 16.2394 742.521 16.1975C742.526 16.1556 742.542 16.1157 742.566 16.081C742.59 16.0463 742.622 16.018 742.659 15.9985C742.697 15.9789 742.738 15.9688 742.78 15.9688C742.823 15.9688 742.864 15.9789 742.902 15.9985C742.939 16.018 742.971 16.0463 742.995 16.081C743.019 16.1157 743.035 16.1556 743.04 16.1975C743.045 16.2394 743.04 16.2819 743.026 16.3215C744.058 36.4446 739.531 56.4636 729.942 74.1851C729.746 74.6104 729.386 74.4795 729.549 74.0543Z" fill="#263238"/>
<path d="M746.591 83.9928C749.437 75.1611 754.311 59.5913 753.951 30.6758H754.115C756.757 48.8159 754.299 67.3334 747.017 84.1563C746.788 84.6797 746.395 84.5816 746.591 83.9928Z" fill="#263238"/>
<path d="M755.849 89.1938C759.592 75.5333 761.441 61.4234 761.344 47.2598C761.344 47.2598 761.508 47.2598 761.541 47.2598C762.915 66.1333 761.279 73.166 756.373 89.4228C756.176 90.0115 755.686 89.7825 755.849 89.1938Z" fill="#263238"/>
<path d="M740.472 136.199L677.996 111.209C671.2 114.607 665.523 119.886 661.641 126.419C655.099 137.279 643.03 212.904 647.772 234.361C652.515 255.819 693.239 334.061 715.416 360.327C737.594 386.593 746.883 367.523 743.187 345.313C739.491 323.103 723.038 230.338 723.103 224.777C723.169 219.217 740.21 169.334 742.729 159.031C745.248 148.727 740.472 136.199 740.472 136.199Z" fill="white"/>
<path opacity="0.1" d="M715.484 360.294C698.671 340.407 671.162 290.492 656.77 258.207L732.558 283.295C736.909 308.613 741.521 334.781 743.254 345.444C746.95 367.49 737.661 386.56 715.484 360.294Z" fill="black"/>
<path opacity="0.1" d="M737.598 151.87C728.995 147.913 720.163 144.413 711.43 140.978C702.696 137.543 693.93 134.174 685.262 130.838C680.225 128.941 675.187 127.011 670.117 125.277C669.79 125.277 669.692 125.474 670.117 125.637C678.785 129.497 687.65 132.964 696.449 136.497C705.248 140.029 713.883 143.497 722.617 146.866C727.621 148.796 732.658 150.66 737.761 152.328C737.925 152.492 738.186 152.165 737.598 151.87Z" fill="black"/>
<path d="M581.179 355.158L658.047 492.539C666.073 494.254 674.452 492.738 681.369 488.319C709.925 471.408 757.027 430.619 774.69 393.821C787.381 367.326 777.241 346.195 757.681 337.952C752.742 335.892 688.271 315.383 665.145 317.509C639.898 320.596 615.546 328.799 593.576 341.616C588.379 345.026 584.118 349.681 581.179 355.158Z" fill="white"/>
<path d="M573 356.111C572.705 354.116 583.925 348.228 585.528 348.817C587.13 349.405 666.19 492.02 666.386 493.067C666.583 494.114 652.812 500.786 651.83 499.609C650.849 498.431 573.36 358.826 573 356.111Z" fill="white"/>
<path opacity="0.1" d="M573 356.111C572.705 354.116 583.925 348.228 585.528 348.817C587.13 349.405 666.19 492.02 666.386 493.067C666.583 494.114 652.812 500.786 651.83 499.609C650.849 498.431 573.36 358.826 573 356.111Z" fill="black"/>
<path d="M663.932 384.927L650.455 316.138L711.23 315.451L724.739 384.24L663.932 384.927Z" fill="white"/>
<path opacity="0.2" d="M663.932 384.927L650.455 316.138L711.23 315.451L724.739 384.24L663.932 384.927Z" fill="black"/>
<path opacity="0.1" d="M663.931 384.925L662.23 376.192L723.038 375.505L724.739 384.238L663.931 384.925Z" fill="black"/>
<path opacity="0.1" d="M699.357 327.423C698.31 327.43 697.289 327.091 696.455 326.458C695.621 325.825 695.019 324.933 694.745 323.923C694.662 323.462 694.687 322.988 694.818 322.538C694.949 322.089 695.181 321.675 695.498 321.33C695.814 320.985 696.206 320.718 696.643 320.549C697.08 320.38 697.55 320.315 698.016 320.357C699.063 320.35 700.084 320.689 700.918 321.322C701.752 321.955 702.353 322.846 702.628 323.857C702.71 324.318 702.685 324.792 702.555 325.242C702.424 325.691 702.192 326.105 701.875 326.45C701.559 326.795 701.167 327.062 700.73 327.231C700.293 327.4 699.823 327.465 699.357 327.423V327.423Z" fill="black"/>
<path opacity="0.1" d="M686.504 327.554C685.46 327.569 684.44 327.237 683.605 326.609C682.77 325.982 682.167 325.094 681.892 324.087C681.802 323.625 681.822 323.149 681.95 322.696C682.078 322.243 682.311 321.827 682.629 321.48C682.947 321.133 683.342 320.866 683.782 320.699C684.222 320.533 684.695 320.472 685.163 320.522C686.207 320.506 687.227 320.839 688.062 321.466C688.897 322.094 689.499 322.981 689.775 323.989C689.858 324.45 689.832 324.924 689.702 325.373C689.571 325.823 689.339 326.236 689.022 326.581C688.706 326.926 688.314 327.194 687.877 327.362C687.44 327.531 686.97 327.597 686.504 327.554V327.554Z" fill="black"/>
<path opacity="0.1" d="M673.648 327.683C672.599 327.716 671.571 327.39 670.732 326.76C669.894 326.129 669.295 325.232 669.035 324.216C668.946 323.754 668.966 323.277 669.094 322.825C669.222 322.372 669.454 321.955 669.772 321.609C670.09 321.262 670.485 320.995 670.925 320.828C671.366 320.662 671.839 320.601 672.306 320.651C673.354 320.624 674.379 320.952 675.216 321.581C676.053 322.21 676.653 323.104 676.919 324.118C677.016 324.581 677.001 325.06 676.876 325.516C676.75 325.972 676.518 326.392 676.199 326.74C675.879 327.089 675.481 327.356 675.037 327.52C674.593 327.684 674.117 327.74 673.648 327.683V327.683Z" fill="black"/>
<path opacity="0.1" d="M704.512 336.61C705.334 334.94 704.345 332.772 702.303 331.766C700.261 330.761 697.94 331.299 697.117 332.968C696.295 334.637 697.284 336.806 699.326 337.811C701.368 338.817 703.69 338.279 704.512 336.61Z" fill="black"/>
<path opacity="0.1" d="M688.663 338.61C687.615 338.637 686.59 338.309 685.753 337.679C684.916 337.05 684.316 336.156 684.051 335.143C683.954 334.68 683.968 334.2 684.093 333.744C684.219 333.288 684.451 332.868 684.77 332.52C685.09 332.171 685.488 331.904 685.932 331.74C686.376 331.576 686.852 331.52 687.322 331.577C688.37 331.545 689.398 331.87 690.237 332.5C691.075 333.131 691.674 334.028 691.934 335.044C692.023 335.506 692.003 335.983 691.875 336.436C691.747 336.888 691.515 337.305 691.197 337.652C690.879 337.998 690.484 338.266 690.044 338.432C689.603 338.598 689.13 338.659 688.663 338.61V338.61Z" fill="black"/>
<path opacity="0.1" d="M675.774 338.607C674.73 338.622 673.71 338.29 672.875 337.662C672.04 337.034 671.437 336.147 671.162 335.139C671.079 334.679 671.104 334.205 671.235 333.755C671.366 333.305 671.598 332.892 671.915 332.547C672.231 332.202 672.623 331.935 673.06 331.766C673.497 331.597 673.967 331.532 674.433 331.574C675.479 331.553 676.501 331.883 677.337 332.512C678.173 333.14 678.775 334.031 679.045 335.041C679.134 335.503 679.114 335.98 678.986 336.433C678.858 336.885 678.626 337.302 678.308 337.649C677.99 337.995 677.595 338.263 677.155 338.429C676.715 338.595 676.242 338.656 675.774 338.607V338.607Z" fill="black"/>
<path opacity="0.1" d="M703.677 349.302C702.628 349.335 701.6 349.009 700.762 348.379C699.923 347.749 699.325 346.851 699.065 345.835C698.975 345.373 698.995 344.897 699.123 344.444C699.251 343.991 699.483 343.575 699.802 343.228C700.12 342.881 700.515 342.614 700.955 342.447C701.395 342.281 701.868 342.22 702.336 342.27C703.383 342.243 704.408 342.571 705.245 343.2C706.083 343.83 706.683 344.724 706.948 345.737C707.045 346.2 707.03 346.679 706.905 347.135C706.78 347.591 706.548 348.011 706.228 348.36C705.908 348.708 705.51 348.975 705.066 349.139C704.623 349.303 704.146 349.359 703.677 349.302Z" fill="black"/>
<path opacity="0.1" d="M690.788 349.468C689.744 349.483 688.724 349.151 687.889 348.523C687.054 347.896 686.452 347.009 686.176 346.001C686.087 345.539 686.107 345.063 686.235 344.61C686.362 344.157 686.595 343.741 686.913 343.394C687.231 343.047 687.626 342.78 688.066 342.613C688.506 342.447 688.979 342.386 689.447 342.436C690.493 342.415 691.515 342.745 692.351 343.373C693.187 344.002 693.789 344.893 694.059 345.903C694.149 346.365 694.129 346.841 694.001 347.294C693.873 347.747 693.64 348.163 693.322 348.51C693.004 348.857 692.609 349.124 692.169 349.29C691.729 349.457 691.256 349.518 690.788 349.468Z" fill="black"/>
<path opacity="0.1" d="M677.934 349.598C676.889 349.613 675.869 349.281 675.035 348.653C674.2 348.026 673.597 347.138 673.322 346.131C673.232 345.669 673.252 345.193 673.38 344.74C673.508 344.287 673.74 343.87 674.058 343.524C674.376 343.177 674.771 342.91 675.212 342.743C675.652 342.577 676.125 342.516 676.593 342.566C677.637 342.55 678.657 342.883 679.492 343.51C680.327 344.138 680.929 345.025 681.205 346.033C681.294 346.495 681.274 346.971 681.146 347.424C681.018 347.877 680.786 348.293 680.468 348.64C680.15 348.987 679.755 349.254 679.315 349.42C678.875 349.587 678.402 349.648 677.934 349.598V349.598Z" fill="black"/>
<path d="M731.804 351.697C735.696 361.248 758.168 366.285 772.201 364.584C773.149 364.584 779.691 358.042 787.967 350.944C793.037 346.561 798.761 341.785 804.322 337.86C805.434 337.075 770.892 309.174 770.892 309.174C765.387 316.107 759.061 322.346 752.051 327.753C751.27 328.283 750.45 328.753 749.598 329.159L749.173 329.356C744.43 331.776 728.042 342.571 731.804 351.697Z" fill="#F7A9A0"/>
<path d="M802.623 335.865C792.09 340.968 765.301 351.337 751.595 333.085C750.711 331.931 749.923 330.705 749.24 329.421C749.371 329.326 749.514 329.249 749.665 329.192C750.517 328.797 751.337 328.338 752.119 327.818C759.107 322.384 765.411 316.124 770.894 309.174C770.894 309.174 795.852 329.29 802.623 335.865Z" fill="#263238"/>
<path d="M843.904 319.8C832.39 330.725 789.671 343.122 776.129 337.856C756.503 330.235 743.845 307.959 755.26 288.791C766.316 270.245 822.283 255.035 835.596 261.838C855.221 271.848 860.848 303.674 843.904 319.8Z" fill="#F7A9A0"/>
<path d="M798.401 293.863C798.401 293.863 798.401 294.125 798.238 294.19C795.327 295.106 792.121 296.676 792.121 299.653H791.958C791.238 296.316 795.49 294.289 798.401 293.863Z" fill="#263238"/>
<path d="M802.36 295.367C804.356 299.881 795.197 303.578 793.332 299.391C791.468 295.204 800.659 291.573 802.36 295.367Z" fill="#263238"/>
<path d="M792.385 278.225C792.385 278.225 792.156 278.061 792.025 278.225C789.212 279.435 785.81 280.384 783.815 278.225C783.815 278.225 783.619 278.225 783.815 278.225C785.385 281.136 789.899 279.73 792.385 278.225Z" fill="#263238"/>
<path d="M794.314 274.5C792.842 269.79 783.52 273.094 784.894 277.477C786.267 281.86 795.557 278.458 794.314 274.5Z" fill="#263238"/>
<path d="M808.315 297.263C808.315 295.889 808.315 294.58 808.315 293.207C808.127 291.78 808.414 290.332 809.133 289.085C809.432 288.737 809.838 288.498 810.287 288.403C810.736 288.309 811.204 288.364 811.619 288.562C812.376 289.092 812.98 289.813 813.371 290.652C813.761 291.49 813.924 292.416 813.843 293.337C813.938 295.232 813.333 297.095 812.142 298.571C811.843 298.867 811.468 299.074 811.058 299.168C810.648 299.262 810.22 299.24 809.823 299.104C809.425 298.968 809.073 298.724 808.806 298.398C808.54 298.073 808.37 297.679 808.315 297.263V297.263Z" fill="#263238"/>
<path d="M797.063 269.099C797.782 270.277 798.665 271.258 799.483 272.37C800.301 273.482 801.053 274.692 802.591 275.216C803.039 275.321 803.509 275.276 803.929 275.086C804.349 274.897 804.695 274.575 804.913 274.169C805.215 273.292 805.277 272.351 805.093 271.442C804.909 270.534 804.485 269.691 803.866 269.001C802.843 267.408 801.272 266.244 799.45 265.73C799.022 265.643 798.577 265.682 798.17 265.843C797.763 266.004 797.412 266.279 797.159 266.636C796.906 266.993 796.762 267.416 796.745 267.853C796.728 268.291 796.838 268.723 797.063 269.099V269.099Z" fill="#263238"/>
<path d="M776.161 303.967C775.79 299.916 774.48 296.007 772.334 292.551C772.334 292.192 772.759 291.635 773.054 291.472L779.138 289.248C778.418 288.626 775.016 285.322 776.161 284.93C786.037 281.33 796.25 278.733 806.647 277.178C806.704 277.198 806.754 277.235 806.79 277.285C806.825 277.335 806.844 277.395 806.844 277.456C806.844 277.517 806.825 277.577 806.79 277.626C806.754 277.676 806.704 277.714 806.647 277.734C797.553 281.005 787.904 282.869 778.712 286.14C779.995 287.288 781.097 288.623 781.983 290.098C781.983 290.458 775.441 292.093 774.493 292.584C776.835 295.725 777.856 299.658 777.339 303.542C777.11 305.046 776.161 305.897 776.161 303.967Z" fill="#263238"/>
<path d="M769.486 300.635C769.486 298.804 774.916 293.734 776.421 296.35C777.416 298.529 777.848 300.923 777.676 303.312C777.505 305.701 776.736 308.009 775.44 310.023C772.626 313.523 772.168 304.299 771.056 303.219C769.944 302.14 769.552 301.977 769.486 300.635Z" fill="#263238"/>
<path d="M770.895 303.185L770.372 302.661C771.045 302.408 771.763 302.298 772.48 302.338C773.197 302.378 773.899 302.567 774.539 302.894C775.179 303.22 775.744 303.676 776.198 304.233C776.652 304.79 776.985 305.436 777.176 306.129C776.861 307.546 776.235 308.875 775.344 310.021C772.629 313.488 772.106 304.297 770.895 303.185Z" fill="#FF9ABB"/>
<path d="M810.932 333.668C805.894 323.855 815.642 313.421 826.338 311.622C826.338 311.622 811.226 286.337 832.193 275.805C828.193 274.922 824.437 273.17 821.192 270.671C817.947 268.172 815.293 264.988 813.418 261.347L805.796 262.95C805.437 259.842 811.979 253.562 821.006 257.651C827.798 255.293 835.238 255.644 841.777 258.632C844.544 259.973 846.866 262.085 848.461 264.713C850.057 267.342 850.86 270.376 850.772 273.449C856.161 276.666 860.09 281.85 861.73 287.907C862.526 291.086 862.553 294.409 861.808 297.601C861.063 300.792 859.567 303.76 857.445 306.257C857.445 306.257 860.716 320.617 852.179 326.963C849.817 328.805 847.092 330.128 844.184 330.843C841.275 331.559 838.248 331.652 835.301 331.117C835.301 331.117 833.044 336.056 824.245 337.822C818.619 338.967 812.469 336.579 810.932 333.668Z" fill="#263238"/>
<path d="M834.383 275.577C832.541 276.109 830.764 276.844 829.084 277.769C827.401 278.669 825.83 279.767 824.406 281.04C821.585 283.462 819.786 286.863 819.369 290.558C819.095 294.299 819.7 298.051 821.135 301.516C821.953 303.25 822.64 305.016 823.523 306.684C824.406 308.352 825.421 309.955 826.336 311.721C825.192 310.184 824.079 308.614 823.065 307.044C822.051 305.474 821.234 303.609 820.285 301.909C818.622 298.321 817.88 294.374 818.126 290.427C818.619 286.415 820.676 282.759 823.85 280.255C826.909 277.829 830.533 276.22 834.383 275.577V275.577Z" fill="#263238"/>
<path d="M857.445 306.257C858.904 309.666 859.629 313.344 859.571 317.051C859.596 320.88 858.276 324.595 855.843 327.551C854.534 328.933 853.009 330.093 851.329 330.986C849.7 331.947 847.919 332.621 846.062 332.981C842.368 333.732 838.527 333.067 835.301 331.116C838.627 332.531 842.323 332.83 845.833 331.967C849.274 331.091 852.395 329.253 854.829 326.668C855.998 325.37 856.908 323.86 857.511 322.219C858.077 320.538 858.418 318.789 858.525 317.018C858.752 313.396 858.387 309.762 857.445 306.257V306.257Z" fill="#263238"/>
<path d="M850.77 273.45C850.605 270.524 849.976 267.642 848.906 264.913C847.885 262.241 846.182 259.884 843.967 258.077C841.687 256.35 839.01 255.226 836.182 254.806C833.286 254.38 830.344 254.38 827.448 254.806C830.302 253.862 833.32 253.517 836.313 253.792C839.414 253.966 842.385 255.097 844.816 257.03C847.247 258.964 849.019 261.603 849.887 264.586C850.81 267.444 851.111 270.466 850.77 273.45V273.45Z" fill="#263238"/>
<path d="M815.969 267.106C818.232 269.612 820.896 271.723 823.852 273.354C825.311 274.148 826.874 274.731 828.497 275.088C830.153 275.435 831.842 275.6 833.534 275.578C831.848 276.13 830.062 276.309 828.3 276.102C826.527 275.921 824.806 275.399 823.23 274.564C821.66 273.704 820.236 272.6 819.011 271.293C817.781 270.068 816.754 268.655 815.969 267.106V267.106Z" fill="#263238"/>
<path d="M806.221 326.212C806.221 326.212 823.263 329.09 822.805 336.385C822.347 343.679 800.66 345.805 794.904 340.212C794.111 339.545 793.463 338.724 792.997 337.799C792.531 336.874 792.258 335.864 792.193 334.831C792.129 333.797 792.275 332.761 792.623 331.786C792.971 330.81 793.513 329.916 794.217 329.156L806.221 326.212Z" fill="#F7A9A0"/>
<path d="M816.687 336.843C816.687 336.843 816.687 337.039 816.523 336.843C814.388 335.168 811.925 333.96 809.294 333.295C806.663 332.63 803.922 332.524 801.248 332.983C801.86 333.031 802.453 333.212 802.988 333.513C803.523 333.814 803.985 334.229 804.343 334.727C804.701 335.225 804.946 335.795 805.061 336.398C805.177 337.001 805.159 337.621 805.009 338.216C805.009 338.38 804.748 338.216 804.715 338.216C804.576 337.25 804.144 336.349 803.477 335.635C802.811 334.922 801.941 334.43 800.986 334.226C799.395 333.894 797.771 333.74 796.145 333.768C795.589 333.768 795.458 332.885 796.145 332.819C802.098 329.908 812.86 330.595 816.687 336.843Z" fill="#263238"/>
<g opacity="0.2">
<path d="M790.522 310.315C790.381 310.391 790.276 310.519 790.227 310.671C790.178 310.824 790.19 310.989 790.26 311.133C790.314 311.244 790.401 311.337 790.508 311.399C790.616 311.461 790.739 311.49 790.863 311.481C790.987 311.472 791.105 311.426 791.203 311.349C791.3 311.273 791.373 311.168 791.411 311.05C791.449 310.932 791.45 310.805 791.415 310.686C791.38 310.567 791.311 310.461 791.215 310.382C791.119 310.303 791.002 310.254 790.878 310.242C790.755 310.23 790.631 310.256 790.522 310.315V310.315Z" fill="black"/>
<path d="M785.092 298.832C784.951 298.909 784.846 299.037 784.797 299.189C784.748 299.341 784.76 299.506 784.83 299.65C784.868 299.72 784.919 299.782 784.981 299.831C785.043 299.881 785.114 299.918 785.19 299.939C785.267 299.96 785.347 299.966 785.425 299.956C785.504 299.946 785.58 299.919 785.648 299.879C785.788 299.803 785.894 299.675 785.943 299.523C785.991 299.37 785.98 299.205 785.91 299.061C785.872 298.992 785.821 298.93 785.759 298.88C785.697 298.831 785.626 298.794 785.55 298.773C785.473 298.751 785.393 298.746 785.315 298.756C785.236 298.766 785.16 298.792 785.092 298.832Z" fill="black"/>
<path d="M783.226 304.851C783.157 304.888 783.095 304.939 783.045 305.001C782.996 305.063 782.959 305.134 782.938 305.211C782.916 305.287 782.911 305.367 782.921 305.446C782.931 305.524 782.957 305.6 782.998 305.668C783.074 305.809 783.202 305.914 783.354 305.963C783.506 306.012 783.671 306 783.815 305.93C783.934 305.84 784.017 305.711 784.048 305.565C784.08 305.419 784.058 305.267 783.986 305.136C783.915 305.006 783.799 304.905 783.66 304.852C783.52 304.8 783.366 304.799 783.226 304.851V304.851Z" fill="black"/>
<path d="M794.775 307.661C794.664 307.716 794.571 307.802 794.509 307.91C794.447 308.017 794.418 308.141 794.427 308.265C794.436 308.388 794.482 308.507 794.559 308.604C794.635 308.702 794.74 308.774 794.858 308.812C794.976 308.85 795.103 308.851 795.222 308.817C795.341 308.782 795.447 308.712 795.526 308.616C795.605 308.521 795.654 308.403 795.666 308.28C795.678 308.156 795.652 308.032 795.593 307.923C795.517 307.783 795.389 307.677 795.237 307.628C795.084 307.579 794.919 307.591 794.775 307.661V307.661Z" fill="black"/>
<path d="M788.953 303.969C788.841 304.023 788.749 304.11 788.687 304.217C788.625 304.325 788.596 304.448 788.605 304.572C788.614 304.696 788.66 304.814 788.736 304.912C788.813 305.009 788.917 305.082 789.036 305.12C789.154 305.157 789.281 305.159 789.4 305.124C789.519 305.089 789.625 305.019 789.704 304.924C789.783 304.828 789.832 304.711 789.844 304.587C789.856 304.464 789.83 304.34 789.771 304.231C789.694 304.09 789.567 303.985 789.414 303.936C789.262 303.887 789.097 303.899 788.953 303.969V303.969Z" fill="black"/>
<path d="M782.15 272.273C782.06 272.296 781.977 272.34 781.906 272.401C781.836 272.461 781.78 272.536 781.742 272.621C781.704 272.706 781.686 272.798 781.689 272.891C781.691 272.984 781.715 273.075 781.757 273.158C781.8 273.24 781.86 273.312 781.935 273.368C782.009 273.425 782.094 273.463 782.185 273.482C782.276 273.501 782.37 273.499 782.46 273.476C782.551 273.454 782.634 273.411 782.706 273.352C782.846 273.275 782.952 273.148 783.001 272.996C783.05 272.843 783.038 272.678 782.968 272.534C782.891 272.394 782.764 272.288 782.611 272.24C782.459 272.191 782.294 272.203 782.15 272.273Z" fill="black"/>
<path d="M781.298 278.063C781.186 278.117 781.093 278.203 781.031 278.311C780.969 278.419 780.941 278.542 780.95 278.666C780.959 278.79 781.004 278.908 781.081 279.006C781.158 279.103 781.262 279.176 781.38 279.213C781.499 279.251 781.625 279.253 781.745 279.218C781.864 279.183 781.97 279.113 782.049 279.018C782.128 278.922 782.176 278.805 782.188 278.681C782.2 278.558 782.175 278.433 782.116 278.324C782.039 278.184 781.911 278.078 781.759 278.03C781.607 277.981 781.442 277.993 781.298 278.063V278.063Z" fill="black"/>
<path d="M777.209 278.849C777.069 278.926 776.963 279.053 776.914 279.205C776.866 279.358 776.877 279.523 776.947 279.667C776.982 279.739 777.031 279.804 777.092 279.857C777.152 279.91 777.223 279.95 777.3 279.975C777.376 279.999 777.457 280.008 777.537 280C777.617 279.992 777.695 279.968 777.765 279.928C777.874 279.838 777.949 279.713 777.978 279.574C778.006 279.435 777.986 279.291 777.922 279.165C777.857 279.039 777.751 278.939 777.621 278.881C777.491 278.824 777.346 278.813 777.209 278.849V278.849Z" fill="black"/>
<path d="M777.733 273.904C777.622 273.959 777.529 274.045 777.467 274.153C777.405 274.26 777.377 274.384 777.385 274.508C777.394 274.632 777.44 274.75 777.517 274.847C777.593 274.945 777.698 275.017 777.816 275.055C777.934 275.093 778.061 275.095 778.18 275.06C778.299 275.025 778.405 274.955 778.484 274.859C778.563 274.764 778.612 274.646 778.624 274.523C778.636 274.399 778.61 274.275 778.551 274.166C778.475 274.026 778.347 273.92 778.195 273.871C778.042 273.823 777.877 273.834 777.733 273.904V273.904Z" fill="black"/>
</g>
<path d="M771.908 368.211C771.908 368.211 788.001 357.646 787.478 355.454C786.954 353.263 767.001 351.333 760.165 344.758C753.329 338.184 750.81 328.404 750.025 327.291C749.24 326.179 735.567 336.777 732.852 339.754C730.894 341.463 729.642 343.84 729.34 346.422C729.037 349.003 729.706 351.605 731.217 353.721C738.184 364.123 763.305 370.73 771.908 368.211Z" fill="white"/>
<path d="M782.312 356.078C777.808 358.598 773.806 361.924 770.504 365.891C775.015 363.382 779.019 360.054 782.312 356.078V356.078Z" fill="#263238"/>
<path d="M749.436 329.905C744.786 332.074 740.582 335.091 737.039 338.802C741.689 336.633 745.893 333.616 749.436 329.905V329.905Z" fill="#263238"/>
<path d="M749.174 335.732C743.19 338.886 737.684 342.873 732.819 347.573C738.784 344.389 744.287 340.405 749.174 335.732Z" fill="#263238"/>
<path d="M752.609 341.882C746.638 345.056 741.134 349.041 736.254 353.723C742.225 350.548 747.729 346.564 752.609 341.882V341.882Z" fill="#263238"/>
<path d="M759.055 347.506C753.083 350.679 747.579 354.664 742.7 359.347C748.665 356.162 754.168 352.178 759.055 347.506V347.506Z" fill="#263238"/>
<path d="M765.825 351.461C760.086 354.42 754.817 358.211 750.189 362.713C755.915 359.733 761.181 355.944 765.825 351.461Z" fill="#263238"/>
<path d="M773.871 354.308C768.835 357.06 764.282 360.618 760.395 364.84C765.436 362.096 769.99 358.537 773.871 354.308V354.308Z" fill="#263238"/>
<path d="M769.913 383.518C766.248 384.93 762.267 385.314 758.399 384.63C745.904 382.504 731.283 369.388 726.802 352.379C723.956 341.486 725.624 333.44 729.68 328.075C731.978 339.676 736.765 350.641 743.711 360.213C750.657 369.785 759.597 377.736 769.913 383.518Z" fill="#455A64"/>
<path d="M882.958 338.61C895.682 299.522 879.851 244.602 819.501 238.322C777.796 233.939 740.474 260.892 729.811 292.816C714.732 337.956 749.993 386.17 788.885 392.156C818.422 396.67 869.58 379.792 882.958 338.61ZM784.829 365.661C756.535 359.806 729.713 320.423 739.395 284.835C743.179 271.449 751.706 259.898 763.383 252.337C775.06 244.777 789.089 241.726 802.852 243.752C846.65 250.294 862.547 293.634 854.435 324.447C845.898 356.96 806.417 369.946 784.959 365.53L784.829 365.661Z" fill="white"/>
<path opacity="0.1" d="M784.958 365.531C756.664 359.676 729.842 320.293 739.525 284.705C743.332 271.368 751.85 259.867 763.496 252.335C775.143 244.804 789.126 241.754 802.851 243.752C846.649 250.294 862.546 293.635 854.434 324.447C845.897 356.961 806.416 369.947 784.958 365.531Z" fill="#455A64"/>
<path opacity="0.1" d="M784.958 365.531C756.664 359.676 729.842 320.293 739.525 284.705C743.332 271.368 751.85 259.867 763.496 252.335C775.143 244.804 789.126 241.754 802.851 243.752C846.649 250.294 862.546 293.635 854.434 324.447C845.897 356.961 806.416 369.947 784.958 365.531Z" fill="#455A64"/>
<g opacity="0.2">
<path d="M850.607 280.158C822.01 268.072 792.175 259.154 761.637 253.565C768.162 248.89 775.612 245.667 783.487 244.111C801.691 248.404 819.598 253.867 837.098 260.466C842.815 266.109 847.4 272.793 850.607 280.158V280.158Z" fill="white"/>
<path d="M808.606 364.549C800.883 366.553 792.82 366.888 784.957 365.53C775.988 363.387 767.763 358.868 761.145 352.446C777.233 355.347 793.094 359.392 808.606 364.549V364.549Z" fill="white"/>
<path d="M854.629 292.329C821.905 277.829 787.434 267.647 752.084 262.039C752.695 261.32 753.349 260.633 754.047 259.979C788.451 265.617 822.012 275.551 853.942 289.548C854.204 290.464 854.433 291.413 854.629 292.329Z" fill="white"/>
<path d="M833.861 353.232C805.151 341.417 775.039 333.348 744.268 329.223C743.876 328.438 743.516 327.62 743.156 326.77C775.016 330.973 806.184 339.353 835.856 351.694L833.861 353.232Z" fill="white"/>
<path d="M819.435 361.146C818.421 361.538 817.407 361.931 816.36 362.258C796.562 355.236 776.18 349.982 755.454 346.557C754.735 345.739 754.015 344.889 753.328 344.006C775.869 347.552 798.01 353.293 819.435 361.146V361.146Z" fill="white"/>
<path d="M848.481 338.021C813.407 322.181 776.127 311.769 737.922 307.143C737.589 304.398 737.469 301.631 737.562 298.867C777.166 303.669 815.786 314.582 852.046 331.217C851.054 333.583 849.861 335.859 848.481 338.021V338.021Z" fill="white"/>
</g>
<path d="M823.787 400.43C833.927 400.43 851.688 393.561 856.497 381.164C861.141 369.454 856.104 354.44 835.333 355.16C821.006 355.65 807.955 364.973 804.063 374.524C798.633 388.066 810.441 400.365 823.787 400.43Z" fill="white"/>
<path opacity="0.1" d="M823.787 400.43C833.927 400.43 851.688 393.561 856.497 381.164C861.141 369.454 856.104 354.44 835.333 355.16C821.006 355.65 807.955 364.973 804.063 374.524C798.633 388.066 810.441 400.365 823.787 400.43Z" fill="black"/>
<path d="M828.072 401.902C835.857 401.902 849.464 396.603 853.258 387.084C856.824 378.089 852.931 366.542 836.903 367.098C825.88 367.491 815.871 374.622 812.862 381.981C808.74 392.383 817.801 401.836 828.072 401.902Z" fill="white"/>
<path d="M741.455 418.29C683.068 417.308 602.667 382.963 583.728 370.37C554.911 351.169 566.195 241.395 567.046 219.25C567.438 209.797 651.83 226.021 651.634 236.129C651.47 244.96 639.891 329.319 643.129 331.249C645.778 332.819 704.264 363.959 743.188 386.855C776.552 406.351 756.73 418.551 741.455 418.29Z" fill="#F7A9A0"/>
<path d="M649.475 255.885C649.475 255.885 651.077 241.46 651.143 240.512C651.843 235.56 653.253 230.735 655.33 226.185C662.362 208.194 668.021 159.849 628.148 122.953C612.839 108.789 596.256 113.369 609.536 130.868C618.891 143.2 626.414 150.92 628.344 155.826C628.344 155.826 605.447 149.971 594.915 158.835C585.77 166.601 577.189 175.007 569.237 183.989C570.534 185.828 571.955 187.577 573.49 189.223C569.684 193.105 567.051 197.982 565.893 203.294C564.736 208.606 565.102 214.137 566.948 219.25L565.476 243.815L649.475 255.885Z" fill="#A6A6A6"/>
<path d="M659.322 207.933C655.887 198.414 648.298 178.298 636.425 164.036C623.177 148.172 593.379 121.186 581.767 131.097C573.262 138.359 583.729 149.644 583.729 149.644C583.729 149.644 569.075 141.107 562.828 149.35C557.104 156.84 565.739 165.116 565.739 165.116C565.739 165.116 555.926 161.452 551.87 169.728C546.931 179.704 568.225 185.723 571.986 200.148C572.772 203.386 659.322 207.933 659.322 207.933Z" fill="#A6A6A6"/>
<path d="M621.934 180.816C612.8 166.787 599.595 155.887 584.089 149.578C583.696 149.578 583.369 149.578 583.696 149.873C597.612 158.647 610.408 169.081 621.803 180.947C621.803 180.947 622 180.914 621.934 180.816Z" fill="#263238"/>
<path d="M605.548 193.735C600.74 186.866 583.959 170.642 565.904 164.787C565.511 164.787 565.184 164.787 565.544 165.114C579.88 173.159 593.256 182.805 605.417 193.866C605.417 193.866 605.613 193.833 605.548 193.735Z" fill="#263238"/>
<path d="M649.475 255.883L565.41 243.748C565.41 243.748 556.906 249.963 556.055 272.238C555.205 294.514 563.546 357.807 578.952 370.368C594.359 382.928 669.689 412.727 722.875 419.04C776.061 425.353 766.903 396.666 742.501 384.564C718.1 372.461 646.04 330.658 645.124 329.219C644.208 327.78 652.615 289.607 653.269 276.131C653.923 262.654 649.475 255.883 649.475 255.883Z" fill="white"/>
<path d="M657.096 336.648C661.348 339.69 665.698 342.504 670.18 345.284C674.661 348.064 679.011 350.714 683.493 353.363C687.974 356.013 692.52 358.531 697.1 360.919L704.034 364.55C706.389 365.662 708.679 366.872 711.1 367.821C708.973 366.284 706.815 364.877 704.558 363.405L698.016 359.186C693.665 356.405 689.184 353.756 684.703 351.106C680.222 348.457 675.675 345.971 671.063 343.55C666.451 341.13 661.839 338.807 657.096 336.648Z" fill="#263238"/>
<path d="M697.725 360.067C699.42 360.82 701.184 361.412 702.991 361.833C704.792 362.263 706.615 362.591 708.453 362.814C707.687 362.26 706.851 361.809 705.967 361.473C703.347 360.438 700.54 359.959 697.725 360.067V360.067Z" fill="#263238"/>
<path d="M587.229 375.67C591.415 378.221 595.798 380.478 600.149 382.768C604.499 385.058 608.981 387.086 613.462 389.114C622.392 393.202 631.583 396.768 640.807 400.137C650.031 403.506 659.484 406.384 669.036 408.805C678.548 411.32 688.19 413.318 697.918 414.791C693.176 413.45 688.367 412.436 683.69 411.029C679.012 409.623 674.237 408.445 669.559 406.973L655.527 402.623C650.882 401.02 646.237 399.515 641.658 397.815C632.401 394.544 623.275 391.044 614.214 387.38C605.153 383.717 596.126 379.791 587.229 375.67Z" fill="#263238"/>
<path d="M680.943 410.995C683.748 413.693 687.093 415.766 690.756 417.079C689.371 415.706 687.822 414.509 686.144 413.514C684.506 412.49 682.762 411.646 680.943 410.995V410.995Z" fill="#263238"/>
<path opacity="0.1" d="M642.377 269.002C633.12 267.072 623.7 265.731 614.312 264.226C604.924 262.721 595.733 261.544 586.443 260.236C581.112 259.483 575.78 258.731 570.448 258.175C570.088 258.175 570.056 258.469 570.448 258.535C579.705 260.366 589.126 261.806 598.513 263.278C607.901 264.749 617.06 266.221 626.349 267.563C631.681 268.315 637.013 269.002 642.344 269.492C642.835 269.558 642.868 269.1 642.377 269.002Z" fill="black"/>
</svg>
