<svg width="1181" height="739" viewBox="0 0 1181 739" fill="none" xmlns="http://www.w3.org/2000/svg">
<path d="M0.714844 737.911L148.215 737.474L295.715 737.311L590.714 737.02L885.714 737.311L1033.21 737.474L1180.71 737.911L1033.21 738.366L885.714 738.53L590.714 738.821L295.715 738.53L148.215 738.366L0.714844 737.911Z" fill="#263238"/>
<path d="M79.9471 433.908C79.9471 433.908 37.1545 427.904 47.1977 376.232C47.1431 376.232 94.9755 386.967 79.9471 433.908Z" fill="white"/>
<path opacity="0.1" d="M79.9471 433.908C79.9471 433.908 37.1545 427.904 47.1977 376.232C47.1431 376.232 94.9755 386.967 79.9471 433.908Z" fill="black"/>
<path d="M77.7834 423.117C76.9431 420.504 75.9715 417.936 74.8723 415.421C74.8723 415.075 74.8723 414.748 74.7631 414.438C74.7631 413.729 74.6358 413.019 74.5812 412.31C74.472 410.763 74.3629 409.217 74.2719 407.67C74.09 404.595 73.8898 401.502 73.8534 398.409C73.8534 398.246 73.5987 398.246 73.5805 398.409C73.5805 401.502 73.5805 404.595 73.5805 407.688C73.5805 409.235 73.7261 410.781 73.8352 412.328C73.8352 412.655 73.8352 413.001 73.8352 413.347C71.4257 408.201 68.5513 403.287 65.2476 398.664C63.7739 396.608 62.2274 394.643 60.5717 392.733C58.9161 390.822 57.0602 388.93 55.3318 387.002C55.2226 386.874 55.0407 387.002 55.1499 387.184C58.2208 390.571 60.985 394.224 63.41 398.1C64.7018 400.065 65.939 402.085 67.0488 404.141L66.6486 403.977L65.1203 403.358L61.8089 402.048C59.5165 401.193 57.2058 400.356 54.9315 399.483C54.786 399.483 54.695 399.665 54.8224 399.719C57.1148 400.629 59.3527 401.539 61.6088 402.558L64.9201 403.977C65.4841 404.232 66.03 404.45 66.594 404.668C66.9512 404.85 67.3304 404.984 67.722 405.068C68.5953 406.633 69.5414 408.18 70.2328 409.763C72.222 413.767 73.9717 417.886 75.4727 422.098C75.4727 422.389 75.6729 422.68 75.782 422.99C74.6539 422.342 73.4804 421.776 72.2705 421.298C70.7968 420.606 69.3049 419.951 67.8312 419.278C64.8291 417.895 61.8453 416.494 58.9706 414.875C58.8251 414.784 58.6977 415.021 58.8433 415.093C61.7907 416.713 64.6654 418.423 67.6128 420.024C69.0866 420.825 70.5785 421.589 72.0704 422.317C73.3216 423.055 74.6772 423.601 76.0913 423.936C77.5286 427.849 78.4758 431.925 78.9114 436.071C79.3844 441.912 79.3299 447.806 79.4572 453.665H79.621C80.0394 448.352 80.2942 442.985 80.3124 437.654C80.2515 432.704 79.3977 427.796 77.7834 423.117Z" fill="#263238"/>
<path d="M71.1962 392.736C70.7854 395.75 70.6454 398.794 70.7778 401.833C70.7778 401.833 70.8869 401.833 70.9051 401.833C71.0689 398.813 71.1052 395.811 71.4509 392.736C71.4691 392.627 71.2144 392.572 71.1962 392.736Z" fill="#263238"/>
<path d="M58.9526 395.316C57.0529 394.584 55.2256 393.677 53.4944 392.605C53.3488 392.514 53.2215 392.751 53.367 392.842C55.0487 393.986 56.8871 394.881 58.8253 395.498C58.989 395.516 59.0618 395.353 58.9526 395.316Z" fill="#263238"/>
<path d="M81.2784 515.927C81.2784 511.196 81.1511 506.466 81.0965 501.735C81.0965 486.034 80.8782 470.332 80.6052 454.612C80.3627 442.155 80.0716 429.692 79.7319 417.223C79.7294 417.189 79.718 417.156 79.6989 417.127C79.6797 417.098 79.6535 417.075 79.6228 417.06V406.835C79.6228 406.835 79.5136 406.707 79.4226 406.725C79.3317 406.744 79.2225 406.725 79.2225 406.853C79.2225 410.255 79.2225 413.676 79.2225 417.078C79.2125 417.101 79.2073 417.126 79.2073 417.151C79.2073 417.176 79.2125 417.2 79.2225 417.223C78.5857 439.42 78.0217 461.617 77.8943 483.814C77.8943 488.326 77.8943 492.911 77.8943 497.35C77.7366 511.833 77.676 526.303 77.7124 540.762C77.7124 543.072 77.7124 545.383 77.7124 547.675C77.7124 560.921 77.8397 574.166 77.8397 587.411C77.8397 588.121 78.6403 588.467 79.4772 588.503C80.3141 588.539 81.4604 588.157 81.4604 587.339C81.4604 572.783 81.5695 558.228 81.5695 543.545C81.2784 534.339 81.3876 525.133 81.2784 515.927Z" fill="#263238"/>
<path d="M63.4482 501.555C63.4482 501.555 42.8525 486.308 23.312 496.661C3.77146 507.013 0.714844 546.695 0.714844 546.695C0.714844 546.695 29.407 550.788 47.4738 533.595C64.9038 516.984 63.4482 501.555 63.4482 501.555Z" fill="white"/>
<path d="M69.0545 502.501C65.2712 501.007 61.1765 500.476 57.1373 500.954C56.302 500.806 55.4566 500.721 54.6083 500.7L51.7155 500.481L45.7114 500.063C41.6359 499.754 37.5604 499.517 33.5213 499.099C33.3758 499.099 33.3394 499.335 33.5213 499.353C37.5422 499.863 41.5268 500.445 45.5477 500.845C47.6218 501.064 49.6959 501.264 51.7701 501.409L53.2802 501.573C52.6616 501.7 52.043 501.846 51.4608 502.01C48.2139 502.942 45.0688 504.198 42.0726 505.758C40.4533 506.049 38.8522 506.504 37.2511 506.868C34.704 507.468 32.175 508.123 29.646 508.796C24.6426 510.106 19.6938 511.58 14.7268 513.017C14.5812 513.017 14.7268 513.308 14.7268 513.272C19.6756 512.053 24.6608 510.943 29.6278 509.76L36.9054 507.941C37.524 507.777 38.1608 507.632 38.7249 507.504C33.2142 510.932 28.2982 515.233 24.1695 520.24C20.1398 525.15 16.7244 530.532 13.999 536.269C13.999 536.415 14.1264 536.56 14.2174 536.415C17.6232 530.537 21.7756 525.125 26.5712 520.313L26.2983 521.132L25.152 524.771C24.4061 527.209 23.6237 529.628 22.896 532.048C22.896 532.082 22.9094 532.114 22.9333 532.138C22.9571 532.162 22.9895 532.176 23.0233 532.176C23.0571 532.176 23.0895 532.162 23.1134 532.138C23.1373 532.114 23.1507 532.082 23.1507 532.048C24.024 529.701 24.8427 527.336 25.6797 524.971C26.0799 523.806 26.4984 522.66 26.8987 521.496C27.117 520.895 27.3171 520.295 27.5173 519.676C27.573 519.484 27.6398 519.296 27.7174 519.112C30.0058 516.882 32.4368 514.804 34.9951 512.89C38.3853 510.397 42.0476 508.297 45.9115 506.631L45.6932 507.686L45.0928 510.506C44.6925 512.453 44.3105 514.4 43.9284 516.365C43.1642 520.349 42.673 524.37 41.927 528.355C41.927 528.519 42.1454 528.591 42.1817 528.355C43.1096 524.352 44.2923 520.404 45.1838 516.383C45.6386 514.382 46.0935 512.362 46.5119 510.361C46.6939 509.415 46.894 508.541 47.076 507.541C47.1993 507.018 47.2965 506.49 47.3671 505.958C47.7491 505.812 48.113 505.63 48.4769 505.503C53.9352 503.502 59.8482 502.046 65.6158 503.156C68.3372 503.662 70.8918 504.832 73.053 506.562C75.2143 508.291 76.9155 510.527 78.006 513.072C78.1879 513.527 78.8975 513.254 78.7883 512.781C78.0687 510.432 76.8156 508.283 75.1269 506.499C73.4383 504.716 71.36 503.347 69.0545 502.501Z" fill="#263238"/>
<path d="M37.6152 519.473L35.7957 527.296C35.1541 529.798 34.6739 532.338 34.3584 534.901C34.3584 535.011 34.5039 535.011 34.5403 534.901C35.3101 532.39 35.9178 529.831 36.3598 527.242C36.8692 524.658 37.3604 522.093 37.8699 519.509C37.8747 519.475 37.8659 519.441 37.8454 519.414C37.825 519.386 37.7945 519.368 37.7607 519.364C37.7269 519.359 37.6926 519.368 37.6653 519.388C37.638 519.409 37.62 519.439 37.6152 519.473Z" fill="#263238"/>
<path d="M17.599 526.095C14.979 527.423 12.4318 528.933 9.68451 530.025C9.52076 530.025 9.68451 530.352 9.79367 530.261C12.4828 529.047 15.1063 527.693 17.6535 526.204C17.6535 526.204 17.6899 526.058 17.599 526.095Z" fill="#263238"/>
<path d="M68.0712 473.555C68.0712 473.555 42.9087 475.156 31.2099 458.563C19.511 441.97 22.1128 418.281 22.1128 418.281C22.1128 418.281 48.5489 421.483 59.0469 433.401C69.5449 445.318 68.0712 473.555 68.0712 473.555Z" fill="white"/>
<path d="M79.8761 498.371C79.0028 495.678 77.9293 493.021 76.9104 490.383C75.8915 487.745 74.8909 485.325 73.781 482.851C71.538 477.774 69.0173 472.823 66.2305 468.023C64.4111 464.966 62.5916 462 60.6085 459.071C60.6085 458.616 60.4811 458.18 60.4083 457.725C60.281 456.943 60.1718 456.178 60.0626 455.396C59.8079 453.795 59.535 452.212 59.2621 450.629C58.6799 447.154 57.9703 443.697 57.4427 440.222C57.4427 440.058 57.1698 440.058 57.188 440.222C57.6974 443.661 58.0431 447.118 58.5161 450.556C58.7527 452.23 58.971 453.922 59.2257 455.614C59.3349 456.215 59.4259 456.833 59.5168 457.434C55.6816 451.82 51.5265 446.432 47.072 441.296C46.4716 440.604 45.853 439.913 45.2526 439.24C45.1895 439.04 45.1104 438.845 45.0161 438.657L44.4703 437.22L43.3786 434.218C42.6872 432.253 42.0505 430.252 41.5592 428.232C41.5669 428.213 41.5698 428.192 41.5676 428.171C41.5653 428.151 41.5581 428.131 41.5464 428.114C41.5347 428.096 41.519 428.082 41.5006 428.072C41.4823 428.063 41.4618 428.058 41.441 428.058C41.4201 428.058 41.3997 428.063 41.3813 428.072C41.3629 428.082 41.3472 428.096 41.3355 428.114C41.3238 428.131 41.3166 428.151 41.3143 428.171C41.3121 428.192 41.315 428.213 41.3227 428.232C41.8321 430.306 42.3598 432.362 42.9602 434.4C43.2513 435.382 43.5788 436.365 43.9245 437.329L44.1064 437.821C40.886 434.309 37.5383 430.925 34.1542 427.595C34.0268 427.468 33.8449 427.595 33.9723 427.777C40.4708 434.583 46.4321 441.883 51.8025 449.61C51.2072 449.412 50.5994 449.254 49.9831 449.137C48.0545 448.755 46.0895 448.482 44.1428 448.228C40.0309 447.718 35.9554 447.19 31.8617 446.554C31.828 446.554 31.7956 446.567 31.7717 446.591C31.7478 446.615 31.7344 446.647 31.7344 446.681C31.7344 446.715 31.7478 446.747 31.7717 446.771C31.7956 446.795 31.828 446.808 31.8617 446.808C35.7553 447.573 39.6306 448.446 43.4878 449.337C45.3072 449.756 47.1266 450.12 48.946 450.484C50.441 450.799 51.9123 451.219 53.349 451.739C53.7675 452.321 54.1859 452.885 54.5862 453.558C56.4056 456.233 58.225 459.017 59.9353 461.746L57.3699 461.236C55.4231 460.872 53.4764 460.509 51.5296 460.199C47.6906 459.562 43.8517 458.889 40.0491 458.034C40.0153 458.034 39.9829 458.048 39.959 458.071C39.9352 458.095 39.9217 458.128 39.9217 458.162C39.9217 458.195 39.9352 458.228 39.959 458.252C39.9829 458.275 40.0153 458.289 40.0491 458.289C43.8881 459.18 47.7088 460.236 51.5296 461.255C53.349 461.746 55.1684 462.201 56.9878 462.601L59.7897 463.22C60.1601 463.311 60.5374 463.372 60.9178 463.401C64.5566 469.369 68.0499 475.464 71.2339 481.596C72.653 484.343 73.9994 487.054 75.3093 489.892C76.6193 492.73 77.8019 495.66 78.9482 498.553C79.1665 499.244 80.0762 499.007 79.8761 498.371Z" fill="#263238"/>
<path d="M54.1324 440.551C53.6412 438.149 53.1317 435.766 52.6041 433.273C52.6041 433.109 52.3312 433.273 52.3676 433.273C52.8406 435.638 53.2955 438.003 53.714 440.369C54.0738 442.738 54.5536 445.089 55.1513 447.41C54.9684 445.103 54.628 442.811 54.1324 440.551Z" fill="#263238"/>
<path d="M39.4312 439.857C38.2668 439.275 37.0296 438.802 35.7924 438.329L33.973 437.583L33.0087 437.182C32.6378 437.08 32.2827 436.927 31.9534 436.728C31.7533 436.582 31.6441 436.909 31.8261 436.946C32.1998 437.049 32.5601 437.195 32.8995 437.383L33.8456 437.819L35.665 438.638C36.8523 439.19 38.0668 439.682 39.3039 440.112C39.4312 440.148 39.595 439.911 39.4312 439.857Z" fill="#263238"/>
<path d="M93.8379 453.757C93.8379 453.757 109.066 425.32 132.228 420.917C155.389 416.514 169.58 440.348 169.58 440.348C169.58 440.348 152.678 461.926 131.372 465.693C110.067 469.459 93.8379 453.757 93.8379 453.757Z" fill="white"/>
<path d="M147.74 433.674C141.698 432.851 135.567 432.925 129.546 433.892L130.583 433.328L135.714 430.69C139.261 428.736 142.904 426.963 146.63 425.377C146.794 425.377 146.63 425.05 146.521 425.141C142.882 426.815 139.134 428.234 135.514 429.908C133.694 430.745 131.875 431.618 130.056 432.546C128.909 433.165 127.654 433.729 126.526 434.456C121.437 435.475 116.493 437.119 111.807 439.351L114.7 436.185C116.865 433.838 118.975 431.345 121.359 429.198C121.486 429.089 121.359 428.907 121.159 429.016C118.739 431.218 116.174 433.256 113.881 435.548C112.735 436.658 111.643 437.804 110.588 438.987C110.06 439.587 109.533 440.187 109.023 440.806C101.064 445.06 94.1487 451.029 88.7777 458.282C83.4066 465.534 79.7137 473.89 77.9658 482.744C77.9658 482.907 78.166 482.998 78.2023 482.835C81.4636 471.992 87.3074 462.102 95.2321 454.015C103.751 445.315 114.483 439.106 126.271 436.057C133.267 434.276 140.502 433.619 147.704 434.111C148.013 434.147 148.031 433.71 147.74 433.674Z" fill="#263238"/>
<path opacity="0.1" d="M169.573 440.348C169.573 440.348 152.67 461.926 131.365 465.692C115.154 468.567 101.818 460.107 96.3959 455.94L95.2314 454.03C95.2314 454.03 106.148 444.787 126.944 439.475C147.74 434.162 169.573 440.348 169.573 440.348Z" fill="black"/>
<path d="M134.298 423.518C132.521 424.558 130.803 425.694 129.149 426.92C127.534 428.144 126.036 429.514 124.673 431.014C124.564 431.141 124.673 431.305 124.873 431.196C126.42 429.867 127.966 428.521 129.567 427.266C131.112 425.99 132.735 424.811 134.425 423.736C134.571 423.663 134.443 423.427 134.298 423.518Z" fill="#263238"/>
<path d="M147.011 428.342C146.138 428.706 145.192 429.015 144.409 429.361L141.826 430.434C141.644 430.434 141.735 430.816 141.917 430.725L144.5 429.688C145.374 429.343 146.211 428.942 147.084 428.597C147.229 428.524 147.157 428.269 147.011 428.342Z" fill="#263238"/>
<path d="M90.7949 489.564C90.7949 489.564 94.8522 517.783 116.085 527.644C137.317 537.505 163.153 527.589 163.153 527.589C163.153 527.589 152.982 466.603 90.7949 489.564Z" fill="white"/>
<path d="M148.595 509.398C146.63 509.161 144.683 508.834 142.755 508.47L139.898 507.942L138.406 507.633C137.842 507.105 137.278 506.559 136.696 506.05C132.676 502.515 128.333 499.366 123.724 496.644C121.21 495.155 118.61 493.818 115.937 492.641H116.337L123.324 492.95C127.981 493.169 132.639 493.278 137.297 493.569C137.46 493.569 137.46 493.314 137.297 493.314C132.639 492.987 127.981 492.477 123.324 492.077L116.537 491.477L113.044 491.167L112.152 491.076C110.933 490.621 109.714 490.203 108.513 489.821C102.73 487.83 96.5067 487.483 90.5377 488.82C85.2068 490.185 79.8759 493.678 78.4932 499.318C78.4932 499.5 78.7479 499.646 78.8389 499.446C80.822 494.751 86.1165 492.386 90.756 491.404C93.9245 490.801 97.1717 490.733 100.363 491.204C100.576 492.661 100.936 494.094 101.436 495.479C102.018 497.462 102.6 499.446 103.255 501.429C104.456 505.395 105.784 509.325 106.894 513.291C106.886 513.311 106.884 513.332 106.886 513.352C106.888 513.373 106.895 513.393 106.907 513.41C106.919 513.427 106.934 513.441 106.953 513.451C106.971 513.461 106.992 513.466 107.012 513.466C107.033 513.466 107.054 513.461 107.072 513.451C107.091 513.441 107.106 513.427 107.118 513.41C107.13 513.393 107.137 513.373 107.139 513.352C107.141 513.332 107.138 513.311 107.131 513.291C106.148 509.325 105.311 505.34 104.365 501.356C103.892 499.409 103.401 497.481 102.928 495.534C102.659 494.171 102.301 492.828 101.854 491.513C103.697 491.848 105.519 492.286 107.313 492.823C110.586 493.79 113.794 494.963 116.919 496.334C117.228 498.354 117.683 500.337 118.138 502.32C118.72 504.813 119.375 507.287 120.158 509.725C120.167 509.749 120.184 509.769 120.205 509.783C120.226 509.798 120.251 509.805 120.276 509.805C120.301 509.805 120.326 509.798 120.347 509.783C120.368 509.769 120.385 509.749 120.394 509.725C120.403 509.568 120.403 509.41 120.394 509.252C119.921 506.942 119.412 504.649 118.921 502.338C118.52 500.519 118.175 498.609 117.756 496.753C120.398 497.931 122.979 499.243 125.489 500.683C125.489 501.247 125.689 501.847 125.78 502.357C125.925 503.339 126.107 504.303 126.271 505.268C126.671 507.433 127.108 509.598 127.636 511.763C128.593 515.922 129.809 520.018 131.274 524.026C131.262 524.051 131.255 524.079 131.255 524.108C131.255 524.136 131.262 524.164 131.274 524.19L131.402 524.335C131.402 524.444 131.638 524.335 131.62 524.208C130.638 520.023 129.51 515.875 128.6 511.672C128.145 509.58 127.672 507.487 127.253 505.377L126.653 502.229C126.653 501.92 126.562 501.611 126.507 501.283C134.296 505.879 141.344 511.627 147.413 518.331C147.558 518.495 147.867 518.331 147.722 518.076C146.142 515.935 144.454 513.877 142.664 511.909C141.609 510.762 140.499 509.671 139.371 508.579H139.716C140.717 508.743 141.7 508.888 142.7 509.016C144.665 509.289 146.63 509.471 148.595 509.689C148.595 509.562 148.704 509.398 148.595 509.398Z" fill="#263238"/>
<path d="M133.617 518.859C133.617 518.622 133.617 518.367 133.508 518.131C133.404 517.827 133.319 517.517 133.253 517.203C132.817 515.384 132.453 513.419 132.107 511.508C132.107 511.381 131.87 511.417 131.889 511.508C132.011 514.036 132.552 516.526 133.49 518.877C133.49 518.877 133.654 518.877 133.635 518.877L133.617 518.859Z" fill="#263238"/>
<path d="M115.847 518.492C115.847 518.492 115.847 518.382 115.719 518.382C115.137 515.89 114.555 513.379 114.045 510.868C113.773 509.54 113.5 508.23 113.245 506.902C113.099 506.174 112.972 505.465 112.845 504.755C112.784 504.129 112.631 503.516 112.39 502.936C112.38 502.912 112.364 502.892 112.343 502.877C112.322 502.863 112.297 502.855 112.272 502.855C112.246 502.855 112.221 502.863 112.2 502.877C112.179 502.892 112.163 502.912 112.153 502.936C112.131 504.217 112.309 505.494 112.681 506.72C112.936 508.103 113.209 509.485 113.518 510.85C114.136 513.634 114.828 516.399 115.61 519.147C115.61 519.185 115.626 519.222 115.653 519.249C115.68 519.277 115.717 519.292 115.756 519.292C115.794 519.292 115.831 519.277 115.859 519.249C115.886 519.222 115.901 519.185 115.901 519.147L115.847 518.492Z" fill="#263238"/>
<path d="M146.609 501.173C142.733 500.645 138.858 500.081 134.964 499.608C134.801 499.608 134.746 499.845 134.964 499.863C138.84 500.427 142.715 500.918 146.59 501.428C146.772 501.446 146.772 501.191 146.609 501.173Z" fill="#263238"/>
<path d="M79.9148 423.39C79.9148 423.39 66.9424 366.424 128.129 343.336C128.129 343.372 145.086 418.423 79.9148 423.39Z" fill="white"/>
<path d="M93.1234 391.131L93.7784 390.73L97.2534 388.802L104.349 384.836C109.007 382.216 113.628 379.505 118.322 376.939C118.468 376.939 118.322 376.648 118.195 376.721C113.483 379.286 108.679 381.688 103.949 384.181L96.9259 387.819L94.0149 389.311C96.0526 385.454 98.2359 381.652 100.638 377.995C103.822 373.119 107.333 368.479 110.99 363.931C111.014 363.888 111.024 363.838 111.017 363.79C111.009 363.741 110.986 363.697 110.95 363.663C110.915 363.629 110.868 363.609 110.82 363.604C110.771 363.6 110.722 363.612 110.681 363.639C105.308 368.852 100.558 374.671 96.5257 380.978C96.5257 380.778 96.5257 380.578 96.5257 380.396C96.5257 378.977 96.6348 377.558 96.653 376.139C96.653 373.355 96.653 370.571 96.653 367.788C96.653 367.624 96.3983 367.642 96.3801 367.788C96.271 370.517 95.9435 373.246 95.7797 375.975C95.7797 377.358 95.6523 378.704 95.616 380.087C95.616 380.815 95.616 381.652 95.616 382.47C94.3606 384.472 93.1416 386.509 91.9771 388.565C89.9284 392.279 88.1057 396.113 86.5189 400.046C86.5189 398.627 86.3733 397.208 86.2824 395.788C86.1004 392.677 85.7184 389.566 85.591 386.437C85.591 386.403 85.5776 386.37 85.5537 386.347C85.5298 386.323 85.4974 386.309 85.4636 386.309C85.4299 386.309 85.3975 386.323 85.3736 386.347C85.3497 386.37 85.3363 386.403 85.3363 386.437C85.3363 389.548 85.3363 392.677 85.3363 395.788C85.3363 397.353 85.4454 398.918 85.5364 400.464L85.6456 402.284C83.7004 407.371 82.1553 412.603 81.0243 417.931C79.977 423.62 79.218 429.358 78.75 435.124C78.75 435.124 78.75 435.124 78.75 435.124C79.393 429.929 80.4764 424.798 81.9886 419.787C82.7527 417.112 83.5533 414.437 84.4084 411.781C86.9556 410.58 89.3936 409.088 91.8498 407.724C94.306 406.359 96.9805 404.922 99.5277 403.521C104.64 400.719 109.735 397.863 114.993 395.388C115.156 395.388 114.993 395.097 114.865 395.17C109.534 397.59 104.149 399.882 98.9091 402.448C96.3073 403.757 93.742 405.158 91.1948 406.578C89.0661 407.778 86.8828 408.979 84.8632 410.362C85.4454 408.543 86.064 406.814 86.6826 405.067C88.7022 400.373 90.7945 395.661 93.1234 391.131Z" fill="#263238"/>
<path d="M87.9751 378.05C87.9647 378.022 87.9461 377.998 87.9217 377.981C87.8973 377.964 87.8683 377.955 87.8386 377.955C87.8089 377.955 87.7799 377.964 87.7555 377.981C87.7311 377.998 87.7125 378.022 87.7021 378.05C87.9387 381.289 88.0478 384.545 88.3753 387.784C88.3753 387.966 88.6846 387.966 88.6664 387.784C88.5573 384.545 88.2116 381.307 87.9751 378.05Z" fill="#263238"/>
<path d="M117.298 388.933C113.477 390.48 109.62 391.954 105.799 393.537C105.69 393.537 105.799 393.755 105.799 393.718C109.675 392.263 113.477 390.698 117.335 389.188C117.535 389.134 117.462 388.879 117.298 388.933Z" fill="#263238"/>
<path d="M123.124 362.659C119.37 364.384 115.725 366.334 112.207 368.499C112.169 368.521 112.14 368.557 112.128 368.6C112.116 368.643 112.122 368.688 112.144 368.727C112.165 368.765 112.201 368.794 112.244 368.806C112.287 368.818 112.332 368.812 112.371 368.79C116.01 366.716 119.539 364.715 123.287 362.896C123.415 362.823 123.269 362.604 123.124 362.659Z" fill="#263238"/>
<path d="M122.2 546.565H33.9404V639.592H122.2V546.565Z" fill="#455A64"/>
<path d="M32.3901 579.479H27.8779V738.824H32.3901V579.479Z" fill="#263238"/>
<path d="M127.8 579.479H123.288V738.824H127.8V579.479Z" fill="#263238"/>
<path d="M82.4994 579.479H77.9873V738.824H82.4994V579.479Z" fill="#263238"/>
<path d="M125.546 633.622H30.1357V646.503H125.546V633.622Z" fill="#263238"/>
<path d="M1148.13 697.32H33.3027V737.93H1148.13V697.32Z" fill="#C7C7C7"/>
<path d="M1049.3 83.7793H132.115V697.322H1049.3V83.7793Z" fill="#DBDBDB"/>
<path d="M1042.66 91.2568H138.794V689.826H1042.66V91.2568Z" fill="#263238"/>
<path d="M1002.61 129.739H178.801V651.347H1002.61V129.739Z" fill="white"/>
<path opacity="0.1" d="M1002.63 381.689V651.308H178.801V255.949C215.189 263.463 242.262 274.271 261.038 287.407C319.878 328.598 392.691 418.95 551.217 447.515C719.731 477.863 825.548 378.487 1002.63 381.689Z" fill="url(#paint0_linear_3438_13553)"/>
<path opacity="0.2" d="M1002.63 548.058V651.309H178.801V586.866C199.578 577.769 225.087 570.673 257.036 566.488C415.161 545.929 583.22 605.114 700.609 616.686C798.529 626.365 905.475 608.935 1002.63 548.058Z" fill="url(#paint1_linear_3438_13553)"/>
<path d="M708.198 472.135L706.925 470.843L711.51 466.295L706.925 461.71L708.198 460.418L714.093 466.295L708.198 472.135Z" fill="white"/>
<path d="M592.461 101.298H588.969C585.103 101.298 581.969 104.432 581.969 108.298V111.802C581.969 115.668 585.103 118.802 588.969 118.802H592.461C596.327 118.802 599.461 115.668 599.461 111.802V108.298C599.461 104.432 596.327 101.298 592.461 101.298Z" fill="#DBDBDB"/>
<mask id="mask0_3438_13553" style="mask-type:alpha" maskUnits="userSpaceOnUse" x="178" y="129" width="825" height="523">
<path d="M1002.61 129.729H178.801V651.336H1002.61V129.729Z" fill="white"/>
</mask>
<g mask="url(#mask0_3438_13553)">
<path d="M918.862 152.468H262.562V505.335H918.862V152.468Z" fill="white"/>
<path d="M919.709 506.2H261.712V151.687H919.709V506.2ZM263.41 504.503H918.011V153.384H263.41V504.503Z" fill="#263238"/>
<path d="M918.862 152.468H262.562V166.049H918.862V152.468Z" fill="#455A64"/>
<path d="M287.175 159.257C287.175 159.928 286.976 160.585 286.603 161.143C286.23 161.701 285.7 162.136 285.079 162.393C284.459 162.65 283.776 162.718 283.118 162.587C282.459 162.456 281.854 162.132 281.379 161.657C280.904 161.183 280.581 160.578 280.45 159.919C280.319 159.26 280.386 158.578 280.643 157.957C280.9 157.337 281.335 156.807 281.894 156.434C282.452 156.06 283.109 155.861 283.78 155.861C284.68 155.861 285.544 156.219 286.181 156.856C286.818 157.492 287.175 158.356 287.175 159.257Z" fill="#C7C7C7"/>
<path d="M301.471 159.257C301.471 159.928 301.272 160.585 300.899 161.143C300.526 161.701 299.996 162.136 299.375 162.393C298.755 162.65 298.072 162.718 297.414 162.587C296.755 162.456 296.15 162.132 295.675 161.657C295.2 161.183 294.877 160.578 294.746 159.919C294.615 159.26 294.682 158.578 294.939 157.957C295.196 157.337 295.631 156.807 296.19 156.434C296.748 156.06 297.404 155.861 298.076 155.861C298.976 155.861 299.84 156.219 300.477 156.856C301.113 157.492 301.471 158.356 301.471 159.257Z" fill="white"/>
<path d="M272.879 159.257C272.879 159.928 272.68 160.585 272.307 161.143C271.934 161.701 271.404 162.136 270.783 162.393C270.163 162.65 269.48 162.718 268.822 162.587C268.163 162.456 267.558 162.132 267.083 161.657C266.608 161.183 266.285 160.578 266.154 159.919C266.023 159.26 266.09 158.578 266.347 157.957C266.604 157.337 267.039 156.807 267.598 156.434C268.156 156.06 268.813 155.861 269.484 155.861C270.385 155.861 271.248 156.219 271.885 156.856C272.522 157.492 272.879 158.356 272.879 159.257Z" fill="#263238"/>
<path d="M918.86 166.049H903.955V505.352H918.86V166.049Z" fill="#DBDBDB"/>
<path d="M911.394 343.62C910.372 343.62 909.391 343.214 908.669 342.491C907.946 341.768 907.54 340.788 907.54 339.766V173.264C907.54 172.242 907.946 171.262 908.669 170.539C909.391 169.816 910.372 169.41 911.394 169.41C912.416 169.41 913.396 169.816 914.119 170.539C914.841 171.262 915.247 172.242 915.247 173.264V339.766C915.247 340.788 914.841 341.768 914.119 342.491C913.396 343.214 912.416 343.62 911.394 343.62Z" fill="#A6A6A6"/>
<path d="M751.865 313.674H886.096L818.989 231.984L751.865 313.674Z" fill="url(#paint2_linear_3438_13553)"/>
<path d="M644.745 346.372L886.096 346.372V194.588L644.745 194.588V346.372Z" fill="url(#paint3_linear_3438_13553)"/>
<path opacity="0.6" d="M644.745 346.372L886.096 346.372V194.588L644.745 194.588V346.372Z" fill="white"/>
<path opacity="0.1" d="M751.865 313.674H886.096L818.989 231.984L751.865 313.674Z" fill="black"/>
<path d="M699.292 313.758H810.113L754.702 260.555L699.292 313.758Z" fill="url(#paint4_linear_3438_13553)"/>
<path d="M886.075 313.675H644.725V346.371H886.075V313.675Z" fill="url(#paint5_linear_3438_13553)"/>
<path d="M696.591 253.625C705.349 250.024 709.53 240.005 705.929 231.247C702.328 222.489 692.309 218.308 683.551 221.909C674.793 225.51 670.612 235.529 674.213 244.287C677.814 253.045 687.833 257.225 696.591 253.625Z" fill="url(#paint6_linear_3438_13553)"/>
<path d="M886.075 366.691H644.725V395.5H886.075V366.691Z" fill="url(#paint7_linear_3438_13553)"/>
<path d="M886.075 405.991H644.725V415.736H886.075V405.991Z" fill="#DBDBDB"/>
<path d="M886.075 426.175H644.725V435.919H886.075V426.175Z" fill="#DBDBDB"/>
<path d="M886.075 446.343H644.725V456.087H886.075V446.343Z" fill="#DBDBDB"/>
<path d="M810.09 466.526H644.725V476.271H810.09V466.526Z" fill="#DBDBDB"/>
<path d="M563.358 232.951H290.891V242.746H563.358V232.951Z" fill="#A6A6A6"/>
<path d="M610.399 253.237H290.891V263.033H610.399V253.237Z" fill="#DBDBDB"/>
<path d="M610.399 273.523H290.891V283.319H610.399V273.523Z" fill="#DBDBDB"/>
<path d="M610.399 293.827H290.891V303.622H610.399V293.827Z" fill="#DBDBDB"/>
<path d="M610.399 314.113H290.891V323.909H610.399V314.113Z" fill="#DBDBDB"/>
<path d="M465.728 334.403H290.891V344.199H465.728V334.403Z" fill="#DBDBDB"/>
<path d="M610.399 194.128H290.891V222.937H610.399V194.128Z" fill="url(#paint8_linear_3438_13553)"/>
<path d="M443.068 366.69H291.25V376.35H443.068V366.69Z" fill="#A6A6A6"/>
<path d="M463.864 386.672H291.25V396.331H463.864V386.672Z" fill="#DBDBDB"/>
<path d="M463.864 406.668H291.25V416.327H463.864V406.668Z" fill="#DBDBDB"/>
<path d="M463.864 426.65H291.25V436.31H463.864V426.65Z" fill="#DBDBDB"/>
<path d="M463.864 446.632H291.25V456.291H463.864V446.632Z" fill="#DBDBDB"/>
<path d="M426.431 466.613H291.25V476.273H426.431V466.613Z" fill="#DBDBDB"/>
<path d="M478.879 475.982H613.024V366.995H478.879V475.982Z" fill="url(#paint9_linear_3438_13553)"/>
<path opacity="0.6" d="M478.879 475.982H613.024V366.995H478.879V475.982Z" fill="white"/>
<path d="M516.653 452.487H613.027L564.849 393.834L516.653 452.487Z" fill="url(#paint10_linear_3438_13553)"/>
<path opacity="0.1" d="M516.653 452.487H613.027L564.849 393.834L516.653 452.487Z" fill="black"/>
<path d="M478.897 452.555H558.465L518.673 414.358L478.897 452.555Z" fill="url(#paint11_linear_3438_13553)"/>
<path d="M613.043 452.488H478.897V475.966H613.043V452.488Z" fill="url(#paint12_linear_3438_13553)"/>
<path d="M507.092 408.707C514.218 408.707 519.994 402.931 519.994 395.805C519.994 388.68 514.218 382.903 507.092 382.903C499.967 382.903 494.19 388.68 494.19 395.805C494.19 402.931 499.967 408.707 507.092 408.707Z" fill="url(#paint13_linear_3438_13553)"/>
<path d="M902.755 578.753C902.755 578.753 906.429 629.776 906.429 629.815C906.429 639.796 906.352 648.556 905.864 653.091C905.872 653.112 905.872 653.134 905.864 653.155C905.862 654.228 905.616 655.287 905.145 656.251V656.315C902.177 658.345 822.341 661.081 819.528 660.169C816.715 659.257 818.886 651.241 821.905 648.608C824.923 645.974 855.034 631.305 855.034 631.305L851.771 580.474L902.755 578.753Z" fill="#D3766A"/>
<path d="M906.429 619.087V629.813C906.429 639.794 906.352 648.555 905.864 653.089C905.872 653.11 905.872 653.133 905.864 653.154C905.745 654.21 905.504 655.249 905.145 656.249V656.314C902.177 658.343 822.341 661.079 819.528 660.167C816.715 659.255 818.886 651.24 821.905 648.606C824.923 645.973 855.034 631.303 855.034 631.303L854.88 620.423L906.429 619.087Z" fill="white"/>
<path d="M819.451 660.232C822.264 661.08 902.1 658.343 905.067 656.378C906.21 655.62 906.493 643.969 906.429 629.877V629.428L854.905 630.622V631.496C854.905 631.496 824.82 646.204 821.789 648.786C818.757 651.368 816.625 659.397 819.451 660.232Z" fill="url(#paint14_linear_3438_13553)"/>
<path d="M850.628 631.726C855.894 630.557 862.394 631.148 866.569 634.783C866.736 634.924 866.569 635.156 866.351 635.104C861.233 633.649 855.976 632.74 850.666 632.394C850.578 632.399 850.491 632.369 850.424 632.31C850.358 632.251 850.318 632.168 850.313 632.079C850.308 631.99 850.338 631.904 850.397 631.837C850.456 631.771 850.539 631.731 850.628 631.726Z" fill="#263238"/>
<path d="M846.895 634.167C852.149 632.998 858.662 633.589 862.837 637.224C862.991 637.366 862.837 637.584 862.619 637.546C857.503 636.079 852.245 635.17 846.934 634.835C846.845 634.84 846.758 634.81 846.692 634.751C846.626 634.692 846.586 634.609 846.581 634.521C846.576 634.432 846.606 634.345 846.665 634.279C846.724 634.212 846.807 634.172 846.895 634.167Z" fill="#263238"/>
<path d="M843.143 636.598C848.41 635.429 854.91 636.02 859.085 639.655C859.252 639.796 859.085 640.028 858.866 639.976C853.753 638.522 848.5 637.613 843.195 637.266C843.106 637.273 843.018 637.244 842.951 637.186C842.883 637.128 842.842 637.046 842.835 636.958C842.828 636.869 842.857 636.781 842.915 636.714C842.972 636.646 843.055 636.605 843.143 636.598Z" fill="#263238"/>
<path d="M909.474 632.012L853.583 630.894C853.583 630.894 846.774 530.338 848.033 496.811C849.421 460.394 865.067 352.027 865.067 352.027H912.3C912.3 352.027 900.238 460.817 899.981 497.184C899.737 531.019 909.474 632.012 909.474 632.012Z" fill="#263238"/>
<path d="M874.366 352.027L902.73 450.117C906.082 403.706 912.3 352.027 912.3 352.027H874.366Z" fill="#37474F"/>
<path d="M903.334 357.368L900.341 389.714L897.566 422.085C895.793 443.665 894.098 465.246 892.813 486.878C892.505 492.286 892.312 497.72 892.389 503.154C892.466 508.588 892.723 513.996 892.993 519.404C893.558 530.22 894.256 541.027 895.087 551.826C895.917 562.625 896.774 573.42 897.656 584.21L900.662 616.556L898.247 584.159C897.45 573.368 896.692 562.569 895.973 551.762C895.292 540.959 894.56 530.155 894.059 519.352C893.802 513.94 893.618 508.536 893.507 503.141C893.507 497.746 893.661 492.351 893.995 486.955C895.177 465.336 896.872 443.743 898.452 422.149L903.334 357.368Z" fill="#37474F"/>
<path d="M855.963 621.581C864.686 621.504 862.181 621.414 870.903 621.427C875.18 621.427 903.235 621.543 907.218 622.249C907.241 622.249 907.264 622.259 907.281 622.275C907.298 622.292 907.307 622.315 907.307 622.339C907.307 622.363 907.298 622.386 907.281 622.403C907.264 622.419 907.241 622.429 907.218 622.429C903.223 623.033 875.103 622.429 870.903 622.429C862.168 622.236 864.686 622.198 855.963 621.902C855.921 621.902 855.88 621.885 855.85 621.855C855.82 621.825 855.803 621.784 855.803 621.742C855.803 621.699 855.82 621.658 855.85 621.628C855.88 621.598 855.921 621.581 855.963 621.581Z" fill="#37474F"/>
<path d="M993.602 551.393C993.602 551.393 1020.58 595.209 1020.58 595.235C1024.96 604.227 1028.63 612.166 1030.15 616.456C1030.15 616.481 1030.15 616.508 1030.15 616.533C1030.61 617.499 1030.85 618.558 1030.84 619.629C1030.84 619.629 1030.84 619.629 1030.84 619.706C1029.04 622.827 958.289 659.913 955.386 660.375C952.483 660.838 950.941 652.591 952.534 648.968C954.127 645.346 974.885 619.012 974.885 619.012L948.385 575.003L993.602 551.393Z" fill="#D3766A"/>
<path d="M1030.86 619.628C1030.86 619.658 1030.86 619.689 1030.86 619.718C1029.06 622.827 958.306 659.913 955.403 660.375C952.5 660.837 950.958 652.591 952.551 648.968C954.144 645.346 974.89 619.012 974.89 619.012L970.162 611.163C981.724 604.997 1002.74 594.168 1015.79 587.463C1018.64 592.074 1020.58 595.17 1020.58 595.235C1024.96 604.226 1028.64 612.165 1030.15 616.456C1030.16 616.481 1030.16 616.507 1030.15 616.533C1030.63 617.494 1030.87 618.555 1030.86 619.628Z" fill="white"/>
<path d="M955.384 660.375C958.3 659.913 1029.04 622.828 1030.84 619.706C1031.55 618.537 1026.74 607.914 1020.56 595.235L1020.37 594.85L974.459 618.254L974.883 619.025C974.883 619.025 954.15 645.333 952.532 648.968C950.913 652.604 952.48 660.851 955.384 660.375Z" fill="url(#paint15_linear_3438_13553)"/>
<path d="M954.75 657.212C966.517 650.661 1014.62 625.381 1026.69 619.806C1026.79 619.806 1026.83 619.806 1026.69 619.883C1015.12 626.627 966.864 651.509 954.75 657.405C954.596 657.546 954.493 657.341 954.75 657.212Z" fill="#263238"/>
<path d="M971.134 621.171C975.373 617.831 981.488 615.545 986.819 617.009C987.037 617.073 986.947 617.356 986.819 617.394C981.578 618.296 976.449 619.756 971.52 621.749C971.443 621.8 971.349 621.819 971.259 621.801C971.168 621.783 971.089 621.729 971.038 621.653C970.987 621.576 970.968 621.482 970.986 621.392C971.004 621.301 971.058 621.222 971.134 621.171Z" fill="#263238"/>
<path d="M968.806 624.983C973.032 621.644 979.083 619.357 984.491 620.821C984.696 620.821 984.619 621.168 984.491 621.207C979.246 622.11 974.113 623.57 969.179 625.562C969.102 625.611 969.009 625.628 968.92 625.609C968.831 625.589 968.753 625.535 968.703 625.459C968.654 625.382 968.637 625.289 968.656 625.2C968.675 625.111 968.729 625.033 968.806 624.983Z" fill="#263238"/>
<path d="M966.486 628.799C970.725 625.459 976.839 623.172 982.183 624.637C982.389 624.701 982.299 624.997 982.119 625.022C976.877 625.924 971.748 627.388 966.82 629.39C966.744 629.414 966.662 629.411 966.588 629.382C966.514 629.353 966.452 629.299 966.413 629.23C966.374 629.161 966.36 629.08 966.373 629.001C966.386 628.923 966.426 628.851 966.486 628.799Z" fill="#263238"/>
<path d="M869.931 351.987C870.136 352.95 873.425 368.262 876.855 381.416C879.334 391.025 881.903 399.4 883.367 400.338C884.832 401.276 893.13 404.924 895.853 406.041C895.853 406.041 914.081 497.04 923.703 525.249C932.579 551.288 969.331 620.886 969.331 620.886L1022.64 593.91C1022.64 593.91 981.007 523.258 976.627 510.605C969.844 490.964 944.41 394.994 944.41 394.994C944.41 394.994 944.615 364.974 934.493 351.858L869.931 351.987Z" fill="#263238"/>
<path d="M970.134 610.546C977.751 606.281 975.503 607.399 983.172 603.224C986.923 601.194 1011.57 587.809 1015.41 586.524C1015.49 586.524 1015.57 586.627 1015.49 586.679C1012.28 589.132 987.386 602.093 983.596 604.059C975.889 608.079 978.034 606.846 970.25 610.777C970.219 610.792 970.183 610.795 970.151 610.784C970.118 610.773 970.091 610.75 970.076 610.719C970.061 610.689 970.058 610.653 970.069 610.621C970.08 610.588 970.103 610.561 970.134 610.546Z" fill="#37474F"/>
<path d="M930.754 386.773C929.29 386.401 927.723 386.285 926.245 386.041C925.038 385.861 923.843 385.643 922.649 385.386C920.367 384.97 918.205 384.058 916.316 382.714C914.248 381.108 913.207 378.667 912.205 376.291C911.614 374.904 911.01 373.529 910.381 372.142C910.086 371.474 909.777 370.857 909.469 370.151C909.05 369.373 908.676 368.571 908.351 367.749C908.351 367.633 908.12 367.749 908.172 367.749C908.371 368.317 908.539 368.896 908.673 369.483C908.878 370.151 909.071 370.767 909.276 371.487C909.649 372.681 910.008 373.876 910.394 375.071C910.996 377.256 911.858 379.36 912.963 381.339C915.16 384.846 919.103 386.259 923.034 386.76C924.164 386.902 925.295 386.979 926.438 387.043C927.866 387.165 929.301 387.165 930.729 387.043C930.765 387.009 930.787 386.962 930.792 386.913C930.797 386.863 930.783 386.814 930.754 386.773Z" fill="#37474F"/>
<path d="M879.066 398.244C884.849 400.348 890.436 402.952 895.765 406.029C895.803 406.054 895.83 406.092 895.843 406.135C895.855 406.179 895.852 406.225 895.834 406.267C895.815 406.308 895.783 406.342 895.742 406.362C895.702 406.382 895.655 406.386 895.611 406.376C889.985 403.961 884.243 401.648 878.758 398.925C878.713 398.905 878.673 398.876 878.639 398.84C878.606 398.804 878.579 398.762 878.562 398.716C878.545 398.67 878.537 398.622 878.538 398.572C878.54 398.523 878.551 398.475 878.571 398.43C878.592 398.386 878.62 398.345 878.656 398.312C878.692 398.278 878.734 398.252 878.78 398.235C878.826 398.218 878.875 398.21 878.924 398.211C878.973 398.213 879.021 398.224 879.066 398.244Z" fill="#37474F"/>
<path d="M877.357 359.693C877.357 359.501 877.717 359.462 877.717 359.693C877.717 366.373 878.102 372.257 878.654 378.5C878.924 381.403 881.224 397.421 886.285 396.252C887.12 396.06 887.569 395.225 887.685 393.966C887.666 392.305 887.441 390.652 887.017 389.046C886.465 385.693 886.015 382.328 885.732 378.936C885.146 372.63 885.215 366.281 885.938 359.989C885.948 359.954 885.969 359.923 885.998 359.901C886.027 359.88 886.062 359.868 886.099 359.868C886.135 359.868 886.17 359.88 886.199 359.901C886.228 359.923 886.249 359.954 886.259 359.989C886.117 368.737 886.632 377.484 887.801 386.156C888.43 390.318 890.524 396.599 886.169 397.241C881.814 397.884 878.86 387.376 878.308 384.511C876.925 376.314 876.605 367.973 877.357 359.693Z" fill="#37474F"/>
<path d="M886.156 396.665C886.611 397.742 886.989 398.849 887.286 399.979C887.615 400.853 887.776 401.782 887.762 402.715C887.753 402.752 887.734 402.785 887.707 402.811C887.68 402.837 887.646 402.854 887.609 402.861C887.572 402.868 887.535 402.863 887.5 402.849C887.466 402.835 887.436 402.811 887.415 402.78C886.894 401.962 886.5 401.069 886.246 400.133C885.86 399.106 885.462 398.078 885.103 397.038C885.078 396.905 885.101 396.768 885.168 396.651C885.235 396.534 885.342 396.445 885.47 396.4C885.597 396.355 885.736 396.357 885.862 396.405C885.988 396.454 886.092 396.546 886.156 396.665Z" fill="#37474F"/>
<path d="M1008.26 585.161C1000.68 570.877 992.844 556.721 984.996 542.578C981.142 535.603 977.096 528.705 973.435 521.64C969.955 514.636 967.13 507.326 964.995 499.802C960.302 484.55 955.858 469.221 951.661 453.814C947.465 438.408 943.526 422.942 939.843 407.416C938.918 403.562 937.903 399.644 937.158 395.726C936.484 391.764 936.484 387.716 937.158 383.754C937.728 380.066 937.758 376.314 937.248 372.617C936.669 368.926 935.81 365.284 934.679 361.724C934.088 359.848 933.395 357.986 932.804 356.136C932.797 356.115 932.786 356.095 932.772 356.078C932.758 356.061 932.74 356.047 932.72 356.037C932.701 356.027 932.679 356.021 932.657 356.019C932.635 356.017 932.613 356.02 932.592 356.027C932.571 356.033 932.551 356.044 932.534 356.058C932.517 356.073 932.503 356.09 932.493 356.11C932.483 356.13 932.477 356.151 932.475 356.173C932.473 356.195 932.476 356.217 932.483 356.239C934.782 363.753 937.133 371.358 936.632 379.361C936.401 383.214 935.347 386.953 935.45 390.806C935.694 394.632 936.34 398.42 937.377 402.11C940.999 417.731 944.896 433.287 949.066 448.779C953.237 464.271 957.634 479.686 962.259 495.023C964.52 502.487 966.639 510.066 969.851 517.195C973.062 524.324 977.134 531.068 980.962 537.889C988.884 551.968 996.908 565.996 1005.04 579.972L1008.16 585.264C1008.16 585.38 1008.39 585.277 1008.26 585.161Z" fill="#37474F"/>
<path d="M730.609 499.185C730.609 499.185 662.527 475.099 648.846 474.778C635.165 474.457 542.959 527.997 542.959 527.997L730.609 499.185Z" fill="url(#paint16_linear_3438_13553)"/>
<path opacity="0.3" d="M730.609 499.185C730.609 499.185 662.527 475.099 648.846 474.778C635.165 474.457 542.959 527.997 542.959 527.997L730.609 499.185Z" fill="black"/>
<path d="M679.52 598.113L701.511 587.502L695.5 512.792L710.067 493.035L706.483 490.389L690.939 511.494L696.836 584.817L679.764 593.064L630.244 563.095L616.023 569.968L617.95 573.976L630.012 568.156L679.52 598.113Z" fill="#263238"/>
<path d="M534.017 643.469L806.088 400.981L832.923 388.02L828.671 379.208L800.603 392.76L527.504 636.16L534.017 643.469Z" fill="url(#paint17_linear_3438_13553)"/>
<path opacity="0.3" d="M534.017 643.469L806.088 400.981L832.923 388.02L828.671 379.208L800.603 392.76L527.504 636.16L534.017 643.469Z" fill="black"/>
<path d="M814.622 397.702L846.559 382.276L841.558 371.924L809.621 387.349L814.622 397.702Z" fill="#37474F"/>
<path d="M692.768 608.477L714.76 597.854L708.748 523.143L723.315 503.386L719.731 500.74L704.188 521.846L710.084 595.169L693.012 603.416L643.505 573.447L629.271 580.319L631.211 584.327L643.26 578.508L692.768 608.477Z" fill="#263238"/>
<path d="M615.38 644.918C633.632 630.29 636.57 603.636 621.942 585.384C607.314 567.131 580.66 564.194 562.408 578.821C544.156 593.449 541.218 620.104 555.846 638.356C570.473 656.608 597.128 659.546 615.38 644.918Z" fill="#263238"/>
<path d="M566.61 613.396C566.91 617.808 568.512 622.031 571.213 625.532C573.914 629.033 577.593 631.654 581.784 633.064C585.975 634.474 590.49 634.609 594.758 633.452C599.025 632.295 602.854 629.898 605.759 626.565C608.665 623.232 610.516 619.112 611.08 614.726C611.643 610.341 610.893 605.886 608.924 601.927C606.955 597.968 603.856 594.681 600.019 592.484C596.183 590.286 591.78 589.276 587.369 589.581C581.459 589.989 575.953 592.727 572.061 597.192C568.168 601.658 566.208 607.486 566.61 613.396Z" fill="#37474F"/>
<path d="M515.819 526.332L765.62 478.815L764.218 471.446L514.417 518.962L515.819 526.332Z" fill="url(#paint18_linear_3438_13553)"/>
<path d="M758.885 480.109L743.74 528.461L603.26 579.252L522.512 525.095L758.885 480.109Z" fill="url(#paint19_linear_3438_13553)"/>
<path opacity="0.1" d="M522.512 525.097L529.153 529.554L754.197 495.128L758.898 480.124L522.512 525.097Z" fill="black"/>
<path d="M633.938 578.727L627.541 570.274L725.849 534.923L633.938 578.727Z" fill="#263238"/>
<path d="M556.554 651.589L828.625 409.088L855.46 396.139L851.208 387.327L823.14 400.879L550.041 644.279L556.554 651.589Z" fill="url(#paint20_linear_3438_13553)"/>
<path opacity="0.3" d="M556.554 651.589L828.625 409.088L855.46 396.139L851.208 387.327L823.14 400.879L550.041 644.279L556.554 651.589Z" fill="black"/>
<path d="M837.143 405.814L869.08 390.389L864.08 380.036L832.143 395.461L837.143 405.814Z" fill="#37474F"/>
<path d="M876.685 291.831C882.362 318.152 880.654 352.386 878.509 362.11C875.837 374.236 841.423 388.264 832.264 391.347C828.346 392.631 822.219 358.359 826.381 356.856C830.003 355.571 853.447 345.012 854.32 342.79C854.821 341.505 858.868 312.474 864.096 290.303C867.962 273.77 874.976 283.918 876.685 291.831Z" fill="#D3766A"/>
<path d="M823.084 386.043C825.088 386.236 824.998 387.327 822.017 389.216C819.037 391.104 805.536 396.268 807.72 400.777C809.904 405.286 828.826 397.822 833.553 394.226C837.565 390.839 841.29 387.127 844.69 383.127C840.708 383.936 830.907 384.733 823.084 386.043Z" fill="#D3766A"/>
<path d="M836.727 354.736C825.308 356.959 811.036 359.476 801.672 368.211C800.605 369.162 799.887 370.442 799.629 371.847C795.339 375.7 795.865 378.861 795.865 378.861C792.962 383.665 793.951 386.838 793.951 386.838C793.951 386.838 788.954 391.398 791.215 394.879C793.784 398.733 800.207 391.603 806.245 389.844C819.977 385.823 840.607 383.947 844.692 383.177L836.727 354.736Z" fill="#D3766A"/>
<path d="M817.666 375.519C809.118 377.644 801.099 381.505 794.107 386.862C794.082 386.875 794.054 386.88 794.027 386.875C794 386.869 793.975 386.854 793.958 386.833C793.941 386.811 793.932 386.784 793.934 386.756C793.935 386.728 793.946 386.702 793.965 386.682C800.661 380.807 808.841 376.884 817.614 375.339C817.82 375.301 817.871 375.455 817.666 375.519Z" fill="#263238"/>
<path d="M816.442 366.875C812.588 368.326 805.87 370.908 795.889 378.963C795.889 378.963 795.812 378.963 795.889 378.963C801.452 373.068 808.547 368.838 816.378 366.746C816.622 366.631 816.699 366.785 816.442 366.875Z" fill="#263238"/>
<path d="M815.701 362.251C809.278 364.962 805.553 367.48 799.67 371.847C799.67 371.847 799.58 371.847 799.67 371.847C805.836 366.182 808.662 364.821 815.688 362.072C815.881 361.917 815.958 362.097 815.701 362.251Z" fill="#263238"/>
<path d="M883.78 324.394L857.819 314.207C857.819 314.207 860.286 296.146 864.101 284.881C867.916 273.615 872.361 272.035 877.833 288.554C883.305 305.074 883.78 324.394 883.78 324.394Z" fill="#EBEBEB"/>
<path d="M860.021 309.428C861.961 309.864 880.471 317.135 882.18 318.176C882.27 318.176 882.18 318.368 882.103 318.355C880.15 317.906 861.678 310.532 859.982 309.531L860.021 309.428Z" fill="#263238"/>
<path d="M883.153 324.123L883.808 324.431H883.872V324.354C883.872 321.978 883.782 319.588 883.641 317.212C883.5 314.835 883.243 312.459 882.96 310.095C882.678 307.732 882.279 305.368 881.804 303.03C881.338 300.691 880.741 298.38 880.019 296.106C880.468 298.444 880.892 300.782 881.303 303.133C881.714 305.484 882.023 307.822 882.292 310.185C882.562 312.549 882.857 314.9 883.101 317.263C883.346 319.627 883.602 321.991 883.834 324.367L883.153 324.123Z" fill="#263238"/>
<path d="M942.874 368.518C942.72 368.775 861.381 385.14 860.469 384.447C859.184 383.47 857.694 299.228 867.444 279.035C869.885 273.987 880.906 268.835 886.558 272.484C902.898 283.068 907.831 293.563 913.098 301.9C916.951 308.092 922.334 318.882 927.382 330.019C935.693 348.324 943.336 367.567 942.874 368.518Z" fill="#EBEBEB"/>
<path d="M887.916 272.383C887.916 272.383 880.812 301.928 880.08 309.34C879.091 319.398 886.503 383.318 886.503 383.318L944.309 369.445C944.309 369.445 921.829 308.235 905.129 288.093C891.962 272.177 887.916 272.383 887.916 272.383Z" fill="url(#paint21_linear_3438_13553)"/>
<path d="M869.218 277.097C869.218 277.097 866.919 303.353 866.251 307.348C865.583 311.343 866.919 386.863 866.919 386.863L859.211 385.476C859.211 385.476 858.209 333.207 860.727 306.064C863.245 278.921 869.218 277.097 869.218 277.097Z" fill="url(#paint22_linear_3438_13553)"/>
<path d="M883.781 358.244L936.05 348.777C935.262 346.884 934.431 344.919 933.558 342.881L883.164 352.014C883.305 354.172 883.537 356.253 883.781 358.244Z" fill="#EBEBEB"/>
<path d="M859.041 362.762L866.505 361.413C866.505 359.345 866.505 357.225 866.428 355.08L859.054 356.365C859.041 358.6 859.029 360.719 859.041 362.762Z" fill="#EBEBEB"/>
<path d="M884.899 369.213L940.302 359.18C939.595 357.395 938.786 355.417 937.913 353.284L884.308 363.008C884.475 365.205 884.693 367.235 884.899 369.213Z" fill="#EBEBEB"/>
<path d="M859.095 373.901L866.687 372.513C866.687 370.535 866.61 368.428 866.571 366.206L859.044 367.568C859.07 369.803 859.07 371.974 859.095 373.901Z" fill="#EBEBEB"/>
<path d="M877.285 287.593C880.689 286.784 885.892 278.498 887.125 272.422C887.202 272.011 885.481 268.427 883.605 263.982C882.475 261.272 881.28 258.24 880.394 255.389L863.861 265.306C865.99 268.557 867.715 272.055 869 275.723C869.11 276.119 869.192 276.523 869.244 276.931C869.239 276.995 869.239 277.059 869.244 277.124C869.655 279.462 871.954 288.877 877.285 287.593Z" fill="#D3766A"/>
<path d="M869.253 276.93C869.253 276.93 869.253 277.046 869.253 277.136C869.89 277.024 870.518 276.861 871.128 276.648C881.405 273.192 880.018 259.627 879.427 255.953L863.832 265.305C865.959 268.553 867.684 272.047 868.97 275.71C869.092 276.11 869.186 276.517 869.253 276.93Z" fill="#263238"/>
<path d="M876.909 232.882C880.635 238.752 882.33 258.175 878.913 263.557C873.955 271.355 863.293 274.9 856.035 268.362C848.996 262.016 847.223 236.658 851.282 231.507C857.255 223.928 871.424 224.211 876.909 232.882Z" fill="#D3766A"/>
<path d="M860.753 248.823C860.753 248.823 860.856 248.823 860.856 248.926C860.856 250.211 861.125 251.752 862.333 252.125V252.202C860.868 252.06 860.56 250.069 860.753 248.823Z" fill="#263238"/>
<path d="M861.855 247.395C863.962 247.125 864.335 251.352 862.382 251.596C860.43 251.84 860.096 247.614 861.855 247.395Z" fill="#263238"/>
<path d="M853.761 249.208C853.761 249.208 853.671 249.208 853.671 249.324C853.825 250.608 853.787 252.15 852.644 252.689C852.644 252.689 852.644 252.779 852.644 252.766C854.082 252.432 854.121 250.416 853.761 249.208Z" fill="#263238"/>
<path d="M861.851 258.998C861.659 259.414 861.384 259.787 861.044 260.093C860.703 260.4 860.304 260.634 859.87 260.781C859.483 260.908 859.08 260.981 858.672 260.999H858.217C858.165 260.995 858.115 260.975 858.076 260.941C858.037 260.907 858.01 260.861 857.999 260.81C857.994 260.778 857.994 260.744 857.999 260.711V260.622C857.88 259.87 857.801 258.711 857.801 258.711C857.543 258.89 856.216 259.701 856.187 259.315C855.815 255.897 855.795 252.45 856.127 249.027C856.134 249.007 856.146 248.99 856.163 248.978C856.18 248.966 856.201 248.959 856.221 248.959C856.242 248.959 856.263 248.966 856.279 248.978C856.296 248.99 856.309 249.007 856.315 249.027C856.672 252.186 856.474 255.384 856.781 258.563C857.248 258.257 857.759 258.023 858.296 257.87C858.405 257.87 858.405 260.107 858.494 260.444C859.121 260.423 859.737 260.275 860.305 260.01C860.874 259.744 861.382 259.366 861.801 258.899C861.851 258.86 861.94 258.909 861.851 258.998Z" fill="#263238"/>
<path d="M852.478 247.936C850.359 247.936 850.564 252.2 852.478 252.175C854.392 252.149 854.238 247.923 852.478 247.936Z" fill="#263238"/>
<path d="M863.345 245.316C862.777 245.2 862.215 245.055 861.662 244.879C861.047 244.814 860.472 244.542 860.031 244.108C859.913 243.951 859.85 243.759 859.85 243.562C859.85 243.366 859.913 243.174 860.031 243.016C860.33 242.754 860.694 242.577 861.085 242.502C861.475 242.428 861.879 242.459 862.253 242.592C863.056 242.754 863.767 243.213 864.244 243.877C864.335 244.027 864.383 244.2 864.382 244.376C864.38 244.552 864.33 244.724 864.237 244.873C864.144 245.022 864.011 245.142 863.854 245.22C863.696 245.299 863.52 245.332 863.345 245.316Z" fill="#263238"/>
<path d="M850.858 246.485C851.417 246.325 851.966 246.132 852.502 245.907C853.105 245.778 853.65 245.458 854.057 244.995C854.155 244.822 854.195 244.622 854.17 244.425C854.144 244.228 854.055 244.045 853.915 243.903C853.594 243.67 853.216 243.527 852.821 243.489C852.426 243.451 852.028 243.518 851.667 243.685C850.888 243.905 850.219 244.409 849.792 245.098C849.706 245.261 849.669 245.445 849.685 245.628C849.701 245.812 849.769 245.987 849.881 246.133C849.993 246.278 850.145 246.389 850.318 246.452C850.491 246.514 850.679 246.526 850.858 246.485Z" fill="#263238"/>
<path d="M849.498 237.043C849.627 236.452 850.012 234.936 850.783 234.795C851.553 234.653 852.607 236.015 854.444 236.182C857.013 236.426 860.866 232.945 864.45 233.253C868.034 233.561 870.629 236.426 872.376 242.374C874.123 248.321 879.788 252.329 880.418 248.103C880.418 247.949 880.456 247.679 880.533 247.293C879.994 241.397 878.696 235.642 876.936 232.881C871.451 224.223 857.27 223.889 851.309 231.506C850.261 233.175 849.639 235.077 849.498 237.043Z" fill="#263238"/>
<path d="M877.101 249.055C877.101 249.055 879.785 241.964 882.894 242.773C886.003 243.583 885.052 253.05 882.149 255.105C881.794 255.389 881.386 255.597 880.948 255.719C880.511 255.84 880.053 255.872 879.603 255.812C879.153 255.752 878.72 255.601 878.33 255.37C877.939 255.138 877.6 254.829 877.332 254.463L877.101 249.055Z" fill="#D3766A"/>
<path d="M882.498 245.495V245.585C880.481 247.062 879.826 249.439 879.556 251.815C879.628 251.556 879.755 251.315 879.93 251.11C880.104 250.904 880.321 250.74 880.566 250.627C880.811 250.515 881.077 250.457 881.346 250.458C881.615 250.459 881.881 250.519 882.125 250.633C882.202 250.633 882.125 250.775 882.125 250.775C881.695 250.751 881.269 250.862 880.905 251.092C880.541 251.322 880.258 251.661 880.095 252.059C879.821 252.721 879.619 253.41 879.492 254.115C879.492 254.333 879.055 254.32 879.068 254.115C878.336 251.134 879.556 246.561 882.498 245.495Z" fill="#263238"/>
<path d="M847.016 241.487C847.016 241.487 846.413 222.219 863.626 221.525C880.839 220.831 881.738 240.138 881.738 240.138L847.016 241.487Z" fill="url(#paint23_linear_3438_13553)"/>
<path d="M882.987 238.661L845.686 240.113L845.792 242.847L883.093 241.395L882.987 238.661Z" fill="url(#paint24_linear_3438_13553)"/>
<path d="M864.038 239.459L856.279 239.767L857.371 220.781L865.143 220.473L864.038 239.459Z" fill="url(#paint25_linear_3438_13553)"/>
<path opacity="0.1" d="M864.038 239.459L856.279 239.767L857.371 220.781L865.143 220.473L864.038 239.459Z" fill="black"/>
<path d="M901.29 289.94C915.164 313.062 924.939 348.555 923.616 358.42C921.895 371.266 880.776 390.855 872.028 395.069C868.303 396.867 857.898 363.571 861.905 361.567C865.335 359.82 892.298 347.617 892.735 346.307C893.172 344.996 889.986 316.042 888.239 292.766C887.019 275.822 894.148 278.019 901.29 289.94Z" fill="#D3766A"/>
<path d="M869.388 358.819C869.388 358.819 865.688 360.541 855.848 361.915C848.141 362.994 830.851 370.907 825.288 391.987C823.156 400.067 827.857 405.089 831.596 397.125C834.165 391.486 835.539 387.362 836.901 385.757C836.901 385.757 839.149 395.006 844.274 397.035C848.749 398.82 853.347 400.279 858.032 401.403C858.43 400.594 858.778 399.762 859.073 398.911C861.166 399.539 863.394 399.561 865.5 398.975C867.605 398.388 869.501 397.217 870.968 395.597L878.675 392.154L869.388 358.819Z" fill="#D3766A"/>
<path d="M849.552 364.923C846.816 367.929 841.112 374.416 838.299 381.327C835.177 389.034 831.221 404.655 836.924 406.915C841.099 408.56 843.129 402.715 843.129 402.715C843.129 402.715 842.859 409.536 846.983 410.191C850.721 410.795 852.018 406.183 852.018 406.183C852.018 406.183 852.57 410.345 856.283 410.242C860.74 410.101 858.852 401.405 863.271 397.397C864.234 396.459 849.552 364.923 849.552 364.923Z" fill="#D3766A"/>
<path d="M846.972 383.28C843.735 389.155 842.359 395.874 843.028 402.549C843.028 402.716 843.182 402.793 843.195 402.626C843.689 396.04 844.983 389.54 847.049 383.267C847.049 383.267 846.997 383.241 846.972 383.28Z" fill="#263238"/>
<path d="M854.635 386.658C853.107 389.651 850.512 398.669 851.848 406.17C851.848 406.337 852.015 406.402 852.028 406.235C852.174 399.637 853.075 393.077 854.712 386.684C854.712 386.684 854.661 386.619 854.635 386.658Z" fill="#263238"/>
<path d="M824.951 398.709C824.592 396.424 824.592 394.097 824.951 391.811C825.368 389.54 826.058 387.327 827.007 385.221C828.961 380.997 831.595 377.122 834.804 373.75C836.416 372.077 838.132 370.506 839.942 369.049C841.736 367.574 843.672 366.283 845.723 365.195C849.839 363.056 854.361 361.812 858.992 361.547C856.722 361.836 854.487 362.361 852.326 363.114C850.157 363.821 848.061 364.738 846.07 365.85C842.16 368.194 838.612 371.093 835.536 374.457C832.357 377.723 829.716 381.474 827.713 385.568C825.666 389.634 824.714 394.163 824.951 398.709Z" fill="#263238"/>
<path d="M916.512 318.306L888.727 315.981C888.727 315.981 885.914 297.997 886.337 286.089C886.761 274.181 890.577 271.407 900.558 285.678C910.539 299.95 916.512 318.306 916.512 318.306Z" fill="#EBEBEB"/>
<path d="M889.423 310.804C891.414 310.663 911.26 312.359 913.161 312.847C913.251 312.847 913.238 313.014 913.161 313.027C911.17 313.168 891.324 311.382 889.435 310.907C889.358 310.894 889.371 310.804 889.423 310.804Z" fill="#263238"/>
<path d="M886.019 299.215C886.199 300.05 886.392 300.885 886.61 301.707C886.687 301.977 886.752 302.259 886.816 302.542C886.816 302.195 886.752 301.861 886.726 301.527C886.572 299.485 886.533 297.429 886.443 295.374C886.443 295.374 886.52 295.374 886.533 295.374C886.996 299.035 887.445 302.696 887.818 306.37C888.023 308.155 888.216 309.954 888.396 311.739C888.499 312.677 888.589 313.615 888.679 314.553C888.679 314.899 888.679 315.593 888.961 315.837C889.429 316.006 889.917 316.11 890.413 316.145C890.503 316.145 890.49 316.313 890.413 316.3C889.925 316.3 889.424 316.3 888.923 316.223C888.725 316.222 888.536 316.144 888.396 316.004C888.238 315.74 888.154 315.438 888.152 315.131C888.075 314.617 888.011 314.103 887.946 313.589C887.677 311.598 887.458 309.594 887.278 307.59C887.163 306.306 887.034 305.021 886.919 303.801C886.69 303.119 886.502 302.424 886.353 301.72C886.186 300.885 886.058 300.05 885.942 299.215C885.981 299.151 886.019 299.151 886.019 299.215Z" fill="#263238"/>
<path d="M832.482 395.137C832.95 393.456 833.507 391.8 834.152 390.179C834.486 389.369 834.82 388.56 835.219 387.777C835.596 386.953 836.089 386.187 836.683 385.503L837.698 384.424L837.197 385.837L835.912 389.575C835.488 390.86 835.064 392.144 834.743 393.429C834.862 392.097 835.112 390.781 835.488 389.498C835.822 388.213 836.221 386.929 836.657 385.644L837.171 385.978C836.664 386.629 836.233 387.336 835.887 388.085C835.501 388.843 835.116 389.626 834.756 390.41C833.908 391.951 833.215 393.557 832.482 395.137Z" fill="#263238"/>
<path d="M410.233 820.024L337.063 818.539C337.063 818.539 341.883 645.181 341.004 640.745C338.859 630.334 287.849 465.334 287.849 465.334L353.504 466.47L370.422 466.855C370.422 466.855 368.479 494.349 369.267 497.245C380.265 537.276 405.321 605.626 409.702 631.049C417.327 674.947 410.233 820.024 410.233 820.024Z" fill="#263238"/>
<path d="M349.404 636.68C346.93 626.58 328.417 563.546 322.753 543.64C317.09 523.735 311.756 503.737 306.88 483.649C306.257 481.101 305.634 478.553 304.956 476.024C304.956 475.804 304.589 475.895 304.626 476.115C306.459 486.233 308.97 496.277 311.352 506.285C313.735 516.293 316.265 526.282 318.941 536.217C324.293 556.196 330.146 576.04 336.5 595.75C339.671 605.556 344.895 625.719 347.681 635.635C350.467 645.551 345.848 795.411 346.086 798.05C346.111 798.191 346.184 798.317 346.293 798.409C346.402 798.5 346.54 798.55 346.682 798.55C346.824 798.55 346.962 798.5 347.071 798.409C347.18 798.317 347.253 798.191 347.278 798.05C347.571 778.841 351.805 646.687 349.404 636.68Z" fill="#37474F"/>
<path d="M353.577 466.521C353.577 466.521 337.521 641.657 337.356 640.796C335.285 630.825 290.763 475.576 288.05 465.861C287.959 465.55 287.922 465.385 287.922 465.385L353.577 466.521Z" fill="#37474F"/>
<path d="M324.011 829.609L251.207 828.253C251.207 828.253 257.036 742.49 261.783 663.29C265.596 599.375 268.711 539.732 267.447 532.84C262.846 507.619 266.769 478.805 278.903 465.132L357.517 466.598C357.517 466.598 358.672 488.593 350.313 501.699C350.313 501.699 342.853 506.226 339.224 508.224C339.224 508.224 337.959 627.053 336.09 666.625C334.184 707.426 324.011 829.609 324.011 829.609Z" fill="#263238"/>
<path d="M355.29 498.257C347.484 501.842 339.997 506.086 332.91 510.94C332.876 510.955 332.846 510.976 332.822 511.003C332.797 511.03 332.778 511.061 332.767 511.096C332.755 511.13 332.752 511.167 332.755 511.203C332.759 511.239 332.771 511.274 332.789 511.306C332.807 511.337 332.832 511.364 332.862 511.385C332.891 511.406 332.925 511.421 332.961 511.428C332.996 511.435 333.033 511.435 333.069 511.426C333.104 511.418 333.137 511.402 333.166 511.38C340.718 507.385 348.435 503.517 355.748 499.136C355.831 499.06 355.887 498.958 355.907 498.847C355.927 498.735 355.909 498.621 355.857 498.52C355.805 498.42 355.721 498.34 355.618 498.292C355.516 498.244 355.4 498.232 355.29 498.257Z" fill="#37474F"/>
<path d="M345.301 497.028C344.818 498.548 344.432 500.097 344.147 501.666C343.808 502.856 343.702 504.101 343.835 505.331C343.835 505.57 344.22 505.551 344.33 505.331C344.951 504.184 345.39 502.948 345.631 501.666C346.016 500.236 346.456 498.806 346.823 497.358C347.061 496.368 345.595 496.02 345.301 497.028Z" fill="#37474F"/>
<path d="M344.733 489.367C344.971 488.047 345.191 486.745 345.466 485.444C345.741 484.143 346.089 482.75 346.254 481.375C346.254 481.331 346.272 481.289 346.303 481.258C346.334 481.227 346.376 481.21 346.419 481.21C346.463 481.21 346.505 481.227 346.536 481.258C346.567 481.289 346.584 481.331 346.584 481.375C346.364 482.695 346.309 484.051 346.181 485.371C346.053 486.69 345.906 488.028 345.741 489.348C345.448 491.823 344.971 494.315 344.44 496.68C345.753 496.483 347.006 495.994 348.106 495.25C349.15 494.239 349.849 492.924 350.104 491.493C350.525 490.008 350.873 488.487 351.313 487.002C351.864 485.371 352.281 483.697 352.56 481.998C352.56 481.778 352.926 481.851 352.89 481.998C352.514 485.576 351.777 489.107 350.69 492.537C350.45 493.899 349.728 495.129 348.656 496.002C347.277 496.711 345.767 497.129 344.22 497.23C344.181 497.257 344.135 497.273 344.087 497.276C344.039 497.278 343.992 497.267 343.95 497.245C343.908 497.222 343.874 497.188 343.85 497.146C343.826 497.105 343.815 497.057 343.817 497.01C344 494.609 344.275 491.951 344.733 489.367Z" fill="#37474F"/>
<path d="M280.244 532.073C279.786 526.281 278.942 520.543 278.411 514.751C277.437 503.163 278.36 491.493 281.142 480.201C281.142 479.981 280.849 479.889 280.812 480.201C278.704 490.227 276.853 500.235 277.146 510.517C277.439 520.8 279.071 530.79 278.979 540.999C278.887 551.208 277.934 561.674 277.146 571.975L274.562 603.135C271.116 644.798 261.42 792.916 260.76 804.757C260.76 805.784 262.244 805.747 262.336 804.757C264.499 783.862 274.36 632.095 275.973 611.365C276.78 601.003 277.574 590.616 278.356 580.205C279.144 569.886 280.097 559.567 280.445 549.21C280.693 543.498 280.626 537.777 280.244 532.073Z" fill="#37474F"/>
<path d="M309.08 480C309.069 479.968 309.048 479.94 309.02 479.92C308.992 479.9 308.959 479.89 308.924 479.89C308.89 479.89 308.857 479.9 308.829 479.92C308.801 479.94 308.78 479.968 308.769 480C308.277 481.354 307.998 482.777 307.944 484.216C307.687 485.761 307.3 487.282 306.789 488.762C305.865 491.748 304.193 494.449 301.932 496.607C296.891 501.152 290.238 502.729 283.822 504.177C283.584 504.177 283.657 504.562 283.822 504.58C287.609 504.822 291.405 504.298 294.985 503.04C298.179 502.124 301.141 500.537 303.673 498.385C306.093 496.172 307.77 493.266 308.475 490.063C308.839 488.394 309.048 486.694 309.098 484.986C309.098 484.179 309.098 483.355 309.098 482.53C309.264 481.694 309.258 480.834 309.08 480Z" fill="#37474F"/>
<path d="M350.49 390.865C357.638 412.237 383.207 481.338 404.854 487.405C419.059 491.401 476.137 496.148 489.755 485.902C495.053 481.906 490.892 434.25 483.029 435.46C475.165 436.67 428.187 440.024 422.542 438.008C416.897 435.992 376.902 384.028 361.689 370.813C335.313 348.011 346.641 379.354 350.49 390.865Z" fill="#AD6359"/>
<path d="M396.011 403.88L363.953 439.219C363.953 439.219 345.88 389.949 344.671 373.966C343.278 355.967 352.79 359.211 365.896 370.3C379.001 381.39 396.011 403.88 396.011 403.88Z" fill="#EBEBEB"/>
<path d="M389.21 399.332C387.927 400.376 377.845 411.319 375.701 413.739C373.556 416.158 364.703 425.982 362.724 428.659C362.632 428.787 362.724 428.934 362.889 428.842C365.345 426.587 374.29 416.708 376.526 414.178C378.762 411.649 388.476 400.725 389.356 399.368C389.466 399.35 389.301 399.258 389.21 399.332Z" fill="#263238"/>
<path opacity="0.1" d="M391.547 408.807L364.053 439.216C364.053 439.216 345.98 389.947 344.77 373.964C343.909 362.728 347.3 359.758 353.165 361.83C361.853 372.516 378.973 393.319 391.547 408.807Z" fill="black"/>
<path d="M371.784 425.542L375.999 473.986C375.999 473.986 290.786 469.496 269.689 466.655C269.689 466.655 296.359 383.348 320.681 362.178C332.852 351.602 346.141 353.343 354.077 361.83C356.094 363.974 376.457 391.633 378.327 403.712C379.995 414.544 371.784 425.542 371.784 425.542Z" fill="#EBEBEB"/>
<path d="M376.017 474.001L371.783 425.539C371.783 425.539 379.995 414.541 378.364 403.819C376.531 391.74 356.167 364.081 354.132 361.936C353.384 361.124 352.576 360.37 351.713 359.682L354.902 393.096L330.451 356.438C326.872 357.685 323.598 359.678 320.846 362.285C296.523 383.4 269.836 466.761 269.836 466.761C290.75 469.529 376.017 474.001 376.017 474.001Z" fill="url(#paint26_linear_3438_13553)"/>
<path d="M277.424 440.953L373.744 447.991L373.066 440.256L279.862 433.475C279 436.059 278.194 438.57 277.424 440.953Z" fill="#EBEBEB"/>
<path d="M273.333 454.132L374.932 461.463L374.236 453.747L275.642 446.562C274.763 449.366 274.011 451.877 273.333 454.132Z" fill="#EBEBEB"/>
<path d="M367.864 424.384C363.976 423.835 360.059 423.504 356.134 423.395C354.154 423.395 352.211 423.395 350.25 423.541C349.309 423.541 348.374 423.614 347.446 423.761C346.401 423.853 345.393 424.073 344.366 424.164V424.329C345.338 424.329 346.309 424.329 347.299 424.329H350.232C352.193 424.329 354.154 424.329 356.115 424.329C360.038 424.329 363.942 424.329 367.864 424.531C368.066 424.714 368.066 424.421 367.864 424.384Z" fill="#263238"/>
<path d="M316.859 362.638C281.374 386.227 217.661 442.425 225.488 459.435C232.343 474.336 280.897 443.341 281.245 440.885C281.502 439.052 306.1 409.194 321.148 382.873C337.791 353.748 325.584 356.791 316.859 362.638Z" fill="#AD6359"/>
<path d="M304.654 418.798L261.141 399.222C261.141 399.222 302.4 366.816 317.228 360.73C333.908 353.857 333.725 363.883 327.309 379.775C320.894 395.666 304.654 418.798 304.654 418.798Z" fill="#EBEBEB"/>
<path d="M306.883 410.878C305.471 409.98 291.963 403.767 288.993 402.484C286.024 401.201 273.945 395.83 270.774 394.767C270.757 394.76 270.739 394.757 270.721 394.758C270.703 394.76 270.685 394.766 270.67 394.776C270.655 394.786 270.642 394.799 270.633 394.815C270.625 394.832 270.62 394.85 270.62 394.868C270.62 394.886 270.625 394.904 270.633 394.92C270.642 394.936 270.655 394.95 270.67 394.96C270.685 394.97 270.703 394.976 270.721 394.977C270.739 394.979 270.757 394.976 270.774 394.969C273.67 396.618 285.822 402.062 288.828 403.437C291.834 404.811 305.325 410.658 306.901 411.098C306.938 411.153 306.974 410.97 306.883 410.878Z" fill="#263238"/>
<path d="M345.201 328.805C344.651 323.984 330.813 305.801 313.125 316.469C295.712 326.99 305.023 357.105 326.175 354.117C340.381 352.119 346.411 339.069 345.201 328.805Z" fill="#263238"/>
<path d="M337.497 357.267C337.497 359.1 342.813 372.737 350.951 374.478C353.59 375.028 357.311 360.713 357.311 360.713L357.824 359.723L365.028 345.793L350.584 330.067L348.458 327.94C348.458 327.94 346.735 331.881 344.645 336.793C344.554 337.032 344.444 337.252 344.352 337.508C344.261 337.765 344.096 338.04 344.004 338.296C343.674 339.03 343.344 339.781 343.033 340.533C342.721 341.284 342.574 341.651 342.336 342.274L341.639 344.107C339.947 348.389 338.562 352.787 337.497 357.267Z" fill="#AD6359"/>
<path d="M365.016 345.793L358.088 359.173C350.853 354.27 345.811 346.743 344.029 338.186L344.634 336.793L348.447 327.94L350.573 330.067L365.016 345.793Z" fill="#263238"/>
<path d="M390.123 327.188C386.036 354.389 369.283 355.012 363.418 354.132C358.102 353.326 340.066 349.916 341.313 322.422C342.559 294.929 356.489 288.238 368.806 289.43C381.124 290.621 394.192 299.969 390.123 327.188Z" fill="#AD6359"/>
<path d="M385.568 320.826C384.963 320.624 384.431 320.331 383.826 320.074C383.183 319.883 382.618 319.491 382.213 318.956C382.12 318.761 382.092 318.541 382.135 318.33C382.178 318.118 382.289 317.926 382.452 317.783C382.823 317.562 383.247 317.445 383.68 317.445C384.112 317.445 384.536 317.562 384.908 317.783C385.738 318.092 386.428 318.691 386.851 319.469C386.917 319.652 386.931 319.848 386.891 320.038C386.852 320.228 386.76 320.403 386.627 320.543C386.494 320.684 386.325 320.785 386.138 320.835C385.95 320.885 385.753 320.882 385.568 320.826Z" fill="#263238"/>
<path d="M367.397 318.203C368.057 318.203 368.662 318.203 369.23 318.203C369.902 318.292 370.585 318.156 371.173 317.818C371.333 317.673 371.442 317.481 371.485 317.27C371.528 317.059 371.502 316.84 371.411 316.645C371.162 316.29 370.825 316.007 370.432 315.823C370.04 315.64 369.606 315.563 369.175 315.6C368.292 315.55 367.423 315.831 366.737 316.388C366.584 316.527 366.477 316.709 366.428 316.91C366.378 317.111 366.39 317.322 366.46 317.516C366.531 317.71 366.658 317.879 366.824 318.001C366.991 318.123 367.19 318.194 367.397 318.203Z" fill="#263238"/>
<path d="M370.077 324.311C370.077 324.311 369.912 324.311 369.912 324.439C369.619 326.272 368.996 328.38 367.218 328.691V328.783C369.307 328.875 370.114 326.107 370.077 324.311Z" fill="#263238"/>
<path d="M368.782 322.093C365.868 321.323 364.548 327.225 367.261 327.921C369.973 328.618 371.238 322.734 368.782 322.093Z" fill="#263238"/>
<path d="M367.55 322.13C366.964 322.35 366.322 322.826 365.717 322.753C365.112 322.679 364.581 321.928 364.233 321.231C364.233 321.231 364.141 321.231 364.123 321.231C363.908 321.751 363.901 322.333 364.102 322.858C364.303 323.383 364.697 323.811 365.204 324.054C366.267 324.457 367.294 323.633 367.825 322.57C367.898 322.405 367.733 322.056 367.55 322.13Z" fill="#263238"/>
<path d="M380.947 326.034C380.947 326.034 381.075 326.162 381.057 326.236C380.617 328.069 380.415 330.213 381.937 331.166C381.937 331.166 381.937 331.295 381.937 331.276C379.939 330.562 380.232 327.702 380.947 326.034Z" fill="#263238"/>
<path d="M382.998 324.474C385.985 324.877 384.977 330.834 382.191 330.468C379.405 330.101 380.56 324.144 382.998 324.474Z" fill="#263238"/>
<path d="M384.234 325.082C384.637 325.467 385.022 326.127 385.572 326.255C386.122 326.383 386.8 325.852 387.405 325.302C387.405 325.302 387.497 325.302 387.405 325.302C387.258 326.457 386.672 327.575 385.572 327.612C384.472 327.648 383.978 326.53 383.904 325.357C383.794 325.21 384.014 324.917 384.234 325.082Z" fill="#263238"/>
<path d="M369.562 334.46C369.917 335.229 370.425 335.919 371.055 336.486C371.685 337.053 372.425 337.486 373.227 337.759C373.945 337.993 374.691 338.129 375.445 338.162H376.288C376.384 338.156 376.476 338.119 376.549 338.056C376.622 337.993 376.672 337.908 376.692 337.814C376.7 337.753 376.7 337.691 376.692 337.631V337.466C376.912 336.073 377.058 333.928 377.058 333.928C377.535 334.258 379.991 335.761 380.046 335.046C380.733 328.719 380.77 322.337 380.156 316.002C380.144 315.965 380.12 315.933 380.089 315.911C380.058 315.888 380.02 315.876 379.982 315.876C379.943 315.876 379.905 315.888 379.874 315.911C379.843 315.933 379.82 315.965 379.808 316.002C379.148 321.849 379.514 327.769 378.946 333.653C378.081 333.086 377.136 332.654 376.142 332.37C375.94 332.37 375.94 336.513 375.775 337.136C374.615 337.096 373.474 336.823 372.422 336.331C371.37 335.84 370.428 335.141 369.653 334.276C369.562 334.203 369.397 334.295 369.562 334.46Z" fill="#263238"/>
<path d="M375.055 337.874C374.078 338.773 372.884 339.405 371.591 339.707C370.882 339.85 370.147 339.774 369.483 339.487C368.053 338.827 368.255 337.434 368.731 336.297C368.991 335.691 369.323 335.119 369.721 334.593C371.104 336.227 372.973 337.376 375.055 337.874Z" fill="#263238"/>
<path d="M371.591 339.726C370.882 339.869 370.147 339.793 369.483 339.506C368.053 338.846 368.255 337.453 368.731 336.316C369.516 336.492 370.221 336.922 370.738 337.538C371.254 338.154 371.554 338.922 371.591 339.726Z" fill="#FF9BBC"/>
<path d="M343.121 324.566C348.858 325.445 351.277 312.248 351.277 312.248C351.277 312.248 361.248 312.028 366.326 306.071C366.326 306.071 362.66 311.369 358.536 313.11C357.839 313.385 377.8 314.668 382.126 299.766C382.126 299.766 382.565 315.254 391.015 319.818C391.418 320.038 391.95 305.925 389.586 302.241C388.234 300.1 386.614 298.141 384.765 296.412C379.612 290.997 372.533 287.829 365.061 287.595C352.707 287.357 342.718 298.85 340.958 303.963C337.457 313.99 340.408 324.144 343.121 324.566Z" fill="#263238"/>
<path d="M359.094 313.531C369.89 314.851 379.531 309.352 382.226 298.446C382.226 298.383 382.251 298.322 382.295 298.278C382.34 298.233 382.401 298.208 382.464 298.208C382.527 298.208 382.588 298.233 382.632 298.278C382.677 298.322 382.702 298.383 382.702 298.446C382.317 309.902 368.992 316.134 358.966 313.641C358.728 313.733 358.856 313.495 359.094 313.531Z" fill="#263238"/>
<path d="M343.243 323.942C349.548 321.908 351.418 316.171 352.848 310.25C352.859 310.218 352.88 310.19 352.908 310.17C352.936 310.15 352.969 310.14 353.003 310.14C353.038 310.14 353.071 310.15 353.099 310.17C353.127 310.19 353.148 310.218 353.159 310.25C352.279 316.134 350.043 323.081 343.371 324.419C343.321 324.409 343.274 324.385 343.237 324.35C343.199 324.315 343.172 324.27 343.159 324.221C343.146 324.171 343.146 324.119 343.161 324.069C343.176 324.02 343.204 323.976 343.243 323.942Z" fill="#263238"/>
<path d="M382.591 297.496H382.701C382.994 303.911 381.546 314.414 389.153 317.292C389.183 317.315 389.206 317.347 389.218 317.384C389.229 317.42 389.229 317.46 389.217 317.496C389.204 317.533 389.181 317.565 389.15 317.587C389.119 317.61 389.081 317.622 389.043 317.622C381.509 315.569 380.721 303.765 382.591 297.496Z" fill="#263238"/>
<path d="M364.571 333.214C363.091 332.773 361.764 331.925 360.741 330.767C359.719 329.609 359.042 328.187 358.789 326.663C358.535 325.139 358.714 323.575 359.306 322.148C359.899 320.721 360.879 319.489 362.137 318.592C363.395 317.696 364.88 317.17 366.422 317.076C367.964 316.982 369.501 317.322 370.859 318.059C372.217 318.796 373.34 319.899 374.102 321.244C374.863 322.588 375.232 324.119 375.166 325.662C375.075 327.847 374.121 329.907 372.512 331.388C370.903 332.87 368.772 333.652 366.587 333.562C365.903 333.531 365.226 333.414 364.571 333.214ZM368.97 318.551C368.376 318.369 367.759 318.271 367.137 318.257C365.323 318.206 363.556 318.846 362.197 320.049C360.837 321.252 359.986 322.928 359.817 324.735C359.647 326.542 360.172 328.347 361.284 329.782C362.396 331.217 364.012 332.175 365.805 332.461C367.597 332.748 369.432 332.342 370.936 331.326C372.44 330.31 373.501 328.759 373.904 326.989C374.307 325.219 374.021 323.362 373.105 321.795C372.189 320.227 370.71 319.068 368.97 318.551Z" fill="url(#paint27_linear_3438_13553)"/>
<path d="M383.212 336.383C380.188 335.485 378.373 331.562 379.125 327.328C379.441 325.297 380.391 323.418 381.837 321.958C382.418 321.292 383.161 320.788 383.994 320.494C384.827 320.2 385.722 320.126 386.592 320.279C387.462 320.432 388.278 320.807 388.961 321.367C389.643 321.928 390.17 322.655 390.489 323.479C391.354 325.345 391.604 327.437 391.204 329.454C390.415 333.927 387.08 337.098 383.744 336.511L383.212 336.383ZM386.878 321.463C386.746 321.418 386.611 321.381 386.475 321.353C385.774 321.267 385.063 321.348 384.401 321.59C383.738 321.832 383.142 322.228 382.662 322.746C381.391 324.055 380.558 325.727 380.279 327.53C379.601 331.397 381.251 334.953 383.945 335.43C386.64 335.906 389.444 333.139 390.141 329.253C390.485 327.465 390.267 325.615 389.517 323.956C389.266 323.373 388.895 322.849 388.427 322.42C387.96 321.99 387.407 321.664 386.805 321.463H386.878Z" fill="url(#paint28_linear_3438_13553)"/>
<path d="M374.74 326.564L374.19 325.593C375.602 324.786 378.699 323.888 380.294 326.363L379.378 326.968C377.948 324.732 374.869 326.564 374.74 326.564Z" fill="url(#paint29_linear_3438_13553)"/>
<path d="M339.74 322.9L338.86 322.24C339.172 321.819 341.976 318.244 344.469 318.263C346.962 318.281 359.554 321.635 360.159 321.8L359.866 322.863C354.795 321.423 349.649 320.26 344.451 319.381C342.801 319.326 340.492 321.892 339.74 322.9Z" fill="url(#paint30_linear_3438_13553)"/>
<path d="M345.292 325.168C345.292 325.168 341.461 315.417 337.172 316.59C332.883 317.763 334.368 330.924 338.419 333.636C338.914 334.022 339.483 334.304 340.09 334.465C340.698 334.625 341.331 334.661 341.953 334.571C342.574 334.48 343.171 334.264 343.707 333.937C344.244 333.609 344.708 333.177 345.072 332.665L345.292 325.168Z" fill="#AD6359"/>
<path d="M341.805 333.169C341.722 333.519 341.503 333.822 341.198 334.011C340.892 334.2 340.523 334.26 340.173 334.177C339.999 334.139 339.834 334.065 339.688 333.962C339.542 333.858 339.419 333.727 339.325 333.575C339.231 333.422 339.168 333.253 339.141 333.076C339.113 332.9 339.122 332.72 339.165 332.546C339.255 332.203 339.475 331.909 339.778 331.727C340.082 331.544 340.444 331.487 340.789 331.569C341.134 331.65 341.433 331.863 341.623 332.162C341.813 332.461 341.878 332.823 341.805 333.169Z" fill="white"/>
<path d="M393.225 310.819C393.225 310.819 394.875 279.458 366.904 277.826C338.934 276.195 336.808 307.465 336.808 307.465L393.225 310.819Z" fill="url(#paint31_linear_3438_13553)"/>
<path d="M334.567 309.495L395.181 313.16L395.449 308.714L334.835 305.049L334.567 309.495Z" fill="url(#paint32_linear_3438_13553)"/>
<path d="M365.609 306.915L378.22 307.685L377.12 276.763L364.491 276.012L365.609 306.915Z" fill="url(#paint33_linear_3438_13553)"/>
<path opacity="0.1" d="M365.609 306.915L378.22 307.685L377.12 276.763L364.491 276.012L365.609 306.915Z" fill="black"/>
<path d="M446.858 515.06L478.109 452.576L507.381 395.938L472.482 394.655L427.722 407.156L383.842 393.226L345.149 394.802L306.565 515.372L342.417 514.785L383.732 524.591L420.244 514.785L446.858 515.06Z" fill="#EBEBEB"/>
<path d="M420.248 514.793L472.487 394.663L427.727 407.164L383.736 524.599L420.248 514.793Z" fill="#DBDBDB"/>
<path d="M342.417 514.785L383.842 393.226L345.149 394.802L306.565 515.372L342.417 514.785Z" fill="#DBDBDB"/>
<path d="M490.978 434.963C492.811 442.148 499.135 451.862 498.75 457.361C498.701 458.725 498.215 460.036 497.363 461.102C496.512 462.169 495.34 462.933 494.021 463.282C494.021 463.282 498.878 466.947 497.687 471.933C497.082 474.481 492.499 475.727 492.499 475.727C493.552 476.631 494.336 477.806 494.766 479.125C495.196 480.444 495.255 481.855 494.937 483.206C493.874 486.651 489.438 487.403 489.438 487.403C489.438 487.403 491.638 492.114 489.438 495.285C484.966 501.7 454.613 495.834 452.047 483.737C450.874 478.092 458.205 479.925 458.205 479.925C458.205 479.925 448.289 474.737 449.334 468.45C450.379 462.164 459.782 465.115 459.782 465.115C459.782 465.115 450.214 460.001 451.955 453.567C453.696 447.134 462.678 451.459 462.678 451.459C462.678 451.459 456.794 445.576 459.268 440.975C463.319 433.368 474.152 446.015 481.135 445.722L486.964 435.421L490.978 434.963Z" fill="#AD6359"/>
<path d="M495.224 445.7C494.051 438.735 503.656 432.265 503.509 425.446C503.289 416.281 491.65 422.972 487.013 435.417L485.033 445.7H495.224Z" fill="#AD6359"/>
<path d="M488.693 487.624C488.803 487.624 488.803 487.789 488.693 487.789C477.817 488.357 467.026 485.602 457.754 479.889C457.46 479.688 457.644 479.138 457.992 479.284C467.769 483.534 478.11 486.343 488.693 487.624Z" fill="#263238"/>
<path d="M492.629 475.819C492.739 475.819 492.72 476.039 492.629 476.039C480.619 476.564 468.82 472.759 459.379 465.316C459.049 465.041 459.031 464.473 459.379 464.766C466.07 469.532 482.676 474.774 492.629 475.819Z" fill="#263238"/>
<path d="M462.165 450.688C471.458 457.855 482.125 461.319 493.581 463.317C493.728 463.317 493.581 463.556 493.581 463.556C487.716 464.105 480.531 462.089 475.087 460.036C469.996 458.215 465.467 455.101 461.945 451C461.78 450.835 461.963 450.523 462.165 450.688Z" fill="#263238"/>
<path d="M225.734 460.371C233.854 469.114 245.713 474.888 288.823 478.352C295.348 478.865 307.042 431.576 300.096 430.843C291.316 429.908 264.207 426.37 261.604 426.554C240.434 428.167 220.217 454.469 225.734 460.371Z" fill="#AD6359"/>
<path d="M357.786 437.623C358.147 439.121 358.041 440.694 357.48 442.13C356.92 443.565 355.932 444.794 354.651 445.651C356.58 447.419 357.831 449.805 358.189 452.396C358.592 456.997 351.554 459.636 351.554 459.636C353.172 461.89 354.073 464.579 354.138 467.353C354.138 471.789 347.375 475.473 347.375 475.473C347.726 478.359 347.023 481.275 345.395 483.684C340.776 489.935 328.899 489.037 321.402 488.542C313.906 488.047 292.973 479.579 288.831 478.369L291.599 429.998C291.599 429.998 326.021 422.666 334.801 424.499C342.188 426.002 356.209 431.941 357.786 437.623Z" fill="#AD6359"/>
<path d="M354.353 444.846C346.893 441.308 338.791 440.172 330.781 438.577C330.743 438.577 330.705 438.593 330.678 438.62C330.65 438.648 330.635 438.685 330.635 438.724C330.635 438.763 330.65 438.8 330.678 438.827C330.705 438.855 330.743 438.87 330.781 438.87C338.773 440.355 346.361 443.416 354.298 445.231C354.342 445.225 354.382 445.205 354.414 445.174C354.445 445.143 354.466 445.103 354.472 445.059C354.478 445.015 354.47 444.971 354.448 444.932C354.427 444.894 354.393 444.863 354.353 444.846Z" fill="#263238"/>
<path d="M351.444 458.988C349.671 458.348 347.823 457.941 345.945 457.778L340.006 457.009C336.047 456.569 332.051 456.202 328.074 455.964C327.891 455.964 327.836 456.22 328.074 456.239C332.033 456.697 335.974 457.21 339.915 457.833C341.882 458.139 343.843 458.469 345.798 458.823C347.631 459.256 349.506 459.489 351.389 459.52C351.45 459.511 351.506 459.483 351.549 459.439C351.592 459.394 351.619 459.337 351.625 459.276C351.631 459.214 351.617 459.153 351.584 459.1C351.551 459.048 351.502 459.009 351.444 458.988Z" fill="#263238"/>
<path d="M347.206 475.433C345.595 474.886 343.903 474.614 342.202 474.626L336.703 474.095C333.037 473.71 329.371 473.325 325.852 472.83C325.669 472.83 325.614 473.087 325.852 473.105C329.518 473.637 333.184 474.223 336.85 474.718L342.257 475.415C343.882 475.774 345.557 475.842 347.206 475.616C347.206 475.616 347.279 475.469 347.206 475.433Z" fill="#263238"/>
<path d="M246.757 431.411C249.916 429.175 253.515 427.638 257.314 426.902C261.109 426.106 264.998 425.865 268.862 426.187C272.695 426.439 276.512 426.885 280.299 427.525C284.087 428.145 287.838 428.971 291.535 429.999C287.723 429.614 283.929 429.138 280.134 428.698C276.34 428.258 272.564 427.818 268.77 427.433C265.005 427.03 261.203 427.122 257.461 427.708C253.697 428.281 250.07 429.535 246.757 431.411Z" fill="#263238"/>
</g>
<defs>
<linearGradient id="paint0_linear_3438_13553" x1="299.448" y1="593.409" x2="517.543" y2="138.952" gradientUnits="userSpaceOnUse">
<stop stop-color="#00EB87"/>
<stop offset="1" stop-color="#0066A6"/>
</linearGradient>
<linearGradient id="paint1_linear_3438_13553" x1="299.448" y1="636.188" x2="317.466" y2="492.427" gradientUnits="userSpaceOnUse">
<stop stop-color="#00EB87"/>
<stop offset="1" stop-color="#0066A6"/>
</linearGradient>
<linearGradient id="paint2_linear_3438_13553" x1="751.865" y1="272.829" x2="886.096" y2="272.829" gradientUnits="userSpaceOnUse">
<stop stop-color="#00EB87"/>
<stop offset="1" stop-color="#0066A6"/>
</linearGradient>
<linearGradient id="paint3_linear_3438_13553" x1="886.096" y1="270.48" x2="644.745" y2="270.48" gradientUnits="userSpaceOnUse">
<stop stop-color="#00EB87"/>
<stop offset="1" stop-color="#0066A6"/>
</linearGradient>
<linearGradient id="paint4_linear_3438_13553" x1="699.292" y1="287.156" x2="810.113" y2="287.156" gradientUnits="userSpaceOnUse">
<stop stop-color="#00EB87"/>
<stop offset="1" stop-color="#0066A6"/>
</linearGradient>
<linearGradient id="paint5_linear_3438_13553" x1="644.725" y1="330.023" x2="886.075" y2="330.023" gradientUnits="userSpaceOnUse">
<stop stop-color="#00EB87"/>
<stop offset="1" stop-color="#0066A6"/>
</linearGradient>
<linearGradient id="paint6_linear_3438_13553" x1="674.213" y1="244.287" x2="705.929" y2="231.247" gradientUnits="userSpaceOnUse">
<stop stop-color="#00EB87"/>
<stop offset="1" stop-color="#0066A6"/>
</linearGradient>
<linearGradient id="paint7_linear_3438_13553" x1="644.725" y1="381.096" x2="886.075" y2="381.096" gradientUnits="userSpaceOnUse">
<stop stop-color="#00EB87"/>
<stop offset="1" stop-color="#0066A6"/>
</linearGradient>
<linearGradient id="paint8_linear_3438_13553" x1="290.891" y1="208.532" x2="610.399" y2="208.532" gradientUnits="userSpaceOnUse">
<stop stop-color="#00EB87"/>
<stop offset="1" stop-color="#0066A6"/>
</linearGradient>
<linearGradient id="paint9_linear_3438_13553" x1="613.024" y1="421.489" x2="478.879" y2="421.489" gradientUnits="userSpaceOnUse">
<stop stop-color="#00EB87"/>
<stop offset="1" stop-color="#0066A6"/>
</linearGradient>
<linearGradient id="paint10_linear_3438_13553" x1="516.653" y1="423.16" x2="613.027" y2="423.16" gradientUnits="userSpaceOnUse">
<stop stop-color="#00EB87"/>
<stop offset="1" stop-color="#0066A6"/>
</linearGradient>
<linearGradient id="paint11_linear_3438_13553" x1="478.897" y1="433.457" x2="558.465" y2="433.457" gradientUnits="userSpaceOnUse">
<stop stop-color="#00EB87"/>
<stop offset="1" stop-color="#0066A6"/>
</linearGradient>
<linearGradient id="paint12_linear_3438_13553" x1="478.897" y1="464.227" x2="613.043" y2="464.227" gradientUnits="userSpaceOnUse">
<stop stop-color="#00EB87"/>
<stop offset="1" stop-color="#0066A6"/>
</linearGradient>
<linearGradient id="paint13_linear_3438_13553" x1="494.19" y1="395.805" x2="519.994" y2="395.805" gradientUnits="userSpaceOnUse">
<stop stop-color="#00EB87"/>
<stop offset="1" stop-color="#0066A6"/>
</linearGradient>
<linearGradient id="paint14_linear_3438_13553" x1="818.127" y1="644.909" x2="906.437" y2="644.909" gradientUnits="userSpaceOnUse">
<stop stop-color="#00EB87"/>
<stop offset="1" stop-color="#0066A6"/>
</linearGradient>
<linearGradient id="paint15_linear_3438_13553" x1="951.881" y1="627.622" x2="1030.91" y2="627.622" gradientUnits="userSpaceOnUse">
<stop stop-color="#00EB87"/>
<stop offset="1" stop-color="#0066A6"/>
</linearGradient>
<linearGradient id="paint16_linear_3438_13553" x1="542.959" y1="501.387" x2="730.609" y2="501.387" gradientUnits="userSpaceOnUse">
<stop stop-color="#00EB87"/>
<stop offset="1" stop-color="#0066A6"/>
</linearGradient>
<linearGradient id="paint17_linear_3438_13553" x1="527.504" y1="511.339" x2="832.923" y2="511.339" gradientUnits="userSpaceOnUse">
<stop stop-color="#00EB87"/>
<stop offset="1" stop-color="#0066A6"/>
</linearGradient>
<linearGradient id="paint18_linear_3438_13553" x1="764.919" y1="475.131" x2="515.118" y2="522.647" gradientUnits="userSpaceOnUse">
<stop stop-color="#00EB87"/>
<stop offset="1" stop-color="#0066A6"/>
</linearGradient>
<linearGradient id="paint19_linear_3438_13553" x1="522.512" y1="529.681" x2="758.885" y2="529.681" gradientUnits="userSpaceOnUse">
<stop stop-color="#00EB87"/>
<stop offset="1" stop-color="#0066A6"/>
</linearGradient>
<linearGradient id="paint20_linear_3438_13553" x1="550.041" y1="519.458" x2="855.46" y2="519.458" gradientUnits="userSpaceOnUse">
<stop stop-color="#00EB87"/>
<stop offset="1" stop-color="#0066A6"/>
</linearGradient>
<linearGradient id="paint21_linear_3438_13553" x1="879.989" y1="327.851" x2="944.309" y2="327.851" gradientUnits="userSpaceOnUse">
<stop stop-color="#00EB87"/>
<stop offset="1" stop-color="#0066A6"/>
</linearGradient>
<linearGradient id="paint22_linear_3438_13553" x1="859.015" y1="331.98" x2="869.218" y2="331.98" gradientUnits="userSpaceOnUse">
<stop stop-color="#00EB87"/>
<stop offset="1" stop-color="#0066A6"/>
</linearGradient>
<linearGradient id="paint23_linear_3438_13553" x1="847.014" y1="231.497" x2="881.738" y2="231.497" gradientUnits="userSpaceOnUse">
<stop stop-color="#00EB87"/>
<stop offset="1" stop-color="#0066A6"/>
</linearGradient>
<linearGradient id="paint24_linear_3438_13553" x1="845.739" y1="241.48" x2="883.04" y2="240.028" gradientUnits="userSpaceOnUse">
<stop stop-color="#00EB87"/>
<stop offset="1" stop-color="#0066A6"/>
</linearGradient>
<linearGradient id="paint25_linear_3438_13553" x1="856.279" y1="230.12" x2="865.143" y2="230.12" gradientUnits="userSpaceOnUse">
<stop stop-color="#00EB87"/>
<stop offset="1" stop-color="#0066A6"/>
</linearGradient>
<linearGradient id="paint26_linear_3438_13553" x1="269.836" y1="415.219" x2="378.578" y2="415.219" gradientUnits="userSpaceOnUse">
<stop stop-color="#00EB87"/>
<stop offset="1" stop-color="#0066A6"/>
</linearGradient>
<linearGradient id="paint27_linear_3438_13553" x1="358.677" y1="325.315" x2="375.173" y2="325.315" gradientUnits="userSpaceOnUse">
<stop stop-color="#00EB87"/>
<stop offset="1" stop-color="#0066A6"/>
</linearGradient>
<linearGradient id="paint28_linear_3438_13553" x1="378.955" y1="328.391" x2="391.389" y2="328.391" gradientUnits="userSpaceOnUse">
<stop stop-color="#00EB87"/>
<stop offset="1" stop-color="#0066A6"/>
</linearGradient>
<linearGradient id="paint29_linear_3438_13553" x1="374.19" y1="325.857" x2="380.294" y2="325.857" gradientUnits="userSpaceOnUse">
<stop stop-color="#00EB87"/>
<stop offset="1" stop-color="#0066A6"/>
</linearGradient>
<linearGradient id="paint30_linear_3438_13553" x1="338.86" y1="320.581" x2="360.159" y2="320.581" gradientUnits="userSpaceOnUse">
<stop stop-color="#00EB87"/>
<stop offset="1" stop-color="#0066A6"/>
</linearGradient>
<linearGradient id="paint31_linear_3438_13553" x1="336.808" y1="294.292" x2="393.243" y2="294.292" gradientUnits="userSpaceOnUse">
<stop stop-color="#00EB87"/>
<stop offset="1" stop-color="#0066A6"/>
</linearGradient>
<linearGradient id="paint32_linear_3438_13553" x1="395.315" y1="310.937" x2="334.701" y2="307.272" gradientUnits="userSpaceOnUse">
<stop stop-color="#00EB87"/>
<stop offset="1" stop-color="#0066A6"/>
</linearGradient>
<linearGradient id="paint33_linear_3438_13553" x1="364.491" y1="291.848" x2="378.22" y2="291.848" gradientUnits="userSpaceOnUse">
<stop stop-color="#00EB87"/>
<stop offset="1" stop-color="#0066A6"/>
</linearGradient>
</defs>
</svg>
