<svg width="320" height="334" viewBox="0 0 320 334" fill="none"
    xmlns="http://www.w3.org/2000/svg">
    <path d="M124.568 238.284L119.605 238.278L119.543 289.445L124.505 289.451L124.568 238.284Z" fill="#44244C"/>
    <path d="M126.409 275.368L117.387 275.255L118.778 263.121L125.958 263.384L126.409 275.368Z" fill="#715977"/>
    <path d="M129.83 290.132L114.078 289.869L115.733 272.776L128.176 271.874L129.83 290.132Z" fill="#44244C"/>
    <path d="M114.806 166.442L101.047 166.426L100.983 218.081L114.743 218.098L114.806 166.442Z" fill="#44244C"/>
    <path d="M162.838 214.809L96.7097 214.697C82.9125 214.697 75.356 220.031 75.356 226.681V227.545C75.356 234.157 80.6944 239.566 91.7472 239.566H107.8L162.801 239.679C169.418 239.679 174.794 234.345 174.831 227.695V226.831C174.831 220.219 169.493 214.847 162.838 214.809Z" fill="#0065A6"/>
    <path d="M131.748 196.626H118.514C96.0329 196.589 77.8748 178.369 77.8748 155.903L77.9499 109.132V100.003C77.9875 77.5372 96.2209 59.3921 118.702 59.3921H131.936C154.417 59.4297 172.575 77.6499 172.575 100.115L172.5 156.016C172.5 178.481 154.229 196.626 131.785 196.626H131.748Z" fill="#0065A6"/>
    <g style="mix-blend-mode:soft-light" opacity="0.66">
        <path d="M118.703 197.603H113.89C98.9278 197.603 86.7848 185.431 86.8224 170.479V152.334L86.8599 131.747C86.8599 116.795 99.0406 104.661 114.003 104.699H118.815C133.778 104.699 145.921 116.87 145.883 131.822V170.555C145.808 185.506 133.665 197.641 118.665 197.603H118.703Z" fill="#44244C"/>
    </g>
    <path d="M168.628 325.107H165.658C165.658 306.473 150.545 291.296 131.86 291.258H110.958C92.311 291.221 77.1228 306.361 77.0852 324.994H74.1152C74.1152 304.708 90.6568 288.215 110.958 288.253H131.86C152.162 288.291 168.666 304.82 168.628 325.107Z" fill="#715977"/>
    <path d="M82.0852 322.515C82.0852 319.209 79.416 316.542 76.1077 316.542C72.7993 316.542 70.1301 319.209 70.1301 322.515C70.1301 325.821 72.7993 328.488 76.1077 328.488C79.416 328.488 82.0852 325.821 82.0852 322.515Z" fill="#44244C"/>
    <path d="M173.102 322.628C173.102 319.322 170.433 316.655 167.124 316.655C163.816 316.655 161.147 319.322 161.147 322.628C161.147 325.934 163.816 328.601 167.124 328.601C170.433 328.601 173.102 325.934 173.102 322.628Z" fill="#44244C"/>
    <path d="M119.955 290.778L119.913 325.078L122.883 325.081L122.925 290.782L119.955 290.778Z" fill="#715977"/>
    <path d="M127.838 322.59C127.838 319.284 125.169 316.617 121.861 316.617C118.552 316.617 115.883 319.284 115.883 322.59C115.883 325.896 118.552 328.564 121.861 328.564C125.169 328.564 127.838 325.896 127.838 322.59Z" fill="#44244C"/>
    <path d="M156.334 295.016C155.207 296.444 147.763 304.333 147.161 305.235L146.861 305.986L149.154 316.73C149.643 316.73 152.425 322.967 152.65 323.568C152.838 324.169 152.387 324.995 151.748 324.92C151.522 324.92 151.334 324.77 151.146 324.657C151.034 324.582 150.883 324.469 150.77 324.394V324.469L149.868 323.718C149.004 323.042 148.064 322.29 147.161 321.539L126.71 302.38C126.71 302.38 139.868 286.376 144.116 280.778" fill="#FAB196"/>
    <path d="M127.387 301.439C127.387 301.439 135.094 309.855 144.379 315.377L149.004 315.302C149.004 315.302 154.944 322.891 159.154 331.982C159.154 331.982 146.898 326.084 139.041 319.509C131.184 312.935 124.304 306.135 124.304 306.135L127.387 301.477V301.439Z" fill="#182138"/>
    <path d="M279.156 112.212C280.359 112.475 281.035 112.4 281.862 111.536C282.727 110.672 284.757 108.831 283.441 107.854C282.126 106.915 281.261 109.207 280.171 109.883C280.359 109.094 280.396 108.268 280.283 107.479C280.246 107.103 280.058 106.652 279.682 106.615C279.306 106.615 279.08 106.99 278.93 107.329C278.592 108.117 278.253 108.944 277.915 109.733C277.877 108.944 277.539 108.155 276.975 107.554C276.712 107.291 276.374 107.066 275.998 107.141C275.584 107.216 275.359 107.667 275.246 108.08C274.644 110.447 276.562 113.114 278.968 113.302" fill="#FF5473"/>
    <path d="M280.923 147.187C284.344 139.937 287.051 132.874 287.389 124.872C287.577 121.002 286.412 115.705 283.404 113.264C280.284 110.709 275.396 111.423 272.276 113.94C269.156 116.494 267.539 120.439 266.637 124.346C264.644 132.836 266.938 143.543 272.426 150.268C273.404 151.47 273.329 151.47 274.795 151.921C276.261 152.371 278.103 151.921 278.855 150.606" fill="#182138"/>
    <path d="M276.75 111.348C272.577 115.105 271.298 121.679 270.772 127.014C270.095 133.964 271.374 140.613 273.592 147.188C274.005 148.39 275.96 147.902 275.547 146.662C273.441 140.463 272.201 134.227 272.727 127.653C272.953 124.91 273.441 122.168 274.306 119.538C275.096 117.059 276.223 114.579 278.178 112.776C279.156 111.912 277.727 110.484 276.75 111.348Z" fill="#F7F1F3"/>
    <path d="M279.419 112.324C283.141 122.655 280.321 134.264 277.276 144.407C276.9 145.647 278.855 146.173 279.231 144.933C282.389 134.452 285.209 122.468 281.374 111.798C280.923 110.596 279.005 111.122 279.419 112.324Z" fill="#F7F1F3"/>
    <path d="M265.659 145.309L267.877 159.773H283.592L287.05 144.971L265.659 145.309Z" fill="#FF5473"/>
    <path d="M263.178 140.576H288.968C289.344 140.576 289.645 140.952 289.532 141.327L287.953 147.376C287.878 147.639 287.652 147.826 287.352 147.826L264.682 147.038C264.419 147.038 264.193 146.85 264.118 146.624L262.577 141.365C262.464 140.989 262.765 140.614 263.141 140.614L263.178 140.576Z" fill="#FF5473"/>
    <g style="mix-blend-mode:soft-light" opacity="0.3">
        <path d="M286.111 147.901L265.81 147.074L285.472 151.808L286.111 147.901Z" fill="black"/>
    </g>
    <path d="M271.298 116.645C271.223 116.908 271.148 117.171 271.11 117.434C271.073 117.585 271.073 117.697 271.11 117.848C271.11 117.998 271.148 118.111 271.223 118.223C271.298 118.336 271.374 118.449 271.486 118.524C271.599 118.599 271.712 118.674 271.825 118.712H272.088C272.088 118.712 272.426 118.712 272.577 118.599L272.765 118.449C272.765 118.449 272.99 118.186 273.028 117.998C273.103 117.735 273.178 117.472 273.216 117.209C273.253 117.059 273.253 116.946 273.216 116.796C273.216 116.645 273.178 116.533 273.103 116.42C273.028 116.307 272.953 116.195 272.84 116.119C272.727 116.044 272.614 115.969 272.501 115.932H272.238C272.238 115.932 271.9 115.932 271.75 116.044L271.562 116.195C271.562 116.195 271.336 116.458 271.298 116.645Z" fill="#F7F1F3"/>
    <path d="M269.269 129.118C269.269 129.381 269.231 129.644 269.193 129.907C269.193 130.057 269.193 130.17 269.269 130.283C269.306 130.395 269.381 130.508 269.494 130.621C269.569 130.734 269.682 130.771 269.832 130.846C269.945 130.921 270.096 130.921 270.208 130.921H270.472C270.472 130.921 270.772 130.734 270.923 130.621L271.073 130.433C271.073 130.433 271.223 130.095 271.223 129.945C271.223 129.682 271.261 129.419 271.299 129.156C271.299 129.005 271.299 128.893 271.223 128.78C271.186 128.667 271.111 128.555 270.998 128.442C270.923 128.329 270.81 128.292 270.66 128.216C270.547 128.141 270.396 128.141 270.284 128.141H270.02C270.02 128.141 269.72 128.329 269.569 128.442L269.419 128.63C269.419 128.63 269.269 128.968 269.269 129.118Z" fill="#F7F1F3"/>
    <path d="M277.239 122.731C277.239 122.994 277.201 123.257 277.163 123.52C277.163 123.671 277.163 123.783 277.239 123.896C277.276 124.009 277.351 124.121 277.464 124.234C277.539 124.347 277.652 124.384 277.802 124.459C277.915 124.535 278.066 124.535 278.178 124.535H278.442C278.442 124.535 278.742 124.347 278.893 124.234L279.043 124.046C279.043 124.046 279.193 123.708 279.193 123.558C279.193 123.295 279.231 123.032 279.269 122.769C279.269 122.619 279.269 122.506 279.193 122.393C279.156 122.281 279.081 122.168 278.968 122.055C278.893 121.942 278.78 121.905 278.63 121.83C278.517 121.755 278.366 121.755 278.254 121.755H277.99C277.99 121.755 277.69 121.942 277.539 122.055L277.389 122.243C277.389 122.243 277.239 122.581 277.239 122.731Z" fill="#F7F1F3"/>
    <path d="M268.328 121.867C268.216 122.393 268.103 122.918 268.028 123.444C267.99 123.707 267.99 123.97 268.141 124.233C268.253 124.459 268.516 124.647 268.742 124.684C269.005 124.759 269.306 124.722 269.532 124.571C269.757 124.421 269.945 124.233 269.983 123.97C270.095 123.444 270.208 122.918 270.283 122.393C270.321 122.13 270.321 121.867 270.171 121.604C270.058 121.378 269.795 121.19 269.569 121.153C269.306 121.078 269.005 121.115 268.78 121.266C268.554 121.416 268.366 121.604 268.328 121.867Z" fill="#F7F1F3"/>
    <path d="M275.133 118.937C275.02 119.463 274.908 119.989 274.832 120.515C274.795 120.778 274.795 121.041 274.945 121.304C275.058 121.529 275.321 121.717 275.547 121.755C275.81 121.83 276.111 121.792 276.336 121.642C276.562 121.492 276.75 121.304 276.787 121.041C276.9 120.515 277.013 119.989 277.088 119.463C277.126 119.2 277.126 118.937 276.975 118.674C276.863 118.449 276.599 118.261 276.374 118.223C276.111 118.148 275.81 118.186 275.584 118.336C275.359 118.486 275.171 118.674 275.133 118.937Z" fill="#F7F1F3"/>
    <path d="M278.404 113.602V114.767C278.404 114.767 278.404 115.03 278.479 115.143C278.517 115.255 278.592 115.368 278.705 115.481C278.78 115.594 278.893 115.631 279.043 115.706C279.156 115.781 279.306 115.781 279.419 115.781C279.682 115.781 279.945 115.669 280.133 115.481C280.321 115.293 280.434 115.03 280.434 114.767V113.602C280.434 113.602 280.434 113.339 280.359 113.227C280.321 113.114 280.246 113.001 280.133 112.889C280.058 112.776 279.945 112.738 279.795 112.663C279.682 112.588 279.532 112.588 279.419 112.588C279.156 112.588 278.893 112.701 278.705 112.889C278.517 113.077 278.404 113.339 278.404 113.602Z" fill="#F7F1F3"/>
    <path d="M274.908 128.554V130.282C274.908 130.545 275.021 130.808 275.208 130.996C275.396 131.183 275.66 131.296 275.923 131.296C276.186 131.296 276.449 131.183 276.637 130.996C276.825 130.808 276.938 130.545 276.938 130.282V128.554C276.938 128.291 276.825 128.028 276.637 127.84C276.449 127.652 276.186 127.539 275.923 127.539C275.66 127.539 275.396 127.652 275.208 127.84C275.021 128.028 274.908 128.291 274.908 128.554Z" fill="#F7F1F3"/>
    <path d="M277.84 134.377V134.94C277.84 134.94 277.84 135.203 277.915 135.316C277.953 135.429 278.028 135.541 278.141 135.654C278.216 135.767 278.329 135.804 278.479 135.879C278.592 135.954 278.742 135.954 278.855 135.954H279.118C279.118 135.954 279.419 135.767 279.569 135.654L279.72 135.466C279.72 135.466 279.87 135.128 279.87 134.978V134.414C279.87 134.414 279.87 134.151 279.795 134.039C279.757 133.926 279.682 133.813 279.569 133.7C279.494 133.588 279.381 133.55 279.231 133.475C279.118 133.4 278.968 133.4 278.855 133.4H278.592C278.592 133.4 278.291 133.588 278.141 133.7L277.99 133.888C277.99 133.888 277.84 134.226 277.84 134.377Z" fill="#F7F1F3"/>
    <path d="M268.893 137.645V138.209C268.893 138.209 268.893 138.472 268.968 138.585C269.005 138.697 269.081 138.81 269.193 138.923C269.269 139.035 269.381 139.073 269.532 139.148C269.644 139.223 269.795 139.223 269.908 139.223H270.171C270.171 139.223 270.472 139.035 270.622 138.923L270.772 138.735C270.772 138.735 270.923 138.397 270.923 138.247V137.683C270.923 137.683 270.923 137.42 270.847 137.307C270.81 137.195 270.735 137.082 270.622 136.969C270.547 136.857 270.434 136.819 270.284 136.744C270.171 136.669 270.02 136.669 269.908 136.669H269.644C269.644 136.669 269.344 136.857 269.193 136.969L269.043 137.157C269.043 137.157 268.893 137.495 268.893 137.645Z" fill="#F7F1F3"/>
    <path d="M273.554 136.706V137.683C273.554 137.683 273.554 137.946 273.629 138.059C273.667 138.171 273.742 138.284 273.855 138.397C273.93 138.509 274.043 138.547 274.193 138.622C274.306 138.697 274.456 138.697 274.569 138.697H274.832C274.832 138.697 275.133 138.509 275.284 138.397C275.472 138.209 275.584 137.946 275.584 137.683V136.706C275.584 136.706 275.584 136.443 275.509 136.331C275.472 136.218 275.396 136.105 275.284 135.992C275.208 135.88 275.096 135.842 274.945 135.767C274.832 135.692 274.682 135.692 274.569 135.692H274.306C274.306 135.692 274.005 135.88 273.855 135.992C273.667 136.18 273.554 136.443 273.554 136.706Z" fill="#F7F1F3"/>
    <path d="M283.441 117.096C283.517 117.659 283.554 118.26 283.629 118.824C283.629 118.974 283.629 119.087 283.705 119.199C283.742 119.312 283.817 119.425 283.93 119.538C284.118 119.725 284.381 119.838 284.644 119.838C284.908 119.838 285.171 119.725 285.359 119.538C285.509 119.35 285.697 119.087 285.659 118.824C285.584 118.26 285.547 117.659 285.471 117.096C285.471 116.945 285.471 116.833 285.396 116.72C285.359 116.607 285.284 116.495 285.171 116.382C284.983 116.194 284.72 116.081 284.456 116.081C284.193 116.081 283.93 116.194 283.742 116.382C283.592 116.57 283.404 116.833 283.441 117.096Z" fill="#F7F1F3"/>
    <path d="M283.066 123.295V124.272C283.066 124.272 283.066 124.535 283.141 124.648C283.178 124.76 283.254 124.873 283.366 124.986C283.442 125.098 283.554 125.136 283.705 125.211C283.818 125.286 283.968 125.286 284.081 125.286H284.344C284.344 125.286 284.645 125.098 284.795 124.986C284.983 124.798 285.096 124.535 285.096 124.272V123.295C285.096 123.295 285.096 123.032 285.021 122.919C284.983 122.807 284.908 122.694 284.795 122.581C284.72 122.469 284.607 122.431 284.457 122.356C284.344 122.281 284.194 122.281 284.081 122.281H283.818C283.818 122.281 283.517 122.469 283.366 122.581C283.178 122.769 283.066 123.032 283.066 123.295Z" fill="#F7F1F3"/>
    <path d="M282.502 130.282V132.01C282.502 132.273 282.614 132.536 282.802 132.724C282.99 132.912 283.254 133.025 283.517 133.025C283.78 133.025 284.043 132.912 284.231 132.724C284.419 132.536 284.532 132.273 284.532 132.01V130.282C284.532 130.019 284.419 129.756 284.231 129.568C284.043 129.381 283.78 129.268 283.517 129.268C283.254 129.268 282.99 129.381 282.802 129.568C282.614 129.756 282.502 130.019 282.502 130.282Z" fill="#F7F1F3"/>
    <path d="M280.961 137.57C280.885 137.833 280.848 138.096 280.773 138.359C280.735 138.509 280.735 138.622 280.773 138.772C280.773 138.922 280.81 139.035 280.885 139.148C280.961 139.261 281.036 139.373 281.149 139.448C281.261 139.523 281.374 139.599 281.487 139.636H281.75C281.75 139.636 282.088 139.636 282.239 139.523L282.427 139.373C282.427 139.373 282.652 139.11 282.69 138.922C282.765 138.659 282.803 138.396 282.878 138.133C282.915 137.983 282.915 137.871 282.878 137.72C282.878 137.57 282.84 137.457 282.765 137.345C282.69 137.232 282.615 137.119 282.502 137.044C282.389 136.969 282.276 136.894 282.164 136.856H281.9C281.9 136.856 281.562 136.856 281.412 136.969L281.224 137.119C281.224 137.119 280.998 137.382 280.961 137.57Z" fill="#F7F1F3"/>
    <path d="M284.419 127.389V128.366C284.419 128.366 284.419 128.629 284.494 128.742C284.532 128.854 284.607 128.967 284.72 129.08C284.795 129.193 284.908 129.23 285.058 129.305C285.171 129.38 285.321 129.38 285.434 129.38H285.697C285.697 129.38 285.998 129.193 286.148 129.08C286.336 128.892 286.449 128.629 286.449 128.366V127.389C286.449 127.389 286.449 127.126 286.374 127.014C286.336 126.901 286.261 126.788 286.148 126.676C286.073 126.563 285.96 126.525 285.81 126.45C285.697 126.375 285.547 126.375 285.434 126.375H285.171C285.171 126.375 284.87 126.563 284.72 126.676C284.532 126.863 284.419 127.126 284.419 127.389Z" fill="#F7F1F3"/>
    <path d="M270.509 115.706C269.645 115.029 268.78 114.316 267.99 113.564L269.945 116.87L270.472 115.743L270.509 115.706Z" fill="#ADA874"/>
    <path d="M272.238 114.955C271.9 114.579 271.599 114.203 271.261 113.79L272.238 114.955Z" fill="#ADA874"/>
    <path d="M286.825 124.309C287.351 124.084 287.84 123.858 288.367 123.671L286.224 123.483" fill="#ADA874"/>
    <path d="M283.817 137.833C284.269 138.096 284.72 138.359 285.171 138.66L285.622 136.969C285.133 137.007 284.645 137.044 284.156 137.082H283.93C284.231 137.495 284.532 137.871 284.795 138.247C284.908 137.946 285.02 137.608 285.133 137.307C285.208 137.082 285.133 136.782 285.058 136.594C284.983 136.406 284.72 136.218 284.494 136.18C284.269 136.143 284.005 136.143 283.78 136.256L283.592 136.406C283.592 136.406 283.404 136.669 283.366 136.819C283.254 137.12 283.141 137.458 283.028 137.758C282.915 138.021 283.028 138.322 283.178 138.547C283.329 138.773 283.629 138.923 283.893 138.923C284.381 138.885 284.87 138.848 285.359 138.81H285.584C285.81 138.81 285.96 138.735 286.148 138.585C286.299 138.472 286.449 138.284 286.487 138.096C286.562 137.683 286.411 137.27 286.073 137.082C285.622 136.819 285.171 136.556 284.72 136.256C284.532 136.143 284.231 136.105 284.005 136.18C283.78 136.256 283.554 136.406 283.442 136.594C283.329 136.819 283.291 137.044 283.366 137.307C283.442 137.57 283.592 137.721 283.78 137.871L283.817 137.833Z" fill="#ADA874"/>
    <path d="M266.411 133.175C266.411 133.701 266.411 134.227 266.411 134.791C266.411 135.054 266.524 135.317 266.712 135.504C266.9 135.692 267.163 135.805 267.426 135.805C267.689 135.805 267.953 135.692 268.141 135.504C268.328 135.317 268.441 135.054 268.441 134.791C268.441 134.265 268.441 133.739 268.441 133.175C268.441 132.912 268.328 132.649 268.141 132.461C267.953 132.274 267.689 132.161 267.426 132.161C267.163 132.161 266.9 132.274 266.712 132.461C266.524 132.649 266.411 132.912 266.411 133.175Z" fill="#F7F1F3"/>
    <path d="M266.411 130.695C265.96 130.958 265.509 131.221 265.058 131.447L266.749 131.559" fill="#ADA874"/>
    <path d="M117.311 16.2269C119.906 13.785 119.83 9.38959 117.8 6.45932C115.77 3.52905 112.311 1.91364 108.815 1.23742C100.62 -0.415551 91.2209 2.92796 87.2734 10.2912C83.8523 16.6401 84.717 25.0177 80.0177 30.5026C77.9876 32.8317 75.2056 34.3344 72.8371 36.288C70.995 37.8282 69.3784 39.669 68.1002 41.6977C67.4235 42.7871 66.822 44.102 67.2731 45.3042C67.7995 46.619 69.4536 47.145 70.807 46.882C72.1604 46.619 73.3259 45.6798 74.4537 44.8158C73.4762 48.798 72.4988 52.9304 73.3635 56.9125C74.2281 60.8947 77.5364 64.689 81.6343 64.6515C84.8298 64.6515 87.6494 62.2471 89.1532 59.4296C90.6569 56.612 91.1081 53.3436 91.5216 50.1504C89.8299 52.0663 92.1231 55.3723 94.6796 55.2971C97.236 55.222 99.2285 53.0055 100.281 50.6763C101.296 48.3471 101.71 45.755 101.447 43.238" fill="#FFD9AB"/>
    <path d="M141.936 52.8169C149.53 52.0656 155.47 44.6272 155.771 37.001C156.034 29.3748 151.41 22.0866 145.019 17.8791C138.627 13.6715 130.733 12.2815 123.101 12.5445C120.206 12.6572 117.274 12.9577 114.567 14.0472C111.597 15.2118 109.041 17.2029 106.785 19.4569C101.822 24.4158 98.2885 30.8023 96.7471 37.6772C95.093 44.8526 95.8824 53.1175 100.958 58.4145C107.311 65.0639 118.176 64.9512 126.785 61.6829C132.312 59.5791 138.064 55.4091 138.214 49.511" fill="#FFE6C7"/>
    <path d="M148.665 36.8888C148.627 36.5131 148.515 36.2126 148.439 35.8745C147.124 36.6258 124.83 27.6848 116.559 30.878C116.597 34.7475 114.228 52.7048 113.627 50.075C113.251 49.9623 112.875 49.8872 112.461 49.8496C109.04 49.5491 106.033 52.1037 105.732 55.5223C105.431 58.941 107.988 61.9464 111.446 62.2469C112.386 62.3221 113.289 62.1718 114.116 61.8712C114.116 61.8712 113.965 81.6693 113.965 82.308C113.965 90.1972 120.356 110.07 128.251 110.07C136.146 110.07 142.537 90.1596 142.537 82.308C142.537 81.7069 142.424 72.6156 142.424 72.6156C149.943 70.0985 151.109 62.3972 150.094 55.5599C149.116 48.7226 148.703 36.9264 148.703 36.9264L148.665 36.8888Z" fill="#FAB196"/>
    <g style="mix-blend-mode:soft-light" opacity="0.75">
        <path d="M142.387 72.5776C142.387 72.5776 138.816 73.8549 133.966 73.4417L142.387 80.8425V72.5776Z" fill="#542E54"/>
    </g>
    <path d="M106.447 105.525C109.041 99.0254 105.92 91.6622 99.4915 89.1076C99.2284 88.9949 98.9276 88.9198 98.6644 88.8071C96.8975 88.0557 94.8674 87.9806 92.6869 88.3938C92.0102 88.5065 91.3711 88.6944 90.732 88.8822C73.4385 94.3295 47.3103 127.539 42.3478 142.378C42.3478 142.378 41.7839 143.393 41.5959 143.919C39.4154 149.366 42.0095 155.489 47.4231 157.668C52.4983 159.697 58.2127 157.481 60.6939 152.709C77.6867 128.704 101.559 111.573 101.559 111.573V111.498C103.702 110.108 105.469 108.079 106.484 105.525H106.447Z" fill="#FFAF8F"/>
    <path d="M217.726 135.954C217.726 135.954 217.952 136.179 218.065 136.292L217.877 136.029C218.027 136.217 218.14 136.405 218.215 136.63L218.065 136.33C218.14 136.555 218.215 136.78 218.253 137.006V136.668C218.253 136.893 218.253 137.119 218.215 137.382V137.043C218.215 137.043 218.253 137.081 218.215 137.119C218.177 137.306 218.14 137.457 218.215 137.645C218.215 137.832 218.29 137.983 218.365 138.133C218.516 138.396 218.854 138.659 219.155 138.734C219.493 138.809 219.869 138.809 220.17 138.584C220.433 138.396 220.734 138.133 220.771 137.795C220.809 137.457 220.884 137.119 220.847 136.78C220.809 136.442 220.771 136.104 220.659 135.766C220.433 135.128 220.095 134.526 219.606 134.076C219.343 133.85 219.042 133.7 218.666 133.7C218.328 133.7 217.952 133.85 217.726 134.076C217.501 134.301 217.313 134.639 217.35 135.015C217.388 135.39 217.463 135.691 217.726 135.954Z" fill="#852D4C"/>
    <path d="M127.988 102.331L128.289 189.789V189.751L154.116 185.619L160.094 139.335C160.094 139.335 166.823 127.69 162.237 117.809C162.237 117.809 165.47 100.115 165.733 87.9054C165.733 87.9054 154.38 84.6746 142.5 84.1487L127.988 102.331Z" fill="#F8F9FB"/>
    <path d="M127.988 102.332L128.289 189.789" stroke="#C0E6FE"/>
    <path d="M127.988 189.789H127.688V189.751L101.672 182.839L95.8826 139.298C95.8826 139.298 86.1832 128.215 92.8374 113.865C92.8374 113.865 90.5066 100.04 90.2434 87.8678C90.2434 87.8678 102.386 84.637 114.266 84.1111L127.988 102.294L130.018 139.448L127.988 189.789Z" fill="#F8F9FB"/>
    <path d="M150.996 39.7441C144.003 41.0214 134.492 37.0017 129.041 32.4936C130.018 34.0338 131.184 35.8746 130.018 36.5884C128.552 37.4525 121.973 34.1841 119.905 32.3057C120.62 33.5454 123.514 36.6636 122.387 37.49C121.296 38.3165 118.364 36.9265 117.048 35.1608C118.251 40.4954 118.74 44.7406 118.627 49.8122C118.514 54.696 116.409 52.9303 115.62 52.1038C110.695 46.8444 106.785 39.4436 107.95 32.3433C108.289 30.2395 108.928 28.0981 110.244 26.4452C113.026 22.9138 118.063 22.3127 122.575 22.2376C128.251 22.1249 134.078 22.4254 139.342 24.5668C144.605 26.7081 149.267 30.9908 150.545 36.5133" fill="#FFE6C7"/>
    <path d="M127.424 44.1772C128.101 44.0645 128.702 43.6888 129.379 43.5761C130.018 43.4634 130.733 43.5761 131.372 43.3507C131.823 43.2005 131.936 42.6745 131.635 42.2988C130.432 40.9464 127.424 41.5851 126.635 43.1253C126.372 43.6888 126.823 44.2899 127.424 44.1396V44.1772Z" fill="#FFE6C7"/>
    <path d="M144.943 44.2513C144.492 42.4856 141.372 41.5089 140.018 42.7486C139.755 43.0116 139.793 43.5751 140.131 43.7254C140.77 44.0259 141.484 44.0635 142.161 44.2513C142.838 44.4391 143.439 44.9275 144.116 45.1154C144.642 45.2281 145.093 44.7773 144.943 44.2889V44.2513Z" fill="#FFE6C7"/>
    <path d="M145.432 227.056C136.56 225.028 131.033 216.237 133.026 207.371C135.056 198.505 143.853 192.983 152.725 194.974C153.064 195.049 217.651 206.432 229.456 212.067C241.223 217.74 245.133 222.736 241.524 232.579C233.629 253.992 228.178 243.436 219.794 241.858L211.523 241.294C128.327 222.398 139.868 225.741 145.432 227.019V227.056Z" fill="#182138"/>
    <path d="M127.424 174.649C110.845 174.649 97.8373 171.794 97.8373 171.794C97.8373 171.794 91.9725 187.723 91.4086 192.156C90.6943 197.716 90.0928 210.113 90.0928 210.113C90.0928 217.514 94.5289 222.811 100.506 225.441L122.838 227.807H133.477L155.808 225.441C161.786 222.849 165.883 215.673 165.883 208.272C165.883 208.272 165.583 199.97 164.868 192.156C164.154 184.379 155.207 171.231 155.207 171.231C155.207 171.231 143.966 174.612 127.424 174.612V174.649Z" fill="#182138"/>
    <path d="M104.717 179.609C105.808 177.918 106.672 176.04 107.086 174.049C107.236 173.373 106.898 172.546 106.146 172.358C105.469 172.208 104.642 172.546 104.454 173.297C104.379 173.748 104.229 174.199 104.116 174.65C104.041 174.875 103.965 175.138 103.89 175.364C103.89 175.439 103.815 175.551 103.778 175.627C103.778 175.702 103.627 176.115 103.74 175.739C103.627 176.19 103.326 176.603 103.138 177.017C102.913 177.43 102.65 177.843 102.387 178.219C102.011 178.82 102.236 179.759 102.875 180.097C103.552 180.473 104.304 180.247 104.755 179.609H104.717Z" fill="white"/>
    <path d="M92.9503 187.309C96.409 186.858 99.5294 185.205 102.048 182.838C102.575 182.35 102.575 181.411 102.048 180.922C101.522 180.434 100.695 180.397 100.131 180.922C99.8677 181.185 99.6046 181.411 99.3038 181.636C99.2286 181.711 99.1535 181.749 99.0783 181.824C99.0783 181.824 98.8151 182.05 98.8903 181.974C98.9655 181.899 98.7775 182.05 98.7399 182.087C98.6647 182.125 98.5895 182.2 98.5143 182.237C97.9128 182.651 97.2737 183.064 96.597 183.402C96.4466 183.477 96.2963 183.552 96.1083 183.627C96.0331 183.665 95.9579 183.702 95.8827 183.74C95.8075 183.74 95.6948 183.815 95.8451 183.74C95.5068 183.89 95.1684 184.003 94.8301 184.116C94.4917 184.228 94.1158 184.341 93.7398 184.416C93.5519 184.454 93.4015 184.491 93.2135 184.529C93.1383 184.529 93.0255 184.529 92.9503 184.567C92.9128 184.567 92.612 184.604 92.8752 184.567C92.1609 184.642 91.4842 185.13 91.5218 185.919C91.5218 186.558 92.1233 187.384 92.8752 187.271L92.9503 187.309Z" fill="white"/>
    <path d="M92.0856 193.245C101.71 192.08 110.394 184.003 112.199 174.424C112.537 172.695 109.905 171.982 109.567 173.71C107.988 181.975 100.544 189.488 92.0856 190.502C91.3337 190.578 90.7322 191.066 90.7322 191.855C90.7322 192.531 91.3713 193.32 92.0856 193.207V193.245Z" fill="white"/>
    <path d="M163.703 184.642C157.989 183.853 152.838 179.27 151.673 173.597C151.523 172.884 150.658 172.47 149.981 172.658C149.229 172.846 148.891 173.597 149.041 174.349C150.395 180.848 156.41 186.408 162.989 187.31C163.703 187.422 164.455 187.122 164.681 186.37C164.869 185.732 164.455 184.793 163.741 184.68L163.703 184.642Z" fill="white"/>
    <path d="M157.237 188.136C151.898 185.055 147.387 180.134 146.184 173.935C146.034 173.222 145.169 172.808 144.492 172.996C143.74 173.222 143.402 173.935 143.552 174.687C144.868 181.524 149.943 187.122 155.846 190.503C157.35 191.367 158.741 189.038 157.237 188.173V188.136Z" fill="white"/>
    <path d="M163.929 190.465C163.929 190.465 163.703 190.465 163.59 190.428H163.966C162.613 190.277 161.26 189.939 159.981 189.451C159.681 189.338 159.229 189.451 158.929 189.601C158.628 189.751 158.365 190.089 158.29 190.428C158.214 190.766 158.214 191.179 158.44 191.479C158.666 191.78 158.891 191.968 159.267 192.118C160.771 192.682 162.35 193.057 163.929 193.245C164.267 193.245 164.681 193.057 164.906 192.832C165.132 192.606 165.32 192.193 165.32 191.855C165.32 191.517 165.207 191.141 164.906 190.878C164.605 190.615 164.305 190.54 163.929 190.465Z" fill="white"/>
    <path d="M132.612 175.514C132.688 180.548 132.763 185.582 132.913 190.578C132.951 192.306 135.695 192.344 135.62 190.578C135.47 185.544 135.394 180.51 135.319 175.514C135.319 173.748 132.575 173.748 132.612 175.514Z" fill="white"/>
    <path d="M197.613 236.297C202.688 229.16 200.997 219.242 193.816 214.17C186.636 209.098 176.748 210.789 171.673 217.964L130.996 291.146C130.996 291.146 134.981 295.617 139.755 298.66C145.808 302.529 152.274 303.318 152.274 303.318L197.613 236.26V236.297Z" fill="#182138"/>
    <path d="M90.9199 204.929C91.7469 195.875 101.747 192.832 110.657 194.598C110.995 194.673 187.35 211.015 187.951 211.127C196.561 212.856 202.125 221.196 200.433 229.799C198.741 238.214 190.395 241.332 182.011 239.979L176.485 238.89C81.7844 233.443 89.5665 219.843 90.9199 204.966V204.929Z" fill="#182138"/>
    <path d="M119.755 197.791C134.154 200.42 148.477 203.313 162.763 206.506C169.794 208.084 176.824 209.737 183.816 211.428C186.523 212.104 189.305 212.705 191.786 214.02C194.268 215.335 196.222 217.626 197.501 220.181C200.433 226.041 197.952 232.541 195.095 237.875C194.268 239.415 196.636 240.805 197.426 239.265C200.208 234.081 202.576 228.108 201.11 222.134C200.433 219.354 198.929 216.875 197.05 214.734C195.057 212.442 192.35 211.052 189.493 210.113C186.298 209.061 182.952 208.385 179.681 207.596C175.921 206.694 172.2 205.83 168.44 204.966C160.921 203.238 153.402 201.622 145.883 200.045C137.425 198.317 128.966 196.664 120.469 195.086C118.74 194.785 118.026 197.377 119.755 197.715V197.791Z" fill="white"/>
    <path d="M163.214 196.514C162.237 196.626 161.297 196.814 160.357 197.152C159.417 197.49 158.364 197.941 157.65 198.692C157.161 199.218 157.086 200.12 157.65 200.608C158.214 201.097 159.041 201.172 159.567 200.608C159.643 200.533 159.68 200.496 159.755 200.421C159.755 200.421 159.831 200.383 159.868 200.345C159.981 200.27 159.567 200.571 159.755 200.458C159.906 200.345 160.094 200.233 160.244 200.158C160.395 200.082 160.582 199.97 160.77 199.895C160.958 199.82 160.695 199.895 160.658 199.932C160.695 199.932 160.77 199.895 160.808 199.857C160.921 199.819 160.996 199.782 161.109 199.744C161.861 199.481 162.65 199.294 163.44 199.181H163.064C163.064 199.181 163.177 199.181 163.214 199.181C163.59 199.143 163.891 199.068 164.192 198.768C164.417 198.542 164.605 198.129 164.605 197.791C164.605 197.453 164.492 197.077 164.192 196.814C163.928 196.589 163.59 196.363 163.214 196.401V196.514Z" fill="white"/>
    <path d="M117.236 195.349C114.905 194.109 112.274 193.471 109.604 193.546C108.89 193.546 108.213 194.147 108.251 194.898C108.289 195.65 108.853 196.288 109.604 196.251C110.168 196.251 110.77 196.251 111.334 196.288C111.371 196.288 111.898 196.363 111.597 196.288C111.71 196.288 111.86 196.288 111.973 196.363C112.274 196.401 112.537 196.476 112.838 196.551C113.401 196.701 113.965 196.852 114.492 197.04C114.604 197.077 114.717 197.115 114.83 197.19C114.98 197.265 114.98 197.265 114.83 197.19C114.905 197.19 114.98 197.265 115.056 197.303C115.319 197.415 115.582 197.565 115.845 197.678C116.484 198.016 117.349 197.866 117.725 197.19C118.063 196.551 117.913 195.687 117.236 195.311V195.349Z" fill="white"/>
    <path d="M113.627 193.546C113.627 193.546 114.003 193.546 114.191 193.546H113.815C114.041 193.546 114.229 193.583 114.454 193.658L114.116 193.508C114.304 193.583 114.492 193.696 114.642 193.809L114.379 193.583C114.379 193.583 114.642 193.846 114.755 193.959L114.529 193.696C114.529 193.696 114.567 193.734 114.605 193.771C114.68 193.921 114.793 194.072 114.943 194.147C115.056 194.259 115.244 194.335 115.394 194.372C115.732 194.447 116.146 194.41 116.447 194.222C116.747 194.034 117.011 193.771 117.086 193.395C117.161 193.02 117.161 192.644 116.935 192.343C116.559 191.818 116.071 191.367 115.507 191.066C114.943 190.766 114.266 190.615 113.589 190.691C113.402 190.691 113.214 190.691 113.063 190.803C112.913 190.841 112.762 190.954 112.612 191.066C112.386 191.292 112.198 191.705 112.198 192.043C112.198 192.381 112.311 192.757 112.612 193.02C112.875 193.245 113.214 193.471 113.589 193.433L113.627 193.546Z" fill="white"/>
    <path d="M157.801 194.673C156.56 195.011 155.62 195.988 155.244 197.228C155.169 197.415 155.169 197.603 155.244 197.754C155.244 197.941 155.32 198.092 155.395 198.242C155.47 198.392 155.583 198.542 155.733 198.618C155.846 198.73 156.034 198.805 156.184 198.843C156.523 198.918 156.936 198.918 157.237 198.693C157.538 198.467 157.763 198.242 157.876 197.866C157.876 197.791 157.914 197.716 157.951 197.641L157.801 197.979C157.801 197.979 157.989 197.641 158.102 197.491L157.876 197.754C157.876 197.754 158.139 197.453 158.327 197.303L158.064 197.528C158.064 197.528 158.402 197.303 158.553 197.228L158.214 197.378C158.214 197.378 158.402 197.303 158.478 197.265C158.816 197.152 159.117 196.927 159.305 196.626C159.417 196.476 159.455 196.288 159.455 196.138C159.493 195.95 159.455 195.762 159.455 195.612C159.342 195.274 159.154 194.974 158.816 194.786C158.478 194.598 158.139 194.56 157.763 194.635L157.801 194.673Z" fill="white"/>
    <path opacity="0.3" d="M133.627 51.8032C134.492 49.4365 132.725 46.356 129.717 45.2665C126.71 44.177 118.326 44.3273 118.214 45.4543C118.101 46.5814 122.462 52.8176 125.319 54.2827C128.815 56.0484 132.763 54.2076 133.627 51.8032Z" fill="white"/>
    <path opacity="0.3" d="M139.981 52.8173C138.74 50.7135 139.868 47.4827 142.537 45.9425C145.206 44.3646 153.139 43.0498 153.477 44.1017C153.778 45.116 150.733 51.8406 148.289 53.719C145.281 56.0106 141.221 54.9211 139.981 52.8173Z" fill="white"/>
    <path d="M133.627 51.8032C134.492 49.4365 132.725 46.356 129.718 45.2665C126.71 44.177 118.326 44.3273 118.214 45.4543C118.101 46.5814 122.462 52.8176 125.319 54.2827C128.815 56.0484 132.763 54.2076 133.627 51.8032V51.8032Z" stroke="white" stroke-width="0.83" stroke-miterlimit="10"/>
    <path d="M139.981 52.8173C138.74 50.7135 139.868 47.4827 142.537 45.9425C145.206 44.3646 153.139 43.0498 153.477 44.1017C153.778 45.116 150.733 51.8406 148.289 53.719C145.281 56.0106 141.221 54.9211 139.981 52.8173V52.8173Z" stroke="white" stroke-width="0.8" stroke-miterlimit="10"/>
    <path d="M114.492 50.3754L119.003 48.4971" stroke="white" stroke-width="0.83" stroke-miterlimit="10" stroke-linecap="round"/>
    <path d="M96.8597 190.089C96.1078 194.823 95.0176 199.669 95.8823 204.478C96.4462 207.634 98.2131 211.24 101.146 212.818C102.762 213.682 104.567 214.17 106.334 214.621C108.852 215.26 111.409 215.786 113.928 216.236C127.236 218.678 140.695 220.106 154.003 222.585C156.71 223.074 159.417 223.637 162.049 224.314C163.101 224.576 164.154 224.877 165.169 225.215C166.109 225.516 166.673 225.741 167.35 226.042C167.65 226.192 167.913 226.342 168.214 226.53C168.289 226.53 168.628 226.831 168.44 226.68C168.252 226.53 168.553 226.793 168.628 226.868C168.778 227.018 168.816 227.131 168.628 226.868C168.741 227.056 168.891 227.281 168.966 227.507C169.229 228.108 169.342 228.784 169.342 229.423C169.53 233.217 167.763 237.086 166.146 240.43C163.891 245.051 160.996 249.258 158.289 253.654L150.883 265.713C145.394 274.654 139.868 283.595 134.379 292.536L134.041 293.1C133.138 294.602 135.469 295.955 136.372 294.49C141.184 286.676 145.996 278.824 150.808 271.01C153.703 266.314 156.56 261.656 159.455 256.96C161.485 253.654 163.703 250.423 165.658 247.079C167.801 243.435 169.756 239.604 171.034 235.584C171.974 232.578 172.801 228.559 170.959 225.666C170.132 224.389 168.665 223.75 167.312 223.224C165.319 222.435 163.214 221.872 161.109 221.383C148.176 218.34 134.83 217.025 121.71 214.922C116.259 214.058 110.77 213.231 105.469 211.691C104.642 211.428 103.777 211.165 102.988 210.827C103.326 210.977 102.8 210.752 102.762 210.714C102.612 210.639 102.499 210.564 102.349 210.489C102.236 210.414 102.123 210.338 101.973 210.263C101.86 210.188 101.484 209.888 101.822 210.188C98.2131 207.145 97.8372 202.336 98.2507 197.979C98.4763 195.574 98.9274 193.245 99.3034 190.841C99.5665 189.113 96.9349 188.399 96.6717 190.127L96.8597 190.089Z" fill="white"/>
    <path d="M202.087 299.899C201.523 301.515 197.312 310.794 197.012 311.77V312.559L202.275 321.388C202.688 321.2 207.087 325.933 207.463 326.422C207.839 326.91 207.651 327.774 207.087 327.887C206.899 327.925 206.673 327.887 206.485 327.812C206.373 327.812 206.222 327.737 206.072 327.699V327.774L205.094 327.399C204.117 327.06 203.064 326.685 202.049 326.309L178.064 315.49C178.064 315.49 184.906 297.269 186.974 291.033" fill="#FAB196"/>
    <path d="M178.516 314.176C178.516 314.176 187.914 319.285 197.839 321.389L201.937 319.924C201.937 319.924 209.531 324.845 215.997 331.682C215.997 331.682 203.328 330.142 194.38 326.686C185.433 323.23 177.237 319.247 177.237 319.247L178.553 314.176H178.516Z" fill="#182138"/>
    <path d="M141.898 49.6622C141.898 50.4511 142.199 51.1273 142.537 51.1273C142.876 51.1273 143.176 50.4886 143.176 49.6622C143.176 48.8357 142.876 48.197 142.537 48.197C142.199 48.197 141.898 48.8357 141.898 49.6622Z" fill="#A8425F"/>
    <path d="M129.191 49.6622C129.191 50.4511 129.492 51.1273 129.831 51.1273C130.169 51.1273 130.47 50.4886 130.47 49.6622C130.47 48.8357 130.169 48.197 129.831 48.197C129.492 48.197 129.191 48.8357 129.191 49.6622Z" fill="#A8425F"/>
    <path d="M137.132 47.4747C136.517 49.4986 137.333 51.4777 138.843 52.8753C139.122 53.1325 139.603 53.3673 139.748 53.7363C139.86 54.0158 139.748 54.3289 139.592 54.5637C139.167 55.2234 138.351 55.5253 137.602 55.3129C137.11 55.1675 136.897 55.939 137.389 56.0844C138.295 56.3416 139.268 56.0732 139.927 55.4023C140.486 54.8433 140.822 53.9376 140.363 53.2108C140.095 52.7747 139.603 52.5063 139.245 52.1485C138.843 51.7572 138.496 51.3211 138.228 50.8291C137.691 49.8452 137.579 48.7494 137.903 47.676C138.049 47.184 137.277 46.9716 137.132 47.4635V47.4747Z" fill="#852D4C"/>
    <g style="mix-blend-mode:soft-light" opacity="0.75">
        <path d="M129.229 54.719C129.229 53.3375 127.611 52.2163 125.618 52.2163C123.624 52.2163 122.006 53.3375 122.006 54.719C122.006 56.1005 123.624 57.2217 125.618 57.2217C127.611 57.2217 129.229 56.1005 129.229 54.719Z" fill="#542E54"/>
    </g>
    <g style="mix-blend-mode:soft-light" opacity="0.75">
        <path fill-rule="evenodd" clip-rule="evenodd" d="M150.042 55.2617C149.889 54.1164 149.751 52.8535 149.627 51.5434C149.488 51.5396 149.349 51.5396 149.21 51.5396C146.841 51.5396 144.918 52.3813 144.918 53.4184C144.918 54.4556 146.841 55.2974 149.21 55.2974C149.5 55.2974 149.777 55.2855 150.042 55.2617Z" fill="#542E54"/>
    </g>
    <path d="M135.281 59.3916C134.304 57.9265 132.687 57.4381 131.935 58.3022C131.484 58.7905 131.447 59.5419 131.71 60.143C131.973 60.7441 132.462 61.1949 133.026 61.5705C133.928 62.1716 135.093 62.397 136.146 62.1716C137.199 61.9462 138.439 60.9319 138.139 59.88C137.913 59.1662 136.785 59.0911 135.319 59.3916" fill="white"/>
    <path d="M240.208 235.921C243.592 227.844 239.757 218.528 231.674 215.146C223.591 211.765 214.268 215.597 210.884 223.674L181.824 300.876C181.824 300.876 185.546 304.745 191.636 307.488C196.899 309.854 202.463 309.817 202.463 309.817L240.208 235.884V235.921Z" fill="#182138"/>
    <path d="M142.5 81.1055L131.485 97.9357L140.846 102.895L152.726 85.2379L142.5 81.1055Z" fill="#C0E6FE"/>
    <path d="M114.078 81.6321L124.83 97.9364L115.469 102.895L104.98 85.2386L114.078 81.6321Z" fill="#C0E6FE"/>
    <path d="M93.2134 86.9668C93.2134 86.9668 77.95 90.3854 65.3183 105.675C52.7241 120.928 39.3028 136.481 40.3931 150.155C41.4833 163.83 74.153 149.367 75.2432 145.084C76.3335 140.801 76.8598 138.134 73.6267 136.781C73.6267 136.781 77.3861 137.946 76.8598 134.114C76.8598 134.114 89.3412 121.567 94.6044 116.983C99.9053 112.4 105.131 87.4552 93.1758 87.0044L93.2134 86.9668Z" fill="#F8F9FB"/>
    <path d="M91.6719 141.552C91.6719 141.552 51.7841 137.87 51.6337 137.832C45.9193 137.306 40.8441 141.552 40.3178 147.299C39.7914 153.01 44.0396 158.081 49.7916 158.607C49.8668 158.607 49.942 158.607 50.0172 158.607C64.2279 160.335 94.2283 156.691 94.2283 156.691C94.2283 156.691 102.988 153.46 102.349 148.426C101.71 143.355 96.9351 141.815 91.6343 141.589L91.6719 141.552Z" fill="#FAB196"/>
    <path d="M64.6414 139.036C64.6414 139.036 50.8442 132.161 43.6261 136.744C36.3703 141.29 32.6485 155.49 47.6487 157.894C47.6487 157.894 40.205 153.349 40.8441 147.601C41.4832 141.816 45.769 138.096 53.8142 138.359C61.8594 138.622 64.6414 139.073 64.6414 139.073V139.036Z" fill="#C0E6FE"/>
    <path d="M160.883 87.1926C160.883 87.1926 174.493 85.765 191.899 106.465C205.019 122.055 221.26 128.554 222.313 142.605C223.366 156.693 208.854 154.176 204.869 151.959C191.899 144.784 174.53 128.78 161.936 117.284C156.635 112.4 148.778 89.5218 160.883 87.1926Z" fill="#F8F9FB"/>
    <path d="M250.434 116.832C250.434 116.832 222.952 147.563 222.839 147.675C218.892 152.071 212.087 152.446 207.689 148.464C203.29 144.52 202.914 137.72 206.899 133.324C206.937 133.249 207.012 133.212 207.049 133.174C216.523 121.941 241.749 103.646 241.749 103.646C241.749 103.646 250.584 99.9269 253.667 104.21C256.749 108.455 254.231 113 250.396 116.87L250.434 116.832Z" fill="#FAB196"/>
    <g style="mix-blend-mode:soft-light" opacity="0.75">
        <path d="M222.839 147.676L207.689 148.465C207.689 148.465 213.215 154.927 222.839 147.676Z" fill="#542E54"/>
    </g>
    <path d="M262.953 106.502C262.953 106.502 270.321 102.707 272.163 103.196C273.667 103.571 269.795 106.765 264.08 110.296C259.757 112.963 242.464 119.162 242.464 119.199C239.193 121.829 235.697 122.543 233.065 119.237C230.433 115.969 229.193 116.307 232.501 113.639C232.839 113.376 234.23 111.198 234.569 111.01L234.794 108.868C234.794 108.868 249.606 97.8986 255.734 100.679C255.734 100.679 256.937 96.734 259.757 93.9165C262.652 91.0238 259.757 100.002 259.757 100.002C259.757 100.002 264.231 92.5265 265.96 93.3154C267.727 94.1043 261.787 102.482 261.787 102.482C261.787 102.482 264.231 99.5516 266.148 97.2976C269.268 93.6535 273.817 92.7519 263.028 106.426L262.953 106.502Z" fill="#FAB196"/>
    <path d="M232.388 136.631C232.388 136.631 226.223 152.259 217.651 154.287C209.08 156.278 195.959 148.765 205.057 136.03C205.057 136.03 202.989 144.745 207.689 148.464C212.388 152.184 218.215 151.733 223.854 145.647C229.493 139.561 232.388 136.631 232.388 136.631Z" fill="#C0E6FE"/>
    <path d="M133.928 49.85C133.928 49.85 136.71 48.0092 139.304 49.9252" stroke="white" stroke-width="0.83" stroke-miterlimit="10" stroke-linecap="round"/>
    <path d="M133.326 110.784C133.326 110.183 132.838 109.695 132.236 109.695C131.635 109.695 131.146 110.183 131.146 110.784C131.146 111.385 131.635 111.874 132.236 111.874C132.838 111.874 133.326 111.385 133.326 110.784Z" fill="#C0E6FE"/>
    <path d="M132.575 124.008C133.177 124.008 133.665 123.52 133.665 122.919C133.665 122.317 133.177 121.829 132.575 121.829C131.973 121.829 131.485 122.317 131.485 122.919C131.485 123.52 131.973 124.008 132.575 124.008Z" fill="#C0E6FE"/>
    <path d="M134.417 133.963C134.417 133.362 133.928 132.874 133.327 132.874C132.725 132.874 132.236 133.362 132.236 133.963C132.236 134.564 132.725 135.053 133.327 135.053C133.928 135.053 134.417 134.564 134.417 133.963Z" fill="#C0E6FE"/>
    <path d="M134.041 147.563C134.041 146.962 133.552 146.473 132.951 146.473C132.349 146.473 131.861 146.962 131.861 147.563C131.861 148.164 132.349 148.652 132.951 148.652C133.552 148.652 134.041 148.164 134.041 147.563Z" fill="#C0E6FE"/>
    <path d="M96.1458 158.232C96.1458 152.484 100.807 147.826 106.559 147.826C112.311 147.826 116.973 152.484 116.973 158.232" fill="white"/>
    <path d="M106.522 158.232H116.935C116.935 152.484 112.274 147.826 106.522 147.826" fill="#F5F2F7"/>
    <path d="M107.537 142.829C107.537 142.829 115.732 141.514 116.935 140.011C117.913 138.809 112.913 138.546 106.183 139.11C101.108 139.561 83.4763 144.858 83.4387 144.858C79.2281 144.67 75.995 146.21 75.8446 150.418C75.6566 154.625 74.4912 155.076 78.7018 155.264C79.1153 155.264 81.559 156.203 81.9349 156.165L83.4011 157.743C83.4011 157.743 97.4991 161.688 105.131 151.845C105.131 151.845 108.439 154.287 112.387 154.888C116.447 155.489 108.702 150.004 108.702 150.004C108.702 150.004 116.747 153.348 117.687 151.695C118.627 150.004 108.853 146.811 108.853 146.811C108.853 146.811 112.574 147.713 115.469 148.389C120.169 149.441 124.342 147.487 107.499 142.867L107.537 142.829Z" fill="#FAB196"/>
    <path d="M119.041 157.743H203.779L200.621 154.438H122.198L119.041 157.743Z" fill="white"/>
    <path d="M187.688 129.643C187.688 129.643 195.057 156.203 184.906 155.79C174.756 155.377 162.049 154.851 162.049 154.851L161.936 157.819L189.869 158.983C189.869 158.983 202.35 159.209 211.711 157.894C221.072 156.579 208.892 128.854 208.892 128.854L187.651 129.68L187.688 129.643Z" fill="#44244C"/>
    <path d="M192.952 145.91C192.726 140.2 190.771 132.949 190.771 132.949L188.478 132.837C190.057 139.899 192.388 154.363 184.418 154.588C174.305 154.851 162.049 154.851 162.049 154.851L161.936 158.646L186.711 157.894C192.538 158.157 193.14 150.756 192.952 145.91Z" fill="#715977"/>
    <path d="M253.366 68.9338L165.507 64.05L151.748 133.137L154.53 135.616L238.666 134.226L253.366 68.9338Z" fill="#E6DAED"/>
    <path d="M210.922 97.6363C212.2 95.6452 211.824 93.0906 210.095 92.0012C208.365 90.9117 205.922 91.6255 204.644 93.6542C203.365 95.6453 203.741 98.1998 205.471 99.2893C207.2 100.379 209.644 99.665 210.922 97.6363Z" fill="white"/>
    <path d="M163.703 62.0588L167.425 64.1251L154.831 135.804L151.109 133.137L163.703 62.0588Z" fill="#F5F2F7"/>
    <path d="M163.703 62.0591L250.171 66.7926L253.366 68.9339L167.425 64.1253L163.703 62.0591Z" fill="#EDE7F1"/>
    <path d="M221.599 126.037L182.312 126.488C178.929 126.488 176.297 123.558 176.748 120.214L176.974 118.523C177.35 115.706 179.793 113.602 182.651 113.677L223.704 115.556C226.899 115.668 229.08 117.81 228.741 121.003C227.877 124.985 224.418 125.962 221.599 125.999V126.037Z" fill="white"/>
    <path d="M184.23 123.708C184.455 121.492 184.718 119.275 184.944 117.059C184.944 117.059 185.621 118.9 185.32 120.778C185.019 122.694 184.23 123.708 184.23 123.708Z" fill="#44244C"/>
    <path d="M189.643 123.708C189.869 121.491 190.132 119.575 190.358 117.359C190.358 117.359 190.922 118.749 190.809 120.852C190.696 122.919 189.643 123.708 189.643 123.708Z" fill="#44244C"/>
    <path d="M194.493 123.708C194.719 121.491 194.982 119.613 195.207 117.396C195.207 117.396 195.621 119.012 195.508 120.74C195.395 122.43 194.493 123.708 194.493 123.708Z" fill="#44244C"/>
    <path d="M199.681 123.708C199.907 121.491 200.17 119.876 200.395 117.659C200.395 117.659 200.922 119.162 200.621 121.078C200.32 122.994 199.681 123.708 199.681 123.708Z" fill="#44244C"/>
    <path d="M204.606 123.858C204.832 121.642 205.095 120.026 205.32 117.81C205.32 117.81 205.884 119.726 205.583 121.454C205.283 123.182 204.606 123.858 204.606 123.858Z" fill="#44244C"/>
    <path d="M208.779 123.707C208.892 122.655 209.004 121.754 209.117 120.852C209.23 119.838 209.38 118.861 209.493 117.697C209.493 117.697 209.831 119.8 209.719 121.115C209.568 122.43 208.779 123.707 208.779 123.707Z" fill="#44244C"/>
    <path d="M213.328 123.708C213.554 121.491 213.817 119.876 214.042 117.659C214.042 117.659 214.569 119.087 214.494 120.965C214.381 122.844 213.328 123.67 213.328 123.67V123.708Z" fill="#44244C"/>
    <path d="M217.539 123.708C217.764 121.492 218.027 120.102 218.253 117.885C218.253 117.885 218.817 119.951 218.516 121.68C218.215 123.408 217.539 123.708 217.539 123.708Z" fill="#44244C"/>
    <path d="M221.975 123.708C222.087 122.694 222.2 121.867 222.313 121.079C222.463 120.102 222.576 119.125 222.689 117.885C222.689 117.885 223.215 119.914 222.877 121.642C222.576 123.37 221.975 123.708 221.975 123.708Z" fill="#44244C"/>
    <g style="mix-blend-mode:soft-light" opacity="0.75">
        <path d="M42.047 142.153L46.4456 157.631C46.4456 157.631 36.5206 152.108 42.047 142.153Z" fill="#542E54"/>
    </g>
    <path d="M29.8642 163.98L27.4812 324.958H30.2455L40.969 164.657L29.8642 163.98Z" fill="#44244C"/>
    <path d="M293.758 163.98L296.141 324.958H293.329L282.606 164.657L293.758 163.98Z" fill="#44244C"/>
    <path d="M322.259 161.163H-0.495117V177.505H322.259V161.163Z" fill="#CAB8D6"/>
    <path d="M-4.06962 163.98L-23.0383 333.823H-19.8928L8.51264 164.694L-4.06962 163.98Z" fill="#E6DAED"/>
    <path d="M327.692 163.98L346.613 333.823H343.468L315.062 164.694L327.692 163.98Z" fill="#E6DAED"/>
    <path d="M356.097 157.819H-36.0974L-4.06985 166.948H327.692L356.097 157.819Z" fill="#FFD9AB"/>
    <path d="M118.214 54.5451C118.214 50.4878 115.093 47.1819 111.221 47.1819C107.349 47.1819 104.229 50.4878 104.229 54.5451C104.229 58.6024 107.349 61.9084 111.221 61.9084C115.093 61.9084 118.214 58.6024 118.214 54.5451Z" fill="#44244C"/>
    <path d="M111.221 53.4187C110.62 53.4187 110.131 52.9303 110.131 52.3292V30.9908C110.131 25.1303 112.537 19.7206 116.748 16.1517C119.717 13.6346 124.906 10.8171 132.725 12.2446C136.334 12.8833 139.304 14.8368 138.665 14.8368C138.026 14.8368 136.748 14.4987 132.876 13.9352C127.312 13.1462 121.86 14.6865 118.139 17.8422C114.417 20.9979 112.274 25.7689 112.274 30.9908V52.3292C112.274 52.9303 111.785 53.4187 111.184 53.4187H111.221Z" fill="#44244C"/>
    <path d="M116.108 54.5457C116.108 51.6906 113.928 49.3989 111.221 49.3989C108.514 49.3989 106.334 51.6906 106.334 54.5457C106.334 57.4008 108.514 59.6924 111.221 59.6924C113.928 59.6924 116.108 57.4008 116.108 54.5457Z" fill="#715977"/>
    <path d="M111.785 55.7109C111.785 55.7109 113.514 64.915 125.958 65.5912" stroke="#44244C" stroke-width="1.95" stroke-miterlimit="10" stroke-linecap="round"/>
    <path d="M129.642 66.0417C129.492 67.2439 128.214 68.0704 126.785 67.9201C125.357 67.7323 124.304 66.6052 124.454 65.4031C124.605 64.2009 125.883 63.3744 127.311 63.5247C128.74 63.7125 129.793 64.8396 129.642 66.0417Z" fill="#715977"/>
</svg>
