<svg width="194" height="222" viewBox="0 0 194 222" fill="none" xmlns="http://www.w3.org/2000/svg">
<path d="M94.1811 153.352L90.9 153.116C90.9248 152.818 93.0749 122.536 92.2174 91.856C91.1112 52.5207 85.4688 29.5015 76.3338 27.0391C63.9178 23.6814 57.0573 41.465 56.9827 41.6391L53.9004 40.4701C56.6222 33.282 64.9742 20.5475 77.1914 23.8555C83.5175 25.5717 88.1035 33.4188 91.1982 47.8696C93.5472 58.8382 95.0014 73.6122 95.5109 91.7814C96.3809 122.623 94.206 153.041 94.1935 153.352H94.1811Z" fill="#315342"/>
<path d="M82.9833 164.52C82.9585 164.234 80.4355 134.972 81.1688 103.161C82.1506 60.0947 88.3524 33.0338 99.5753 22.7243C119.523 4.40593 129.864 12.4645 130.299 12.8127L128.235 15.3745C128.148 15.3124 119.461 8.93264 101.812 25.1493C76.4584 48.4421 86.1775 163.078 86.2769 164.234L82.9958 164.52H82.9833Z" fill="#315342"/>
<path d="M43.9705 95.2389C45.1015 100.624 29.8642 98.4598 22.4196 97.0919C21.649 99.7656 21.1519 102.514 20.9406 105.3C24.5449 103.235 29.0191 101.519 30.1501 104.777C31.4302 108.471 25.3527 110.187 20.9033 110.933C21.04 113.371 21.4005 115.821 21.9722 118.283C28.6587 113.097 42.3921 103.223 44.2937 107.986C46.3444 113.134 29.74 120.534 23.3766 123.158C24.4206 126.192 25.7877 129.227 27.478 132.224C30.9828 126.839 38.5518 116.181 41.8329 119.042C45.288 122.039 34.3758 131.95 29.7275 135.905C31.1568 138.069 32.7725 140.22 34.5622 142.334C34.5622 142.334 45.3377 139.959 58.8226 134.475C57.6046 125.583 56.4363 110.112 62.9115 109.839C68.989 109.578 67.8208 122.536 66.3667 131.192C69.5111 129.724 72.7051 128.095 75.8868 126.304C72.2577 121.106 67.0875 112.985 69.3992 112.102C71.6488 111.232 76.5704 118.78 79.6899 124.066C85.0466 120.783 90.2293 117.002 94.803 112.687C87.6566 106.941 71.8476 93.4357 77.5772 90.8863C83.1451 88.399 93.759 102.153 98.5315 108.881C99.8987 107.377 101.191 105.81 102.384 104.18C109.058 95.0897 104.957 89.4437 97.7236 85.9491C93.6595 87.0311 86.8985 88.511 83.3315 87.5907C80.0131 86.7326 82.7598 84.0215 85.2952 82.1188C77.1794 80.5145 69.7348 80.3031 69.7348 80.3031C69.7348 80.3031 63.1726 74.682 55.4172 72.0207C57.7537 76.2614 60.662 82.4297 57.1945 81.6338C53.6772 80.813 51.7383 74.7442 50.8559 70.8642C47.8731 70.4165 44.8654 70.5906 42.1063 71.859C48.2211 76.8708 58.574 86.2476 49.5385 85.6879C41.46 85.1905 38.1043 79.4699 36.7621 75.6023C31.1568 80.328 26.9933 85.8496 24.3211 91.8563C31.5918 90.9982 42.9514 90.451 43.9581 95.2513L43.9705 95.2389Z" fill="#52A56F"/>
<path d="M165.446 87.2673C166.03 92.7392 179.851 85.9615 186.513 82.355C188.079 84.6557 189.396 87.118 190.452 89.7047C186.388 88.8591 181.603 88.6104 181.541 92.0676C181.467 95.9725 187.78 95.7238 192.242 95.0647C192.863 97.4275 193.274 99.865 193.497 102.39C185.531 99.5293 169.423 94.3807 169.088 99.5168C168.727 105.038 186.811 106.941 193.671 107.463C193.622 110.672 193.261 113.98 192.565 117.363C187.569 113.321 177.079 105.536 174.83 109.267C172.468 113.184 185.916 119.228 191.559 121.554C190.863 124.053 189.993 126.59 188.949 129.164C188.949 129.164 177.962 130.246 163.445 129.202C161.854 120.372 158.188 105.3 151.937 107.041C146.083 108.67 151.191 120.633 155.255 128.418C151.812 127.995 148.27 127.436 144.691 126.715C146.53 120.646 148.941 111.331 146.468 111.194C144.057 111.07 141.708 119.763 140.378 125.757C134.263 124.289 128.173 122.3 122.494 119.614C127.515 111.94 138.365 94.2066 132.126 93.5475C126.06 92.9008 120.219 109.279 117.771 117.151C116.006 116.144 114.291 115.049 112.663 113.88C103.515 107.302 105.665 100.673 111.457 95.102C115.658 94.8781 122.543 94.1942 125.65 92.2044C128.546 90.3514 125.091 88.6352 122.083 87.603C129.304 83.5737 136.314 81.0492 136.314 81.0492C136.314 81.0492 140.813 73.6746 147.363 68.7375C146.456 73.4881 145.598 80.2657 148.643 78.4252C151.738 76.5598 151.7 70.1801 151.34 66.2254C154.037 64.8699 156.958 64.1113 159.965 64.4595C155.69 71.1128 148.755 83.2504 157.181 79.9175C164.713 76.9453 166.13 70.4661 166.217 66.3746C173.003 69.1354 178.683 73.1026 183.07 77.99C175.886 79.4201 164.924 82.4296 165.446 87.3046V87.2673Z" fill="#52A56F"/>
<path d="M65.8821 166.099C65.7826 163.699 63.6947 106.929 79.4912 84.3819C83.6423 78.4624 88.3528 75.6269 93.4981 75.9627C105.417 76.7337 114.9 94.592 115.298 95.3506L112.377 96.8802C112.29 96.7061 103.354 79.8925 93.2744 79.2458C89.3595 78.9971 85.6184 81.3599 82.1758 86.2722C67.013 107.911 69.1383 165.391 69.1632 165.963L65.8696 166.099H65.8821Z" fill="#315342"/>
<path d="M32.5359 168.437C32.5359 190.822 41.6708 210.446 55.3918 221.452H106.299C120.02 210.446 129.155 190.822 129.155 168.437C129.155 161.498 128.26 154.845 126.644 148.614H35.034C33.4183 154.845 32.5234 161.51 32.5234 168.437H32.5359Z" fill="#26644D"/>
<path d="M141.41 105.859C139.956 112.736 159.431 109.963 168.952 108.222C169.946 111.642 170.567 115.149 170.841 118.718C166.23 116.082 160.525 113.881 159.083 118.059C157.443 122.785 165.211 124.961 170.903 125.931C170.716 129.04 170.269 132.174 169.548 135.32C160.997 128.692 143.461 116.069 141.025 122.163C138.402 128.742 159.618 138.193 167.758 141.538C166.429 145.418 164.676 149.286 162.514 153.129C158.039 146.239 148.37 132.634 144.169 136.278C139.745 140.108 153.702 152.768 159.643 157.83C157.816 160.603 155.753 163.339 153.466 166.037C153.466 166.037 139.695 163.003 122.457 155.989C124.01 144.635 125.514 124.862 117.224 124.501C109.469 124.165 110.948 140.718 112.8 151.786C108.785 149.908 104.696 147.831 100.632 145.543C105.268 138.902 111.88 128.53 108.922 127.386C106.039 126.279 99.7499 135.917 95.7604 142.682C88.9123 138.479 82.2879 133.654 76.4589 128.132C85.5939 120.783 105.79 103.534 98.4698 100.263C91.3607 97.0793 77.7888 114.664 71.6988 123.27C69.9464 121.342 68.3059 119.34 66.7772 117.263C58.2513 105.648 63.4961 98.4349 72.7304 93.9703C77.9255 95.3507 86.5633 97.2535 91.1121 96.072C95.3502 94.9777 91.833 91.508 88.5891 89.0705C98.9669 87.031 108.475 86.745 108.475 86.745C108.475 86.745 116.851 79.5694 126.769 76.1619C123.787 81.5716 120.07 89.4685 124.495 88.4363C128.994 87.3917 131.467 79.6316 132.598 74.682C136.414 74.0975 140.254 74.3338 143.771 75.9505C135.954 82.355 122.718 94.3434 134.276 93.6221C144.604 92.9879 148.88 85.6755 150.607 80.7384C157.766 86.7823 163.098 93.8335 166.503 101.519C157.207 100.425 142.703 99.7282 141.41 105.859Z" fill="#AAD063"/>
<path d="M126.632 122.287C140.975 139.375 153.44 166.038 153.44 166.038C153.44 166.038 139.67 163.003 122.431 155.989C123.985 144.635 125.489 124.862 117.199 124.501C109.444 124.165 110.923 140.718 112.774 151.786C108.76 149.908 104.671 147.831 100.607 145.543C105.243 138.902 111.855 128.53 108.897 127.386C106.013 126.279 99.7245 135.917 95.735 142.683C88.8869 138.479 82.2625 133.654 76.4335 128.132C85.5685 120.783 105.765 103.534 98.4444 100.263C91.3353 97.0795 77.7634 114.664 71.6735 123.27C69.9211 121.342 68.2805 119.34 66.7518 117.263C58.2259 105.648 63.4707 98.435 72.705 93.9705C77.9001 95.3509 86.5379 97.2536 91.0868 96.0722C95.3249 94.9778 91.8076 91.5081 88.5637 89.0707C98.9415 87.0311 108.449 86.7451 108.449 86.7451C108.449 86.7451 112.24 105.188 126.595 122.287H126.632Z" fill="#85C263"/>
<path d="M41.6089 160.739C31.865 164.284 51.9619 179.555 60.6245 185.674C56.8711 186.917 53.068 187.925 49.327 188.745C42.0688 179.195 31.1317 166.808 25.9739 171.061C21.4127 174.829 31.1069 183.522 40.4406 190.387C36.4387 190.996 32.5734 191.419 28.994 191.693C26.7321 185.612 23.7617 179.729 20.7912 179.854C17.7836 179.978 19.8964 185.985 22.8171 192.066C13.0359 192.476 6.44883 191.929 6.44883 191.929C1.99944 181.06 0.0605658 170.527 0.358849 160.839C6.37423 164.234 15.2233 168.524 15.9069 164.856C16.6277 160.963 6.72225 158.041 0.619874 156.635C0.8933 153.875 1.36558 151.188 2.01186 148.602C8.69837 152.308 21.45 158.973 21.4003 156.076C21.3506 153.725 11.2462 148.428 3.19254 144.585C4.75852 139.921 6.95836 135.618 9.75477 131.738C18.7778 136.29 32.9712 143.006 34.0649 140.854C35.1834 138.628 21.2387 131.838 12.7873 127.97C14.0177 126.59 15.3352 125.272 16.7272 124.04C22.8295 129.475 35.0219 139.449 35.6433 133.069C36.1901 127.436 27.7015 122.685 21.8601 120.111C24.7932 118.158 27.9874 116.479 31.4549 115.111C37.6194 112.674 43.7715 115.77 48.7677 120.073C47.7362 122.921 47.1272 125.943 48.37 127.572C49.9111 129.599 52.459 127.821 54.4103 125.844C57.6914 129.761 59.7794 133.206 59.9161 133.43C59.9161 133.43 65.223 135.407 71.574 138.752C64.4525 139.722 55.0814 141.687 56.7344 145.244C58.4992 149.025 70.1074 145.132 77.5272 142.172C84.7481 146.699 91.6335 152.668 92.5408 159.284C82.5234 155.379 56.2372 146.09 59.4313 157.668C62.4639 168.698 82.424 167.194 91.3228 165.938C90.341 167.84 88.775 169.78 86.5006 171.72C80.5101 176.869 73.5004 180.737 66.18 183.647C61.8425 176.881 48.9417 158.066 41.6089 160.727V160.739Z" fill="#85C263"/>
<path d="M15.9191 164.856C16.64 160.963 6.73448 158.041 0.632102 156.636C0.905528 153.875 1.3778 151.189 2.02408 148.602C8.7106 152.308 21.4622 158.974 21.4125 156.076C21.3628 153.726 11.2584 148.428 3.2048 144.585C4.77079 139.922 6.97063 135.619 9.76703 131.739C18.7901 136.29 32.9834 143.006 34.0771 140.854C35.1957 138.628 21.2509 131.838 12.7996 127.971C14.03 126.59 15.3474 125.272 16.7394 124.041C22.8418 129.475 35.0341 139.449 35.6555 133.069C36.2024 127.436 27.7137 122.685 21.8723 120.111C24.8055 118.158 27.9996 116.48 31.4671 115.112C37.6316 112.674 43.7838 115.771 48.78 120.074C47.7484 122.921 47.1394 125.943 48.3823 127.573C49.9234 129.6 52.4713 127.821 54.4225 125.844C57.7037 129.761 59.7916 133.206 59.9283 133.43C59.9283 133.43 33.841 147.159 25.5139 158.824C17.1744 170.49 6.48594 191.929 6.48594 191.929C2.03655 181.06 0.0976752 170.527 0.395958 160.839C6.41134 164.234 15.2604 168.525 15.944 164.856H15.9191Z" fill="#AAD063"/>
<path d="M72.1452 74.7192C69.7217 71.2619 65.4587 66.0512 61.6928 65.8522C57.5542 65.6284 64.7005 73.1149 68.8641 77.1691C68.8641 77.1691 67.0992 78.3878 65.2722 79.4697C61.8917 73.5377 56.3735 65.4418 52.0732 66.5984C47.7605 67.7549 52.5331 77.3307 56.4853 83.9965C50.9546 86.4464 45.1381 88.4735 39.2097 90.115C39.2097 87.3791 38.8618 84.7426 37.4822 84.7177C35.9535 84.6929 36.1026 87.8641 36.5749 90.8363C32.9582 91.7814 30.4477 92.3162 29.963 92.4281C33.5299 86.4712 38.3646 77.567 35.4564 77.4675C32.5232 77.368 25.9486 87.4039 21.9217 94.0324C13.8432 95.4128 7.45503 96.0843 6.36133 96.1216C6.36133 96.1216 6.57262 92.0302 7.38047 85.7499C13.6817 81.7331 24.8922 74.2466 23.9973 72.2692C23.1646 70.4038 14.0545 75.7638 8.32501 79.3702C9.50571 72.1946 11.3824 63.5515 14.2907 55.1447C24.7927 53.0555 37.9545 49.6356 37.5692 45.7058C37.2088 42.062 27.0423 43.5792 18.1559 45.6311C19.4733 42.8579 20.9275 40.1841 22.5556 37.7094C27.2163 37.9208 36.9478 38.0824 38.1906 35.8813C39.247 34.0158 33.3932 31.4789 29.0681 29.8995C33.0825 26.4298 37.1342 25.2982 40.8752 25.4474C42.466 30.6333 44.8895 36.9134 47.2012 36.7269C49.5254 36.5404 49.5751 31.7276 49.2146 27.8227C54.273 30.4342 57.6287 34.2521 57.6287 34.2521C57.6411 34.2521 57.6785 34.2521 57.6785 34.2521C58.1507 34.1651 61.2827 34.078 63.7932 34.2148C59.6049 42.7709 63.6317 42.2983 69.9453 34.9361C76.4579 36.1922 78.8068 38.269 79.2169 38.3933C80.3479 39.1519 81.2552 39.8733 82.1998 40.9054C75.1031 41.7511 64.7503 43.6165 64.278 47.3225C63.7311 51.6254 78.3843 49.1505 85.4188 47.7204C85.4188 47.7204 85.4188 47.7329 85.4188 47.7453C86.9724 57.7563 80.1491 68.2897 72.1452 74.7316V74.7192Z" fill="#AAD063"/>
<path d="M72.1452 74.7194C69.7217 71.2622 65.4587 66.0514 61.6928 65.8525C57.5542 65.6286 64.7005 73.1151 68.8641 77.1693C68.8641 77.1693 67.0992 78.388 65.2722 79.4699C61.8917 73.5379 56.3735 65.4421 52.0732 66.5986C47.7605 67.7552 52.5331 77.331 56.4853 83.9967C51.1411 86.3969 44.9144 88.5359 39.2097 90.1153C39.2097 87.3793 38.8618 84.7428 37.4822 84.718C35.9535 84.6931 36.1026 87.8643 36.5749 90.8365C32.9582 91.7817 30.4477 92.3164 29.963 92.4284C33.5299 86.4715 38.3646 77.5672 35.4564 77.4678C32.5232 77.3683 25.9486 87.4042 21.9217 94.0326C18.3424 94.642 9.71701 95.9975 6.36133 96.1219C6.36133 96.1219 32.9085 74.3836 44.6907 58.8634C56.4729 43.3432 57.6287 34.2648 57.6287 34.2648C57.6411 34.2648 57.6785 34.2648 57.6785 34.2648C58.1507 34.1778 61.2827 34.0907 63.7932 34.2275C59.6049 42.7835 63.6317 42.311 69.9453 34.9488C76.2963 36.1178 78.8068 38.2817 79.2169 38.406C80.3479 39.1646 81.2552 39.8859 82.1998 40.9181C75.1031 41.7637 64.7503 43.6292 64.278 47.3351C63.7311 51.638 78.3843 49.1632 85.4188 47.7331C85.4188 47.7331 85.4188 47.7455 85.4188 47.7579C86.9724 57.769 80.1491 68.3024 72.1452 74.7443V74.7194Z" fill="#85C263"/>
<path d="M162.115 18.9685C161.742 21.2692 171.312 19.068 175.376 18.0358C177.067 21.9283 177.999 26.1815 178.446 30.5341C171.573 28.0718 158.536 23.8683 157.243 27.0893C155.913 30.3973 171.076 31.5663 178.571 31.9394C178.72 33.7675 178.769 35.5956 178.782 37.4237C173.612 35.894 167.733 34.5634 167.459 36.3169C167.186 38.1077 173.351 39.0528 178.745 39.5378C178.67 42.2613 178.484 44.9475 178.235 47.5591C172.692 48.9644 167.584 50.0836 162.836 50.8671C161.892 49.3747 160.139 46.1414 160.45 43.3557C160.885 39.5751 157.293 34.2276 154.236 35.2349C151.178 36.2547 154.646 41.3659 156.995 45.0843C158.735 47.8327 159.418 50.2702 159.667 51.3521C154.807 52.0361 150.308 52.347 146.07 52.2475C145.623 50.0961 145.15 46.6264 145.983 43.9526C147.276 39.7492 145.399 32.6855 142.453 33.0337C139.508 33.3819 141.335 40.1472 142.516 45.0221C143.249 48.0565 143.386 50.6308 143.373 52.1356C139.583 51.8869 135.991 51.3023 132.498 50.3323C131.516 47.3601 129.602 39.6746 134.089 35.3717C139.732 29.962 138.215 26.3556 138.215 26.3556C138.215 26.3556 129.789 28.507 128.981 36.4164C128.31 42.9577 129.776 48.0938 130.311 49.6732C129.379 49.3748 128.471 49.0514 127.552 48.6908C125.861 46.9124 123.388 43.6666 124.643 41.0426C126.47 37.2123 124.42 35.4961 124.42 35.4961C124.42 35.4961 119.858 37.9957 121.797 42.4105C122.767 44.5993 124.047 46.3901 125.091 47.6586C120.691 45.6937 116.354 43.0697 111.879 39.7244C112.389 37.5978 113.408 34.4888 115.322 31.9891C118.554 27.7733 123.91 23.545 119.063 23.8435C115.173 24.0798 110.86 33.8794 109.319 37.7346C109.083 37.548 108.834 37.3491 108.598 37.1501C102.185 31.9145 103.117 27.1763 106.759 23.3212C109.319 22.8859 112.861 22.1522 116.416 20.9583C121.275 19.3292 116.789 18.496 113.831 18.1477C119.585 14.9641 125.75 13.0863 125.961 13.0241C125.961 13.0241 127.539 10.1016 130.758 7.02989C130.448 9.87775 130.472 13.1485 132.461 12.2282C134.984 11.0592 137.022 5.05257 137.892 2.11766C142.453 0.0159609 148.332 -0.941607 155.59 1.23471C156.833 1.60779 158.014 2.01817 159.132 2.46587C154.522 3.78409 146.207 6.40811 146.468 7.95018C146.741 9.59175 155.727 5.04012 159.953 2.80163C161.879 3.63485 163.619 4.59243 165.198 5.6495C157.641 7.7512 146.977 11.1214 146.368 13.621C145.66 16.5559 160.475 10.7483 167.882 7.68904C170.641 10.0643 172.742 12.8127 174.332 15.8347C170.045 16.1082 162.451 16.8669 162.115 18.9561V18.9685Z" fill="#AAD063"/>
<path d="M160.474 43.3428C160.909 39.5622 157.317 34.2147 154.26 35.2221C151.203 36.2418 154.67 41.3531 157.019 45.0714C158.759 47.8198 159.443 50.2573 159.691 51.3392C154.832 52.0232 150.333 52.3341 146.095 52.2346C145.647 50.0832 145.175 46.6135 146.008 43.9398C147.3 39.7364 145.423 32.6727 142.478 33.0209C139.532 33.3691 141.359 40.1343 142.54 45.0092C143.273 48.0436 143.41 50.6179 143.398 52.1227C139.607 51.874 136.015 51.2895 132.523 50.3195C131.541 47.3472 129.627 39.6618 134.114 35.3589C139.756 29.9492 138.24 26.3427 138.24 26.3427C138.24 26.3427 129.813 28.4941 129.005 36.4035C128.334 42.9449 129.801 48.081 130.335 49.6604C129.403 49.3619 128.496 49.0385 127.576 48.6779C125.886 46.8995 123.413 43.6537 124.668 41.0297C126.495 37.1994 124.444 35.4832 124.444 35.4832C124.444 35.4832 119.883 37.9828 121.822 42.3977C122.791 44.5864 124.071 46.3772 125.115 47.6457C120.716 45.6808 116.378 43.0568 111.904 39.7115C112.413 37.5849 113.432 34.4759 115.346 31.9763C118.578 27.7604 123.935 23.5321 119.087 23.8306C115.197 24.0669 110.885 33.8665 109.344 37.7217C109.107 37.5352 108.859 37.3362 108.623 37.1372C102.21 31.9016 103.142 27.1635 106.783 23.3083C109.344 22.873 112.886 22.1393 116.44 20.9454C121.3 19.3163 116.813 18.4831 113.855 18.1349C119.61 14.9513 125.774 13.0734 125.985 13.0112C125.985 13.0112 135.58 22.7611 149.972 29.7875C167.621 38.4057 178.247 47.5338 178.247 47.5338C172.704 48.939 167.596 50.0583 162.848 50.8418C161.904 49.3494 160.151 46.116 160.462 43.3304L160.474 43.3428Z" fill="#85C263"/>
</svg>
