<svg width="251" height="250" viewBox="0 0 251 250" fill="none" xmlns="http://www.w3.org/2000/svg">
<path d="M116.263 51.863L108.872 73.9039C108.872 73.9039 109.648 65.6019 103.821 41.422C83.6465 26.4469 62.72 18.6484 58.8411 12.1453C45.5409 31.6106 37.7897 63.6691 41.3575 94.2373C50.4966 100.283 61.579 107.099 75.0265 114.609C64.0263 115.367 53.5068 114.131 44.9204 112.449C54.4178 145.873 80.0446 173.642 130.276 174.964C157.539 112.097 140.556 75.1293 116.263 51.863Z" fill="url(#paint0_linear_7010_28904)"/>
<path d="M127.358 172.167C126.303 148.171 112.933 128.047 98.7457 109.845C84.3769 91.3566 71.7661 70.8413 65.6967 47.796C65.4176 46.8267 66.9314 46.3201 67.1992 47.3421C73.4802 70.1565 86.069 90.1432 100.535 108.432C115.089 126.684 129.019 147.478 130.305 171.909C130.438 173.813 127.526 174.161 127.384 172.173L127.358 172.167Z" fill="#315342"/>
<path d="M71.3324 165.486C72.6522 158.048 75.5145 152.189 77.4656 148.051C69.338 152.45 63.5918 158.425 59.5116 164.846C58.2225 164.803 56.9883 164.742 55.6422 164.679C43.8889 164.248 33.1825 158.511 25.5809 150.262C31.0794 142.186 38.3441 137.695 43.0424 134.666C33.3932 134.181 25.1568 136.293 18.2571 139.638C12.1671 127.394 12.2953 112.963 22.7577 101.939C27.6366 96.7983 33.0267 92.8007 38.6978 89.8286C50.6963 94.3252 58.324 102.706 63.102 107.803C61.2676 98.6437 57.5015 90.9589 52.8779 84.6181C73.228 80.0345 94.9445 86.5853 109.716 101.015C135.668 126.368 137.751 169.425 124.453 183.437C113.622 171.783 100.378 167.357 71.3479 165.429L71.3324 165.486Z" fill="url(#paint1_linear_7010_28904)"/>
<path d="M124.316 176.274C115.615 140.892 91.1413 116.556 54.5816 119.404C53.6151 119.479 53.7935 121.029 54.7966 120.956C90.2703 118.664 113.615 142.456 121.524 176.778C121.96 178.688 124.845 178.204 124.316 176.274Z" fill="#315342"/>
<path d="M167.051 120.921C175.034 111.021 185.555 105.411 195.495 102.201C197.821 89.4153 198.482 77.7087 200.649 69.7245C201.786 65.5705 203.24 62.2258 204.853 59.3665C196.103 56.7771 188.172 56.804 182.859 56.777C192.772 50.8968 203.399 49.0895 213.1 49.2244C219.286 43.6138 225.208 40.431 225.974 32.0961C204.641 18.6631 179.819 16.2355 157.137 21.5763C149.313 29.4796 145.321 38.3809 142.73 44.0454C142.122 37.5448 142.73 31.3408 144.131 25.5684C106.779 39.8375 79.2071 75.4699 90.6799 116.011C98.9276 125.668 108.867 130.281 114.974 133.194C108.682 133.814 102.681 133.194 97.0771 131.818C104.03 144.954 115.212 158.36 131.654 171.55C170.989 161.408 185.819 138.157 192.402 115.445C181.563 115.445 172.708 118.844 167.024 120.948L167.051 120.921Z" fill="url(#paint2_linear_7010_28904)"/>
<path d="M130.887 166.992C126.182 113.961 149.867 45.9607 206.095 33.3639C206.518 33.283 206.94 33.5527 207.02 33.9843C207.099 34.4159 206.835 34.8205 206.412 34.9284C165.358 43.7488 141.805 86.2594 135.302 125.722C133.002 139.236 132.42 153.073 133.821 166.695C134.033 168.583 131.072 168.988 130.887 166.992Z" fill="#315342"/>
<path d="M174.23 162.275C172.154 155.008 168.705 149.468 166.339 145.548C174.876 149.1 181.205 154.461 185.923 160.436C187.201 160.262 188.423 160.076 189.755 159.876C201.403 158.252 211.464 151.453 218.179 142.471C211.88 134.993 204.192 131.263 199.208 128.727C208.757 127.263 217.167 128.526 224.374 131.154C229.175 118.349 227.565 104.001 216.026 94.0946C210.645 89.4749 204.872 86.0449 198.926 83.664C187.452 89.3594 180.724 98.4761 176.495 104.034C177.379 94.7323 180.336 86.7016 184.285 79.9212C163.571 77.4297 142.64 86.1578 129.428 102.02C106.214 129.891 108.564 172.951 123.231 185.543C132.809 172.844 145.529 167.092 174.209 162.22L174.23 162.275Z" fill="url(#paint3_linear_7010_28904)"/>
<path d="M122.632 178.4C127.654 142.305 149.501 115.597 186.162 114.713C187.131 114.688 187.113 116.25 186.107 116.278C150.584 117.606 129.805 143.658 125.461 178.619C125.223 180.564 122.304 180.375 122.632 178.4Z" fill="#315342"/>
<path d="M169.262 168.757C169.262 175.889 165.338 250 146.696 250H101.565C82.9233 250 79 175.862 79 168.757H169.262Z" fill="#D9D9D9"/>
<defs>
<linearGradient id="paint0_linear_7010_28904" x1="42.2418" y1="136.507" x2="157.183" y2="80.3716" gradientUnits="userSpaceOnUse">
<stop stop-color="#00EB87"/>
<stop offset="1" stop-color="#0066A6"/>
</linearGradient>
<linearGradient id="paint1_linear_7010_28904" x1="46.7262" y1="171.01" x2="112.472" y2="103.708" gradientUnits="userSpaceOnUse">
<stop stop-color="#00EB87"/>
<stop offset="1" stop-color="#0066A6"/>
</linearGradient>
<linearGradient id="paint2_linear_7010_28904" x1="108.249" y1="149.201" x2="215.609" y2="52.1713" gradientUnits="userSpaceOnUse">
<stop stop-color="#00EB87"/>
<stop offset="1" stop-color="#0066A6"/>
</linearGradient>
<linearGradient id="paint3_linear_7010_28904" x1="108.914" y1="148.193" x2="215.667" y2="155.918" gradientUnits="userSpaceOnUse">
<stop stop-color="#00EB87"/>
<stop offset="1" stop-color="#0066A6"/>
</linearGradient>
</defs>
</svg>
