<svg width="212" height="100" viewBox="0 0 212 100" fill="none" xmlns="http://www.w3.org/2000/svg">
<g filter="url(#filter0_i_3868_21086)">
<path d="M21.8737 0H3.14562C1.41375 0 0.00979003 1.40396 0.00978955 3.13583L0.00976562 87.5499C0.00976562 88.8183 0.773813 89.9617 1.94563 90.4471L23.074 99.1982C24.2458 99.6835 25.5945 99.4152 26.4913 98.5184L47.7922 77.2177C49.0168 75.9931 51.0023 75.9931 52.2269 77.2177L73.5278 98.5184C74.4247 99.4153 75.7734 99.6835 76.9452 99.1982L98.0735 90.4471C99.2454 89.9617 100.009 88.8183 100.009 87.5499L100.009 3.13583C100.009 1.40396 98.6054 0 96.8735 0H78.1455C76.4136 0 75.0096 1.40395 75.0096 3.13582L75.0094 57.0747C75.0094 59.8684 71.6317 61.2675 69.6562 59.2921L52.2269 41.8629C51.0023 40.6383 49.0168 40.6383 47.7922 41.8629L30.3629 59.2921C28.3875 61.2675 25.0097 59.8684 25.0097 57.0747L25.0095 3.13582C25.0095 1.40395 23.6056 0 21.8737 0Z" fill="white"/>
<path d="M131.281 96.8642C131.281 98.596 129.877 100 128.145 100H109.417C107.685 100 106.281 98.596 106.281 96.8642V3.13585C106.281 1.40398 107.685 1.9733e-05 109.417 2.01421e-05L128.145 2.45668e-05C129.877 2.4976e-05 131.281 1.40399 131.281 3.13586L131.281 96.8642Z" fill="white"/>
<path fill-rule="evenodd" clip-rule="evenodd" d="M211.071 26.4816C211.967 25.5847 212.236 24.236 211.75 23.0642L202.999 1.93586C202.514 0.764048 201.37 0 200.102 0H140.689C138.957 0 137.553 1.40396 137.553 3.13583V96.8639C137.553 98.5958 138.957 99.9997 140.689 99.9997H159.417C161.149 99.9997 162.553 98.5958 162.553 96.8639V76.2989C162.553 75.4672 162.883 74.6696 163.471 74.0815L211.071 26.4816ZM171.844 30.3532C173.82 28.3777 172.421 25 169.627 25H165.689C163.957 25 162.553 26.4039 162.553 28.1358V32.0741C162.553 34.8678 165.931 36.2669 167.906 34.2914L171.844 30.3532Z" fill="white"/>
</g>
<defs>
<filter id="filter0_i_3868_21086" x="0.00976562" y="0" width="211.979" height="110" filterUnits="userSpaceOnUse" color-interpolation-filters="sRGB">
<feFlood flood-opacity="0" result="BackgroundImageFix"/>
<feBlend mode="normal" in="SourceGraphic" in2="BackgroundImageFix" result="shape"/>
<feColorMatrix in="SourceAlpha" type="matrix" values="0 0 0 0 0 0 0 0 0 0 0 0 0 0 0 0 0 0 127 0" result="hardAlpha"/>
<feOffset dy="10"/>
<feGaussianBlur stdDeviation="7.5"/>
<feComposite in2="hardAlpha" operator="arithmetic" k2="-1" k3="1"/>
<feColorMatrix type="matrix" values="0 0 0 0 0.0156863 0 0 0 0 0.0862745 0 0 0 0 0.192157 0 0 0 0.3 0"/>
<feBlend mode="normal" in2="shape" result="effect1_innerShadow_3868_21086"/>
</filter>
</defs>
</svg>
