<svg width="24" height="24" viewBox="0 0 24 24" fill="none" xmlns="http://www.w3.org/2000/svg">
<path d="M12 0C8.8174 0 5.76515 1.2577 3.51472 3.49641C1.26428 5.73512 0 8.77147 0 11.9375C0 15.1035 1.26428 18.1398 3.51472 20.3786C5.76515 22.6173 8.8174 23.875 12 23.875C15.1826 23.875 18.2348 22.6173 20.4853 20.3786C22.7357 18.1398 24 15.1035 24 11.9375C24 8.77147 22.7357 5.73512 20.4853 3.49641C18.2348 1.2577 15.1826 0 12 0Z" fill="#039BE5"/>
<path d="M13.9673 15.2265H17.0728L17.5603 12.0882H13.9666V10.373C13.9666 9.06928 14.3949 7.91323 15.6208 7.91323H17.5906V5.17452C17.2445 5.12803 16.5125 5.02625 15.1294 5.02625C12.2412 5.02625 10.5479 6.54356 10.5479 10.0004V12.0882H7.57886V15.2265H10.5479V23.8523C11.1359 23.9403 11.7315 23.9999 12.3429 23.9999C12.8955 23.9999 13.4349 23.9497 13.9673 23.878V15.2265Z" fill="white"/>
</svg>
