<svg width="340" height="394" viewBox="0 0 340 394" fill="none" xmlns="http://www.w3.org/2000/svg">
<path d="M339.008 383.472C339.008 392.446 327.801 396.525 322.033 389.651L261.737 317.792C260.284 316.061 259.488 313.874 259.488 311.614L259.488 113.1C259.488 104.935 249.952 100.488 243.698 105.737L109.176 218.614C102.302 224.382 106.38 235.589 115.354 235.589L188.295 235.589C191.125 235.59 193.812 236.837 195.638 238.999L238.111 289.289C243.389 295.537 238.947 305.103 230.768 305.103L32.6187 305.103C28.2684 305.103 24.4604 302.181 23.3345 297.979L0.604244 213.148C-0.362558 209.54 0.84869 205.699 3.71023 203.298L242.489 2.94215C245.351 0.541114 249.344 0.0153832 252.729 1.59402L333.459 39.2387C336.844 40.8173 339.009 44.2145 339.009 47.9499L339.008 383.472Z" fill="#0065A6"/>
</svg>
