<svg width="104" height="41" viewBox="0 0 104 41" fill="none" xmlns="http://www.w3.org/2000/svg">
<path d="M44.012 0.501631C44.2279 0.501674 44.4029 0.676997 44.4029 0.893254V2.18165C44.4029 2.39794 44.2279 2.57328 44.0119 2.57328H41.8193C41.6034 2.57328 41.4283 2.74861 41.4283 2.9649V17.8745C41.4283 18.0908 41.2533 18.2661 41.0374 18.2661H39.2696C39.0537 18.2661 38.8787 18.0908 38.8787 17.8745V2.9649C38.8787 2.74861 38.7036 2.57328 38.4877 2.57328H36.2953C36.0794 2.57328 35.9043 2.39793 35.9043 2.18163L35.9044 0.891679C35.9044 0.67537 36.0795 0.500035 36.2955 0.500079L44.012 0.501631Z" fill="#0065A6"/>
<path d="M48.5447 15.8012C48.5447 16.0175 48.7197 16.1928 48.9356 16.1928H53.2813C53.4972 16.1928 53.6723 16.3682 53.6723 16.5845V17.8728C53.6723 18.0891 53.4972 18.2644 53.2813 18.2644H46.3577C46.1417 18.2644 45.9667 18.0891 45.9667 17.8728V0.891624C45.9667 0.675336 46.1417 0.5 46.3577 0.5H53.083C53.2989 0.5 53.474 0.675336 53.474 0.891623V2.17994C53.474 2.39623 53.2989 2.57157 53.083 2.57157H48.9356C48.7197 2.57157 48.5447 2.7469 48.5447 2.96319V7.65683C48.5447 7.87311 48.7197 8.04845 48.9356 8.04845H52.2331C52.449 8.04845 52.6241 8.22378 52.6241 8.44007V9.72839C52.6241 9.94468 52.449 10.12 52.2331 10.12H48.9356C48.7197 10.12 48.5447 10.2954 48.5447 10.5116V15.8012Z" fill="#0065A6"/>
<path d="M63.344 0.5C63.5599 0.5 63.735 0.675336 63.735 0.891623V2.17994C63.735 2.39623 63.5599 2.57157 63.344 2.57157H61.1514C60.9354 2.57157 60.7604 2.7469 60.7604 2.96319V17.8728C60.7604 18.0891 60.5854 18.2644 60.3694 18.2644H58.6017C58.3858 18.2644 58.2108 18.0891 58.2108 17.8728V2.96319C58.2108 2.7469 58.0357 2.57157 57.8198 2.57157H55.6271C55.4112 2.57157 55.2362 2.39623 55.2362 2.17994V0.891624C55.2362 0.675336 55.4112 0.5 55.6271 0.5H63.344Z" fill="#0065A6"/>
<path fill-rule="evenodd" clip-rule="evenodd" d="M68.2394 11.0849C68.0235 11.0849 67.8484 11.2602 67.8484 11.4765V17.8728C67.8484 18.0891 67.6734 18.2644 67.4575 18.2644H65.6897C65.4738 18.2644 65.2988 18.0891 65.2988 17.8728V0.891623C65.2988 0.675336 65.4738 0.5 65.6897 0.5H71.1063C72.8627 0.5 73.7409 1.33241 73.7409 2.99723V8.55925C73.7409 9.80734 73.2642 10.5921 72.3107 10.9136C72.0753 10.993 71.9274 11.2462 72.0173 11.4781L74.4408 17.731C74.5402 17.9877 74.3512 18.2644 74.0763 18.2644H72.1713C72.0079 18.2644 71.8618 18.1626 71.8048 18.0092L69.3312 11.3401C69.2743 11.1867 69.1282 11.0849 68.9648 11.0849H68.2394ZM68.2394 2.57157C68.0234 2.57157 67.8484 2.74691 67.8484 2.96319V8.65005C67.8484 8.86633 68.0234 9.04167 68.2394 9.04167H70.3414C70.6813 9.04167 70.908 8.99437 71.0213 8.89978C71.1346 8.78627 71.1913 8.55925 71.1913 8.21872V3.39452C71.1913 3.05399 71.1346 2.83643 71.0213 2.74184C70.908 2.62833 70.6813 2.57157 70.3414 2.57157H68.2394Z" fill="#0065A6"/>
<path fill-rule="evenodd" clip-rule="evenodd" d="M84.1895 18.2644C83.9992 18.2644 83.8366 18.1272 83.8042 17.9393L83.2079 14.4747C83.1756 14.2869 83.0129 14.1496 82.8226 14.1496H79.7463C79.554 14.1496 79.3903 14.2897 79.3602 14.4799L78.8132 17.9341C78.7831 18.1243 78.6194 18.2644 78.4271 18.2644H76.6776C76.4344 18.2644 76.2502 18.0443 76.2927 17.8044L79.2986 0.823249C79.3317 0.636255 79.494 0.5 79.6836 0.5H82.7433C82.9311 0.5 83.0923 0.63371 83.1274 0.818487L86.35 17.7996C86.3957 18.0409 86.2111 18.2644 85.9659 18.2644H84.1895ZM79.7953 11.6255C79.758 11.8632 79.9414 12.0781 80.1815 12.0781H82.3478C82.5903 12.0781 82.7743 11.8592 82.733 11.6198L81.6002 5.05029C81.5249 4.61374 80.8976 4.61838 80.8288 5.05598L79.7953 11.6255Z" fill="#0065A6"/>
<path d="M38.8787 23.0988C38.8787 22.8826 39.0537 22.7072 39.2696 22.7072H41.0373C41.2533 22.7072 41.4283 22.8826 41.4283 23.0988V40.08C41.4283 40.2963 41.2533 40.4716 41.0373 40.4716H39.2696C39.0537 40.4716 38.8787 40.2963 38.8787 40.08V23.0988Z" fill="#0065A6"/>
<path d="M45.2301 40.08C45.2301 40.2963 45.0551 40.4716 44.8392 40.4716H43.3831C43.1672 40.4716 42.9921 40.2963 42.9921 40.08V23.0988C42.9921 22.8826 43.1672 22.7072 43.3831 22.7072H45.499C45.6749 22.7072 45.8291 22.8249 45.8759 22.9947L48.4511 32.3488C48.5566 32.7321 49.0993 32.7321 49.2049 32.3488L51.78 22.9947C51.8268 22.8249 51.981 22.7072 52.1569 22.7072H54.2728C54.4888 22.7072 54.6638 22.8826 54.6638 23.0988V40.08C54.6638 40.2963 54.4888 40.4716 54.2729 40.4716H52.8167C52.6008 40.4716 52.4258 40.2963 52.4258 40.08V30.4587C52.4258 30.0006 51.7751 29.915 51.6571 30.3576L50.0669 36.3217C50.0213 36.4931 49.8663 36.6123 49.6892 36.6123H47.9665C47.7895 36.6123 47.6346 36.4932 47.5888 36.322L45.9987 30.3768C45.8804 29.9344 45.2301 30.0202 45.2301 30.4781V40.08Z" fill="#0065A6"/>
<path fill-rule="evenodd" clip-rule="evenodd" d="M64.6697 25.2045C64.6697 23.5396 63.7915 22.7072 62.0351 22.7072H56.6185C56.4026 22.7072 56.2275 22.8826 56.2275 23.0988V40.08C56.2275 40.2963 56.4026 40.4716 56.6185 40.4716H58.3862C58.6021 40.4716 58.7772 40.2963 58.7772 40.08V33.9959C58.7772 33.7796 58.9522 33.6042 59.1681 33.6042H62.0351C63.7915 33.6042 64.6697 32.7718 64.6697 31.107V25.2045ZM62.12 30.7097V25.6017C62.12 25.2612 62.0634 25.0437 61.95 24.9491C61.8367 24.8356 61.6101 24.7788 61.2701 24.7788H59.1681C58.9522 24.7788 58.7772 24.9541 58.7772 25.1704V31.1694C58.7772 31.3857 58.9522 31.5611 59.1681 31.5611H61.2701C61.6101 31.5611 61.8367 31.5043 61.95 31.3908C62.0634 31.2773 62.12 31.0503 62.12 30.7097Z" fill="#0065A6"/>
<path fill-rule="evenodd" clip-rule="evenodd" d="M72.6113 40.4716C72.421 40.4716 72.2584 40.3344 72.2261 40.1465L71.6297 36.6819C71.5974 36.4941 71.4347 36.3569 71.2445 36.3569H68.1681C67.9759 36.3569 67.8121 36.4969 67.782 36.6871L67.235 40.1413C67.2049 40.3316 67.0412 40.4716 66.8489 40.4716H65.0995C64.8562 40.4716 64.6721 40.2515 64.7145 40.0116L67.7204 23.0305C67.7535 22.8435 67.9158 22.7072 68.1054 22.7072H71.1651C71.3529 22.7072 71.5142 22.8409 71.5492 23.0257L74.7718 40.0069C74.8176 40.2481 74.6329 40.4716 74.3877 40.4716H72.6113ZM68.2172 33.8327C68.1798 34.0704 68.3632 34.2853 68.6034 34.2853H70.7696C71.0121 34.2853 71.1961 34.0664 71.1549 33.827L70.022 27.2575C69.9468 26.821 69.3194 26.8256 69.2506 27.2632L68.2172 33.8327Z" fill="#0065A6"/>
<path d="M84.2714 27.8776C84.2714 28.0939 84.0963 28.2692 83.8804 28.2692H82.056C81.8401 28.2692 81.6651 28.0939 81.6651 27.8776V25.545C81.6651 25.2312 81.617 25.0218 81.5207 24.9169C81.5047 24.8994 81.488 24.8826 81.4706 24.8666C81.3658 24.7702 81.1568 24.722 80.8435 24.722H79.3987C79.0588 24.722 78.8321 24.7788 78.7188 24.8923C78.6055 24.9869 78.5488 25.2045 78.5488 25.545V37.6622C78.5488 38.0028 78.6055 38.2298 78.7188 38.3433C78.8321 38.4379 79.0588 38.4852 79.3987 38.4852H80.8435C81.1835 38.4852 81.4007 38.4379 81.4951 38.3433C81.6084 38.2298 81.6651 38.0028 81.6651 37.6622V35.358C81.6651 35.1417 81.8401 34.9664 82.056 34.9664H83.8804C84.0963 34.9664 84.2714 35.1417 84.2714 35.358V37.9744C84.2714 39.6581 83.3837 40.5 81.6084 40.5H78.6055C76.8491 40.5 75.9709 39.6581 75.9709 37.9744V25.2045C75.9709 23.5396 76.8491 22.7072 78.6055 22.7072H81.6084C83.3837 22.7072 84.2714 23.5396 84.2714 25.2045V27.8776Z" fill="#0065A6"/>
<path d="M93.9431 22.7072C94.159 22.7072 94.334 22.8826 94.334 23.0988V24.3872C94.334 24.6035 94.159 24.7788 93.9431 24.7788H91.7504C91.5345 24.7788 91.3594 24.9541 91.3594 25.1704V40.08C91.3594 40.2963 91.1844 40.4716 90.9685 40.4716H89.2008C88.9848 40.4716 88.8098 40.2963 88.8098 40.08V25.1704C88.8098 24.9541 88.6348 24.7788 88.4188 24.7788H86.2262C86.0103 24.7788 85.8352 24.6035 85.8352 24.3872V23.0988C85.8352 22.8826 86.0103 22.7072 86.2262 22.7072H93.9431Z" fill="#0065A6"/>
<path d="M101.394 37.5771V33.2353C101.394 32.9215 101.346 32.7122 101.249 32.6072C101.233 32.5898 101.217 32.573 101.199 32.5569C101.094 32.4606 100.885 32.4124 100.572 32.4124H98.4758C96.7571 32.4124 95.8978 31.5705 95.8978 29.8868V25.2045C95.8978 23.5396 96.776 22.7072 98.5324 22.7072H101.309C103.065 22.7072 103.943 23.5396 103.943 25.2045V27.4236C103.943 27.6399 103.768 27.8152 103.552 27.8152H101.756C101.54 27.8152 101.365 27.6399 101.365 27.4236V25.6017C101.365 25.2612 101.309 25.0436 101.195 24.9491C101.082 24.8355 100.855 24.7788 100.515 24.7788H99.3257C98.9857 24.7788 98.7591 24.8355 98.6458 24.9491C98.5324 25.0436 98.4758 25.2612 98.4758 25.6017V29.5462C98.4758 29.8868 98.5324 30.1138 98.6458 30.2273C98.7591 30.3219 98.9857 30.3692 99.3257 30.3692H101.394C103.131 30.3692 104 31.2016 104 32.8664V37.9744C104 39.6392 103.112 40.4716 101.337 40.4716H98.5891C96.8327 40.4716 95.9545 39.6392 95.9545 37.9744V35.7553C95.9545 35.539 96.1295 35.3636 96.3454 35.3636H98.1415C98.3574 35.3636 98.5324 35.539 98.5324 35.7553V37.5771C98.5324 37.9176 98.5891 38.1447 98.7024 38.2582C98.8157 38.3528 99.0424 38.4001 99.3823 38.4001H100.572C100.912 38.4001 101.129 38.3528 101.224 38.2582C101.337 38.1447 101.394 37.9176 101.394 37.5771Z" fill="#0065A6"/>
<path d="M32.7186 40.1195L26.5872 32.8C26.4395 32.6236 26.3585 32.4008 26.3585 32.1706L26.3585 11.9498C26.3585 11.1182 25.3889 10.6652 24.7529 11.1998L11.0737 22.6976C10.3747 23.2852 10.7894 24.4267 11.7019 24.4267L19.1191 24.4267C19.4069 24.4267 19.6801 24.5538 19.8658 24.7741L24.1848 29.8966C24.7214 30.5331 24.2698 31.5074 23.4381 31.5074L3.28881 31.5074C2.84643 31.5074 2.45921 31.2098 2.34472 30.7818L0.0333409 22.1409C-0.0649706 21.7733 0.058198 21.382 0.349181 21.1374L24.63 0.729091C24.9209 0.48452 25.327 0.430968 25.6713 0.591769L33.8804 4.42629C34.2247 4.58709 34.4448 4.93312 34.4448 5.31362L34.4447 39.4902C34.4447 40.4043 33.3051 40.8197 32.7186 40.1195Z" fill="#0065A6"/>
</svg>
